<svg xmlns="http://www.w3.org/2000/svg" xmlns:xlink="http://www.w3.org/1999/xlink" width="166.097" height="155.567" viewBox="0 0 166.097 155.567"><defs><linearGradient id="a" x1="0.707" y1="0.084" x2="0.707" y2="1.522" gradientUnits="objectBoundingBox"><stop offset="0" stop-color="#e8e6e6"/><stop offset="1" stop-color="#fff" stop-opacity="0"/></linearGradient></defs><g transform="translate(-0.058)" style="mix-blend-mode:darken;isolation:isolate"><circle cx="77.783" cy="77.783" r="77.783" transform="translate(4.927)" fill="#fafafa"/><path d="M106.864,42.32,50.214,57.172V124.82l56.65-20.9Z" transform="translate(32.851 27.718)" fill="#e00" fill-rule="evenodd"/><path d="M50.214,51.294,71.358,84.21l35.5-11.3V65.934Z" transform="translate(32.851 33.596)" fill="#c40000" fill-rule="evenodd"/><path d="M106.863,42.32,133.3,64.972,72.267,86.259,50.215,57.172Z" transform="translate(32.851 27.718)" fill="#fab6b5" fill-rule="evenodd"/><path d="M95.067,46.378l16.379,14.031L67.166,75.855" transform="translate(43.954 30.376)" fill="none" stroke="#efefef" stroke-linecap="round" stroke-linejoin="round" stroke-width="1.73" fill-rule="evenodd" opacity="0.604"/><path d="M16.035,46.461l56.65,14.85,56.565-14.85L72.6,36Z" transform="translate(10.464 23.579)" fill="#fff" fill-rule="evenodd"/><path d="M16.035,46.461l56.65,14.85,56.565-14.85L72.6,36Z" transform="translate(10.464 23.579)" fill="#fff" fill-rule="evenodd"/><path d="M54.836,64.354v34.87L96.569,84.659" transform="translate(35.878 42.15)" fill="none" stroke="#efefef" stroke-linecap="round" stroke-linejoin="round" stroke-width="1.73" fill-rule="evenodd"/><path d="M15.977,10.461,72.627,0V25.311Z" transform="translate(10.522 59.579)" fill-rule="evenodd" fill="url(#a)"/><path d="M16.274,47.094,72.444,36.17l18.9,3.187" transform="translate(10.621 23.69)" fill="none" stroke="#efefef" stroke-linecap="round" stroke-width="1.04" fill-rule="evenodd"/><g transform="translate(0.058 70.038)"><path d="M16.035,42.32l56.65,14.852V124.82l-56.65-20.9Z" transform="translate(10.406 -42.32)" fill="#c40000" fill-rule="evenodd"/><path d="M72.685,51.294,51.539,84.21l-35.5-11.3V65.934Z" transform="translate(10.406 -36.442)" fill="#930000" fill-rule="evenodd"/><path d="M26.5,42.32.058,64.973,61.092,86.259,83.149,57.17Z" transform="translate(-0.058 -42.32)" fill="#f56d6d" fill-rule="evenodd"/><path d="M16.706,67.556V86.985l54.867,20.889" transform="translate(10.846 -25.791)" fill="none" stroke="#efefef" stroke-linecap="round" stroke-linejoin="round" stroke-width="1.56" fill-rule="evenodd"/></g><path d="M66.7,34.17V11M97.319,42.547,108.9,22.482M36.085,42.547,24.5,22.482" transform="translate(16.009 7.205)" fill="none" stroke="#6a6e73" stroke-linecap="round" stroke-width="2" fill-rule="evenodd"/></g></svg>