<svg xmlns="http://www.w3.org/2000/svg" width="155.567" height="155.567" viewBox="0 0 155.567 155.567"><g transform="translate(-1541.82 -382.433)"><circle cx="77.783" cy="77.783" r="77.783" transform="translate(1541.82 382.433)" fill="#fafafa"/><g transform="translate(19294.277 -4464)"><g transform="translate(-17744.779 4877.853)"><circle cx="14.389" cy="14.389" r="14.389" transform="translate(0.161 46.674)" fill="#dbf0f7"/><path d="M111.821,53.234H8.694V31.455H112.225Z" transform="translate(5.616 22.218)" fill="#e4e4e4"/><path d="M12.134,27.51A14.41,14.41,0,1,0,24.485,52.281,14.381,14.381,0,0,1,12.134,27.51Z" transform="translate(-0.308 19.432)" fill="#e4e4e4" fill-rule="evenodd"/><path d="M26.293,41.755A14.337,14.337,0,0,0,9.234,27.606,14.362,14.362,0,0,0,21.585,52.377,14.341,14.341,0,0,0,26.293,41.755Z" transform="translate(2.64 19.315)" fill="#fff"/><circle cx="37.726" cy="37.726" r="37.726" transform="translate(35.355 0)" fill="#e4e4e4"/><path d="M60.961,36.107A24.243,24.243,0,0,1,71.082,16.379,24.3,24.3,0,1,0,92.471,59.313,24.311,24.311,0,0,1,60.961,36.107Z" transform="translate(37.612 11.569)" fill="none" fill-rule="evenodd"/><circle cx="25.78" cy="25.78" r="25.78" transform="translate(14.31 21.855)" fill="#e4e4e4"/><path d="M64.594.8a37.6,37.6,0,0,0-13.223,2.4A37.857,37.857,0,0,0,35.8,23a25.842,25.842,0,0,0-12.091.892A25.773,25.773,0,0,0,46.459,69.5a25.677,25.677,0,0,0,3.808-3.3,37.74,37.74,0,0,0,34.542,4.179A37.74,37.74,0,0,0,64.594.8Z" transform="translate(8.487 0.568)" fill="#fff"/><circle cx="24.298" cy="24.298" r="24.298" transform="translate(91.608 26.857)" fill="#fff"/><path d="M99.713,40.038A24.311,24.311,0,0,0,68.2,16.831,24.3,24.3,0,0,0,89.585,59.765,24.27,24.27,0,0,0,99.713,40.038Z" transform="translate(40.498 11.117)" fill="#fff"/><path d="M85.4,59.765A24.3,24.3,0,0,0,64.007,16.831" transform="translate(44.687 11.117)" fill="none" stroke="#e00" stroke-linecap="round" stroke-width="1.072"/></g><path d="M34.333,55.65c-6.767-.373-12.972,6.161-13.919,12.217A14.41,14.41,0,0,0,34.51,84.5H135.254" transform="translate(-17765.02 4868.877)" fill="none" stroke="#e00" stroke-linecap="round" stroke-width="1.072" fill-rule="evenodd"/><path d="M53.047,41.6C42.305,41.174,29.415,52.5,28.5,65.559" transform="translate(-17759.186 4858.953)" fill="none" stroke="#e00" stroke-linecap="round" stroke-width="1.072"/><path d="M112.94,56.239c-3.994-15.314-18.852-27.948-35.613-27.948a37.015,37.015,0,0,0-34.442,22.7" transform="translate(-17749.025 4849.563)" fill="none" stroke="#e00" stroke-linecap="round" stroke-width="1.072"/></g></g></svg>