<svg xmlns="http://www.w3.org/2000/svg" width="48.376" height="55.914" viewBox="0 0 48.376 55.914"><path d="M13.569,70.916,37.455,57.268,61.76,71.343,37.479,85.063Z" transform="translate(-13.384 -52.539)" fill="#acb8bf" style="mix-blend-mode:multiply;isolation:isolate"/><g transform="translate(0 0)"><path d="M42.027,42.313,41.972,14.17,17.714.237V28.246Z" transform="translate(6.331 -0.174)" fill="#ebecec" opacity="0.75"/><path d="M.189,14.181.133,42.071,24.185,28.233,24.162.272Z" transform="translate(-0.117 -0.161)" fill="#d1d1d1" opacity="0.75"/><path d="M.255,34.378,24.141,20.729,48.446,34.813,24.165,48.524Z" transform="translate(-0.073 7.342)" fill="#dcdcdc" opacity="0.75"/><path d="M.849,10.776,23.343,23.72l.135,27.391L.826,38V11.678ZM.122,10.42V38.412L24.213,52.353l-.142-29.092L1.593,10.42Z" transform="translate(-0.122 3.561)" fill="#fff"/><path d="M24.213,1.046,46.952,14.171,24.095,27.06,1.585,14.171,24.213,1.046Zm0-.839L.122,14.171,24.095,27.9,48.424,14.171,24.213.191Z" transform="translate(-0.122 -0.191)" fill="#fff"/></g></svg>