<svg xmlns="http://www.w3.org/2000/svg" xmlns:xlink="http://www.w3.org/1999/xlink" width="264" height="176" viewBox="0 0 264 176">
  <defs>
    <style>
      .cls-1 {
        fill: url(#linear-gradient);
      }

      .cls-2 {
        fill: #fff;
        stroke: #151515;
      }

      .cls-3 {
        fill: #0070e0;
      }

      .cls-4 {
        stroke: none;
      }

      .cls-5 {
        fill: none;
      }
    </style>
    <linearGradient id="linear-gradient" x2="0.989" y2="0.978" gradientUnits="objectBoundingBox">
      <stop offset="0" stop-color="#e2eaf6"/>
      <stop offset="1" stop-color="#e8e4f6"/>
    </linearGradient>
  </defs>
  <g id="Group_3383" data-name="Group 3383" transform="translate(-1168 -269)">
    <rect id="Image_placeholder" data-name="Image placeholder" class="cls-1" width="251" height="167" rx="4" transform="translate(1181 278)"/>
    <g id="Group_3338" data-name="Group 3338" transform="translate(-85 81)">
      <g id="Group_3337" data-name="Group 3337" transform="translate(-5085.5 -12880)">
        <g id="Rectangle_1275" data-name="Rectangle 1275" class="cls-2" transform="translate(6338.5 13068)">
          <rect class="cls-4" width="251" height="167" rx="4"/>
          <rect class="cls-5" x="0.5" y="0.5" width="250" height="166" rx="3.5"/>
        </g>
        <g id="Rectangle_1276" data-name="Rectangle 1276" class="cls-2" transform="translate(6351.5 13080)">
          <rect class="cls-4" width="60" height="8" rx="4"/>
          <rect class="cls-5" x="0.5" y="0.5" width="59" height="7" rx="3.5"/>
        </g>
        <g id="Ellipse_113" data-name="Ellipse 113" class="cls-2" transform="translate(6570.5 13080)">
          <circle class="cls-4" cx="4" cy="4" r="4"/>
          <circle class="cls-5" cx="4" cy="4" r="3.5"/>
        </g>
        <g id="Ellipse_114" data-name="Ellipse 114" class="cls-2" transform="translate(6550.5 13080)">
          <circle class="cls-4" cx="4" cy="4" r="4"/>
          <circle class="cls-5" cx="4" cy="4" r="3.5"/>
        </g>
        <g id="Ellipse_115" data-name="Ellipse 115" class="cls-2" transform="translate(6560.5 13080)">
          <circle class="cls-4" cx="4" cy="4" r="4"/>
          <circle class="cls-5" cx="4" cy="4" r="3.5"/>
        </g>
      </g>
      <path id="Icon-Red_Hat-Objects-Shield-A-Red-RGB" class="cls-3" d="M31.306,62.082A22.964,22.964,0,0,0,54.2,40.867V13.111a1.768,1.768,0,0,0-1.368-1.721L31.613,6.321a1.627,1.627,0,0,0-.825,0L9.568,11.39a1.792,1.792,0,0,0-1.368,1.7V40.556A22.588,22.588,0,0,0,10.982,50.1v.118A23.059,23.059,0,0,0,31.306,62.082Zm0-3.537a19.593,19.593,0,0,1-15.844-8.111l34.99-7.71A19.428,19.428,0,0,1,31.306,58.546ZM11.949,14.5,31.306,9.787,50.758,14.5V18.44L11.9,26.857Zm0,16.057,38.809-8.417v17L13.576,47.228a18.721,18.721,0,0,1-1.721-6.767Z" transform="translate(1346.8 237.732)"/>
    </g>
  </g>
</svg>
