<svg xmlns="http://www.w3.org/2000/svg" width="224.555" height="141.142" viewBox="0 0 224.555 141.142"><g transform="translate(-1199 -1072)"><path d="M1016,324.256h-.379V313.866a6.013,6.013,0,0,0-6.013-6.013H987.6a6.013,6.013,0,0,0-6.013,6.013v57a6.013,6.013,0,0,0,6.013,6.013h22.011a6.013,6.013,0,0,0,6.013-6.013V331.651H1016Z" transform="translate(407.555 805.713)" fill="#3f3d56"/><path d="M1020.818,321.542v56.913a4.491,4.491,0,0,1-4.491,4.491H994.21a4.49,4.49,0,0,1-4.489-4.491V321.542a4.489,4.489,0,0,1,4.489-4.489h2.683a2.135,2.135,0,0,0,1.975,2.938h12.61a2.13,2.13,0,0,0,1.975-2.938h2.873a4.491,4.491,0,0,1,4.491,4.489Z" transform="translate(401.078 798.39)" fill="#d0cde1"/><rect width="25.71" height="6.938" transform="translate(1391.998 1144.581)" fill="#e00"/><path d="M1027.107,459.2h-24.894a.613.613,0,0,1-.612-.612v-6.121a.613.613,0,0,1,.612-.612h24.894a.613.613,0,0,1,.612.612v6.121A.613.613,0,0,1,1027.107,459.2Zm-24.894-6.938a.2.2,0,0,0-.2.2v6.121a.2.2,0,0,0,.2.2h24.894a.2.2,0,0,0,.2-.2v-6.121a.2.2,0,0,0-.2-.2Z" transform="translate(391.621 691.095)" fill="#3f3d56"/><rect width="3.265" height="0.408" transform="translate(1394.855 1148.458)" fill="#3f3d56"/><rect width="3.265" height="0.408" transform="translate(1399.344 1148.458)" fill="#3f3d56"/><rect width="3.265" height="0.408" transform="translate(1403.833 1148.458)" fill="#3f3d56"/><rect width="3.265" height="0.408" transform="translate(1408.322 1148.458)" fill="#3f3d56"/><rect width="3.265" height="0.408" transform="translate(1412.811 1148.458)" fill="#3f3d56"/><path d="M1020.818,508.347v5.787a4.491,4.491,0,0,1-4.491,4.491H994.21a4.49,4.49,0,0,1-4.489-4.491V487.513Z" transform="translate(401.078 662.711)" opacity="0.1"/><rect width="96.514" height="47.339" transform="translate(1219.375 1165.803)" fill="#d0cde1"/><path d="M221.579,611.193h-71.57a.409.409,0,0,1-.408-.408V564.262a.409.409,0,0,1,.408-.408h.906Z" transform="translate(1069.773 601.95)" opacity="0.1"/><rect width="149.567" height="0.408" transform="translate(1264.06 1172.128)" fill="#3f3d56"/><path d="M179.281,105.028H136.535v-.881H117.152v.881H74.23a2.891,2.891,0,0,0-2.891,2.891v58.532a2.891,2.891,0,0,0,2.891,2.891H179.281a2.891,2.891,0,0,0,2.891-2.891V107.919A2.891,2.891,0,0,0,179.281,105.028Z" transform="translate(1132.067 967.854)" fill="#3f3d56"/><rect width="103.079" height="58.15" transform="translate(1207.282 1077.99)" fill="#d0cde1"/><ellipse cx="1.057" cy="1.057" rx="1.057" ry="1.057" transform="translate(1257.676 1074.292)" fill="#e00"/><path d="M228.662,225.526h-2.449a.613.613,0,0,1-.612-.612v-2.449a.613.613,0,0,1,.612-.612h2.449a.613.613,0,0,1,.612.612v2.449A.613.613,0,0,1,228.662,225.526Zm-2.449-3.265a.2.2,0,0,0-.2.2v2.449a.2.2,0,0,0,.2.2h2.449a.2.2,0,0,0,.2-.2v-2.449a.2.2,0,0,0-.2-.2Z" transform="translate(1009.281 874.164)" fill="#3f3d56"/><rect width="46.523" height="0.408" transform="translate(1235.086 1099.283)" fill="#3f3d56"/><rect width="10.815" height="3.265" transform="translate(1269.57 1110.504)" fill="#e00"/><path d="M411.211,290.526h-10a.613.613,0,0,1-.612-.612v-2.449a.613.613,0,0,1,.612-.612h10a.613.613,0,0,1,.612.612v2.449A.613.613,0,0,1,411.211,290.526Zm-10-3.265a.2.2,0,0,0-.2.2v2.449a.2.2,0,0,0,.2.2h10a.2.2,0,0,0,.2-.2v-2.449a.2.2,0,0,0-.2-.2Z" transform="translate(869.989 822.428)" fill="#3f3d56"/><rect width="20.405" height="14.283" transform="translate(1342.619 1114.177)" fill="#e00"/><path d="M784.006,316.453H764.417a.817.817,0,0,1-.816-.816V302.17a.817.817,0,0,1,.816-.816h19.589a.817.817,0,0,1,.816.816v13.467A.817.817,0,0,1,784.006,316.453ZM764.417,302.17v13.467h19.589V302.17Z" transform="translate(581.058 810.887)" fill="#3f3d56"/><path d="M793.7,273.4h-.816a6.734,6.734,0,1,0-13.467,0H778.6a7.55,7.55,0,1,1,15.1,0Z" transform="translate(569.119 839.141)" fill="#3f3d56"/><path d="M809.681,322.384a2.04,2.04,0,1,0-3.121,1.729v2.19a1.08,1.08,0,0,0,1.08,1.08h0a1.08,1.08,0,0,0,1.08-1.08v-2.19A2.037,2.037,0,0,0,809.681,322.384Z" transform="translate(547.629 795.775)" fill="#3f3d56"/><rect width="3.265" height="0.408" transform="translate(1257.021 1186.82)" fill="#3f3d56"/><rect width="3.265" height="0.408" transform="translate(1261.509 1186.82)" fill="#3f3d56"/><rect width="3.265" height="0.408" transform="translate(1265.999 1186.82)" fill="#3f3d56"/><rect width="3.265" height="0.408" transform="translate(1270.488 1186.82)" fill="#3f3d56"/><rect width="3.265" height="0.408" transform="translate(1274.977 1186.82)" fill="#3f3d56"/><path d="M267.115,591.009h-95.7a.817.817,0,0,1-.816-.816V543.67a.817.817,0,0,1,.816-.816h95.7a.817.817,0,0,1,.816.816v46.523a.817.817,0,0,1-.816.816Zm-95.7-47.339v46.523h95.7V543.67Z" transform="translate(1053.058 618.663)" fill="#3f3d56"/><ellipse cx="1.224" cy="1.224" rx="1.224" ry="1.224" transform="translate(1227.536 1166.822)" fill="#3f3d56"/><ellipse cx="1.224" cy="1.224" rx="1.224" ry="1.224" transform="translate(1231.821 1166.822)" fill="#3f3d56"/><ellipse cx="1.224" cy="1.224" rx="1.224" ry="1.224" transform="translate(1236.106 1166.822)" fill="#3f3d56"/><path d="M343.76,649.015H316.213a.613.613,0,0,1-.612-.612v-6.938a.613.613,0,0,1,.612-.612H343.76a.613.613,0,0,1,.612.612V648.4A.613.613,0,0,1,343.76,649.015Zm-27.546-7.754a.2.2,0,0,0-.2.2V648.4a.2.2,0,0,0,.2.2H343.76a.2.2,0,0,0,.2-.2v-6.938a.2.2,0,0,0-.2-.2Z" transform="translate(937.645 540.663)" fill="#3f3d56"/><ellipse cx="3.673" cy="3.673" rx="3.673" ry="3.673" transform="translate(1284.669 1182.535)" fill="#e00"/><path d="M478.478,649.607a3.877,3.877,0,1,1,3.877-3.877A3.877,3.877,0,0,1,478.478,649.607Zm0-7.346a3.469,3.469,0,1,0,3.469,3.469,3.469,3.469,0,0,0-3.469-3.469Z" transform="translate(811.089 539.865)" fill="#3f3d56"/><path d="M436.412,538.931l-1.975-1.976.577-.577,1.289,1.289,3.6-5.113.667.47Z" transform="translate(853.209 648.112)" fill="#3f3d56"/><path d="M120.816,104.691H40.591V50.947Z" transform="translate(1166.691 1031.449)" opacity="0.1"/><path d="M167.883,409.91h-10.06v-.725a.144.144,0,0,0-.144-.144H154.23a.144.144,0,0,0-.144.144v.725H151.93v-.725a.144.144,0,0,0-.144-.144h-3.449a.144.144,0,0,0-.144.144v.725h-2.156v-.725a.144.144,0,0,0-.144-.144h-3.449a.144.144,0,0,0-.144.144v.725h-2.156v-.725a.144.144,0,0,0-.144-.144h-3.449a.144.144,0,0,0-.144.144v.725h-2.156v-.725a.144.144,0,0,0-.144-.144h-3.449a.144.144,0,0,0-.144.144v.725h-2.156v-.725a.144.144,0,0,0-.144-.144h-3.449a.144.144,0,0,0-.144.144v.725h-2.156v-.725a.144.144,0,0,0-.144-.144H95.307a.144.144,0,0,0-.144.144v.725H93.008v-.725a.144.144,0,0,0-.144-.144H89.415a.144.144,0,0,0-.144.144v.725H87.115v-.725a.144.144,0,0,0-.144-.144H83.522a.144.144,0,0,0-.144.144v.725H81.223v-.725a.144.144,0,0,0-.144-.144H77.63a.144.144,0,0,0-.144.144v.725H75.331v-.725a.144.144,0,0,0-.144-.144H71.738a.144.144,0,0,0-.144.144v.725H69.438v-.725a.144.144,0,0,0-.144-.144H65.846a.144.144,0,0,0-.144.144v.725H63.546v-.725a.144.144,0,0,0-.144-.144H59.953a.144.144,0,0,0-.144.144v.725H53.2a3.449,3.449,0,0,0-3.449,3.449v1.56a3.449,3.449,0,0,0,3.449,3.449H167.883a3.449,3.449,0,0,0,3.449-3.449v-1.56A3.449,3.449,0,0,0,167.883,409.91Z" transform="translate(1149.25 725.172)" fill="#3f3d56"/><path d="M262.082,229.523H208.213a.613.613,0,0,1-.612-.612V206.466a.613.613,0,0,1,.612-.612h53.869a.613.613,0,0,1,.612.612v22.445A.613.613,0,0,1,262.082,229.523Zm-53.869-23.262a.2.2,0,0,0-.2.2v22.445a.2.2,0,0,0,.2.2h53.869a.2.2,0,0,0,.2-.2V206.466a.2.2,0,0,0-.2-.2Z" transform="translate(1023.608 886.899)" fill="#3f3d56"/><path d="M228.662,255.526h-2.449a.613.613,0,0,1-.612-.612v-2.449a.613.613,0,0,1,.612-.612h2.449a.613.613,0,0,1,.612.612v2.449A.613.613,0,0,1,228.662,255.526Zm-2.449-3.265a.2.2,0,0,0-.2.2v2.449a.2.2,0,0,0,.2.2h2.449a.2.2,0,0,0,.2-.2v-2.449a.2.2,0,0,0-.2-.2Z" transform="translate(1009.281 850.287)" fill="#3f3d56"/><rect width="46.523" height="0.408" transform="translate(1235.086 1105.406)" fill="#3f3d56"/><rect width="149.567" height="0.408" transform="translate(1253.042 1127.033)" fill="#3f3d56"/><ellipse cx="2.857" cy="2.857" rx="2.857" ry="2.857" transform="translate(1250.185 1124.176)" fill="#3f3d56"/><ellipse cx="2.245" cy="2.245" rx="2.245" ry="2.245" transform="translate(1400.364 1125.198)" fill="#3f3d56"/><ellipse cx="2.245" cy="2.245" rx="2.245" ry="2.245" transform="translate(1411.383 1170.293)" fill="#3f3d56"/><ellipse cx="2.245" cy="2.245" rx="2.245" ry="2.245" transform="translate(1262.428 1170.293)" fill="#3f3d56"/></g></svg>