<svg xmlns="http://www.w3.org/2000/svg" width="38.31" height="46.484" viewBox="0 0 38.31 46.484"><path d="M27.443,52.751A19.125,19.125,0,0,0,46.509,35.082V11.967a1.473,1.473,0,0,0-1.139-1.433L27.7,6.312a1.355,1.355,0,0,0-.687,0L9.339,10.533A1.492,1.492,0,0,0,8.2,11.947V34.823a18.811,18.811,0,0,0,2.317,7.953v.1A19.2,19.2,0,0,0,27.443,52.751Zm0-2.945a16.317,16.317,0,0,1-13.2-6.755l29.14-6.421A16.18,16.18,0,0,1,27.443,49.805ZM11.322,13.125,27.443,9.2l16.2,3.927V16.4l-32.36,7.01Zm0,13.372,32.321-7.01V33.645L12.677,40.38a15.591,15.591,0,0,1-1.433-5.636Z" transform="translate(-8.2 -6.267)" fill="#3e8635"/></svg>