<?xml version="1.0" encoding="utf-8"?>
<!-- Generator: Adobe Illustrator 25.3.1, SVG Export Plug-In . SVG Version: 6.00 Build 0)  -->
<svg version="1.1" id="Layer_1" xmlns="http://www.w3.org/2000/svg" xmlns:xlink="http://www.w3.org/1999/xlink" x="0px" y="0px"
	 viewBox="0 0 36 36" style="enable-background:new 0 0 36 36;" xml:space="preserve">
<style type="text/css">
	.st0{fill-rule:evenodd;clip-rule:evenodd;fill:#F5F5F5;}
	.st1{fill-rule:evenodd;clip-rule:evenodd;fill:#CC0000;}
	.st2{opacity:0.1;fill-rule:evenodd;clip-rule:evenodd;enable-background:new    ;}
	.st3{fill-rule:evenodd;clip-rule:evenodd;fill:#FDB797;}
	.st4{opacity:8.000000e-02;fill-rule:evenodd;clip-rule:evenodd;fill:#231F20;enable-background:new    ;}
</style>
<path class="st0" d="M36,18c0,5.3-2.3,10.1-6,13.4c-0.7,0.7-1.5,1.3-2.4,1.8c-1.1,0.7-2.3,1.3-3.6,1.8c-0.6,0.2-1.2,0.4-1.8,0.5
	C20.8,35.8,19.4,36,18,36s-2.8-0.2-4.2-0.5c-0.2,0-0.3-0.1-0.5-0.1c-1.1-0.3-2.1-0.7-3.1-1.2c-1.5-0.7-2.9-1.7-4.2-2.8
	C2.3,28.1,0,23.3,0,18C0,8.1,8,0,18,0S36,8.1,36,18z"/>
<g>
	<g transform="translate(5.04 6.88)">
		<path class="st1" d="M24.9,24.5c-0.7,0.7-1.5,1.3-2.4,1.8c-1.1,0.7-2.3,1.3-3.6,1.8c-0.6,0.2-1.2,0.4-1.8,0.5
			c-1.4,0.3-2.7,0.5-4.2,0.5s-2.8-0.2-4.2-0.5c-0.2,0-0.3-0.1-0.5-0.1c-1.1-0.3-2.1-0.7-3.1-1.2c-1.5-0.7-2.9-1.7-4.2-2.8
			c0.5-2.8,1.3-5.5,2.3-6.8c1-1.4,2.2-2.2,3.4-2.6c0,0,1.6-0.7,6.1-0.7s5.1,0.2,6.3,0.6s2.4,1.2,3.5,2.6
			C23.7,19,24.4,21.7,24.9,24.5z"/>
		<path class="st2" d="M22.5,26.3c-1.1,0.7-2.3,1.3-3.6,1.8l-1.2-5.4c3.3,0,4.7,0.7,4.8,2.8C22.5,25.6,22.5,25.9,22.5,26.3z"/>
		<path class="st3" d="M12.7,12.7c-3.5,0-6.4-2.9-6.4-6.4s2.9-6.4,6.4-6.4s6.4,2.9,6.4,6.4S16.3,12.7,12.7,12.7z"/>
		<path class="st4" d="M9.4,6.3c0-3,2.1-5.5,4.9-6.3c-0.5-0.1-1-0.2-1.6-0.2c-3.5,0-6.4,2.9-6.4,6.4s2.9,6.4,6.4,6.4
			c0.6,0,1.1-0.1,1.6-0.2C11.5,11.8,9.4,9.3,9.4,6.3z"/>
		<path class="st2" d="M8.3,21.9l0,6.6c-1.1-0.3-2.1-0.7-3.1-1.2l0.1-1.9C5.4,23.3,6.3,22.3,8.3,21.9z"/>
	</g>
</g>
</svg>
