<svg xmlns="http://www.w3.org/2000/svg" xmlns:xlink="http://www.w3.org/1999/xlink" width="569.001" height="437.947" viewBox="0 0 569.001 437.947"><defs><style>.a,.j{fill:#c00;}.a,.e,.k{opacity:0.1;}.b{fill:#d6d6e3;}.c{fill:#aebee1;}.d{fill:#535461;}.f{fill:#e3edf9;}.g{fill:url(#a);}.h{fill:#f8b9bf;}.i{fill:#d9dfe8;}.l{fill:#68739d;}.m{fill:#6394e2;}.n{fill:#b96b6b;}.o{fill:none;stroke:#535461;stroke-miterlimit:10;stroke-width:2px;}.p{fill:url(#b);}.q{fill:#fa595f;}.r{fill:#f37291;}.s{fill:#96a2d0;}</style><linearGradient id="a" x1="0.531" y1="1.017" x2="0.531" y2="-0.007" gradientUnits="objectBoundingBox"><stop offset="0" stop-color="gray" stop-opacity="0.251"/><stop offset="0.54" stop-color="gray" stop-opacity="0.122"/><stop offset="1" stop-color="gray" stop-opacity="0.102"/></linearGradient><linearGradient id="b" x1="0.5" y1="1" x2="0.5" y2="0.001" xlink:href="#a"/></defs><g transform="translate(0.007 0)"><path class="a" d="M572.842,266.658c-20.965,31.537-15.659,75.372-5.1,110.092,3.554,11.623,7.571,23.905,5.184,36.751-2.92,15.71-14.821,27.81-27.023,34.583-22.235,12.354-48.044,11.338-67.192-2.635-16.548-12.08-27.795-32.689-44.683-44.175-28.226-19.153-65.917-8.906-98.464,7.555-23.027,11.633-48.308,26.469-70.131,17.162-15.355-6.55-25.307-24.19-30.252-43.236-2.386-9.2-3.95-19.214-9.038-26.307a33.738,33.738,0,0,0-11.318-9.46c-38.442-21.7-89.162-5.661-126.355-30.064-25.1-16.451-40.032-49.527-45.607-84.638s-2.828-72.457.9-109.209C46.4,96.965,50.2,69.028,64.765,48.093c15.41-22.143,40.407-31.572,62.454-28.917s41.433,15.806,58.306,31.684c21.087,19.8,40.3,44.916,67.075,51.791,18.234,4.7,37.884.289,57.047-2.031,32.039-3.834,63.79-1.7,95.326.833,30.2,2.427,60.586,5.276,88.944,15.624,20.067,7.322,35.716,21.9,54.528,31.6,12.262,6.322,25.921,7.428,37.412,15.74,14.156,10.231,26.667,28.785,21.747,51.71C602.927,237.959,583.967,249.9,572.842,266.658Z" transform="translate(-39.7 -18.74)"/><rect class="a" width="20.762" height="31.43" transform="translate(447.23 130.199)"/><rect class="a" width="16.726" height="25.317" transform="translate(449.245 133.256)"/><rect class="a" width="31.887" height="31.43" transform="translate(405.086 108.365)"/><rect class="a" width="25.687" height="25.317" transform="translate(408.183 111.422)"/><rect class="a" width="97.464" height="2.595" transform="translate(32.808 61.601)"/><rect class="a" width="97.464" height="2.595" transform="translate(32.808 74.29)"/><rect class="b" width="9.957" height="111.27" transform="translate(197.225 229.826)"/><path class="c" d="M955.736,384.423V281.785A10.79,10.79,0,0,1,966.526,271h0a10.79,10.79,0,0,1,10.77,10.785V406a10.79,10.79,0,0,1-10.79,10.79H899.68A10.79,10.79,0,0,1,888.89,406h0a10.79,10.79,0,0,1,10.79-10.79h45.267a10.79,10.79,0,0,0,10.79-10.79Z" transform="translate(-457.711 -142.913)"/><path class="d" d="M955.736,384.423V281.785A10.79,10.79,0,0,1,966.526,271h0a10.79,10.79,0,0,1,10.77,10.785V406a10.79,10.79,0,0,1-10.79,10.79H899.68A10.79,10.79,0,0,1,888.89,406h0a10.79,10.79,0,0,1,10.79-10.79h45.267a10.79,10.79,0,0,0,10.79-10.79Z" transform="translate(-457.711 -142.913)"/><path class="b" d="M888.92,405.424a10.79,10.79,0,0,1,10.775-10.211h45.267a10.79,10.79,0,0,0,10.79-10.79V281.785A10.79,10.79,0,0,1,966.023,271V405.424Z" transform="translate(-457.725 -142.913)"/><path class="c" d="M211.3,391.238V288.6a10.79,10.79,0,0,0-10.764-10.79h0a10.79,10.79,0,0,0-10.79,10.79V412.818a10.79,10.79,0,0,0,10.79,10.815h66.821a10.79,10.79,0,0,0,10.79-10.79h0a10.79,10.79,0,0,0-10.79-10.79H222.1A10.79,10.79,0,0,1,211.3,391.238Z" transform="translate(-113.564 -146.265)"/><path class="d" d="M211.3,391.238V288.6a10.79,10.79,0,0,0-10.764-10.79h0a10.79,10.79,0,0,0-10.79,10.79V412.818a10.79,10.79,0,0,0,10.79,10.815h66.821a10.79,10.79,0,0,0,10.79-10.79h0a10.79,10.79,0,0,0-10.79-10.79H222.1A10.79,10.79,0,0,1,211.3,391.238Z" transform="translate(-113.564 -146.265)"/><path class="b" d="M289.088,412.254a10.79,10.79,0,0,0-10.775-10.211H233.052a10.79,10.79,0,0,1-10.795-10.79V288.615A10.789,10.789,0,0,0,212,277.84l0,134.413Z" transform="translate(-124.517 -146.28)"/><rect class="b" width="9.957" height="113.865" transform="translate(394.22 229.826)"/><rect class="e" width="9.957" height="8.226" transform="translate(197.225 229.826)"/><rect class="e" width="9.957" height="8.226" transform="translate(394.22 229.826)"/><path class="e" d="M496.221,337.92q-.239,2.63-.6,5.331H494.21V337.92Z" transform="translate(-263.432 -175.854)"/><path class="d" d="M537.019,393.311a3.072,3.072,0,0,1-2.879,3.28H503.751v-3.168h25.286a1.589,1.589,0,0,0,1.224-2.376l-22.93-46.638a2.031,2.031,0,0,0-1.777-1.148H494.21V337.93h14.324a1.422,1.422,0,0,1,1.244.8l26.287,50.776A8.631,8.631,0,0,1,537.019,393.311Z" transform="translate(-263.432 -175.859)"/><path class="d" d="M464.421,338.68l-.416.7-3.895-2.6,12.049-92.651h3.1s.127.427.335,1.239C477.673,253.376,487.874,298.724,464.421,338.68Z" transform="translate(-246.647 -129.687)"/><path class="e" d="M475.592,245.369,464.421,338.68l-.416.7-3.895-2.6,12.049-92.651h3.1S475.383,244.572,475.592,245.369Z" transform="translate(-246.647 -129.687)"/><rect class="b" width="96.113" height="7.362" transform="translate(209.938 208.916) rotate(-83.17)"/><path class="f" d="M400.883,446.233a.873.873,0,0,1-.868.868h-1.3a.868.868,0,0,1-.868-.868.422.422,0,0,1,0-.1.868.868,0,0,1,.858-.762h1.3a.873.873,0,0,1,.838.66A.8.8,0,0,1,400.883,446.233Z" transform="translate(-215.997 -228.746)"/><path class="f" d="M408.556,446.233a.873.873,0,0,1-.868.868h-1.3a.868.868,0,0,1-.868-.868.853.853,0,0,1,.036-.239.818.818,0,0,1,.218-.371.848.848,0,0,1,.609-.254h1.3a.873.873,0,0,1,.8.508A.894.894,0,0,1,408.556,446.233Z" transform="translate(-219.775 -228.746)"/><path class="f" d="M415.376,446.228a.873.873,0,0,1-.868.868h-1.3a.868.868,0,0,1-.868-.868.823.823,0,0,1,.076-.36.884.884,0,0,1,.787-.508h1.3a.863.863,0,0,1,.868.868Z" transform="translate(-223.132 -228.741)"/><path class="f" d="M423.057,446.233a.873.873,0,0,1-.868.868h-1.3a.868.868,0,0,1-.711-1.366l.1-.112a.848.848,0,0,1,.609-.254h1.3a.873.873,0,0,1,.63.279A.838.838,0,0,1,423.057,446.233Z" transform="translate(-226.914 -228.746)"/><path class="e" d="M400.858,446.66a.8.8,0,0,1,.025.208.873.873,0,0,1-.868.868h-1.3a.868.868,0,0,1-.868-.868.422.422,0,0,1,0-.1Z" transform="translate(-215.997 -229.381)"/><path class="e" d="M408.485,446.39a.894.894,0,0,1,.071.34.873.873,0,0,1-.868.868h-1.3a.868.868,0,0,1-.868-.868.852.852,0,0,1,.036-.239Z" transform="translate(-219.775 -229.248)"/><path class="e" d="M415.254,446.16a.866.866,0,0,1-.736,1.325h-1.3a.868.868,0,0,1-.868-.868.823.823,0,0,1,.076-.361Z" transform="translate(-223.137 -229.134)"/><path class="e" d="M423.057,446.5a.873.873,0,0,1-.868.868h-1.3a.868.868,0,0,1-.711-1.366l2.64-.091a.838.838,0,0,1,.239.589Z" transform="translate(-226.914 -229.011)"/><path class="b" d="M417,450.211H391.89v-1.142a1.955,1.955,0,0,1,1.889-1.955l20.138-.7A2.986,2.986,0,0,1,417,449.4Z" transform="translate(-213.066 -229.261)"/><path class="d" d="M685.309,393.311a3.072,3.072,0,0,0,2.879,3.28h30.4v-3.168H693.276a1.589,1.589,0,0,1-1.224-2.376l22.93-46.638a2.031,2.031,0,0,1,1.777-1.148h11.348V337.93H713.795a1.422,1.422,0,0,0-1.224.8L686.284,389.5A8.63,8.63,0,0,0,685.309,393.311Z" transform="translate(-357.499 -175.859)"/><path class="d" d="M780.527,338.68l.416.7,3.895-2.6L772.789,244.13h-3.1s-.127.427-.335,1.239C767.27,253.376,757.049,298.724,780.527,338.68Z" transform="translate(-396.899 -129.687)"/><path class="e" d="M773.23,245.369,784.4,338.68l.416.7,3.894-2.6L776.667,244.13h-3.1S773.438,244.572,773.23,245.369Z" transform="translate(-400.778 -129.687)"/><rect class="b" width="7.362" height="96.113" transform="translate(372.725 114.352) rotate(-6.83)"/><path class="f" d="M860,446.233a.873.873,0,0,0,.868.868h1.3a.868.868,0,0,0,.868-.868.416.416,0,0,0,0-.1.868.868,0,0,0-.858-.762h-1.3a.873.873,0,0,0-.838.66.8.8,0,0,0-.041.2Z" transform="translate(-443.49 -228.746)"/><path class="f" d="M852.328,446.233a.873.873,0,0,0,.868.868h1.3a.868.868,0,0,0,.868-.868.859.859,0,0,0-.036-.239.817.817,0,0,0-.218-.371.848.848,0,0,0-.609-.254h-1.325a.873.873,0,0,0-.8.508A.893.893,0,0,0,852.328,446.233Z" transform="translate(-439.713 -228.746)"/><path class="f" d="M845.51,446.228a.873.873,0,0,0,.868.868h1.3a.868.868,0,0,0,.868-.868.822.822,0,0,0-.076-.36.884.884,0,0,0-.787-.508h-1.3a.863.863,0,0,0-.868.868Z" transform="translate(-436.357 -228.741)"/><path class="f" d="M837.83,446.233a.873.873,0,0,0,.868.868H840a.868.868,0,0,0,.711-1.366l-.1-.112a.848.848,0,0,0-.609-.254h-1.3a.873.873,0,0,0-.63.279A.838.838,0,0,0,837.83,446.233Z" transform="translate(-432.577 -228.746)"/><path class="e" d="M860.025,446.66a.806.806,0,0,0-.025.208.873.873,0,0,0,.868.868h1.3a.868.868,0,0,0,.868-.868.416.416,0,0,0,0-.1Z" transform="translate(-443.49 -229.381)"/><path class="e" d="M852.4,446.39a.893.893,0,0,0-.071.34.873.873,0,0,0,.868.868h1.3a.868.868,0,0,0,.868-.868.856.856,0,0,0-.036-.239Z" transform="translate(-439.714 -229.248)"/><path class="e" d="M845.632,446.16a.866.866,0,0,0,.736,1.325h1.3a.868.868,0,0,0,.868-.868.822.822,0,0,0-.076-.361Z" transform="translate(-436.352 -229.134)"/><path class="e" d="M837.83,446.5a.873.873,0,0,0,.868.868H840a.868.868,0,0,0,.711-1.366l-2.64-.091a.837.837,0,0,0-.239.589Z" transform="translate(-432.577 -229.011)"/><path class="b" d="M822.485,450.211h25.109v-1.142a1.955,1.955,0,0,0-1.889-1.955l-20.138-.7a2.986,2.986,0,0,0-3.087,2.981Z" transform="translate(-425.021 -229.261)"/><path class="g" d="M908.677,344.189c11.714-19.869,7.469-59.946,7.941-60.713.421-.675-1.193-19.549-11.958-24.159-1.945-3.854-3.859-8.2-3.859-8.2a3.416,3.416,0,0,1-.619.462q-.127-.345-.249-.7c-.137-.4-.264-.812-.391-1.224a7.892,7.892,0,0,0,.919.234,3.828,3.828,0,0,0,2.458-.218,2.737,2.737,0,0,0,.706-.543,5.351,5.351,0,0,0,1.711-2.539l3.133-7.5a58.409,58.409,0,0,0,3.585-10.384,29.236,29.236,0,0,0-1.249-16.177,10.321,10.321,0,0,0-3.509-5.118c-3.488-2.366-8.342-.731-12.328-2.117-1.31-.457-2.493-1.229-3.8-1.7a11.7,11.7,0,0,0-8.744.792c-2.722,1.264-4.925,3.275-7.307,5.078-1.173.9-3.047,1.828-4.428,3.047-1.341,1.046-2.371,2.31-2.173,3.976.223,1.9,2.229,3.047,4.1,3.493.31.071.63.127.944.183a18.279,18.279,0,0,0,7.8,30.364,42.825,42.825,0,0,1,2.468,5.55q.137.391.269.787a31.691,31.691,0,0,0-5.966,2c-1.457,1.208,1.594,11.79,1.594,11.79-.777.985-1.569,2.107-2.371,3.311A71.365,71.365,0,0,0,866.1,304.721c-.508,4.016-1.168,8.124-2.006,12.029l-36.391-7.3-.076.9-.868-.213h0l-2.732-.675-.107.614-.416-.2c-6.768-3.173-18.173-7.225-25.9-3.047-8.149,4.387,9.439,10.216,20.727,13.318a18.337,18.337,0,0,0-10.155,3.184c-8.185,6.134,14.964,9.328,25.9,10.46l.442.046v.234l3.788.35.889.081.086,1.351s5.423.889,12.669,1.965a220.977,220.977,0,0,1-25.591,4.336,18.724,18.724,0,0,0-15.954,13.43,11.943,11.943,0,0,0-.183,6.459c2.112,7.378-.467,61.652-1.051,73.341l-13.379,7.7s-20.818,2.539-6.951,7.418a28.517,28.517,0,0,0,3.823,1.016c-1.828,1.178-1.67,2.716,3.717,4.605,13.877,4.864,46.135-.213,46.135-.213s-.706-5.717-1.853-10.47l.355.03s-3.331-12.394,1.721-18.645-.848-53.822-.848-53.822,8.845-3.661,35.284-3.9c21.326,5.474,31.72-14.121,31.572-24.25A5.394,5.394,0,0,1,908.677,344.189Z" transform="translate(-406.118 -109.474)"/><path class="h" d="M842.538,412.97l-2.26,9.14s-2.031-.457-5.078-1.239c-10.318-2.671-32.08-9.084-23.357-13.791,7.52-4.062,18.594-.112,25.17,2.97,2.407,1.132,4.214,2.148,5.022,2.625C842.375,412.869,842.538,412.97,842.538,412.97Z" transform="translate(-418.792 -209.045)"/><path class="e" d="M866.5,420.148l-1.625,6.6s-2.031-.457-5.078-1.239l1.833-10.82c2.407,1.132,4.214,2.148,5.022,2.625Z" transform="translate(-443.391 -213.644)"/><path class="i" d="M827.2,408.215l-6.306-1.559,1.96-11.557,5.042,1.244Z" transform="translate(-404.08 -194.485)"/><path class="e" d="M830.672,408.85l-2.722-.67,1.026-11.79,2.391.589Z" transform="translate(-407.555 -195.12)"/><path class="j" d="M931.93,344.255s-12.11-7-17.492,13.075-5.89,29.318-5.89,29.318L870.3,379,869.09,392.97s40.89,13.2,46.033,12.242,21.834-28.942,21.834-28.942S952.129,354.583,931.93,344.255Z" transform="translate(-447.964 -178.391)"/><g class="k" transform="translate(391.034 165.191)"><path d="M842.538,412.97l-2.26,9.14s-2.031-.457-5.078-1.239c-10.318-2.671-32.08-9.084-23.357-13.791,7.52-4.062,18.594-.112,25.17,2.97,2.407,1.132,4.214,2.148,5.022,2.625C842.375,412.869,842.538,412.97,842.538,412.97Z" transform="translate(-809.826 -374.236)"/><path class="e" d="M866.5,420.148l-1.625,6.6s-2.031-.457-5.078-1.239l1.833-10.82c2.407,1.132,4.214,2.148,5.022,2.625Z" transform="translate(-834.425 -378.835)"/><path d="M827.2,408.215l-6.306-1.559,1.96-11.557,5.042,1.244Z" transform="translate(-795.114 -359.676)"/><path class="e" d="M830.672,408.85l-2.722-.67,1.026-11.79,2.391.589Z" transform="translate(-798.59 -360.311)"/><path d="M931.93,345.255s-12.11-7-17.492,13.075-5.89,29.318-5.89,29.318L870.3,380,869.09,393.97s40.89,13.2,46.033,12.242,21.834-28.942,21.834-28.942S952.129,355.583,931.93,345.255Z" transform="translate(-838.998 -344.075)"/></g><path class="l" d="M814.978,650.813l-15.614,8.992s-20.229,2.478-6.753,7.2,44.8-.208,44.8-.208-1.742-14.075-4.169-16.04S814.978,650.813,814.978,650.813Z" transform="translate(-408.039 -329.423)"/><path class="m" d="M899.356,452.775s-7.769,4.062-21.569,7.571a216.174,216.174,0,0,1-25.21,4.3,18.183,18.183,0,0,0-15.5,13.014,11.6,11.6,0,0,0-.178,6.3c2.3,8.038-1.132,73.376-1.132,73.376l23.712,2.194s-3.234-12.039,1.676-18.107-.823-52.253-.823-52.253,8.591-3.554,34.263-3.788c23.783,6.093,33.583-19.94,29.912-27.236S899.356,452.775,899.356,452.775Z" transform="translate(-431.563 -232.276)"/><g class="k" transform="translate(379.942 220.266)"><path d="M814.978,650.813l-15.614,8.992s-20.229,2.478-6.753,7.2,44.8-.208,44.8-.208-1.742-14.075-4.169-16.04S814.978,650.813,814.978,650.813Z" transform="translate(-787.982 -549.689)"/><path d="M899.356,452.775s-7.769,4.062-21.569,7.571a216.174,216.174,0,0,1-25.21,4.3,18.183,18.183,0,0,0-15.5,13.014,11.6,11.6,0,0,0-.178,6.3c2.3,8.038-1.132,73.376-1.132,73.376l23.712,2.194s-3.234-12.039,1.676-18.107-.823-52.253-.823-52.253,8.591-3.554,34.263-3.788c23.783,6.093,33.583-19.94,29.912-27.236S899.356,452.775,899.356,452.775Z" transform="translate(-811.505 -452.542)"/></g><path class="l" d="M829.4,661.563l-15.614,8.992s-20.219,2.458-6.753,7.2,44.8-.208,44.8-.208-1.742-14.075-4.169-16.04S829.4,661.563,829.4,661.563Z" transform="translate(-415.142 -334.715)"/><path class="m" d="M908.969,496.114c-25.672.234-34.263,3.788-34.263,3.788s5.733,46.206.823,52.253-1.676,18.107-1.676,18.107l-23.712-2.193s.041-.772.107-2.153c.569-11.353,3.072-64.059,1.016-71.223a11.6,11.6,0,0,1,.178-6.276,18.188,18.188,0,0,1,15.492-13.044,210.023,210.023,0,0,0,25.205-4.3l.4-.1c13.557-3.483,21.173-7.469,21.173-7.469s21.483-1.93,25.154,5.367a8.633,8.633,0,0,1,.751,3.681C939.795,482.4,929.69,501.431,908.969,496.114Z" transform="translate(-438.636 -237.559)"/><path class="h" d="M863.721,438.562l-.868,9.393s-2.087-.147-5.189-.472c-10.6-1.1-33.075-4.2-25.129-10.155,6.834-5.118,18.371-2.884,25.332-.812,2.539.762,4.489,1.5,5.357,1.848C863.543,438.485,863.721,438.562,863.721,438.562Z" transform="translate(-429.15 -223.247)"/><path class="h" d="M993.475,299s-3.179,2.488-7.063,5.22c-4.26.965-9.206,1.762-12.77,2.28,1.274-4.062.508-8.632-.929-12.638a47.571,47.571,0,0,0-6.372-11.719l21.488-6.707c-1.686,4.27-.924,9.14.508,13.374A44.1,44.1,0,0,0,993.475,299Z" transform="translate(-495.835 -145.094)"/><path class="e" d="M889.454,443.447l-.625,6.748s-2.087-.147-5.189-.472l.2-10.973c2.539.762,4.489,1.5,5.357,1.848Z" transform="translate(-455.126 -225.487)"/><path class="i" d="M851.249,431.388l-6.469-.6.213-11.719,5.174.477Z" transform="translate(-415.84 -206.284)"/><path class="e" d="M999.652,311.936s-3.179,2.488-7.063,5.22c-4.26.965-9.206,1.762-12.77,2.28,1.274-4.062.508-8.632-.929-12.638,5.25-1.523,12.76-3.493,15.629-5.078A44.1,44.1,0,0,0,999.652,311.936Z" transform="translate(-502.012 -158.035)"/><path class="i" d="M989.619,302.22s3.595,8.16,5.859,11.846-26.312,7.109-26.312,7.109-2.965-10.272-1.549-11.45S987.228,304.606,989.619,302.22Z" transform="translate(-496.275 -158.281)"/><path class="e" d="M980.77,472.559a25.708,25.708,0,0,1-4.448,5.758c-12.623,11.993-33.314-.508-42.652-7.342,13.557-3.483,21.173-7.469,21.173-7.469s21.483-1.929,25.154,5.367a8.633,8.633,0,0,1,.772,3.686Z" transform="translate(-479.753 -237.559)"/><path class="j" d="M971.825,404.943c-14.349,13.628-39.1-4.418-45.769-9.734-1.082-.863-1.686-1.4-1.686-1.4,2.635-2.468,4.951-7.7,6.784-14.1a123.7,123.7,0,0,0,3.691-18.675,69.309,69.309,0,0,1,10.927-29.871c.777-1.168,1.523-2.26,2.3-3.214,5.418-6.89,14.522-11.267,14.522-11.267,19.214-5.616,21.8,22.885,21.285,23.707S988.5,389.1,971.825,404.943Z" transform="translate(-475.175 -165.043)"/><path class="e" d="M973.683,383.977s-12.354,30.161-17.294,31.882c-2.828.98-17.934-.878-30.333-2.651-1.082-.863-1.686-1.4-1.686-1.4,2.635-2.468,4.951-7.7,6.784-14.1l15.969.762s-.889-9.211,1.457-29.866,15.35-15.537,15.35-15.537C985.443,360.28,973.683,383.977,973.683,383.977Z" transform="translate(-475.175 -183.038)"/><path class="e" d="M854.094,431.634l-2.793-.259-.741-11.805,2.452.223Z" transform="translate(-418.685 -206.53)"/><path class="j" d="M947.607,350.456s-13-5.113-15.35,15.537S930.8,395.86,930.8,395.86L891.84,394l.878,13.994s42.4,6.961,47.343,5.245,17.294-31.882,17.294-31.882S969.1,357.656,947.607,350.456Z" transform="translate(-459.163 -181.749)"/><path class="e" d="M986.255,285.011c-.569-3.087,2.656-3.047,3.813-5.951l-21.488,6.707a47.418,47.418,0,0,1,3.981,6.332,17.823,17.823,0,0,0,3.417.66C981.1,293.247,982.7,288.2,986.255,285.011Z" transform="translate(-496.937 -146.881)"/><circle class="h" cx="17.751" cy="17.751" r="17.751" transform="translate(460.211 142.391) rotate(-84.72)"/><path class="e" d="M949.577,223.729c.218,1.848,2.168,2.975,3.981,3.392s3.778.437,5.367,1.406c2.539,1.564,3.224,5.037,2.9,8.023-.178,1.686-.432,3.752.95,4.732a3.68,3.68,0,0,0,1.422.508,13.333,13.333,0,0,0,4.377.152,6.223,6.223,0,0,1,2.539-.066,3.863,3.863,0,0,1,2.376,3.143c.259,1.356.117,2.767.325,4.133a8.581,8.581,0,0,0,6.763,6.977,3.722,3.722,0,0,0,2.386-.213,4.77,4.77,0,0,0,1.874-2.6l3.047-7.291a56.808,56.808,0,0,0,3.483-10.084,28.394,28.394,0,0,0-1.214-15.71,10.068,10.068,0,0,0-3.407-4.971c-3.387-2.3-8.124-.711-11.973-2.031-1.274-.442-2.422-1.193-3.691-1.645a11.369,11.369,0,0,0-8.495.772c-2.645,1.234-4.783,3.179-7.109,4.951C953.466,218.875,949.2,220.535,949.577,223.729Z" transform="translate(-487.571 -113.413)"/><path class="n" d="M950.5,222.959c.218,1.848,2.168,2.975,3.981,3.392s3.778.437,5.367,1.406c2.539,1.564,3.224,5.037,2.9,8.023-.178,1.686-.432,3.752.95,4.732a3.681,3.681,0,0,0,1.422.508,13.335,13.335,0,0,0,4.377.152,6.224,6.224,0,0,1,2.539-.066,3.863,3.863,0,0,1,2.376,3.143c.259,1.356.117,2.767.325,4.133a8.581,8.581,0,0,0,6.763,6.977,3.722,3.722,0,0,0,2.386-.213,4.77,4.77,0,0,0,1.874-2.6l3.047-7.291a56.8,56.8,0,0,0,3.483-10.084,28.393,28.393,0,0,0-1.214-15.71,10.068,10.068,0,0,0-3.407-4.971c-3.387-2.3-8.124-.711-11.973-2.031-1.274-.442-2.422-1.193-3.691-1.645a11.369,11.369,0,0,0-8.495.772c-2.645,1.234-4.783,3.179-7.109,4.951C954.392,218.1,950.122,219.765,950.5,222.959Z" transform="translate(-488.025 -113.034)"/><path class="e" d="M962.079,373.34s-6.779,26.332-13.527,28.77-3.768,3.128-3.768,3.128" transform="translate(-484.901 -193.289)"/><rect class="b" width="7.368" height="48.425" transform="translate(470.129 276.514)"/><rect class="e" width="7.368" height="3.59" transform="translate(470.129 276.514)"/><path class="b" d="M936.57,560.511v1.016a2.381,2.381,0,0,0,2.381,2.381h32.08a2.381,2.381,0,0,0,2.381-2.381v-1.016a2.381,2.381,0,0,0-2.381-2.381h-32.08A2.381,2.381,0,0,0,936.57,560.511Z" transform="translate(-481.181 -284.251)"/><path class="e" d="M937.65,559H973.4a2.371,2.371,0,0,0-1.838-.868h-32.08A2.371,2.371,0,0,0,937.65,559Z" transform="translate(-481.712 -284.251)"/><rect class="b" width="60.53" height="5.788" rx="2.894" transform="translate(443.553 322.304)"/><circle class="d" cx="3.686" cy="3.686" r="3.686" transform="translate(496.975 328.092)"/><circle class="d" cx="3.686" cy="3.686" r="3.686" transform="translate(443.284 328.092)"/><circle class="d" cx="3.686" cy="3.686" r="3.686" transform="translate(470.129 328.092)"/><rect class="b" width="57.9" height="8.947" rx="4.473" transform="translate(465.986 217.036)"/><path class="e" d="M972.968,653.5s-2.894,2.859-7.368,0" transform="translate(-495.471 -331.196)"/><path class="e" d="M1015.339,455.17v.706a3.681,3.681,0,0,1-3.681,3.681H961.121a3.681,3.681,0,0,1-3.681-3.681v-.706Z" transform="translate(-491.454 -233.57)"/><rect class="b" width="9.957" height="126.868" transform="translate(417.597 229.826)"/><rect class="e" width="9.957" height="8.226" transform="translate(417.597 229.826)"/><rect class="b" width="7.368" height="48.425" transform="translate(118.274 279.977)"/><rect class="e" width="7.368" height="3.59" transform="translate(118.274 279.977)"/><path class="b" d="M280.453,567.361v1.016a2.381,2.381,0,0,1-2.381,2.381h-32.08a2.381,2.381,0,0,1-2.381-2.381v-1.016A2.381,2.381,0,0,1,245.991,565h32.08a2.381,2.381,0,0,1,2.381,2.381Z" transform="translate(-140.076 -287.632)"/><path class="e" d="M280.436,565.843H244.68a2.371,2.371,0,0,1,1.838-.843H278.6A2.371,2.371,0,0,1,280.436,565.843Z" transform="translate(-140.603 -287.632)"/><rect class="b" width="60.53" height="5.788" rx="2.894" transform="translate(91.693 325.767)"/><circle class="d" cx="3.686" cy="3.686" r="3.686" transform="translate(91.429 331.555)"/><circle class="d" cx="3.686" cy="3.686" r="3.686" transform="translate(145.114 331.555)"/><circle class="d" cx="3.686" cy="3.686" r="3.686" transform="translate(118.269 331.555)"/><path class="e" d="M272.64,660.32s2.894,2.859,7.368,0" transform="translate(-154.366 -334.553)"/><path class="o" d="M632.566,323.361s-8.266-15.025-5.245-28.084a25.982,25.982,0,0,0-1.447-16.37A43.692,43.692,0,0,0,622,271.93" transform="translate(-326.336 -143.371)"/><path class="j" d="M618.541,252.644c.432,1.97-1.879,8.464-1.879,8.464s-4.819-4.925-5.255-6.9a3.651,3.651,0,1,1,7.109-1.569Z" transform="translate(-321.044 -132.331)"/><path class="j" d="M635.116,269.715c-.706,1.889-6.174,6.093-6.174,6.093s-1.371-6.753-.66-8.632a3.651,3.651,0,1,1,6.839,2.539Z" transform="translate(-329.328 -139.79)"/><path class="j" d="M641.353,305.156c-1.564,1.274-8.4,2.133-8.4,2.133s2.229-6.52,3.793-7.794a3.651,3.651,0,1,1,4.611,5.662Z" transform="translate(-331.726 -156.536)"/><path class="j" d="M641.271,334.634c-1.325,1.523-7.921,3.524-7.921,3.524s1.092-6.8,2.417-8.322a3.651,3.651,0,1,1,5.5,4.8Z" transform="translate(-331.923 -171.217)"/><path class="j" d="M613.442,283.973c1.716,1.061,8.607,1.016,8.607,1.016s-3.047-6.179-4.763-7.241a3.651,3.651,0,1,0-3.844,6.2Z" transform="translate(-321.231 -145.939)"/><path class="j" d="M612.476,317.76c1.955.508,8.52-1.584,8.52-1.584s-4.758-4.986-6.713-5.484a3.651,3.651,0,0,0-1.808,7.068Z" transform="translate(-320.366 -162.412)"/><path class="j" d="M617.234,351.083c1.838.823,8.667-.122,8.667-.122s-3.849-5.717-5.687-6.54a3.651,3.651,0,1,0-2.981,6.667Z" transform="translate(-322.926 -178.897)"/><path class="j" d="M618.541,252.644c.432,1.97-1.879,8.464-1.879,8.464s-4.819-4.925-5.255-6.9a3.651,3.651,0,1,1,7.109-1.569Z" transform="translate(-321.044 -132.331)"/><path class="j" d="M635.116,269.715c-.706,1.889-6.174,6.093-6.174,6.093s-1.371-6.753-.66-8.632a3.651,3.651,0,1,1,6.839,2.539Z" transform="translate(-329.328 -139.79)"/><path class="j" d="M641.353,305.156c-1.564,1.274-8.4,2.133-8.4,2.133s2.229-6.52,3.793-7.794a3.651,3.651,0,1,1,4.611,5.662Z" transform="translate(-331.726 -156.536)"/><path class="j" d="M641.271,334.634c-1.325,1.523-7.921,3.524-7.921,3.524s1.092-6.8,2.417-8.322a3.651,3.651,0,1,1,5.5,4.8Z" transform="translate(-331.923 -171.217)"/><path class="j" d="M613.442,283.973c1.716,1.061,8.607,1.016,8.607,1.016s-3.047-6.179-4.763-7.241a3.651,3.651,0,1,0-3.844,6.2Z" transform="translate(-321.231 -145.939)"/><path class="j" d="M612.476,317.76c1.955.508,8.52-1.584,8.52-1.584s-4.758-4.986-6.713-5.484a3.651,3.651,0,0,0-1.808,7.068Z" transform="translate(-320.366 -162.412)"/><path class="j" d="M617.234,351.083c1.838.823,8.667-.122,8.667-.122s-3.849-5.717-5.687-6.54a3.651,3.651,0,1,0-2.981,6.667Z" transform="translate(-322.926 -178.897)"/><path class="j" d="M627.751,408.96h0a8.7,8.7,0,0,1-8.688-9.251L621.5,361.17h12.511l2.432,38.539a8.7,8.7,0,0,1-8.688,9.251Z" transform="translate(-324.882 -187.299)"/><rect class="a" width="7.109" height="29.45" transform="translate(42.445 32.202)"/><rect class="a" width="7.109" height="29.45" transform="translate(51.585 32.202)"/><rect class="a" width="7.109" height="29.45" transform="translate(60.725 32.202)"/><rect class="a" width="7.109" height="29.45" transform="translate(69.864 32.202)"/><rect class="a" width="7.109" height="29.45" transform="translate(88.143 32.202)"/><rect class="a" width="7.109" height="29.45" transform="translate(97.283 32.202)"/><rect class="a" width="7.109" height="1.523" transform="translate(42.445 37.787)"/><rect class="a" width="7.109" height="1.523" transform="translate(42.445 56.066)"/><rect class="a" width="7.109" height="1.523" transform="translate(51.585 37.787)"/><rect class="a" width="7.109" height="1.523" transform="translate(51.585 56.066)"/><rect class="a" width="7.109" height="1.523" transform="translate(60.725 37.787)"/><rect class="a" width="7.109" height="1.523" transform="translate(60.725 56.066)"/><rect class="a" width="7.109" height="1.523" transform="translate(69.864 37.787)"/><rect class="a" width="7.109" height="1.523" transform="translate(69.864 56.066)"/><rect class="a" width="7.109" height="1.523" transform="translate(79.004 37.787)"/><rect class="a" width="7.109" height="1.523" transform="translate(79.004 56.066)"/><rect class="a" width="7.109" height="1.523" transform="translate(88.143 37.787)"/><rect class="a" width="7.109" height="1.523" transform="translate(88.143 56.066)"/><rect class="a" width="7.109" height="1.523" transform="translate(97.283 37.787)"/><rect class="a" width="7.109" height="1.523" transform="translate(97.283 56.066)"/><rect class="a" width="7.109" height="29.45" transform="translate(79.004 32.202)"/><rect class="a" width="7.109" height="29.45" transform="translate(104.625 35.052) rotate(-24.84)"/><rect class="a" width="7.109" height="1.523" transform="translate(106.974 40.126) rotate(-24.84)"/><rect class="a" width="7.109" height="1.523" transform="translate(114.649 56.712) rotate(-24.84)"/><path class="p" d="M319.961,442.155l-12.9-8.231c-.066-11.592-.249-65.409,2.163-72.609a11.826,11.826,0,0,0,.1-6.4,18.535,18.535,0,0,0-15.2-13.984,218.388,218.388,0,0,1-25.134-5.408c7.215-.746,12.623-1.391,12.623-1.391l.142-1.335,4.646-.223v-.2l.442-.025c10.851-.645,33.893-2.793,26.063-9.221a18.056,18.056,0,0,0-9.886-3.595c11.3-2.579,28.968-7.576,21.092-12.273-7.484-4.458-18.944-.955-25.784,1.894l-.421.178-.076-.614-2.732.548h0l-.868.173-.041-.894-38.331,5.92a130.827,130.827,0,0,0-1.564-13.105c.858-5.717,4.849-14.055,3.443-18.528-1.635-5.194-8.348-6.9-11.171-11.587-.741-1.224-1.478-2.371-2.2-3.377a35.544,35.544,0,0,0-5.408-5.844,24.677,24.677,0,0,1,1.99-8.759,42.434,42.434,0,0,1,2.681-5.382,18.076,18.076,0,0,0,13.425-20.818c2.427,1.041,5.377,1.148,6.9-.883l-.721-.279a2.288,2.288,0,0,0,.2-.239,13.628,13.628,0,0,1-4.2-2.229,4.925,4.925,0,0,1-.736-1.092c-.7-1.422-.619-3.128-1.29-4.57a5.286,5.286,0,0,0-1.315-1.716,9.053,9.053,0,0,0-4.3-2.458,54.312,54.312,0,0,1-5.519-1.523,18.66,18.66,0,0,0-19.858-5.585l-.635.218a8.281,8.281,0,1,0-16.153-3.656,8.261,8.261,0,0,1,2.215-4.945c-.132.112-.269.218-.4.335a8.287,8.287,0,0,0-.361,11.714l.147.142a8.322,8.322,0,0,0,2.077,1.818,8.287,8.287,0,0,1-5.463-6.789c0,.173,0,.345,0,.508a8.287,8.287,0,0,0,8.81,7.789l.228-.025-.122.168a18.64,18.64,0,0,0,1.676,23.078,8.632,8.632,0,0,0,1.33,2.133,6.906,6.906,0,0,0,.614.619,7.875,7.875,0,0,0,5.311,2.447,15.877,15.877,0,0,0,1.082,1.163,30.221,30.221,0,0,1-1.31,4.184,44.347,44.347,0,0,1-4.021,7.753c-10.968,3.118-11.932,21.742-11.536,22.448.472.843-1.635,30.09,6.489,65.419-.335,10.1,5.555,26.8,26.464,22.4,26.15,1.4,34.726,5.4,34.726,5.4s-2.483,45.48,1.061,52.1c2.219,4.148.645,10.241-1.016,14.542a15.978,15.978,0,0,0-1.462,3.371c-.508,1.071-.878,1.721-.878,1.721h.355c-1.34,4.656-2.29,10.277-2.29,10.277s31.7,6.433,45.642,2.224c5.413-1.635,5.636-3.148,3.879-4.4a28.242,28.242,0,0,0,3.828-.838C340.464,445.6,319.961,442.155,319.961,442.155Z" transform="translate(-122.375 -106.289)"/><path class="q" d="M257.559,237.279A18.279,18.279,0,1,1,239.279,219,18.279,18.279,0,0,1,257.559,237.279Z" transform="translate(-128.947 -117.317)"/><path class="h" d="M374.09,417.734l1.853,9.251s2.062-.371,5.113-1.016c10.424-2.209,32.451-7.662,23.92-12.75-7.337-4.372-18.574-.934-25.276,1.858-2.458,1.016-4.306,1.96-5.133,2.4C374.258,417.638,374.09,417.734,374.09,417.734Z" transform="translate(-204.304 -211.894)"/><path class="e" d="M375.076,424.165l1.33,6.641s2.062-.371,5.113-1.016L380.163,418.9c-2.458,1.016-4.306,1.96-5.133,2.4Z" transform="translate(-204.767 -215.716)"/><path class="i" d="M334.623,412.227l6.367-1.274-1.442-11.633-5.1,1.021Z" transform="translate(-164.634 -196.562)"/><path class="e" d="M334.623,412.749l2.747-.553-.5-11.815-2.417.482Z" transform="translate(-164.634 -197.084)"/><path class="j" d="M248.045,343.053s12.394-6.459,16.9,13.836,4.57,29.546,4.57,29.546l38.549-5.956.6,14.009s-41.433,11.389-46.526,10.2-20.554-29.882-20.554-29.882S227.415,352.492,248.045,343.053Z" transform="translate(-136.743 -177.9)"/><g class="k" transform="translate(101.11 165.192)"><path d="M374.09,417.734l1.853,9.251s2.062-.371,5.113-1.016c10.424-2.209,32.451-7.662,23.92-12.75-7.337-4.372-18.574-.934-25.276,1.858-2.458,1.016-4.306,1.96-5.133,2.4C374.258,417.638,374.09,417.734,374.09,417.734Z" transform="translate(-305.415 -377.086)"/><path class="e" d="M375.076,424.165l1.33,6.641s2.062-.371,5.113-1.016L380.163,418.9c-2.458,1.016-4.306,1.96-5.133,2.4Z" transform="translate(-305.877 -380.907)"/><path d="M334.623,412.227l6.367-1.274-1.442-11.633-5.1,1.021Z" transform="translate(-265.744 -361.754)"/><path class="e" d="M334.623,412.749l2.747-.553-.5-11.815-2.417.482Z" transform="translate(-265.744 -362.276)"/><path d="M250.045,345.053s12.394-6.459,16.9,13.836,4.57,29.546,4.57,29.546l38.549-5.956.6,14.009s-41.433,11.389-46.526,10.2-20.554-29.882-20.554-29.882S229.415,354.492,250.045,345.053Z" transform="translate(-238.838 -344.076)"/></g><path class="r" d="M374.588,655.233l15.2,9.647s20.1,3.366,6.428,7.495-44.749-2.183-44.749-2.183,2.361-13.984,4.874-15.837S374.588,655.233,374.588,655.233Z" transform="translate(-193.17 -331.299)"/><path class="s" d="M260.5,452.345s7.581,4.4,21.214,8.515a211.609,211.609,0,0,0,24.992,5.408,18.183,18.183,0,0,1,14.9,13.709,11.6,11.6,0,0,1-.1,6.276c-2.65,7.931-2.112,73.356-2.112,73.356l-23.783,1.142s3.762-11.887-.873-18.162,3.128-52.162,3.128-52.162-8.424-3.93-34.065-5.3c-24.032,5.078-32.669-21.4-28.678-28.531S260.5,452.345,260.5,452.345Z" transform="translate(-135.438 -231.897)"/><g class="k" transform="translate(98.749 219.875)"><path d="M374.588,655.233l15.2,9.647s20.1,3.366,6.428,7.495-44.749-2.183-44.749-2.183,2.361-13.984,4.874-15.837S374.588,655.233,374.588,655.233Z" transform="translate(-291.919 -551.175)"/><path d="M260.5,452.345s7.581,4.4,21.214,8.515a211.609,211.609,0,0,0,24.992,5.408,18.183,18.183,0,0,1,14.9,13.709,11.6,11.6,0,0,1-.1,6.276c-2.65,7.931-2.112,73.356-2.112,73.356l-23.783,1.142s3.762-11.887-.873-18.162,3.128-52.162,3.128-52.162-8.424-3.93-34.065-5.3c-24.032,5.078-32.669-21.4-28.678-28.531S260.5,452.345,260.5,452.345Z" transform="translate(-234.188 -451.772)"/></g><path class="r" d="M359.668,665.343l15.2,9.647s20.1,3.366,6.428,7.495S336.55,680.3,336.55,680.3s2.361-13.984,4.874-15.837S359.668,665.343,359.668,665.343Z" transform="translate(-185.825 -336.276)"/><path class="s" d="M252.485,495.732c25.642,1.366,34.065,5.3,34.065,5.3s-2.432,44.591,1.016,51.08c3.681,6.885-3.29,19.244-3.29,19.244l23.783-1.142v-2.153c-.071-11.364-.244-64.13,2.117-71.2a11.6,11.6,0,0,0,.1-6.276,18.188,18.188,0,0,0-14.9-13.709,210.317,210.317,0,0,1-24.992-5.4l-.391-.122c-13.39-4.062-20.818-8.393-20.818-8.393s-15.837-1.1-19.8,6.032c-.508.924-2.7,2.742-2.788,4.209C225.985,483.013,231.576,500.134,252.485,495.732Z" transform="translate(-131.673 -237.37)"/><path class="h" d="M351.81,442.192l.452,9.424s2.092-.056,5.21-.244c10.638-.635,33.233-2.737,25.555-9.038-6.6-5.418-18.228-3.691-25.271-1.929-2.584.65-4.57,1.3-5.433,1.61C351.988,442.126,351.81,442.192,351.81,442.192Z" transform="translate(-193.337 -225.451)"/><path class="h" d="M233,296.706s3.047,2.625,6.824,5.529c4.214,1.148,9.14,2.168,12.658,2.843-1.092-4.138-.122-8.632,1.488-12.587a47.571,47.571,0,0,1,6.885-11.43l-21.174-7.652c1.5,4.341.508,9.19-1.1,13.339A44.1,44.1,0,0,1,233,296.706Z" transform="translate(-134.854 -144.1)"/><path class="e" d="M352.06,446.518l.325,6.768s2.092-.056,5.21-.244l.284-10.973c-2.584.65-4.57,1.3-5.433,1.61Z" transform="translate(-193.46 -227.121)"/><path class="i" d="M309.62,434.389l6.484-.31.3-11.719-5.189.249Z" transform="translate(-152.411 -207.904)"/><path class="j" d="M220.8,402.537c13.709,14.253,39.275-2.686,46.15-7.7,1.117-.818,1.742-1.32,1.742-1.32-2.539-2.584-6.6-4.976-8.16-11.45A140.65,140.65,0,0,1,257.519,362c-.421-5.357,5.113-15.558,3.514-20.645s-8.185-6.758-10.952-11.364c-.726-1.2-1.447-2.326-2.158-3.311-5.108-7.109-14.009-11.9-14.009-11.9-18.965-6.474-20.452,20.61-19.98,21.453S212.238,366.933,220.8,402.537Z" transform="translate(-125.435 -163.973)"/><path class="e" d="M224.705,381.837s11.013,30.679,15.872,32.613c2.783,1.107,17.959-.086,30.42-1.31,1.117-.818,1.742-1.32,1.742-1.32-2.539-2.584-4.605-7.911-6.159-14.38l-15.989.056s1.295-9.14-.137-29.9S235.8,351.4,235.8,351.4C214.007,357.648,224.705,381.837,224.705,381.837Z" transform="translate(-129.478 -182.279)"/><path class="e" d="M309.62,434.517l2.8-.132,1.264-11.765-2.463.117Z" transform="translate(-152.411 -208.032)"/><path class="j" d="M236.545,348.8s13.2-4.534,14.649,16.2.152,29.9.152,29.9l39.006-.142-1.5,13.943s-42.652,5.078-47.526,3.153-15.878-32.608-15.878-32.608S214.742,355.053,236.545,348.8Z" transform="translate(-129.843 -181.004)"/><path class="e" d="M247.354,283.093c.706-3.047-2.539-3.143-3.554-6.093l21.184,7.616a47.427,47.427,0,0,0-4.255,6.149,17.831,17.831,0,0,1-3.443.508C252.137,291.527,250.761,286.434,247.354,283.093Z" transform="translate(-140.17 -145.867)"/><circle class="h" cx="17.751" cy="17.751" r="17.751" transform="translate(98.891 109.018) rotate(-2.75)"/><path class="e" d="M253,375.14s5.616,26.6,12.247,29.318,3.625,3.3,3.625,3.3" transform="translate(-144.699 -194.175)"/><path class="e" d="M288.735,399.355s-4.692,1.467-10.155-5.545" transform="translate(-157.29 -203.366)"/><circle class="q" cx="8.124" cy="8.124" r="8.124" transform="translate(87.991 93.051)"/><path class="q" d="M214.9,215.675a8.124,8.124,0,0,1,0-11.115c-.132.107-.264.213-.386.33a8.125,8.125,0,1,0,11.13,11.841c.127-.117.239-.244.35-.366a8.124,8.124,0,0,1-11.095-.691Z" transform="translate(-124.496 -110.209)"/><path class="q" d="M218.611,224.614a8.124,8.124,0,0,1-8.551-7.109v.508A8.125,8.125,0,1,0,226.278,217a4.312,4.312,0,0,0-.056-.508A8.124,8.124,0,0,1,218.611,224.614Z" transform="translate(-123.562 -116.081)"/><path class="e" d="M256.447,227.56c1.894.934,4.062,1.193,6.093,1.782s4.1,1.665,5,3.585c.655,1.412.579,3.082,1.264,4.478.985,2.031,3.26,2.965,5.352,3.762-1.8,2.412-5.656,1.757-8.175.117s-4.687-4.062-7.616-4.7a7.149,7.149,0,0,0-7.52,3.346,18.059,18.059,0,0,0-1.483,4.61c-1.016,4.123-3.047,8.226-6.6,10.566s-8.85,2.326-11.638-.878c-1.625-1.869-2.168-4.412-2.65-6.839a13.9,13.9,0,0,1-.391-3.458c.163-2.915,2.1-5.4,4.062-7.561,2.31-2.539,4.768-4.976,7.225-7.4,2.122-2.092,4.57-5.636,7.769-5.885C250.821,222.8,253.426,226.083,256.447,227.56Z" transform="translate(-132.431 -119.322)"/><path class="q" d="M255.447,226.56c1.894.934,4.062,1.193,6.093,1.782s4.1,1.665,5,3.585c.655,1.412.579,3.082,1.264,4.478.985,2.031,3.26,2.965,5.352,3.762-1.8,2.412-5.656,1.757-8.175.117s-4.687-4.062-7.616-4.7a7.149,7.149,0,0,0-7.52,3.346,18.058,18.058,0,0,0-1.483,4.61c-1.016,4.123-3.047,8.226-6.6,10.566s-8.85,2.326-11.638-.878c-1.625-1.869-2.168-4.412-2.651-6.839a13.9,13.9,0,0,1-.391-3.458c.162-2.915,2.1-5.4,4.062-7.561,2.31-2.539,4.768-4.976,7.225-7.4,2.122-2.092,4.57-5.636,7.769-5.885C249.821,221.8,252.426,225.083,255.447,226.56Z" transform="translate(-131.938 -118.829)"/><rect class="b" width="57.9" height="8.947" rx="4.473" transform="translate(71.885 220.499)"/><path class="e" d="M181.28,462v.706a3.681,3.681,0,0,0,3.681,3.681H235.5a3.681,3.681,0,0,0,3.681-3.681V462Z" transform="translate(-109.395 -236.932)"/><rect class="b" width="9.957" height="126.853" transform="translate(173.848 229.826)"/><rect class="e" width="9.957" height="8.226" transform="translate(173.848 229.826)"/><rect class="b" width="263.232" height="16.451" transform="translate(169.085 220.732)"/></g></svg>