<svg xmlns="http://www.w3.org/2000/svg" width="53.207" height="42.774" viewBox="0 0 53.207 42.774"><g transform="translate(-1054.396 -1662.021)"><path d="M49.773,36.68V15.815a1.565,1.565,0,0,0-1.565-1.565H37.775a1.565,1.565,0,0,0,0,3.13h8.868V35.115H41.948a1.544,1.544,0,0,0-1.565,1.565v2.5l-3.589-3.61a1.565,1.565,0,0,0-1.106-.459H16.368V30.629a1.461,1.461,0,0,0-.438-1.273,1.544,1.544,0,0,0-2.212,0c-.5.5-.5.5-.459,7.365a1.586,1.586,0,0,0,1.565,1.565H35.042c5.175,5.237,6.26,6.26,6.948,6.26a1.314,1.314,0,0,0,.542-.146,1.565,1.565,0,0,0,.981-1.44V38.287h4.695a1.586,1.586,0,0,0,1.565-1.607Z" transform="translate(1057.831 1660.248)" fill="#e00"/><path d="M6.815,32.265H11.51v4.653a1.565,1.565,0,0,0,.96,1.44,1.5,1.5,0,0,0,.605.125,1.607,1.607,0,0,0,1.106-.459l5.8-5.8H40.2a1.586,1.586,0,0,0,1.565-1.565V9.793A1.565,1.565,0,0,0,40.2,8.27H6.815A1.544,1.544,0,0,0,5.25,9.793V30.658a1.565,1.565,0,0,0,1.565,1.607ZM8.38,11.4H38.635V29.114h-19.3a1.481,1.481,0,0,0-1.106.459l-3.589,3.61V30.658a1.565,1.565,0,0,0-1.565-1.523H8.38Z" transform="translate(1049.146 1653.751)" fill="#e00"/></g></svg>