<svg id="Icons" xmlns="http://www.w3.org/2000/svg" viewBox="0 0 36 36"><defs><style>.cls-1{fill:#e00;}</style></defs><title>Icon-Red_Hat-Objects-Magnifying_Glass-A-Red-RGB</title><path class="cls-1" d="M15,6.32a8.75,8.75,0,1,0,8.75,8.75A8.76,8.76,0,0,0,15,6.32Zm0,16a7.25,7.25,0,1,1,7.25-7.25A7.26,7.26,0,0,1,15,22.32Z"/><path class="cls-1" d="M29.2,28.42l-5-4.84a.76.76,0,0,0-1.06,0,.76.76,0,0,0,0,1.06l5,4.83a.75.75,0,0,0,1-1.08Z"/><path class="cls-1" d="M22.59,22a.78.78,0,0,0-.82-.17.7.7,0,0,0-.24.17.75.75,0,0,0-.22.53.71.71,0,0,0,.22.53.75.75,0,0,0,.53.22.77.77,0,0,0,.53-.22.75.75,0,0,0,.22-.53.72.72,0,0,0-.06-.29A.78.78,0,0,0,22.59,22Z"/><path class="cls-1" d="M15,9.14a5.94,5.94,0,0,0-5.93,5.93.75.75,0,0,0,1.5,0A4.44,4.44,0,0,1,15,10.64a.75.75,0,0,0,0-1.5Z"/></svg>