<svg xmlns="http://www.w3.org/2000/svg" width="36.694" height="43.366" viewBox="0 0 36.694 43.366"><path d="M98.451,55.555a15.07,15.07,0,0,1,2.493.467,10.624,10.624,0,0,1,8.1,10.409v13.3l.972.976.812.816H85.869l.812-.816.972-.976V66.43a10.624,10.624,0,0,1,8.1-10.409,18.454,18.454,0,0,1,2.493-.467m.1-7.555a3.187,3.187,0,0,0-3.238,3.252V52.77A14.054,14.054,0,0,0,84.317,66.43V78.356L80,82.693v2.168h36.694V82.693l-4.317-4.337V66.43a14.054,14.054,0,0,0-10.792-13.66V51.252A3.187,3.187,0,0,0,98.347,48Zm4.317,39.029H94.03a4.317,4.317,0,1,0,8.634,0Z" transform="translate(-80 -48)" fill="#06c"/></svg>