<svg xmlns="http://www.w3.org/2000/svg" width="358.314" height="311.63" viewBox="0 0 358.314 311.63"><g transform="translate(23349.252 -9133.125)"><path d="M88.106,101.187l-.047,12.352Z" transform="translate(-23258.586 9211.896)" fill="none" fill-rule="evenodd"/><path d="M1.082,177.268l177.443,103.12L357.488,177.3,179.712,74.136Z" transform="translate(-23348.426 9164.367)" fill="#a0a0a0"/><path d="M.891,143.519l176.9,102.8L356.514,143.329,178.9,40.9Z" transform="translate(-23348.627 9169.477)" fill="#ebecec" opacity="0.8"/><path d="M.863,116.189l.059,56.205L178.935,69.772V13.389Z" transform="translate(-23348.656 9140.602)" fill="#ebecec" opacity="0.27"/><path d="M265.373,116l-.059,56.205L87.74,69.772V13.389Z" transform="translate(-23257.461 9140.602)" fill="#ebecec" opacity="0.27"/><path d="M84.188,118.194v33.97l-8.709-5.007V113.2Z" transform="translate(-23270.332 9245.371)" fill="#b8b9b9"/><path d="M70.252,110.16l7.772,4.568v33.946l-7.7-4.544Z" transform="translate(-23275.82 9242.181)" fill="#b8b9b9"/><ellipse cx="3.951" cy="5.6" rx="3.951" ry="5.6" transform="translate(-23341.139 9287.832) rotate(-10.12)" fill="#b8b9b9"/><ellipse cx="3.951" cy="5.6" rx="3.951" ry="5.6" transform="translate(-23324.188 9296.736) rotate(-10.12)" fill="#b8b9b9"/><path d="M.863,116.189l176.9,102.8L356.485,116,178.8,13.389Z" transform="translate(-23348.656 9140.602)" fill="#222" opacity="0.69"/><path d="M177.031,217.751l177.3-102.171L178.087,13.789,1.557,115.77Z" transform="translate(-23347.928 9141.021)" fill="none" fill-rule="evenodd"/><path d="M176.683,166.12,71.048,104.73,1.21,64.151l.059,54.544L176.731,220.664l-.012-19.613Z" transform="translate(-23348.293 9193.885)" fill="none" fill-rule="evenodd"/><path d="M87.514,166.223l.036,34.267.024,20.289,177.3-102.171-.059-54.556Z" transform="translate(-23257.699 9193.782)" fill="none" fill-rule="evenodd"/><path d="M357.579,116.367a.866.866,0,0,0,0-.237.452.452,0,0,0,0-.119.688.688,0,0,0-.261-.261L179.555,13.128a.783.783,0,0,0-.724,0L.854,115.939a.7.7,0,0,0-.356.617h0l.059,56.205a.724.724,0,0,0,.344.617l176.933,102.8h0a.8.8,0,0,0,.356.095.724.724,0,0,0,.356-.095L357.283,173.189a.748.748,0,0,0,.356-.629ZM179.187,14.575,355.432,116.367,178.143,218.537,2.669,116.5ZM2.017,172.382,1.957,117.8l69.9,40.555,105.6,61.39v54.544Zm176.9,101.981V219.807l177.3-102.171v54.58Z" transform="translate(-23349.039 9140.234)" fill="#fff"/><path d="M88.106,101.187l-.047,12.352Z" transform="translate(-23257.129 9232.762)" fill="none" fill-rule="evenodd"/><path d="M.863,116.189l.059,56.205L178.935,69.772V13.389Z" transform="translate(-23350.115 9119.735)" fill="#ebecec" opacity="0.27"/><path d="M265.373,116l-.059,56.205L87.74,69.772V13.389Z" transform="translate(-23258.92 9119.735)" fill="#ebecec" opacity="0.27"/></g></svg>