<svg id="aca2229e-ddc4-4da3-83fa-f47053761475" data-name="Layer 1" xmlns="http://www.w3.org/2000/svg" width="25" height="15" viewBox="0 0 36 25.51">
  <defs>
    <style>
      .b284a514-74e3-4814-977d-399a0e82e3fa {
        fill: #e00;
      }
    </style>
  </defs>
  <title>Icon-Red_Hat-Media_and_documents-Quotemark_Open-B-Red-RGB</title>
  <path class="b284a514-74e3-4814-977d-399a0e82e3fa" d="M8,9.44H2.44A8.26,8.26,0,0,1,10.6,2.31a1.14,1.14,0,0,0,1.15-1.15A1.15,1.15,0,0,0,10.6,0,10.62,10.62,0,0,0,0,10.6V24.35a1.17,1.17,0,0,0,1.16,1.16H14.92a1.17,1.17,0,0,0,1.15-1.16V17.54A8.12,8.12,0,0,0,8,9.44Z"/>
  <path class="b284a514-74e3-4814-977d-399a0e82e3fa" d="M27.9,9.44H22.37a8.26,8.26,0,0,1,8.15-7.13,1.16,1.16,0,1,0,0-2.31A10.62,10.62,0,0,0,19.93,10.6V24.35a1.17,1.17,0,0,0,1.15,1.16H34.84A1.17,1.17,0,0,0,36,24.35V17.54A8.12,8.12,0,0,0,27.9,9.44Z"/>
</svg>
