<svg xmlns="http://www.w3.org/2000/svg" width="41.197" height="41.605" viewBox="0 0 41.197 41.605"><g transform="translate(-814 -2030)"><path d="M21.9,6.32A15.65,15.65,0,1,0,37.55,21.97,15.65,15.65,0,0,0,21.9,6.32Zm0,28.617A12.967,12.967,0,1,1,34.867,21.97,12.967,12.967,0,0,1,21.9,34.937Z" transform="translate(807.75 2023.68)" fill="#009596"/><path d="M34.148,32.406,25.206,23.75a1.341,1.341,0,1,0-1.9,1.9l8.943,8.639a1.341,1.341,0,0,0,1.789-1.932Z" transform="translate(820.899 2037.121)" fill="#009596"/><path d="M23.6,22.174a1.4,1.4,0,0,0-1.467-.3,1.252,1.252,0,0,0-.429.3,1.341,1.341,0,0,0-.393.948,1.27,1.27,0,0,0,.393.948,1.341,1.341,0,0,0,.948.393,1.377,1.377,0,0,0,.948-.393,1.341,1.341,0,0,0,.393-.948,1.288,1.288,0,0,0-.107-.519A1.4,1.4,0,0,0,23.6,22.174Z" transform="translate(819.626 2035.87)" fill="#009596"/><path d="M19.676,9.14A10.624,10.624,0,0,0,9.07,19.746a1.341,1.341,0,1,0,2.683,0,7.941,7.941,0,0,1,7.923-7.923,1.341,1.341,0,0,0,0-2.683Z" transform="translate(809.974 2025.903)" fill="#009596"/></g></svg>