<svg xmlns="http://www.w3.org/2000/svg" width="48" height="48" viewBox="0 0 48 48">
  <defs>
    <style>
      .cls-1 {
        fill: #f3f3f3;
      }

      .cls-2 {
        fill: #fff;
      }

      .cls-3 {
        fill: #49a32b;
      }
    </style>
  </defs>
  <g id="logo" transform="translate(-352 -200)">
    <rect id="Rectangle_1538" data-name="Rectangle 1538" class="cls-1" width="48" height="48" rx="4" transform="translate(352 200)"/>
    <g id="swagger-seeklogo.com" transform="translate(358 206)">
      <path id="Path_1578" data-name="Path 1578" class="cls-2" d="M18.364,37A18.627,18.627,0,0,1,0,18.355,18.5,18.5,0,1,1,18.364,37Zm0,0A18.627,18.627,0,0,1,0,18.355,18.5,18.5,0,1,1,18.364,37Z" transform="translate(0)"/>
      <path id="Path_1579" data-name="Path 1579" class="cls-3" d="M32.925,49.086a16.043,16.043,0,1,1,16.16-16.018A16.153,16.153,0,0,1,32.925,49.086Zm0,0a16.043,16.043,0,1,1,16.16-16.018A16.153,16.153,0,0,1,32.925,49.086Z" transform="translate(-14.543 -14.543)"/>
      <path id="Path_1580" data-name="Path 1580" class="cls-2" d="M67.247,71.533a1.306,1.306,0,0,1-1.367,1.289h-.01A1.32,1.32,0,0,1,64.548,71.5a1.35,1.35,0,0,1,2.7.03ZM55.521,78.942c.275.008.55,0,.867,0v1.992c-1.971.333-3.594-.226-3.992-1.892a11.057,11.057,0,0,1-.251-1.862c-.042-.664.031-1.335-.02-2-.14-1.823-.376-2.445-2.126-2.531V70.385a3.277,3.277,0,0,1,.38-.065c.959-.047,1.363-.341,1.578-1.286a10.778,10.778,0,0,0,.173-1.608c.076-1.043.049-2.1.223-3.129a2.554,2.554,0,0,1,2.694-2.286c.433-.023.867,0,1.358,0v2.037c-.2.014-.387.044-.571.038-1.24-.038-1.3.384-1.395,1.411-.056.644.021,1.3-.022,1.944a15.482,15.482,0,0,1-.257,1.914,3.551,3.551,0,0,1-1.523,2.176c1.515.986,1.688,2.518,1.786,4.074.053.836.029,1.678.114,2.51C54.6,78.758,54.854,78.922,55.521,78.942ZM56.8,70.208h.023a1.312,1.312,0,0,1,1.29,1.334c0,.024,0,.047,0,.071a1.284,1.284,0,0,1-1.356,1.208c-.029,0-.057,0-.085,0a1.307,1.307,0,1,1,.13-2.611Zm4.515,0A1.23,1.23,0,0,1,62.636,71.5a1.215,1.215,0,0,1-1.282,1.322,1.23,1.23,0,0,1-1.332-1.281q0-.06,0-.119A1.253,1.253,0,0,1,61.313,70.208Zm9.452-.992a1.321,1.321,0,0,0,1.45,1.1c.136.006.271.029.457.05v2.268a1.934,1.934,0,0,1-.309.074,1.58,1.58,0,0,0-1.729,1.638c-.072.711-.066,1.43-.115,2.143a18.181,18.181,0,0,1-.213,2.338A2.526,2.526,0,0,1,67.7,81.017c-.466.028-.935,0-1.437,0V78.994c.27-.017.509-.04.748-.045.864-.021,1.17-.3,1.212-1.158.047-.943.067-1.887.109-2.831a3.979,3.979,0,0,1,1.7-3.432,3.213,3.213,0,0,1-1.461-1.992c-.183-1.026-.242-2.074-.34-3.114-.049-.52-.046-1.044-.1-1.564-.055-.561-.44-.755-.951-.768-.292-.007-.586,0-.96,0V62.109c2.386-.4,4.034.4,4.188,2.681.064.959.055,1.922.116,2.88A7.976,7.976,0,0,0,70.765,69.216Z" transform="translate(-42.773 -53.039)"/>
    </g>
  </g>
</svg>
