<svg xmlns="http://www.w3.org/2000/svg" width="19.062" height="16" viewBox="0 0 19.062 16">
  <defs>
    <style>
      .cls-1 {
        fill: #151515;
      }
    </style>
  </defs>
  <g id="swagger-seeklogo.com" transform="translate(-4.193 -5.199)">
    <path id="Path_1580" data-name="Path 1580" class="cls-1" d="M64.5,70.015a1.1,1.1,0,0,1-1.15,1.084h-.008a1.11,1.11,0,0,1-1.111-1.109,1.135,1.135,0,0,1,2.269.025Zm-9.858,6.23c.231.007.462,0,.729,0v1.675c-1.657.28-3.022-.19-3.357-1.591a9.3,9.3,0,0,1-.211-1.566c-.036-.558.026-1.122-.017-1.679-.118-1.533-.316-2.056-1.787-2.128V69.05a2.756,2.756,0,0,1,.32-.055c.806-.04,1.146-.287,1.327-1.081a9.061,9.061,0,0,0,.145-1.352c.064-.877.041-1.768.187-2.631a2.147,2.147,0,0,1,2.265-1.922c.364-.02.729,0,1.142,0v1.712c-.17.012-.325.037-.48.032-1.043-.032-1.1.323-1.173,1.186-.047.541.018,1.092-.019,1.635a13.016,13.016,0,0,1-.216,1.61,2.986,2.986,0,0,1-1.28,1.829c1.274.829,1.419,2.117,1.5,3.425.045.7.024,1.411.1,2.11C53.87,76.089,54.082,76.228,54.642,76.244ZM55.716,68.9h.02a1.1,1.1,0,0,1,1.085,1.121c0,.02,0,.04,0,.06a1.08,1.08,0,0,1-1.14,1.016h-.072a1.1,1.1,0,1,1,.109-2.2Zm3.8,0a1.034,1.034,0,0,1,1.112,1.085A1.022,1.022,0,0,1,59.546,71.1a1.034,1.034,0,0,1-1.12-1.077q0-.05,0-.1A1.054,1.054,0,0,1,59.512,68.9Zm7.947-.834a1.11,1.11,0,0,0,1.219.926c.114.005.228.025.384.042v1.907A1.625,1.625,0,0,1,68.8,71a1.328,1.328,0,0,0-1.454,1.377c-.06.6-.055,1.2-.1,1.8a15.286,15.286,0,0,1-.179,1.966,2.123,2.123,0,0,1-2.191,1.839c-.392.023-.786,0-1.208,0v-1.7c.227-.014.428-.033.629-.038.727-.017.984-.252,1.019-.973.039-.793.057-1.587.092-2.38a3.345,3.345,0,0,1,1.433-2.886,2.7,2.7,0,0,1-1.229-1.675c-.154-.862-.2-1.744-.286-2.618-.041-.437-.039-.878-.082-1.315-.046-.472-.37-.635-.8-.645-.246-.006-.493,0-.807,0V62.092c2.006-.333,3.392.334,3.521,2.254.054.806.046,1.616.1,2.422A6.705,6.705,0,0,0,67.459,68.067Z" transform="translate(-45.807 -56.801)"/>
  </g>
</svg>
