<svg xmlns="http://www.w3.org/2000/svg" width="24" height="23.408" viewBox="0 0 24 23.408"><path d="M12,0A12,12,0,0,0,8.206,23.387c.6.111.82-.26.82-.577,0-.286-.011-1.231-.016-2.234C5.672,21.3,4.967,19.16,4.967,19.16A3.177,3.177,0,0,0,3.635,17.4c-1.089-.745.082-.73.082-.73a2.523,2.523,0,0,1,1.84,1.237,2.555,2.555,0,0,0,3.492,1,2.555,2.555,0,0,1,.762-1.6c-2.665-.3-5.467-1.332-5.467-5.931A4.644,4.644,0,0,1,5.579,8.152,4.312,4.312,0,0,1,5.7,4.977S6.7,4.654,9,6.207a11.384,11.384,0,0,1,6.01,0c2.29-1.553,3.3-1.23,3.3-1.23a4.306,4.306,0,0,1,.118,3.176,4.635,4.635,0,0,1,1.235,3.221c0,4.609-2.807,5.624-5.479,5.921a2.869,2.869,0,0,1,.814,2.222c0,1.606-.014,2.9-.014,3.293,0,.319.216.694.824.576A12,12,0,0,0,12,0" fill="#fff"/><path d="M44.661,179.675c-.026.06-.12.077-.206.037s-.136-.12-.108-.18.12-.078.207-.037.137.121.107.181m.59.527c-.057.053-.169.028-.245-.055a.183.183,0,0,1-.035-.249c.059-.053.168-.028.246.056s.094.2.034.249m.405.674c-.074.051-.194,0-.268-.1s-.074-.235,0-.286.193-.005.268.1.073.237,0,.289m.685.78c-.066.072-.206.053-.308-.046a.231.231,0,0,1-.068-.307c.067-.073.207-.052.311.046s.136.235.066.307m.885.264c-.029.094-.164.137-.3.1s-.225-.151-.2-.246.164-.139.3-.1.225.15.2.246m1.007.112c0,.1-.112.181-.255.183s-.26-.077-.261-.174.113-.181.256-.184.26.077.26.175m.99-.038c.017.1-.082.2-.224.222s-.268-.034-.286-.13.084-.2.223-.224.269.033.287.132" transform="translate(-40.167 -162.581)" fill="#fff"/></svg>