<svg xmlns="http://www.w3.org/2000/svg" width="48" height="48" viewBox="0 0 48 48"><g transform="translate(0)"><rect width="48" height="48" rx="24" transform="translate(0)" fill="#06c"/><g transform="translate(8.629 8.755)" style="isolation:isolate"><g transform="translate(0 0)"><path d="M51.126,38.42A12.646,12.646,0,0,1,38.48,51.066V56.98A18.584,18.584,0,0,0,57.04,38.42Z" transform="translate(-38.48 -38.42)" fill="#e5e5e5"/><path d="M70.394,82.98A12.646,12.646,0,0,1,83.04,70.334V64.42A18.584,18.584,0,0,0,64.48,82.98Z" transform="translate(-51.834 -51.774)" fill="#e5e5e5"/><path d="M68.084,80a18.482,18.482,0,0,0-3.6,10.978h5.914a12.856,12.856,0,0,1,.229-2.383A23.832,23.832,0,0,0,68.084,80Z" transform="translate(-51.834 -59.776)" fill="#231f20" opacity="0.45" style="mix-blend-mode:multiply;isolation:isolate"/><path d="M91.048,64.42a18.482,18.482,0,0,0-10.978,3.6,23.833,23.833,0,0,0,8.594,2.539,12.856,12.856,0,0,1,2.383-.229Z" transform="translate(-59.842 -51.774)" fill="#231f20" opacity="0.45" style="mix-blend-mode:multiply;isolation:isolate"/><path d="M66.549,49.408a18.482,18.482,0,0,0,3.6-10.978H64.239a12.856,12.856,0,0,1-.229,2.383,23.832,23.832,0,0,0,2.539,8.594Z" transform="translate(-51.593 -38.425)" fill="#231f20" opacity="0.45" style="mix-blend-mode:multiply;isolation:isolate"/><path d="M38.48,70.119a18.482,18.482,0,0,0,10.978-3.6A23.833,23.833,0,0,0,40.863,64a12.855,12.855,0,0,1-2.383.229Z" transform="translate(-38.48 -51.558)" fill="#231f20" opacity="0.45" style="mix-blend-mode:multiply;isolation:isolate"/><path d="M38.48,70.334A12.646,12.646,0,0,1,51.126,82.98H57.04A18.584,18.584,0,0,0,38.48,64.42Z" transform="translate(-38.48 -51.774)" fill="#fff"/><path d="M83.04,51.066A12.646,12.646,0,0,1,70.394,38.42H64.48A18.584,18.584,0,0,0,83.04,56.98Z" transform="translate(-51.834 -38.42)" fill="#fff"/></g></g></g></svg>