<svg xmlns="http://www.w3.org/2000/svg" width="244.652" height="190" viewBox="0 0 244.652 190"><g transform="translate(0 0)"><circle cx="9.968" cy="9.968" r="9.968" transform="translate(129.338 72.968)" fill="#e6e6e6"/><path d="M384.048,179.6c26.639,29.46-50.584,71.917-112.982,71.917S165.5,218.624,158.084,179.6C140.108,84.992,311.246,24.858,271.066,107.687,212.5,228.42,363.069,156.4,384.048,179.6Z" transform="translate(-144.804 -68.493)" fill="#e6e6e6"/><path d="M336.048,207.6c26.639,29.46-50.584,71.917-112.982,71.917S117.5,246.624,110.084,207.6C92.108,112.992,263.246,52.858,223.066,135.687,164.5,256.42,315.069,184.4,336.048,207.6Z" transform="translate(-108.756 -89.521)"/><path d="M158.834,220.379c-18.693-.823-33.186-4.855-33-9.18.114-2.593,5.4-4.677,14.514-5.72a.249.249,0,1,1,.057.495c-8.581.982-13.974,2.992-14.073,5.247-.172,3.911,14.72,7.876,32.52,8.66s32.983-1.858,33.155-5.768c.1-2.264-5.129-4.748-13.645-6.481a.249.249,0,1,1,.1-.488c9.039,1.84,14.158,4.389,14.043,6.991C192.318,218.459,177.526,221.2,158.834,220.379Z" transform="translate(-121.583 -171.367)" fill="#e00"/><path d="M191.679,268.227a19.17,19.17,0,0,0,33.128,1.375,301.8,301.8,0,0,1-33.128-1.375Z" transform="translate(-171.03 -218.49)" fill="#e00"/><path d="M220.336,176.6a19.173,19.173,0,1,0-36.791-1.421,142.493,142.493,0,0,0,36.791,1.421Z" transform="translate(-164.492 -130.728)" fill="#e00"/><circle cx="2.241" cy="2.241" r="2.241" transform="translate(39.801 28.537)" fill="#fff"/><circle cx="3.735" cy="3.735" r="3.735" transform="translate(26.772 34.262)" fill="#fff"/><circle cx="3.99" cy="3.99" r="3.99" transform="translate(84.392 33.093)" fill="#e00"/><circle cx="1.494" cy="1.494" r="1.494" transform="translate(29.111 111.283)" fill="#e6e6e6"/><circle cx="1.494" cy="1.494" r="1.494" transform="translate(133.696 162.58)" fill="#e6e6e6"/><circle cx="0.747" cy="0.747" r="0.747" transform="translate(37.079 83.892)" fill="#e6e6e6"/><circle cx="0.747" cy="0.747" r="0.747" transform="translate(98.834 139.671)" fill="#e6e6e6"/><circle cx="0.747" cy="0.747" r="0.747" transform="translate(211.139 132.449)" fill="#e6e6e6"/><circle cx="0.747" cy="0.747" r="0.747" transform="translate(176.028 154.611)" fill="#e6e6e6"/><circle cx="0.747" cy="0.747" r="0.747" transform="translate(139.423 127.718)" fill="#e6e6e6"/><circle cx="0.747" cy="0.747" r="0.747" transform="translate(92.111 54.01)" fill="#e6e6e6"/><circle cx="0.747" cy="0.747" r="0.747" transform="translate(98.087 17.156)" fill="#e6e6e6"/><circle cx="0.747" cy="0.747" r="0.747" transform="translate(94.601 172.291)" fill="#e6e6e6"/><circle cx="0.747" cy="0.747" r="0.747" transform="translate(57.747 156.603)" fill="#e6e6e6"/><circle cx="0.747" cy="0.747" r="0.747" transform="translate(174.534 129.71)" fill="#e6e6e6"/><circle cx="2.241" cy="2.241" r="2.241" transform="translate(34.706 53.737)" fill="#fff"/><circle cx="7.221" cy="7.221" r="7.221" transform="translate(154.364 156.852)" fill="#e00"/><ellipse cx="3.033" cy="11.828" rx="3.033" ry="11.828" transform="matrix(0.842, -0.54, 0.54, 0.842, 102.472, 92.254)" fill="#151515"/><path d="M673.618,370.346,663.2,359.929a11.032,11.032,0,1,0-3.313,3.314L670.3,373.66a2.343,2.343,0,1,0,3.314-3.314ZM659.5,359.541a7.89,7.89,0,1,1,2.311-5.579,7.89,7.89,0,0,1-2.311,5.579Z" transform="translate(-580.851 -251.442)" fill="#fff"/></g></svg>