<svg xmlns="http://www.w3.org/2000/svg" width="115.051" height="102.425" viewBox="0 0 115.051 102.425"><path d="M115.051,88.154,57.769,121.442,0,88.165l57.389-33.3Z" transform="translate(0 -19.017)" fill="#acb8bf"/><path d="M88.789,116.712l-.019,3.946Z" transform="translate(-30.523 -40.283)" fill="none" fill-rule="evenodd"/><path d="M58.734,82.127h0l56.781-33-57.161-33L1.36,49.066Z" transform="translate(-0.468 -5.697)" fill="#e00"/><path d="M145.57,66.42h0l-56.781,33h0l-.019,3.946,56.781-33,.019-3.946Z" transform="translate(-30.523 -22.99)" fill="#a30000"/><path d="M58.726,99.388,1.352,66.327l-.015,3.946,57.37,33.061Z" transform="translate(-0.46 -22.958)" fill="#c00"/><path d="M71.526,29.7l11.467-6.552L94.661,29.9,83,36.487Z" transform="translate(-24.594 -8.11)" fill="#acb8bf" style="mix-blend-mode:multiply;isolation:isolate"/><path d="M100.741,46.083l11.467-6.552,11.665,6.757L112.22,52.875Z" transform="translate(-34.639 -13.745)" fill="#acb8bf" style="mix-blend-mode:multiply;isolation:isolate"/><path d="M42.194,46.083l11.467-6.552L65.33,46.288,53.673,52.875Z" transform="translate(-14.508 -13.745)" fill="#acb8bf" style="mix-blend-mode:multiply;isolation:isolate"/><path d="M71.526,63.114l11.467-6.552,11.668,6.757L83,69.905Z" transform="translate(-24.594 -19.6)" fill="#acb8bf" style="mix-blend-mode:multiply;isolation:isolate"/><path d="M13.569,63.82l11.467-6.552L36.7,64.025,25.047,70.611Z" transform="translate(-4.666 -19.843)" fill="#acb8bf" style="mix-blend-mode:multiply;isolation:isolate"/><path d="M129.772,63.82l11.463-6.552L152.9,64.025,141.25,70.611Z" transform="translate(-44.621 -19.843)" fill="#acb8bf" style="mix-blend-mode:multiply;isolation:isolate"/><path d="M100.741,80.862l11.467-6.552,11.665,6.757L112.22,87.653Z" transform="translate(-34.639 -25.703)" fill="#acb8bf" style="mix-blend-mode:multiply;isolation:isolate"/><path d="M42.194,80.862,53.661,74.31,65.33,81.067,53.673,87.653Z" transform="translate(-14.508 -25.703)" fill="#acb8bf" style="mix-blend-mode:multiply;isolation:isolate"/><path d="M71.526,96.492,82.993,89.94,94.661,96.7,83,103.283Z" transform="translate(-24.594 -31.077)" fill="#acb8bf" style="mix-blend-mode:multiply;isolation:isolate"/><g transform="translate(46.833 0)"><g transform="translate(0)"><path d="M29.455,20.47,29.429,6.955,17.783.266V13.712Z" transform="translate(-6.229 -0.243)" fill="#ebecec" opacity="0.75"/><path d="M.231,6.978.208,20.371l11.543-6.643L11.74.3Z" transform="translate(-0.186 -0.255)" fill="#d1d1d1" opacity="0.75"/><path d="M.324,27.316l11.467-6.552L23.46,27.521,11.8,34.108Z" transform="translate(-0.225 -7.292)" fill="#dcdcdc" opacity="0.75"/><path d="M.535,10.625l10.8,6.21L11.4,29.989.523,23.7V11.058Zm-.361-.171V23.9l11.581,6.7-.068-13.963L.9,10.458Z" transform="translate(-0.174 -3.747)" fill="#fff"/><path d="M11.757.638l10.916,6.3L11.7,13.127.894,6.936,11.757.638Zm0-.406L.191,6.939,11.7,13.529,23.38,6.943Z" transform="translate(-0.18 -0.232)" fill="#fff"/></g></g><g transform="translate(65.999 10.753)"><g transform="translate(0 0)"><path d="M29.723,20.645,29.7,7.135,18.055.446V13.892Z" transform="translate(-6.497 -0.423)" fill="#ebecec" opacity="0.75"/><path d="M.5,7.158.475,20.547l11.547-6.639L12.01.48Z" transform="translate(-0.452 -0.435)" fill="#d1d1d1" opacity="0.75"/><path d="M.6,27.5l11.467-6.552L23.728,27.7,12.075,34.287Z" transform="translate(-0.494 -7.471)" fill="#dcdcdc" opacity="0.75"/><path d="M.8,10.8,11.6,17.015l.068,13.15L.789,23.871V11.234ZM.44,10.634V24.076l11.581,6.7L11.949,16.81,1.162,10.634Z" transform="translate(-0.44 -3.926)" fill="#fff"/><path d="M12.029.814l10.92,6.305L11.972,13.3,1.162,7.115,12.029.814Zm0-.4L.463,7.115l11.505,6.59,11.68-6.582L12.029.411Z" transform="translate(-0.448 -0.411)" fill="#fff"/></g></g><g transform="translate(27.583 10.753)"><g transform="translate(0 0)"><path d="M29.646,20.645,29.62,7.135,17.974.446V13.892Z" transform="translate(-6.416 -0.423)" fill="#ebecec" opacity="0.75"/><path d="M.416,7.158.394,20.547l11.547-6.639L11.929.48Z" transform="translate(-0.371 -0.435)" fill="#d1d1d1" opacity="0.75"/><path d="M.515,27.5l11.467-6.552L23.651,27.7,11.994,34.287Z" transform="translate(-0.413 -7.471)" fill="#dcdcdc" opacity="0.75"/><path d="M.724,10.8l10.795,6.214.065,13.15L.708,23.871V11.234Zm-.365-.167V24.076l11.581,6.7L11.872,16.81,1.081,10.634Z" transform="translate(-0.359 -3.926)" fill="#fff"/><path d="M11.948.814,22.864,7.119,11.906,13.3,1.085,7.115,11.948.814Zm0-.4L.382,7.115l11.524,6.59,11.68-6.582L11.963.411Z" transform="translate(-0.367 -0.411)" fill="#fff"/></g></g><g transform="translate(46.833 21.928)"><g transform="translate(0 0)"><path d="M29.455,20.313,29.429,6.8,17.783.11V13.556Z" transform="translate(-6.229 -0.087)" fill="#ebecec" opacity="0.75"/><path d="M.231,6.828.208,20.217l11.543-6.643L11.74.151Z" transform="translate(-0.186 -0.101)" fill="#d1d1d1" opacity="0.75"/><path d="M.324,27.16l11.467-6.552L23.46,27.365,11.8,33.951Z" transform="translate(-0.225 -7.135)" fill="#dcdcdc" opacity="0.75"/><path d="M.535,10.469l10.8,6.21L11.4,29.833.523,23.539V10.9ZM.174,10.3V23.74l11.581,6.7-.068-13.963L.892,10.3Z" transform="translate(-0.174 -3.59)" fill="#fff"/><path d="M11.757.482,22.673,6.787,11.7,12.971.894,6.779,11.757.482Zm0-.406L.191,6.783,11.7,13.373,23.38,6.791Z" transform="translate(-0.18 -0.075)" fill="#fff"/></g></g><g transform="translate(8.816 22.383)"><g transform="translate(0 0)"><path d="M29.386,20.437,29.359,6.926,17.714.237V13.683Z" transform="translate(-6.17 -0.207)" fill="#ebecec" opacity="0.75"/><path d="M.16,6.95.133,20.339,11.68,13.7,11.669.272Z" transform="translate(-0.126 -0.219)" fill="#d1d1d1" opacity="0.75"/><path d="M.255,27.282l11.467-6.552L23.39,27.49,11.733,34.073Z" transform="translate(-0.167 -7.253)" fill="#dcdcdc" opacity="0.75"/><path d="M.471,10.591,11.27,16.8l.065,13.15L.46,23.661V11.024ZM.122,10.42V23.858l11.566,6.693-.068-13.966L.828,10.42Z" transform="translate(-0.122 -3.708)" fill="#fff"/><path d="M11.687.6,22.6,6.9,11.63,13.09.824,6.9,11.687.6Zm0-.4L.122,6.9l11.509,6.59L23.31,6.9,11.687.191Z" transform="translate(-0.122 -0.191)" fill="#fff"/></g></g><g transform="translate(85.048 22.391)"><g transform="translate(0 0)"><path d="M29.808,20.437,29.782,6.926,18.136.237V13.683Z" transform="translate(-6.582 -0.215)" fill="#ebecec" opacity="0.75"/><path d="M.584,6.95.562,20.339,12.1,13.7,12.093.272Z" transform="translate(-0.539 -0.226)" fill="#d1d1d1" opacity="0.75"/><path d="M.683,27.282l11.463-6.552L23.815,27.49,12.162,34.073Z" transform="translate(-0.581 -7.261)" fill="#dcdcdc" opacity="0.75"/><path d="M.888,10.591l10.8,6.214.065,13.15L.876,23.661V11.024Zm-.361-.167V23.862l11.581,6.689-.072-13.966L1.245,10.42Z" transform="translate(-0.527 -3.716)" fill="#fff"/><path d="M12.114.605l10.913,6.3L12.053,13.09,1.247,6.907,12.114.605Zm0-.4L.544,6.907,12.053,13.5l11.684-6.59L12.114.2Z" transform="translate(-0.533 -0.203)" fill="#fff"/></g></g><g transform="translate(65.999 33.573)"><g transform="translate(0 0)"><path d="M29.723,20.691,29.7,7.181,18.055.492V13.938Z" transform="translate(-6.497 -0.469)" fill="#ebecec" opacity="0.75"/><path d="M.5,7.2.475,20.593,12.022,13.95,12.01.527Z" transform="translate(-0.452 -0.481)" fill="#d1d1d1" opacity="0.75"/><path d="M.6,27.536l11.467-6.552,11.665,6.761L12.075,34.328Z" transform="translate(-0.494 -7.515)" fill="#dcdcdc" opacity="0.75"/><path d="M.8,10.847,11.6,17.061l.068,13.15L.789,23.917V11.284ZM.44,10.68V24.122l11.581,6.7-.072-13.966L1.162,10.68Z" transform="translate(-0.44 -3.972)" fill="#fff"/><path d="M12.029.86l10.92,6.305L11.972,13.349,1.162,7.161,12.029.86Zm0-.4L.463,7.161l11.505,6.59,11.68-6.582Z" transform="translate(-0.448 -0.457)" fill="#fff"/></g></g><g transform="translate(27.583 33.573)"><g transform="translate(0 0)"><path d="M29.646,20.691,29.62,7.181,17.974.492V13.938Z" transform="translate(-6.416 -0.469)" fill="#ebecec" opacity="0.75"/><path d="M.416,7.2.394,20.593,11.941,13.95,11.929.527Z" transform="translate(-0.371 -0.481)" fill="#d1d1d1" opacity="0.75"/><path d="M.515,27.536l11.467-6.552,11.668,6.761L11.994,34.328Z" transform="translate(-0.413 -7.515)" fill="#dcdcdc" opacity="0.75"/><path d="M.724,10.847l10.795,6.214.065,13.15L.708,23.917V11.284ZM.359,10.68V24.122l11.581,6.7-.068-13.966L1.081,10.68Z" transform="translate(-0.359 -3.972)" fill="#fff"/><path d="M11.948.86,22.864,7.165,11.906,13.349,1.085,7.161,11.948.86Zm0-.4L.382,7.161l11.524,6.59,11.68-6.582L11.963.457Z" transform="translate(-0.367 -0.457)" fill="#fff"/></g></g><g transform="translate(46.833 43.829)"><g transform="translate(0 0)"><path d="M29.455,20.691,29.429,7.181,17.783.492V13.938Z" transform="translate(-6.229 -0.469)" fill="#ebecec" opacity="0.75"/><path d="M.231,7.2.208,20.593,11.751,13.95,11.74.527Z" transform="translate(-0.186 -0.481)" fill="#d1d1d1" opacity="0.75"/><path d="M.324,27.536l11.467-6.552L23.46,27.745,11.8,34.328Z" transform="translate(-0.225 -7.515)" fill="#dcdcdc" opacity="0.75"/><path d="M.535,10.847l10.8,6.214.065,13.15L.523,23.917V11.28ZM.174,10.68V24.119l11.581,6.7-.068-13.966L.9,10.68Z" transform="translate(-0.174 -3.972)" fill="#fff"/><path d="M11.757.86,22.673,7.165,11.7,13.349.894,7.161,11.757.86Zm0-.4L.191,7.161,11.7,13.751,23.38,7.169Z" transform="translate(-0.18 -0.457)" fill="#fff"/></g></g></svg>