<svg xmlns="http://www.w3.org/2000/svg" width="40" height="22"><defs/><defs><style>.c{stroke:none}</style></defs><g fill="none" stroke-linejoin="round"><g stroke="#e00" stroke-linecap="square" stroke-width="2"><ellipse cx="10.5" cy="11" class="c" rx="10.5" ry="11"/><ellipse cx="10.5" cy="11" rx="9.5" ry="10"/></g><g stroke-linecap="round"><path d="M28.33 21.45a3 3 0 01-3-3V3.35A3 3 0 0128.1.38V.36h6.48A5.46 5.46 0 0140 5.86a5.46 5.46 0 01-5.43 5.5h-2.84v7.08a3 3 0 01-3 3z" class="c"/><path fill="#e00" d="M28.73 19.45a1 1 0 001-1v-7.09c0-1.1.9-2 2-2h2.84A3.47 3.47 0 0038 5.86c0-1.93-1.54-3.5-3.43-3.5h-6.32a1 1 0 00-.92 1v15.09a1 1 0 001 1h.4m0 2h-.4a3 3 0 01-3-3V3.35A3 3 0 0128.1.38V.36H34.57c3 0 5.43 2.46 5.43 5.5s-2.43 5.5-5.43 5.5h-2.84v7.09a3 3 0 01-3 3z"/></g></g></svg>