<svg xmlns="http://www.w3.org/2000/svg" width="294" height="40"><defs/><g data-name="Group 1"><path fill="#e00" d="M28.22 22.44c2.78 0 6.8-.57 6.8-3.88a3.11 3.11 0 00-.07-.76l-1.65-7.19c-.38-1.58-.72-2.3-3.5-3.69C27.65 5.82 22.95 4 21.56 4c-1.3 0-1.67 1.67-3.2 1.67-1.5 0-2.6-1.25-3.99-1.25-1.33 0-2.2.91-2.87 2.78 0 0-1.87 5.27-2.1 6.04a1.43 1.43 0 00-.06.43c0 2.05 8.07 8.76 18.88 8.76m7.23-2.53a11.05 11.05 0 01.39 2.25c0 3.11-3.5 4.84-8.1 4.84-10.4 0-19.5-6.08-19.5-10.1a4.1 4.1 0 01.33-1.64c-3.73.2-8.57.86-8.57 5.13C0 27.38 16.58 36 29.7 36c10.07 0 12.6-4.55 12.6-8.14 0-2.83-2.44-6.04-6.84-7.95" data-name="Path 1"/><path d="M35.45 19.9a11.06 11.06 0 01.39 2.25c0 3.12-3.5 4.84-8.1 4.84-10.4.01-19.5-6.08-19.5-10.1a4.1 4.1 0 01.33-1.63l.82-2.02a1.43 1.43 0 00-.05.43c0 2.05 8.07 8.76 18.88 8.76 2.78 0 6.8-.57 6.8-3.88a3.11 3.11 0 00-.07-.76z" data-name="Path 2"/></g><path fill="none" stroke="#151515" d="M66.5 0v40" data-name="Line 1"/><text data-name="Red Hat" font-family="RedHatDisplay-Regular, Red Hat Display" font-size="24" transform="translate(83 29)"><tspan x="0" y="0">Red Hat</tspan></text><text data-name="One Portal" font-family="RedHatDisplay-Medium, Red Hat Display" font-size="24" font-weight="500" transform="translate(176 29)"><tspan x="0" y="0">One Portal</tspan></text></svg>