<svg xmlns="http://www.w3.org/2000/svg" width="155.567" height="155.567" viewBox="0 0 155.567 155.567"><g transform="translate(17963 -4476)" style="isolation:isolate"><circle cx="77.783" cy="77.783" r="77.783" transform="translate(-17963 4476)" fill="#fafafa"/><g transform="translate(-17927.381 4503.876)"><rect width="83.132" height="99.433" rx="2.487" transform="translate(0.815 0.815)" fill="#fff" stroke="#d4d4d4" stroke-width="1.244"/><rect width="11.655" height="11.655" rx="0.528" transform="translate(8.843 25.143)" fill="none" stroke="#e00" stroke-width="1.056"/><rect width="11.655" height="11.655" rx="0.528" transform="translate(8.843 47.436)" fill="none" stroke="#e00" stroke-width="1.056"/><path d="M20.2,41.319c1.113.545,1.117.809,1.138,1.039a1.142,1.142,0,0,1-.216.779h0L13,51.279,8.9,47.455a1.142,1.142,0,0,1,1.422-1.78h0l2.62,2.428L19.4,41.653A1.14,1.14,0,0,1,20.2,41.319Zm0-22.294c1.113.545,1.117.809,1.138,1.039a1.142,1.142,0,0,1-.216.78h0L13,28.987,8.9,25.161a1.143,1.143,0,0,1,1.422-1.78h0l2.62,2.429L19.4,19.361a1.14,1.14,0,0,1,.809-.336Z" transform="translate(2.654 5.913)" fill="#151515" stroke="#fff" stroke-width="0.5"/><rect width="11.655" height="11.655" rx="0.528" transform="translate(8.843 70.784)" fill="none" stroke="#e00" stroke-width="1.056"/><path d="M19.9,22.384h11.41v3.26H19.9Zm0,22.821h11.41v3.26H19.9Zm0,22.821h11.41v3.26H19.9Z" transform="translate(6.184 6.957)" fill="#d8d8d8" fill-rule="evenodd"/><path d="M3.26,0H81.5a3.26,3.26,0,0,1,3.26,3.26v8.15H0V3.26A3.26,3.26,0,0,1,3.26,0Z" fill="#e00" fill-rule="evenodd"/><circle cx="1.384" cy="1.384" r="1.384" transform="translate(8.15 4.32)" fill="#151515"/><circle cx="1.384" cy="1.384" r="1.384" transform="translate(13.688 4.32)" fill="#fff"/><circle cx="1.384" cy="1.384" r="1.384" transform="translate(19.225 4.32)" fill="#fab6b5"/><g transform="translate(75.796 21.191) rotate(90)"><path d="M0,0H66.832" transform="translate(0 5.705)" fill="none" stroke="#aaabaf" stroke-linecap="round" stroke-width="2.487" fill-rule="evenodd"/><path d="M0,0H1.547a2.412,2.412,0,0,1,.482,1.615,2.426,2.426,0,0,1-.481,1.618H0V0Z" transform="translate(18.403 4.088)" fill="#5e5d5d" fill-rule="evenodd" opacity="0.436" style="mix-blend-mode:multiply;isolation:isolate"/><circle cx="5.705" cy="5.705" r="5.705" transform="translate(7.335 0)" fill="#d8d8d8"/></g><g transform="translate(59.496 21.19) rotate(90)"><path d="M0,0H66.832" transform="translate(0 5.705)" fill="none" stroke="#aaabaf" stroke-linecap="round" stroke-width="2.487" fill-rule="evenodd"/><path d="M0,0H1.547a2.412,2.412,0,0,1,.482,1.615,2.426,2.426,0,0,1-.481,1.618H0V0Z" transform="translate(47.825 4.088)" fill="#5e5d5d" fill-rule="evenodd" opacity="0.436" style="mix-blend-mode:multiply;isolation:isolate"/><circle cx="5.705" cy="5.705" r="5.705" transform="translate(36.677 0)" fill="#d8d8d8"/></g></g></g></svg>