<svg xmlns="http://www.w3.org/2000/svg" width="311.556" height="221.381" viewBox="0 0 311.556 221.381"><g transform="translate(-24.862 -40)"><path d="M88.83,116.712l-.059,12.361Z" transform="translate(90.92 122.681)" fill="none" fill-rule="evenodd"/><path d="M71.526,43.666l35.917-20.522,36.548,21.165-36.512,20.63Z" transform="translate(72.727 23.945)" fill="#acb8bf" style="mix-blend-mode:multiply;isolation:isolate"/><path d="M100.741,60.054l35.917-20.522L173.195,60.7l-36.5,20.63Z" transform="translate(103.553 41.238)" fill="#acb8bf" style="mix-blend-mode:multiply;isolation:isolate"/><path d="M42.194,60.054,78.111,39.531,114.659,60.7,78.147,81.326Z" transform="translate(41.778 41.238)" fill="#acb8bf" style="mix-blend-mode:multiply;isolation:isolate"/><path d="M71.526,77.084l35.917-20.522,36.548,21.165-36.512,20.63Z" transform="translate(72.727 59.208)" fill="#acb8bf" style="mix-blend-mode:multiply;isolation:isolate"/><path d="M13.569,77.79,49.486,57.268,86.034,78.433,49.522,99.062Z" transform="translate(11.571 59.953)" fill="#acb8bf" style="mix-blend-mode:multiply;isolation:isolate"/><path d="M129.772,77.79l35.905-20.522,36.548,21.165-36.5,20.63Z" transform="translate(134.193 59.953)" fill="#acb8bf" style="mix-blend-mode:multiply;isolation:isolate"/><path d="M100.741,94.832,136.659,74.31l36.536,21.165-36.5,20.63Z" transform="translate(103.553 77.937)" fill="#acb8bf" style="mix-blend-mode:multiply;isolation:isolate"/><path d="M42.194,94.832,78.111,74.31l36.548,21.165L78.147,116.1Z" transform="translate(41.778 77.937)" fill="#acb8bf" style="mix-blend-mode:multiply;isolation:isolate"/><path d="M71.526,110.462,107.443,89.94,143.991,111.1l-36.512,20.63Z" transform="translate(72.727 94.429)" fill="#acb8bf" style="mix-blend-mode:multiply;isolation:isolate"/><g transform="translate(143.945 40)"><g transform="translate(0)"><path d="M54.343,63.547l-.083-42.33L17.783.266V42.382Z" transform="translate(18.408 -0.195)" fill="#ebecec" opacity="0.75"/><path d="M.28,21.216.208,63.165,36.364,42.357,36.328.3Z" transform="translate(-0.137 -0.158)" fill="#d1d1d1" opacity="0.75"/><path d="M.324,41.287,36.241,20.764,72.789,41.929,36.277,62.559Z" transform="translate(-0.015 21.435)" fill="#dcdcdc" opacity="0.75"/><path d="M1.3,10.99,35.127,30.442l.2,41.2L1.268,51.928V12.346Zm-1.13-.535v42.1L36.448,73.545l-.214-43.734L2.434,10.466Z" transform="translate(-0.174 10.556)" fill="#fff"/><path d="M36.418,1.5,70.61,21.242,36.239,40.622,2.392,21.23,36.418,1.5Zm0-1.273L.191,21.242,36.239,41.883l36.584-20.63Z" transform="translate(-0.155 -0.232)" fill="#fff"/></g></g><g transform="translate(203.977 73.681)"><g transform="translate(0 0)"><path d="M54.6,63.714,54.52,21.4,18.055.446V42.561Z" transform="translate(18.148 -0.374)" fill="#ebecec" opacity="0.75"/><path d="M.546,21.4.475,63.333l36.167-20.8L36.606.48Z" transform="translate(-0.403 -0.338)" fill="#d1d1d1" opacity="0.75"/><path d="M.6,41.466,36.514,20.944,73.049,42.109l-36.5,20.63Z" transform="translate(-0.275 21.255)" fill="#dcdcdc" opacity="0.75"/><path d="M1.582,11.157,35.394,30.621l.214,41.188L1.534,52.1V12.514ZM.44,10.634v42.1L36.714,73.724l-.226-43.746L2.7,10.634Z" transform="translate(-0.44 10.376)" fill="#fff"/><path d="M36.69,1.672l34.2,19.749L36.511,40.79,2.652,21.409,36.69,1.672Zm0-1.261-36.227,21L36.5,42.051,73.083,21.433,36.69.411Z" transform="translate(-0.416 -0.411)" fill="#fff"/></g></g><g transform="translate(83.65 73.681)"><g transform="translate(0 0)"><path d="M54.534,63.714,54.45,21.4,17.974.446V42.561Z" transform="translate(18.229 -0.374)" fill="#ebecec" opacity="0.75"/><path d="M.465,21.4.394,63.333l36.167-20.8L36.525.48Z" transform="translate(-0.322 -0.338)" fill="#d1d1d1" opacity="0.75"/><path d="M.515,41.466,36.432,20.944,72.98,42.109,36.468,62.738Z" transform="translate(-0.194 21.255)" fill="#dcdcdc" opacity="0.75"/><path d="M1.5,11.157,35.313,30.621l.2,41.188L1.453,52.1V12.514ZM.359,10.634v42.1L36.633,73.724l-.214-43.746L2.619,10.634Z" transform="translate(-0.359 10.376)" fill="#fff"/><path d="M36.609,1.672,70.8,21.421,36.478,40.79,2.583,21.409,36.609,1.672Zm0-1.261-36.227,21,36.1,20.641L73.061,21.433,36.656.411Z" transform="translate(-0.334 -0.411)" fill="#fff"/></g></g><g transform="translate(143.945 108.682)"><g transform="translate(0 0)"><path d="M54.343,63.391l-.083-42.318L17.783.11V42.226Z" transform="translate(18.408 -0.039)" fill="#ebecec" opacity="0.75"/><path d="M.28,21.066.208,63,36.364,42.195,36.328.151Z" transform="translate(-0.137 0.004)" fill="#d1d1d1" opacity="0.75"/><path d="M.324,41.13,36.241,20.608,72.789,41.773,36.277,62.4Z" transform="translate(-0.015 21.591)" fill="#dcdcdc" opacity="0.75"/><path d="M1.3,10.834,35.127,30.285l.2,41.2L1.268,51.771V12.19ZM.174,10.3V52.4L36.448,73.388l-.214-43.734L2.422,10.31Z" transform="translate(-0.174 10.712)" fill="#fff"/><path d="M36.418,1.348,70.61,21.1,36.239,40.466,2.392,21.074,36.418,1.348Zm0-1.273L.191,21.085,36.239,41.727,72.823,21.109Z" transform="translate(-0.155 -0.075)" fill="#fff"/></g></g><g transform="translate(24.862 110.109)"><g transform="translate(0 0)"><path d="M54.273,63.506,54.19,21.188,17.714.237V42.353Z" transform="translate(18.442 -0.142)" fill="#ebecec" opacity="0.75"/><path d="M.216,21.187.133,63.124,36.3,42.316,36.265.272Z" transform="translate(-0.109 -0.106)" fill="#d1d1d1" opacity="0.75"/><path d="M.255,41.252,36.172,20.729,72.72,41.906,36.208,62.524Z" transform="translate(0.019 21.481)" fill="#dcdcdc" opacity="0.75"/><path d="M1.216,10.955,35.04,30.419l.2,41.188L1.18,51.893V12.311ZM.122,10.42V52.512L36.348,73.474l-.214-43.746L2.334,10.42Z" transform="translate(-0.122 10.602)" fill="#fff"/><path d="M36.348,1.476,70.54,21.213,36.17,40.594,2.323,21.213,36.348,1.476Zm0-1.261-36.227,21L36.17,41.855,72.753,21.213,36.348.191Z" transform="translate(-0.122 -0.191)" fill="#fff"/></g></g><g transform="translate(263.637 110.133)"><g transform="translate(0 0)"><path d="M54.7,63.506l-.083-42.318L18.136.237V42.353Z" transform="translate(18.055 -0.166)" fill="#ebecec" opacity="0.75"/><path d="M.633,21.187.562,63.124,36.717,42.316,36.681.272Z" transform="translate(-0.49 -0.129)" fill="#d1d1d1" opacity="0.75"/><path d="M.683,41.252,36.588,20.729,73.136,41.906l-36.5,20.618Z" transform="translate(-0.362 21.458)" fill="#dcdcdc" opacity="0.75"/><path d="M1.657,10.955,35.48,30.419l.2,41.188L1.621,51.893V12.311Zm-1.13-.523V52.523L36.8,73.474l-.226-43.746L2.775,10.42Z" transform="translate(-0.527 10.579)" fill="#fff"/><path d="M36.783,1.464,70.963,21.2,36.592,40.569,2.745,21.2,36.783,1.464Zm0-1.261L.544,21.2,36.592,41.842,73.188,21.2,36.783.2Z" transform="translate(-0.508 -0.203)" fill="#fff"/></g></g><g transform="translate(203.977 145.158)"><g transform="translate(0 0)"><path d="M54.6,63.761,54.52,21.443,18.055.492V42.608Z" transform="translate(18.148 -0.421)" fill="#ebecec" opacity="0.75"/><path d="M.546,21.442.475,63.379,36.642,42.571,36.606.527Z" transform="translate(-0.403 -0.384)" fill="#d1d1d1" opacity="0.75"/><path d="M.6,41.507,36.514,20.984,73.049,42.161l-36.5,20.618Z" transform="translate(-0.275 21.203)" fill="#dcdcdc" opacity="0.75"/><path d="M1.582,11.2,35.394,30.667l.214,41.188L1.534,52.142V12.572ZM.44,10.68v42.1L36.714,73.77l-.226-43.746L2.7,10.68Z" transform="translate(-0.44 10.33)" fill="#fff"/><path d="M36.69,1.718l34.2,19.749L36.511,40.836,2.652,21.456,36.69,1.718Zm0-1.261-36.227,21L36.5,42.1,73.083,21.479Z" transform="translate(-0.416 -0.457)" fill="#fff"/></g></g><g transform="translate(83.65 145.158)"><g transform="translate(0 0)"><path d="M54.534,63.761,54.45,21.443,17.974.492V42.608Z" transform="translate(18.229 -0.421)" fill="#ebecec" opacity="0.75"/><path d="M.465,21.442.394,63.379,36.561,42.571,36.525.527Z" transform="translate(-0.322 -0.384)" fill="#d1d1d1" opacity="0.75"/><path d="M.515,41.507,36.432,20.984,72.98,42.161,36.468,62.779Z" transform="translate(-0.194 21.203)" fill="#dcdcdc" opacity="0.75"/><path d="M1.5,11.2,35.313,30.667l.2,41.188L1.453,52.142V12.572ZM.359,10.68v42.1L36.633,73.77l-.214-43.746L2.619,10.68Z" transform="translate(-0.359 10.33)" fill="#fff"/><path d="M36.609,1.718,70.8,21.468,36.478,40.836,2.583,21.456,36.609,1.718Zm0-1.261-36.227,21L36.478,42.1,73.061,21.479,36.656.457Z" transform="translate(-0.334 -0.457)" fill="#fff"/></g></g><g transform="translate(143.945 177.28)"><g transform="translate(0 0)"><path d="M54.343,63.761l-.083-42.318L17.783.492V42.608Z" transform="translate(18.408 -0.421)" fill="#ebecec" opacity="0.75"/><path d="M.28,21.442.208,63.379,36.364,42.571,36.328.527Z" transform="translate(-0.137 -0.384)" fill="#d1d1d1" opacity="0.75"/><path d="M.324,41.507,36.241,20.984,72.789,42.161,36.277,62.779Z" transform="translate(-0.015 21.203)" fill="#dcdcdc" opacity="0.75"/><path d="M1.3,11.2,35.127,30.667l.2,41.188L1.268,52.142V12.56ZM.174,10.68V52.772l36.274,21-.214-43.746L2.434,10.68Z" transform="translate(-0.174 10.33)" fill="#fff"/><path d="M36.418,1.718,70.61,21.468,36.239,40.836,2.392,21.456,36.418,1.718Zm0-1.261-36.227,21L36.239,42.1,72.823,21.479Z" transform="translate(-0.155 -0.457)" fill="#fff"/></g></g></g></svg>