<svg xmlns="http://www.w3.org/2000/svg" width="72.742" height="84.077" viewBox="0 0 72.742 84.077"><g transform="translate(-838.862 -2619.109)"><path d="M13.569,77.79,49.486,57.268,86.034,78.433,49.522,99.062Z" transform="translate(825.571 2568.953)" fill="#acb8bf" style="mix-blend-mode:multiply;isolation:isolate"/><g transform="translate(838.862 2619.109)"><g transform="translate(0 0)"><path d="M54.273,63.506,54.19,21.188,17.714.237V42.353Z" transform="translate(18.442 -0.142)" fill="#ebecec" opacity="0.75"/><path d="M.216,21.187.133,63.124,36.3,42.316,36.265.272Z" transform="translate(-0.109 -0.106)" fill="#d1d1d1" opacity="0.75"/><path d="M.255,41.252,36.172,20.729,72.72,41.906,36.208,62.524Z" transform="translate(0.019 21.481)" fill="#dcdcdc" opacity="0.75"/><path d="M1.216,10.955,35.04,30.419l.2,41.188L1.18,51.893V12.311ZM.122,10.42V52.512L36.348,73.474l-.214-43.746L2.334,10.42Z" transform="translate(-0.122 10.602)"/><path d="M36.348,1.476,70.54,21.213,36.17,40.594,2.323,21.213,36.348,1.476Zm0-1.261-36.227,21L36.17,41.855,72.753,21.213,36.348.191Z" transform="translate(-0.122 -0.191)"/></g></g></g></svg>