<svg xmlns="http://www.w3.org/2000/svg" width="210.781" height="141.143" viewBox="0 0 210.781 141.143"><path d="M851.8,453.663a2.768,2.768,0,0,1,.426-.091l5.756-11.7-1.757-2.634,3.629-3.172,4.562,5.583-9.291,13.522a2.759,2.759,0,1,1-3.324-1.513Z" transform="translate(-678.785 -369.16)" fill="#a0616a"/><path d="M864.371,422.261a1.189,1.189,0,0,1-.267.211l-5.889,3.414a1.183,1.183,0,0,1-1.662-.517l-2.864-6.051a1.177,1.177,0,0,1,.4-1.484l3.651-2.483a1.183,1.183,0,0,1,1.5.143l5.1,5.12a1.184,1.184,0,0,1,.022,1.648Z" transform="translate(-681.534 -353.735)" fill="#ccc"/><path d="M705.069,482.053l-3.109.846-4.743-11.59,4.589-1.249Z" transform="translate(-513.964 -346.512)" fill="#a0616a"/><path d="M3.913,0h6.214V3.913H0A3.913,3.913,0,0,1,3.913,0Z" transform="translate(181.758 137.13) rotate(-15.221)" fill="#2f2e41"/><path d="M612.624,489.856H609.4l-1.533-12.429h4.756Z" transform="translate(-448.1 -351.942)" fill="#a0616a"/><path d="M593.97,521.212h6.214v3.913H590.057A3.913,3.913,0,0,1,593.97,521.212Z" transform="translate(-434.97 -384.219)" fill="#2f2e41"/><circle cx="6.456" cy="6.456" r="6.456" transform="translate(161.464 44.578)" fill="#a0616a"/><path d="M806.838,533.176h-4.4a1.186,1.186,0,0,1-1.182-1.11c-1.312-20.859-.545-35.822,2.415-47.088a1.237,1.237,0,0,1,.048-.145l.236-.59a1.177,1.177,0,0,1,1.1-.744h9.055a1.181,1.181,0,0,1,.9.413l1.23,1.435c.024.028.046.056.068.086,5.546,7.734,10.516,22.855,16.273,43.178a1.179,1.179,0,0,1-.778,1.45l-4.732,1.514a1.189,1.189,0,0,1-1.426-.613l-12.28-25.471a.92.92,0,0,0-1.74.275l-3.608,26.385A1.187,1.187,0,0,1,806.838,533.176Z" transform="translate(-642.511 -404.124)" fill="#2f2e41"/><path d="M823.107,423.883h-.037l-11-.347a1.179,1.179,0,0,1-1.138-1.039c-1.394-11.287,2.43-14.31,4.138-15.086a.909.909,0,0,0,.529-.721l.148-1.183a1.179,1.179,0,0,1,.234-.574,13.516,13.516,0,0,1,8.28-4.936,1.181,1.181,0,0,1,1.38,1.012l.222,1.7a.935.935,0,0,0,.187.445c5.588,7.3-.637,18.09-1.942,20.178h0A1.185,1.185,0,0,1,823.107,423.883Z" transform="translate(-649.88 -342.553)" fill="#ccc"/><path d="M830.437,354.418a25.689,25.689,0,0,0-5.127-5.367,15.225,15.225,0,0,0-5.443-2.88,8.441,8.441,0,0,0-6.036.539c-1.825.97-3.713,2.9-3.724,4.965,0,.664.165,1.563.819,1.448l.189.025,4.733-.956,2.016,7a1.351,1.351,0,0,0,2.19,1.076c.073-.031.7-1.441.7-1.441a.263.263,0,0,1,.453-.076l.373.466a.526.526,0,0,0,.613.157l7.718-3.222c.356-.148.753-.342.856-.714A1.271,1.271,0,0,0,830.437,354.418Z" transform="translate(-649.493 -302.658)" fill="#2f2e41"/><path d="M777.353,717.026H698.239a.263.263,0,0,1,0-.526h79.113a.263.263,0,0,1,0,.526Z" transform="translate(-566.834 -575.883)" fill="#3f3d56"/><path d="M819.483,540.354a.842.842,0,0,1-.5-.164l-1.2-.869a.58.58,0,0,0-.684,0l-1.2.869a.845.845,0,0,1-1.3-.944l.457-1.406a.58.58,0,0,0-.211-.65l-1.2-.869a.845.845,0,0,1,.5-1.528h1.479a.58.58,0,0,0,.553-.4l.457-1.406a.845.845,0,0,1,1.607,0l.457,1.406a.58.58,0,0,0,.553.4h1.479a.845.845,0,0,1,.5,1.528l-1.2.869a.58.58,0,0,0-.211.651l.457,1.406a.832.832,0,0,1-.307.944A.843.843,0,0,1,819.483,540.354Z" transform="translate(-651.855 -440.17)" fill="#e00"/><path d="M841.613,470.669a2.824,2.824,0,0,0,.37-4.314l2.043-24.673-6.083.837-.116,23.972a2.839,2.839,0,0,0,3.786,4.178Z" transform="translate(-669.412 -373.297)" fill="#a0616a"/><path d="M843.24,425.663a1.186,1.186,0,0,1-.336-.049l-6.531-1.921a1.182,1.182,0,0,1-.769-1.562l2.417-6.243a1.177,1.177,0,0,1,1.354-.728l4.314.938a1.183,1.183,0,0,1,.931,1.188l-.2,7.226A1.184,1.184,0,0,1,843.24,425.663Z" transform="translate(-668.229 -353.725)" fill="#ccc"/><path d="M312.568,468.56H200.863a1.842,1.842,0,0,1-1.84-1.84V433.34a1.842,1.842,0,0,1,1.84-1.84H312.568a1.842,1.842,0,0,1,1.84,1.84v33.38A1.842,1.842,0,0,1,312.568,468.56ZM200.863,432.026a1.316,1.316,0,0,0-1.314,1.314v33.38a1.316,1.316,0,0,0,1.314,1.314H312.568a1.316,1.316,0,0,0,1.314-1.314V433.34a1.316,1.316,0,0,0-1.314-1.314Z" transform="translate(-199.024 -365.791)" fill="#3f3d56"/><path d="M370.793,598.644a1.032,1.032,0,0,1-.608-.2l-1.466-1.065a.71.71,0,0,0-.838,0l-1.466,1.065a1.035,1.035,0,0,1-1.592-1.157l.56-1.723a.711.711,0,0,0-.259-.8l-1.466-1.065a1.035,1.035,0,0,1,.608-1.872h1.812a.711.711,0,0,0,.678-.492l.56-1.723a1.035,1.035,0,0,1,1.968,0l.56,1.723a.711.711,0,0,0,.678.492h1.812a1.035,1.035,0,0,1,.608,1.872l-1.466,1.065a.711.711,0,0,0-.259.8l.56,1.723a1.019,1.019,0,0,1-.376,1.157A1.031,1.031,0,0,1,370.793,598.644Z" transform="translate(-320.073 -481.82)" fill="#e00"/><path d="M427.3,598.644a1.032,1.032,0,0,1-.608-.2l-1.466-1.065a.71.71,0,0,0-.838,0l-1.466,1.065a1.035,1.035,0,0,1-1.592-1.157l.56-1.723a.711.711,0,0,0-.259-.8l-1.466-1.065a1.035,1.035,0,0,1,.608-1.872h1.812a.711.711,0,0,0,.678-.492l.56-1.723a1.035,1.035,0,0,1,1.968,0l.56,1.723a.711.711,0,0,0,.678.492h1.812a1.035,1.035,0,0,1,.608,1.872l-1.466,1.065a.711.711,0,0,0-.259.8l.56,1.723a1.019,1.019,0,0,1-.376,1.157A1.032,1.032,0,0,1,427.3,598.644Z" transform="translate(-361.729 -481.82)" fill="#e00"/><path d="M483.81,598.644a1.032,1.032,0,0,1-.608-.2l-1.466-1.065a.712.712,0,0,0-.838,0l-1.466,1.065a1.035,1.035,0,0,1-1.592-1.157l.56-1.723a.711.711,0,0,0-.259-.8l-1.466-1.065a1.035,1.035,0,0,1,.608-1.872H479.1a.711.711,0,0,0,.678-.492l.56-1.723a1.035,1.035,0,0,1,1.968,0l.56,1.723a.711.711,0,0,0,.678.492h1.812a1.035,1.035,0,0,1,.608,1.872l-1.466,1.065a.711.711,0,0,0-.259.8l.56,1.723a1.019,1.019,0,0,1-.376,1.157A1.032,1.032,0,0,1,483.81,598.644Z" transform="translate(-403.385 -481.82)" fill="#e00"/><path d="M540.319,598.644a1.032,1.032,0,0,1-.608-.2l-1.466-1.065a.71.71,0,0,0-.838,0l-1.466,1.065a1.035,1.035,0,0,1-1.592-1.157l.56-1.723a.711.711,0,0,0-.259-.8l-1.466-1.065a1.035,1.035,0,0,1,.608-1.872H535.6a.711.711,0,0,0,.678-.492l.56-1.723a1.035,1.035,0,0,1,1.968,0l.56,1.723a.711.711,0,0,0,.678.492h1.812a1.035,1.035,0,0,1,.608,1.872L541,594.766a.711.711,0,0,0-.259.8l.56,1.723a1.019,1.019,0,0,1-.376,1.157A1.031,1.031,0,0,1,540.319,598.644Z" transform="translate(-445.041 -481.82)" fill="#e00"/><path d="M591.556,598.461a1.134,1.134,0,0,1-.668-.221,1.12,1.12,0,0,1-.413-1.271l.56-1.723a.61.61,0,0,0-.222-.683l-1.466-1.065a1.136,1.136,0,0,1,.668-2.056h1.812a.609.609,0,0,0,.581-.422l.56-1.723a1.137,1.137,0,0,1,2.162,0l.56,1.723a.609.609,0,0,0,.581.422h1.812a1.136,1.136,0,0,1,.668,2.056l-1.466,1.065a.609.609,0,0,0-.222.683l.56,1.723a1.137,1.137,0,0,1-1.749,1.271l-1.466-1.065a.609.609,0,0,0-.718,0l-1.466,1.065A1.133,1.133,0,0,1,591.556,598.461Zm2.493-1.929a1.134,1.134,0,0,1,.668.218l1.466,1.065a.611.611,0,0,0,.94-.683l-.56-1.723a1.134,1.134,0,0,1,.413-1.271l1.466-1.065a.611.611,0,0,0-.359-1.1H596.27a1.134,1.134,0,0,1-1.081-.785l-.56-1.723a.611.611,0,0,0-1.162,0l-.56,1.723a1.133,1.133,0,0,1-1.081.785h-1.812a.611.611,0,0,0-.359,1.1l1.466,1.065a1.134,1.134,0,0,1,.413,1.271l-.56,1.723a.611.611,0,0,0,.94.683l1.466-1.065A1.135,1.135,0,0,1,594.049,596.532Z" transform="translate(-486.411 -481.535)" fill="#3f3d56"/><path d="M249.232,461.5a1.708,1.708,0,1,0,0,3.417H335.7a1.708,1.708,0,0,0,0-3.417Z" transform="translate(-234.776 -387.906)" fill="#ccc"/><path d="M249.232,495.5a1.708,1.708,0,1,0,0,3.417H335.7a1.708,1.708,0,0,0,0-3.417Z" transform="translate(-234.776 -412.97)" fill="#ccc"/><path d="M249.232,529.5a1.708,1.708,0,1,0,0,3.417H335.7a1.708,1.708,0,0,0,0-3.417Z" transform="translate(-234.776 -438.033)" fill="#ccc"/><path d="M249.232,461.5a1.708,1.708,0,1,0,0,3.417H335.7a1.708,1.708,0,0,0,0-3.417Z" transform="translate(-234.776 -387.906)" fill="#ccc"/><path d="M249.232,495.5a1.708,1.708,0,1,0,0,3.417H335.7a1.708,1.708,0,0,0,0-3.417Z" transform="translate(-234.776 -412.97)" fill="#ccc"/><path d="M249.232,529.5a1.708,1.708,0,1,0,0,3.417H335.7a1.708,1.708,0,0,0,0-3.417Z" transform="translate(-234.776 -438.033)" fill="#ccc"/><path d="M312.568,218.56H200.863a1.842,1.842,0,0,1-1.84-1.84V183.34a1.842,1.842,0,0,1,1.84-1.84H312.568a1.842,1.842,0,0,1,1.84,1.84v33.38A1.842,1.842,0,0,1,312.568,218.56ZM200.863,182.026a1.316,1.316,0,0,0-1.314,1.314v33.38a1.316,1.316,0,0,0,1.314,1.314H312.568a1.316,1.316,0,0,0,1.314-1.314V183.34a1.316,1.316,0,0,0-1.314-1.314Z" transform="translate(-199.024 -181.5)" fill="#3f3d56"/><path d="M370.793,348.644a1.031,1.031,0,0,1-.608-.2l-1.466-1.065a.71.71,0,0,0-.838,0l-1.466,1.065a1.035,1.035,0,0,1-1.592-1.157l.56-1.723a.711.711,0,0,0-.259-.8l-1.466-1.065a1.035,1.035,0,0,1,.608-1.872h1.812a.711.711,0,0,0,.678-.492l.56-1.723a1.035,1.035,0,0,1,1.968,0l.56,1.723a.711.711,0,0,0,.678.492h1.812a1.035,1.035,0,0,1,.608,1.872l-1.466,1.065a.711.711,0,0,0-.259.8l.56,1.723a1.019,1.019,0,0,1-.376,1.157A1.032,1.032,0,0,1,370.793,348.644Z" transform="translate(-320.072 -297.529)" fill="#e00"/><path d="M427.3,348.644a1.032,1.032,0,0,1-.608-.2l-1.466-1.065a.71.71,0,0,0-.838,0l-1.466,1.065a1.035,1.035,0,0,1-1.592-1.157l.56-1.723a.711.711,0,0,0-.259-.8l-1.466-1.065a1.035,1.035,0,0,1,.608-1.872h1.812a.711.711,0,0,0,.678-.492l.56-1.723a1.035,1.035,0,0,1,1.968,0l.56,1.723a.711.711,0,0,0,.678.492h1.812a1.035,1.035,0,0,1,.608,1.872l-1.466,1.065a.711.711,0,0,0-.259.8l.56,1.723a1.019,1.019,0,0,1-.376,1.157,1.032,1.032,0,0,1-.608.2Z" transform="translate(-361.729 -297.529)" fill="#e00"/><path d="M483.81,348.644a1.031,1.031,0,0,1-.608-.2l-1.466-1.065a.712.712,0,0,0-.838,0l-1.466,1.065a1.035,1.035,0,0,1-1.592-1.157l.56-1.723a.711.711,0,0,0-.259-.8l-1.466-1.065a1.035,1.035,0,0,1,.608-1.872H479.1a.711.711,0,0,0,.678-.492l.56-1.723a1.035,1.035,0,0,1,1.968,0l.56,1.723a.711.711,0,0,0,.678.492h1.812a1.035,1.035,0,0,1,.608,1.872l-1.466,1.065a.711.711,0,0,0-.259.8l.56,1.723a1.019,1.019,0,0,1-.376,1.157A1.031,1.031,0,0,1,483.81,348.644Z" transform="translate(-403.385 -297.529)" fill="#e00"/><path d="M591.556,348.461a1.133,1.133,0,0,1-.668-.221,1.12,1.12,0,0,1-.413-1.271l.56-1.723a.61.61,0,0,0-.222-.683l-1.466-1.065a1.136,1.136,0,0,1,.668-2.056h1.812a.609.609,0,0,0,.581-.422l.56-1.723a1.137,1.137,0,0,1,2.162,0l.56,1.723a.609.609,0,0,0,.581.422h1.812a1.137,1.137,0,0,1,.668,2.056l-1.466,1.065a.609.609,0,0,0-.222.683l.56,1.723a1.137,1.137,0,0,1-1.749,1.271l-1.466-1.065a.609.609,0,0,0-.718,0l-1.466,1.065A1.133,1.133,0,0,1,591.556,348.461Zm2.493-1.929a1.134,1.134,0,0,1,.668.218l1.466,1.065a.611.611,0,0,0,.94-.683l-.56-1.723a1.134,1.134,0,0,1,.413-1.271l1.466-1.065a.611.611,0,0,0-.359-1.105H596.27a1.134,1.134,0,0,1-1.081-.785l-.56-1.723a.611.611,0,0,0-1.162,0l-.56,1.723a1.133,1.133,0,0,1-1.081.785h-1.812a.611.611,0,0,0-.359,1.105l1.466,1.065a1.134,1.134,0,0,1,.413,1.271l-.56,1.723a.611.611,0,0,0,.94.683l1.466-1.065A1.134,1.134,0,0,1,594.049,346.532Z" transform="translate(-486.411 -297.243)" fill="#3f3d56"/><path d="M534.556,348.3a1.134,1.134,0,0,1-.668-.221,1.12,1.12,0,0,1-.413-1.271l.56-1.723a.609.609,0,0,0-.222-.683l-1.466-1.065a1.136,1.136,0,0,1,.668-2.056h1.812a.609.609,0,0,0,.581-.422l.56-1.723a1.137,1.137,0,0,1,2.162,0l.56,1.723a.609.609,0,0,0,.581.422h1.812a1.137,1.137,0,0,1,.668,2.056l-1.466,1.065a.609.609,0,0,0-.222.683l.56,1.723a1.137,1.137,0,0,1-1.749,1.271l-1.466-1.065a.609.609,0,0,0-.718,0l-1.466,1.065A1.133,1.133,0,0,1,534.556,348.3Zm2.493-1.929a1.134,1.134,0,0,1,.668.218l1.466,1.065a.611.611,0,0,0,.94-.683l-.56-1.723a1.134,1.134,0,0,1,.413-1.271l1.466-1.065a.611.611,0,0,0-.359-1.105H539.27a1.134,1.134,0,0,1-1.081-.785l-.56-1.723a.611.611,0,0,0-1.162,0l-.56,1.723a1.133,1.133,0,0,1-1.081.785h-1.812a.611.611,0,0,0-.359,1.1l1.466,1.065a1.134,1.134,0,0,1,.413,1.271l-.56,1.723a.611.611,0,0,0,.94.683l1.466-1.065A1.134,1.134,0,0,1,537.049,346.371Z" transform="translate(-444.393 -297.125)" fill="#3f3d56"/><path d="M249.232,211.5a1.708,1.708,0,1,0,0,3.417H335.7a1.708,1.708,0,0,0,0-3.417Z" transform="translate(-234.776 -203.615)" fill="#ccc"/><path d="M249.232,245.5a1.708,1.708,0,1,0,0,3.417H335.7a1.708,1.708,0,0,0,0-3.417Z" transform="translate(-234.776 -228.679)" fill="#ccc"/><path d="M249.232,279.5a1.708,1.708,0,1,0,0,3.417H335.7a1.708,1.708,0,0,0,0-3.417Z" transform="translate(-234.776 -253.742)" fill="#ccc"/><path d="M249.232,211.5a1.708,1.708,0,1,0,0,3.417H335.7a1.708,1.708,0,0,0,0-3.417Z" transform="translate(-234.776 -203.615)" fill="#ccc"/><path d="M249.232,245.5a1.708,1.708,0,1,0,0,3.417H335.7a1.708,1.708,0,0,0,0-3.417Z" transform="translate(-234.776 -228.679)" fill="#ccc"/><path d="M249.232,279.5a1.708,1.708,0,1,0,0,3.417H335.7a1.708,1.708,0,0,0,0-3.417Z" transform="translate(-234.776 -253.742)" fill="#ccc"/></svg>