<svg xmlns="http://www.w3.org/2000/svg" width="227.756" height="141.143" viewBox="0 0 227.756 141.143"><path d="M932.249,487.341l-.151-.193-.149-.194-.148-.2-.146-.2q-.122-2.837,0-5.624.116-2.767.468-5.468.348-2.68.923-5.278.57-2.578,1.358-5.058.09-.286.183-.57t.19-.564q.1-.281.2-.56t.2-.556q.759-2.071,1.672-4.041t1.957-3.8q1.043-1.835,2.224-3.557t2.476-3.3l.137-.166.137-.165.138-.165.138-.164.1-.117.1-.117.1-.116q.051-.058.1-.114l.082-.045.082-.045.082-.045.081-.045.005,0,.005,0,.005,0,.005,0,.033-.018.032-.018.032-.018.031-.018.142-.076.141-.075.141-.075.14-.075-.107-.054-.269-.134h0l.069.031.068.032.068.032.068.033.026.011.026.011.027.011.026.013.023.01.023.01.023.01.023.01c.979.449,1.961.9,2.93,1.382s1.923.976,2.851,1.512a30.467,30.467,0,0,1,2.688,1.738,22.057,22.057,0,0,1,2.443,2.048,16.057,16.057,0,0,1,2.151,2.6,14.264,14.264,0,0,1,1.512,2.952,10.564,10.564,0,0,1,.659,3.084,7.6,7.6,0,0,1-.42,2.991q-.069.188-.148.37t-.17.359q-.09.177-.191.347t-.211.335q-.046.069-.094.136l-.1.133-.1.132-.1.13a6.843,6.843,0,0,1-2.384,1.9,7.626,7.626,0,0,1-2.98.739,8.743,8.743,0,0,1-3.2-.464,9.562,9.562,0,0,1-3.023-1.7,9.729,9.729,0,0,1-.879-.823,9.625,9.625,0,0,1-.763-.917,9.4,9.4,0,0,1-.637-1,9.061,9.061,0,0,1-.5-1.062,7.94,7.94,0,0,0,.515,3.323,12.716,12.716,0,0,0,1.734,3.109,22.653,22.653,0,0,0,2.526,2.827c.926.888,1.909,1.72,2.88,2.486s1.977,1.55,2.95,2.368a33.074,33.074,0,0,1,2.773,2.572,16.851,16.851,0,0,1,2.238,2.887,10.932,10.932,0,0,1,1.344,3.326,8.658,8.658,0,0,1-.042,3.881,9.286,9.286,0,0,1-.635,1.8,10.16,10.16,0,0,1-.984,1.653l-.036.047-.036.047-.036.047-.037.047a11.244,11.244,0,0,1-3.418,2.968,11.464,11.464,0,0,1-2.1.919,11.846,11.846,0,0,1-2.3.495,14.98,14.98,0,0,1-4.442-.254,19.762,19.762,0,0,1-4.354-1.457,26.474,26.474,0,0,1-4.1-2.392,32.707,32.707,0,0,1-3.7-3.046q-.461-.439-.9-.894t-.871-.926q-.428-.471-.837-.956T932.249,487.341Z" transform="translate(-734.331 -376.667)" fill="#f2f2f2"/><path d="M993.206,465.426a21.8,21.8,0,0,1-7.1-5.883A21.061,21.061,0,0,1,984.4,457a20.6,20.6,0,0,1-1.128-2.327,19.5,19.5,0,0,1-.8-2.392,18.334,18.334,0,0,1-.47-2.419,17.159,17.159,0,0,1-.132-2.41q0-.068,0-.135t0-.135q0-.068.005-.134l.007-.134-.115.092-.115.093-.114.094-.114.094-.073.061-.073.061-.073.061-.072.062.1-.117.1-.121.1-.116.1-.114.082-.045.082-.045.08-.045.081-.045.005,0,.005,0,.005,0,.005,0,.033-.018.033-.018.032-.018.031-.018.142-.076.141-.075.141-.075.141-.075-.11-.055-.269-.134h0l.069.031.068.032.068.032.068.033.026.011.026.011.027.011.026.013,0,.043,0,.04,0,.04,0,.04a16.34,16.34,0,0,0,.21,4.06,18.281,18.281,0,0,0,1.2,4.011,20.028,20.028,0,0,0,2.13,3.775,21.12,21.12,0,0,0,2.982,3.346,21.49,21.49,0,0,0,3.636,2.624,20.944,20.944,0,0,0,1.981,1,20.277,20.277,0,0,0,2.059.774q-.046.069-.094.136l-.1.133-.1.132q-.051.066-.1.13-.4-.134-.805-.285t-.8-.319q-.4-.168-.787-.352T993.206,465.426Z" transform="translate(-771.411 -376.665)" fill="#fff"/><path d="M946.312,524.9q-.451-.673-.851-1.371t-.748-1.416q-.348-.718-.642-1.453t-.534-1.484q-.122-.4-.225-.8t-.187-.8q-.084-.4-.149-.8t-.11-.805q-.023-.187-.041-.376t-.032-.376q-.014-.188-.024-.376t-.016-.375q.09-.286.183-.57t.189-.565q.1-.281.2-.56t.2-.556q-.023.232-.038.465t-.025.467q-.009.234-.012.47t0,.472q0,.129,0,.258t.007.258q0,.129.011.258t.015.258a16.386,16.386,0,0,0,.452,2.858,19.136,19.136,0,0,0,.927,2.78,23.005,23.005,0,0,0,1.336,2.673,27.688,27.688,0,0,0,1.674,2.538q.976,1.319,2.062,2.569t2.256,2.431q1.17,1.18,2.409,2.287t2.52,2.138q1.311,1.058,2.675,2.036t2.773,1.87q1.408.892,2.859,1.7t2.934,1.518a.416.416,0,0,1,.121.089.433.433,0,0,1,.081.123.416.416,0,0,1,.034.141.384.384,0,0,1-.019.145.32.32,0,0,1-.021.058.294.294,0,0,1-.032.052.271.271,0,0,1-.09.077.238.238,0,0,1-.058.018.253.253,0,0,1-.061,0,.266.266,0,0,1-.061-.011.278.278,0,0,1-.059-.025l-.366-.177-.365-.178-.364-.181-.364-.185q-1.512-.777-2.983-1.646t-2.9-1.83q-1.427-.96-2.8-2.007t-2.692-2.176c-.848-.725-1.686-1.475-2.5-2.25s-1.614-1.575-2.381-2.4-1.5-1.676-2.2-2.552S946.921,525.829,946.312,524.9Z" transform="translate(-742.686 -426.001)" fill="#fff"/><path d="M785.262,199.231l-.722.094,4.841-18.168a7.842,7.842,0,0,0,.169-3.735,4.93,4.93,0,0,0-1.505-2.632,5.636,5.636,0,0,0-2.835-1.316,9.755,9.755,0,0,0-3.841.172h0l-32.9,7.492a11.618,11.618,0,0,0-3.259,1.341,17.093,17.093,0,0,0-3.051,2.313,18.653,18.653,0,0,0-2.555,2.979,15.186,15.186,0,0,0-1.764,3.372h0l-34.422,94.676a19.547,19.547,0,0,0-1.106,4.831,14.659,14.659,0,0,0,.211,4.389,9.018,9.018,0,0,0,1.486,3.488,5.667,5.667,0,0,0,2.726,2.056h0l34.759,11.966a9.05,9.05,0,0,0,4.8.286,12.017,12.017,0,0,0,4.7-2.165,16.649,16.649,0,0,0,3.969-4.253,20.054,20.054,0,0,0,2.605-5.862h0l23.3-87.461.731-.059Z" transform="translate(-562.648 -172.353)" fill="#2f2e41"/><path d="M775.262,195.231l-.722.094,4.841-18.168a7.843,7.843,0,0,0,.169-3.735,4.929,4.929,0,0,0-1.505-2.632,5.636,5.636,0,0,0-2.835-1.316,9.754,9.754,0,0,0-3.841.172h0l-32.9,7.492a11.616,11.616,0,0,0-3.259,1.341,17.09,17.09,0,0,0-3.051,2.313,18.647,18.647,0,0,0-2.555,2.979,15.187,15.187,0,0,0-1.764,3.372h0l-34.422,94.676a19.557,19.557,0,0,0-1.106,4.831,14.661,14.661,0,0,0,.211,4.389,9.019,9.019,0,0,0,1.486,3.488,5.668,5.668,0,0,0,2.726,2.056h0l34.759,11.966a9.05,9.05,0,0,0,4.8.286,12.015,12.015,0,0,0,4.7-2.165,16.647,16.647,0,0,0,3.969-4.253,20.055,20.055,0,0,0,2.605-5.862h0l23.3-87.461.731-.059Z" transform="translate(-555.163 -169.359)" fill="#3f3d56"/><path d="M778.283,179.337l-4.836,1.059a2.821,2.821,0,0,1-.122,1.243,5.028,5.028,0,0,1-.649,1.316,6.988,6.988,0,0,1-2.448,2.2q-.176.094-.351.173t-.35.144q-.174.065-.346.114t-.34.083L749.936,189.5a2.243,2.243,0,0,1-1.065-.012,1.308,1.308,0,0,1-.7-.474,1.56,1.56,0,0,1-.287-.85,3,3,0,0,1,.181-1.144q.05-.148.115-.3t.14-.3q.075-.151.165-.3t.188-.3l-3.58.784a8.6,8.6,0,0,0-2.448.991,12.733,12.733,0,0,0-2.3,1.735,13.928,13.928,0,0,0-1.929,2.246,11.316,11.316,0,0,0-1.324,2.542l-34.357,95.5a14.538,14.538,0,0,0-.816,3.641,10.819,10.819,0,0,0,.185,3.284,6.625,6.625,0,0,0,1.141,2.582,4.2,4.2,0,0,0,2.054,1.492h0L740.307,312a6.815,6.815,0,0,0,3.572.16,9.048,9.048,0,0,0,3.473-1.629,12.454,12.454,0,0,0,2.925-3.143,14.957,14.957,0,0,0,1.933-4.32h0L784.2,185.005a5.915,5.915,0,0,0,.145-2.778,3.707,3.707,0,0,0-1.1-1.978,4.177,4.177,0,0,0-2.1-1.011A7.2,7.2,0,0,0,778.283,179.337Z" transform="translate(-562.369 -176.679)" fill="#fff"/><path d="M723.75,289.53H654.1v-23.6H723.75Z" transform="translate(-526.614 -241.643)" fill="#fff"/><rect width="68.266" height="33.092" transform="translate(108.506 56.218)" fill="#fff"/><circle cx="4.938" cy="4.938" r="4.938" transform="translate(114.658 62.233)" fill="#e00"/><path d="M665.639,423.385a.823.823,0,1,0,0,1.646h38.8a.823.823,0,1,0,0-1.646Z" transform="translate(-534.639 -359.506)" fill="#e6e6e6"/><path d="M665.634,443.022a.823.823,0,1,0,0,1.646h16.7a.823.823,0,0,0,0-1.646Z" transform="translate(-534.634 -374.205)" fill="#e6e6e6"/><path d="M604.3,474.415c-.626,0-1.135.369-1.135.823s.509.823,1.135.823h53.53c.626,0,1.135-.369,1.135-.823s-.51-.823-1.135-.823Z" transform="translate(-488.487 -397.704)" fill="#e6e6e6"/><path d="M604.3,494.052c-.626,0-1.135.369-1.135.823s.509.823,1.135.823H645.5c.626,0,1.135-.369,1.135-.823s-.509-.823-1.135-.823Z" transform="translate(-488.487 -412.403)" fill="#e6e6e6"/><path d="M645.529,424.64H575.874V390.16h69.655Zm-68.266-1.388h66.878v-31.7H577.263Z" transform="translate(-468.063 -334.636)" fill="#e6e6e6"/><circle cx="4.938" cy="4.938" r="4.938" transform="translate(134.328 30.992)" fill="#e00"/><path d="M743.861,299.151a.823.823,0,1,0,0,1.646h38.8a.823.823,0,1,0,0-1.646Z" transform="translate(-593.19 -266.513)" fill="#e6e6e6"/><path d="M743.855,318.788a.823.823,0,1,0,0,1.646h30.529a.823.823,0,1,0,0-1.646Z" transform="translate(-593.185 -281.212)" fill="#e6e6e6"/><path d="M723.75,289.53H654.1v-23.6H723.75Zm-68.266-1.388h66.878V267.314H655.484Z" transform="translate(-526.614 -241.643)" fill="#e6e6e6"/><path d="M239.683,507.673h3.511l1.67-13.544h-5.182Z" transform="translate(-179.41 -369.873)" fill="#ffb6b6"/><path d="M0,0H11.035V4.264H3.744A3.744,3.744,0,0,1,0,.52Z" transform="translate(70.555 141.06) rotate(179.997)" fill="#2f2e41"/><path d="M100.06,494.564l3.077,1.692,7.989-11.063-4.541-2.5Z" transform="translate(-74.898 -361.315)" fill="#ffb6b6"/><path d="M0,0H11.035V4.264H3.744A3.744,3.744,0,0,1,0,.52Z" transform="translate(32.602 141.06) rotate(-151.199)" fill="#2f2e41"/><path d="M291.774,497.722A1.289,1.289,0,0,1,290.5,496.6l-4.391-33.838a.716.716,0,0,0-1.337-.254l-18.3,33.2a1.3,1.3,0,0,1-1.587.583l-3.989-1.52a1.289,1.289,0,0,1-.735-1.69l12.677-31.143a.993.993,0,0,0,.065-.247c1.717-13.29,6.086-20.049,7.384-21.8a1,1,0,0,0,.142-.909l-.178-.535a1.288,1.288,0,0,1,.248-1.254c4.677-5.328,12.83-2.42,12.912-2.391l.041.015.026.035c9.141,12.537,5.761,53.255,4.991,61.291a1.285,1.285,0,0,1-1.184,1.16l-5.405.416C291.841,497.721,291.807,497.722,291.774,497.722Z" transform="translate(-231.666 -367.44)" fill="#2f2e41"/><circle cx="7.814" cy="7.814" r="7.814" transform="translate(49.816 20.63)" fill="#ffb8b8"/><path d="M328.274,361.579l22.994,2.093c-2-6.971-3.841-13.917-2.344-20.838,1.9-6.179,2.078-9.6-2.937-12.512l-3.386-7.554-6.128-.223-2.988-.819a19.679,19.679,0,0,0-2.793,13.013C331.99,344.591,331.639,353.734,328.274,361.579Z" transform="translate(-282.726 -283.411)" fill="#e00"/><path d="M334.406,270.2l-2.313-10.616a16.158,16.158,0,0,1,.353-7.561,6.2,6.2,0,0,1,.281-.738,8.489,8.489,0,0,1,7.188-4.932c5.256-.363,6.028.191,6.218.464,2.97-.12,5.273,1.028,6.324,3.151a1.6,1.6,0,0,1-1,2.247,15.6,15.6,0,0,1-5.079.755c-3.1,3.72-1.834,10.537,1.313,14.6l.124.16-3.118.639-3.623-5.046a.537.537,0,0,0-.962.421l1.1,5.344Z" transform="translate(-285.367 -226.901)" fill="#2f2e41"/><path d="M218.04,559.649H0V559.1H218.14Z" transform="translate(0 -418.507)" fill="#cacaca"/><path d="M309.915,397.845l-56.871,40.217L239.415,418.79l56.871-40.217Z" transform="translate(-216.211 -325.963)" fill="#fff"/><circle cx="4.938" cy="4.938" r="4.938" transform="matrix(0.816, -0.577, 0.577, 0.816, 32.668, 94.352)" fill="#e00"/><path d="M332.854,445.258a.823.823,0,1,0,.95,1.344l31.678-22.4a.823.823,0,1,0-.95-1.344Z" transform="translate(-285.894 -358.998)" fill="#e6e6e6"/><path d="M344.188,475.509a.823.823,0,1,0,.948,1.346l0,0,24.923-17.625a.823.823,0,1,0-.95-1.344Z" transform="translate(-294.376 -385.217)" fill="#e6e6e6"/><path d="M309.915,397.845l-56.871,40.217L239.415,418.79l56.871-40.217Zm-56.539,38.282,54.6-38.614-12.025-17-54.6,38.614Z" transform="translate(-216.211 -325.963)" fill="#e6e6e6"/><path d="M1031.469,426.814a1.456,1.456,0,0,1,.59.1,1.394,1.394,0,0,1,.474.316,1.41,1.41,0,0,1,.31.482,1.5,1.5,0,0,1,.1.6,1.621,1.621,0,0,1-.144.607,1.7,1.7,0,0,1-.348.5,1.678,1.678,0,0,1-.5.345,1.572,1.572,0,0,1-.6.137,1.453,1.453,0,0,1-.59-.106,1.392,1.392,0,0,1-.471-.318,1.411,1.411,0,0,1-.307-.482,1.5,1.5,0,0,1-.1-.6,1.617,1.617,0,0,1,.143-.6,1.7,1.7,0,0,1,.345-.5,1.682,1.682,0,0,1,.5-.345,1.576,1.576,0,0,1,.6-.139Z" transform="translate(-807.906 -362.073)" fill="#f2f2f2"/><path d="M365.3,406.606l-3.7-20.217.26-12.5-8.335-.26,1.563,14.066,5.389,19.5a3.522,3.522,0,1,0,4.821-.59Z" transform="translate(-301.629 -322.26)" fill="#ffb8b8"/><path d="M351.457,335.385a13.172,13.172,0,0,1,9.377,0l-.521-10.419a4.168,4.168,0,0,0-4.168-4.168h0a4.168,4.168,0,0,0-4.168,4.168Z" transform="translate(-300.078 -282.716)" fill="#e00"/></svg>