<svg xmlns="http://www.w3.org/2000/svg" width="48" height="36.303" viewBox="0 0 48 36.303"><g transform="translate(-0.5 -0.5)"><path d="M32.518,21.422c3.155,0,7.719-.65,7.719-4.4a3.529,3.529,0,0,0-.078-.862L38.28,8c-.434-1.795-.814-2.609-3.967-4.185C31.867,2.565,26.539.5,24.963.5,23.5.5,23.069,2.391,21.319,2.391c-1.684,0-2.935-1.412-4.511-1.412-1.513,0-2.5,1.031-3.261,3.151,0,0-2.121,5.98-2.393,6.847a1.621,1.621,0,0,0-.055.489c0,2.324,9.154,9.945,21.419,9.945m8.2-2.869a12.542,12.542,0,0,1,.436,2.554c0,3.529-3.969,5.488-9.186,5.488-11.791.008-22.12-6.9-22.12-11.466a4.65,4.65,0,0,1,.381-1.848C5.99,13.483.5,14.24.5,19.085.5,27.021,19.309,36.8,34.2,36.8c11.418,0,14.3-5.163,14.3-9.24,0-3.207-2.774-6.847-7.774-9.02" fill="#e00"/><path d="M68.45,49.655a12.542,12.542,0,0,1,.436,2.554c0,3.529-3.969,5.488-9.186,5.488-11.791.008-22.12-6.9-22.12-11.466a4.65,4.65,0,0,1,.381-1.848l.923-2.284a1.621,1.621,0,0,0-.055.479c0,2.324,9.154,9.945,21.419,9.945,3.155,0,7.719-.65,7.719-4.4a3.529,3.529,0,0,0-.078-.862Z" transform="translate(-27.73 -31.113)"/></g></svg>