<svg xmlns="http://www.w3.org/2000/svg" width="131.173" height="141.142" viewBox="0 0 131.173 141.142"><g transform="translate(-0.004 0)"><path d="M394.21,219.117l-56.7,14.6a7.5,7.5,0,0,1-9.12-5.385L311.24,161.742a7.5,7.5,0,0,1,5.385-9.12l52.752-13.584,13.5,6.044L399.6,210A7.5,7.5,0,0,1,394.21,219.117Z" transform="translate(-310.999 -139.037)" fill="#f2f2f2"/><path d="M324.506,162.462a5.339,5.339,0,0,0-3.835,6.495l17.148,66.592a5.339,5.339,0,0,0,6.495,3.835l56.7-14.6a5.339,5.339,0,0,0,3.835-6.495l-16.457-63.909-11.866-5.312Z" transform="translate(-318.343 -146.79)" fill="#fff"/><path d="M581.136,146.032l-8.775,2.26a2.494,2.494,0,0,1-3.038-1.793l-1.669-6.481a.156.156,0,0,1,.214-.181l13.292,5.9a.156.156,0,0,1-.024.293Z" transform="translate(-509.401 -139.644)" fill="#f2f2f2"/><path d="M513.489,409.4l-25.816,6.648a1.247,1.247,0,0,1-.622-2.416l25.816-6.648a1.247,1.247,0,1,1,.622,2.415Z" transform="translate(-446.37 -346.146)" fill="#ccc"/><path d="M523.1,421.71l-30.8,7.931a1.247,1.247,0,1,1-.622-2.415l30.8-7.931a1.247,1.247,0,1,1,.622,2.415Z" transform="translate(-449.945 -355.661)" fill="#ccc"/><circle cx="4.408" cy="4.408" r="4.408" transform="translate(26.359 69.094)" fill="#e6e6e6"/><path d="M436.957,245.986l-34.286,8.826a3.862,3.862,0,0,1-4.7-2.774l-7.185-27.912a3.862,3.862,0,0,1,2.774-4.7l34.286-8.826a3.862,3.862,0,0,1,4.7,2.775l7.185,27.912A3.862,3.862,0,0,1,436.957,245.986Z" transform="translate(-372.584 -194.266)" fill="#fff"/><path d="M436.957,245.986l-34.286,8.826a3.862,3.862,0,0,1-4.7-2.774l-7.185-27.912a3.862,3.862,0,0,1,2.774-4.7l34.286-8.826a3.862,3.862,0,0,1,4.7,2.775l7.185,27.912A3.862,3.862,0,0,1,436.957,245.986Zm-43.281-26.119a3.408,3.408,0,0,0-2.448,4.145l7.185,27.912a3.408,3.408,0,0,0,4.145,2.448l34.286-8.826a3.408,3.408,0,0,0,2.448-4.145l-7.185-27.912a3.408,3.408,0,0,0-4.145-2.448Z" transform="translate(-372.584 -194.266)" fill="#e6e6e6"/><path d="M485.245,248.189l-17.3,4.454a.62.62,0,0,1-.751-.39.6.6,0,0,1,.42-.758l17.614-4.534c.712.361.524,1.1.02,1.228Z" transform="translate(-431.72 -222.468)" fill="#f2f2f2"/><path d="M488.688,261.563l-17.3,4.454a.62.62,0,0,1-.751-.39.6.6,0,0,1,.42-.758l17.614-4.534c.712.361.524,1.1.02,1.228Z" transform="translate(-434.381 -232.807)" fill="#f2f2f2"/><path d="M433.2,271.5l-5.281,1.359a.672.672,0,0,1-.818-.483l-1.6-6.232a.672.672,0,0,1,.483-.818l5.281-1.359a.672.672,0,0,1,.818.483l1.6,6.232a.672.672,0,0,1-.483.818Z" transform="translate(-399.496 -235.598)" fill="#e6e6e6"/><path d="M464.5,289l-26.408,6.8a.62.62,0,0,1-.751-.39.6.6,0,0,1,.42-.758l26.719-6.878C465.193,288.136,465.005,288.873,464.5,289Z" transform="translate(-408.644 -254.02)" fill="#f2f2f2"/><path d="M467.945,302.381l-26.408,6.8a.62.62,0,0,1-.751-.39.6.6,0,0,1,.42-.758l26.719-6.878C468.636,301.513,468.449,302.251,467.945,302.381Z" transform="translate(-411.307 -264.362)" fill="#f2f2f2"/><path d="M471.386,315.75l-26.408,6.8a.62.62,0,0,1-.751-.39.6.6,0,0,1,.421-.758l26.719-6.878c.712.361.524,1.1.02,1.228Z" transform="translate(-413.967 -274.697)" fill="#f2f2f2"/><path d="M474.829,329.127l-26.408,6.8a.62.62,0,0,1-.751-.39.6.6,0,0,1,.421-.758L474.81,327.9C475.521,328.259,475.334,329,474.829,329.127Z" transform="translate(-416.629 -285.038)" fill="#f2f2f2"/><path d="M478.271,342.5l-26.408,6.8a.62.62,0,0,1-.751-.39.6.6,0,0,1,.42-.758l26.719-6.878C478.963,341.63,478.776,342.367,478.271,342.5Z" transform="translate(-419.29 -295.374)" fill="#f2f2f2"/><path d="M441.938,457.029a.457.457,0,0,1-.289-.02l-.006,0-1.2-.509a.46.46,0,1,1,.36-.847l.778.331,1.02-2.4a.46.46,0,0,1,.6-.243h0l-.006.016.006-.016a.461.461,0,0,1,.243.6l-1.2,2.82a.46.46,0,0,1-.31.265Z" transform="translate(-410.846 -381.982)" fill="#fff"/><path d="M548.515,318.457H489.964a7.5,7.5,0,0,1-7.489-7.489V242.2a7.5,7.5,0,0,1,7.489-7.489h54.473L556,243.935v67.033A7.5,7.5,0,0,1,548.515,318.457Z" transform="translate(-443.556 -213.001)" fill="#e6e6e6"/><path d="M497.308,244.215a5.339,5.339,0,0,0-5.333,5.333v68.764a5.339,5.339,0,0,0,5.333,5.333h58.552a5.339,5.339,0,0,0,5.333-5.333V252.318l-10.166-8.1Z" transform="translate(-450.9 -220.345)" fill="#fff"/><path d="M628.239,323.823H601.582a1.247,1.247,0,1,1,0-2.494h26.658a1.247,1.247,0,0,1,0,2.494Z" transform="translate(-534.668 -279.958)" fill="#c00"/><path d="M633.384,342.369h-31.8a1.247,1.247,0,0,1,0-2.494h31.8a1.247,1.247,0,1,1,0,2.494Z" transform="translate(-534.668 -294.296)" fill="#c00"/><path d="M628.243,404.443H601.586a1.247,1.247,0,1,0,0,2.494h26.657a1.247,1.247,0,0,0,0-2.494Z" transform="translate(-534.672 -344.21)" fill="#ccc"/><path d="M633.388,422.993h-31.8a1.247,1.247,0,1,0,0,2.494h31.8a1.247,1.247,0,0,0,0-2.494Z" transform="translate(-534.672 -358.551)" fill="#ccc"/><path d="M628.239,490.058H601.582a1.247,1.247,0,1,1,0-2.494h26.658a1.247,1.247,0,0,1,0,2.494Z" transform="translate(-534.668 -408.467)" fill="#ccc"/><path d="M633.384,508.6h-31.8a1.247,1.247,0,0,1,0-2.494h31.8a1.247,1.247,0,1,1,0,2.494Z" transform="translate(-534.668 -422.805)" fill="#ccc"/><circle cx="4.408" cy="4.408" r="4.408" transform="translate(51.404 40.314)" fill="#c00"/><path d="M549.894,332.087a.457.457,0,0,1-.275-.091l0,0-1.036-.792a.46.46,0,0,1,.56-.731l.671.515,1.586-2.069a.46.46,0,0,1,.645-.085h0l-.01.014.01-.014a.461.461,0,0,1,.085.645l-1.865,2.432a.461.461,0,0,1-.366.18Z" transform="translate(-494.518 -285.683)" fill="#fff"/><path d="M548.306,404.194A4.408,4.408,0,0,1,543.9,408.6a.94.94,0,0,1-.114,0,4.408,4.408,0,1,1,4.521-4.4Z" transform="translate(-487.632 -340.61)" fill="#ccc"/><circle cx="4.408" cy="4.408" r="4.408" transform="translate(51.404 78.04)" fill="#ccc"/><path d="M766.119,244.826h-9.062a2.494,2.494,0,0,1-2.494-2.494v-6.693a.156.156,0,0,1,.253-.122l11.4,9.031a.156.156,0,0,1-.1.278Z" transform="translate(-653.895 -213.595)" fill="#ccc"/><path d="M560.6,404.409a4.408,4.408,0,0,1-4.407,4.41.965.965,0,0,1-.113,0,9.543,9.543,0,0,1,.856-8.751A4.41,4.41,0,0,1,560.6,404.409Z" transform="translate(-499.927 -340.824)" fill="#c00"/><path d="M600.334,405.691a1.25,1.25,0,0,1,1.248-1.248h6.643a9.434,9.434,0,0,1,.819,2.494h-7.462a1.248,1.248,0,0,1-1.248-1.246Z" transform="translate(-534.668 -344.21)" fill="#c00"/><path d="M609.2,422.993a9.514,9.514,0,0,1-.331,2.494h-7.285a1.247,1.247,0,1,1,0-2.494Z" transform="translate(-534.672 -358.551)" fill="#c00"/><path d="M649.1,450.706a1.362,1.362,0,0,1-1.872.453l-15.887-9.691a1.362,1.362,0,1,1,1.418-2.325l15.887,9.691A1.362,1.362,0,0,1,649.1,450.706Z" transform="translate(-558.133 -370.882)" fill="#3f3d56"/><path d="M573.02,391.635a10.893,10.893,0,1,1-3.627-14.972A10.893,10.893,0,0,1,573.02,391.635Zm-16.275-9.927a8.17,8.17,0,1,0,11.229-2.72,8.17,8.17,0,0,0-11.229,2.72Z" transform="translate(-497.941 -321.502)" fill="#3f3d56"/><circle cx="5.574" cy="5.574" r="5.574" transform="translate(104.407 55.059)" fill="#a0616a"/><path d="M793.608,470.824a2.5,2.5,0,0,1,1.889-3.212,2.383,2.383,0,0,1,.331-.041l5.871-9.423-5.363-5.1a2.141,2.141,0,1,1,2.978-3.076l7.4,7.3.015.018a1.939,1.939,0,0,1-.135,2.311l-8.227,9.73a2.338,2.338,0,0,1,.061.237,2.5,2.5,0,0,1-2.241,2.977q-.106.009-.212.009A2.5,2.5,0,0,1,793.608,470.824Z" transform="translate(-683.987 -378.943)" fill="#a0616a"/><path d="M430.165,572.444h-2.782l-1.324-10.732h4.106Z" transform="translate(-329.364 -434.235)" fill="#a0616a"/><path d="M727.717,747.64h-8.971v-.113a3.492,3.492,0,0,1,3.492-3.492h5.479Z" transform="translate(-626.207 -606.734)" fill="#2f2e41"/><path d="M535.287,560.64l-2.391,1.423-6.628-8.544,3.528-2.1Z" transform="translate(-406.831 -426.278)" fill="#a0616a"/><path d="M857.641,729.146l-7.708,4.59-.058-.1a3.492,3.492,0,0,1,1.214-4.787h0l4.708-2.8Z" transform="translate(-727.196 -592.829)" fill="#2f2e41"/><path d="M730.681,554.452c-1.864-21.947-2.973-42.335,3.841-50.652l.053-.064,11.466,4.587.019.041c.039.084,3.852,8.473,2.963,14.115l2.828,13.01,9.222,15.442a1.022,1.022,0,0,1-.465,1.459l-4.008,1.763a1.026,1.026,0,0,1-1.282-.4l-10.032-16.358-5.666-12.547a.34.34,0,0,0-.649.1l-3.141,29.525a1.019,1.019,0,0,1-1.015.913H731.7A1.028,1.028,0,0,1,730.681,554.452Z" transform="translate(-634.337 -420.969)" fill="#2f2e41"/><path d="M751.889,453.991l-.055-.026-.009-.06a19.366,19.366,0,0,1,1.507-9.9,7.86,7.86,0,0,1,9.124-4.708h0a7.851,7.851,0,0,1,5.007,3.85,7.767,7.767,0,0,1,.538,6.224c-1.8,5.265-4.136,10.191-4.16,10.241l-.049.1Z" transform="translate(-651.666 -370.986)" fill="#c00"/><path d="M694.25,455.007a2.5,2.5,0,0,1,3.67.644,2.37,2.37,0,0,1,.154.3l10.883,2.2,2.9-6.809a2.141,2.141,0,1,1,3.924,1.712l-4.246,9.493-.012.02a1.939,1.939,0,0,1-2.212.683l-11.995-4.3a2.344,2.344,0,0,1-.2.141,2.5,2.5,0,0,1-3.573-1.057q-.046-.1-.083-.195A2.5,2.5,0,0,1,694.25,455.007Z" transform="translate(-606.537 -379.469)" fill="#a0616a"/><path d="M792.718,385.445a4.544,4.544,0,0,0-2.353-2.174c-1.336-.454-2.782.029-4.155.352a7.7,7.7,0,0,1-3.229.191,3.626,3.626,0,0,1-2.58-1.8c-.714-1.431-.112-3.137-.156-4.735a5.75,5.75,0,0,0-7.245-5.4c-1.315-.379-2.505-.415-3.318.6a3.858,3.858,0,0,0-3.858,3.858h3.689a3.665,3.665,0,0,0,.557,2.708c.651.957,1.784,1.649,2,2.785a3.56,3.56,0,0,1-1.323,2.947,6.124,6.124,0,0,0-1.942,2.688,3.334,3.334,0,0,0,.477,2.4,7.81,7.81,0,0,0,1.676,1.846,24.6,24.6,0,0,0,10.221,5.229,12.149,12.149,0,0,0,8.027-.371,7.971,7.971,0,0,0,3.51-11.113Z" transform="translate(-662.6 -318.843)" fill="#2f2e41"/><path d="M740.347,759.417H697.228a.227.227,0,0,1,0-.454h43.119a.227.227,0,0,1,0,.454Z" transform="translate(-609.397 -618.274)" fill="#ccc"/></g></svg>