<svg xmlns="http://www.w3.org/2000/svg" width="170.736" height="141.143" viewBox="0 0 170.736 141.143"><path d="M424.989,198.88H254.747a.247.247,0,0,1,0-.494H424.989a.247.247,0,0,1,0,.494Z" transform="translate(-254.5 -189.985)" fill="#cacaca"/><circle cx="2.718" cy="2.718" r="2.718" transform="translate(3.091)" fill="#3f3d56"/><circle cx="2.718" cy="2.718" r="2.718" transform="translate(12.48)" fill="#3f3d56"/><circle cx="2.718" cy="2.718" r="2.718" transform="translate(21.869)" fill="#3f3d56"/><path d="M549.642,289.815H506.494a2.032,2.032,0,1,1,0-4.065h43.148a2.032,2.032,0,0,1,0,4.065Z" transform="translate(-442.699 -255.763)" fill="#e4e4e4"/><path d="M563.883,261.659H534.649a2.032,2.032,0,0,1,0-4.065h29.234a2.032,2.032,0,1,1,0,4.065Z" transform="translate(-463.898 -234.564)" fill="#e4e4e4"/><circle cx="18.037" cy="18.037" r="18.037" transform="translate(12.535 55.404)" fill="#f0f0f0"/><circle cx="18.037" cy="18.037" r="18.037" transform="translate(129.16 55.404)" fill="#f0f0f0"/><circle cx="18.037" cy="18.037" r="18.037" transform="translate(67.388 55.404)" fill="#f0f0f0"/><path d="M828.822,478.4a27.794,27.794,0,0,0-4.434-1.866l-.2-2.157-7.908-.852-1.005,2.757-2.838,1.065a1.383,1.383,0,0,0-.288.15h0a2.8,2.8,0,0,0-1.3.45,2.883,2.883,0,0,0-.7.624c.384.291.783.561,1.194.819l.018.009c.117.072.237.144.357.213.216.129.438.252.66.369l.141.072c.324.168.654.327.993.474l.213.09.015.006c.159.066.318.129.48.189a15.764,15.764,0,0,0,1.626.522,16.723,16.723,0,0,0,4.311.564c.531,0,1.056-.024,1.575-.075a16.651,16.651,0,0,0,3.492-.705l.009,0a16.386,16.386,0,0,0,2.1-.831s.009,0,.012-.006c.153-.072.3-.15.45-.225l.072-.036c.12-.063.24-.126.36-.192.3-.165.594-.339.885-.525.081-.048.159-.1.24-.153.114-.075.228-.153.339-.234C829.413,478.731,829.122,478.56,828.822,478.4Z" transform="translate(-672.859 -397.139)" fill="#c00"/><circle cx="5.696" cy="5.696" r="5.696" transform="translate(141.374 63.629)" fill="#a0616a"/><path d="M826.55,417.435a3.6,3.6,0,0,0,2.508.975,23.62,23.62,0,0,0,6.414-.524c.13,1.264-.225,2.626.519,3.666a17.023,17.023,0,0,0,.6-3.858,3.692,3.692,0,0,0-.214-1.652,1.52,1.52,0,0,0-1.295-.954,3.244,3.244,0,0,1,1.447-.619l-1.809-.909.464-.477-3.274-.2.948-.6a20.563,20.563,0,0,0-4.308-.136,3.7,3.7,0,0,0-1.905.53,1.376,1.376,0,0,0-.517,1.722,2.5,2.5,0,0,0-1.906,1.512,4.038,4.038,0,0,0-.145,1.941,13.759,13.759,0,0,0,.721,3.051Z" transform="translate(-683.304 -350.885)" fill="#2f2e41"/><circle cx="2.408" cy="2.408" r="2.408" transform="translate(84.018 58.859)" fill="#2f2e41"/><path d="M592.219,405.1a2.408,2.408,0,0,1,.876-4.042,2.408,2.408,0,1,0,1.116,4.664,2.4,2.4,0,0,1-1.992-.622Z" transform="translate(-507.882 -342.577)" fill="#2f2e41"/><circle cx="7.074" cy="7.074" r="7.074" transform="translate(79.401 62.549)" fill="#2f2e41"/><path d="M572.409,422.139a7.073,7.073,0,0,1,9.8-.742c-.058-.055-.115-.11-.175-.164a7.074,7.074,0,1,0-9.441,10.538l.04.036c.06.053.122.1.183.155a7.073,7.073,0,0,1-.412-9.823Z" transform="translate(-492.227 -356.41)" fill="#2f2e41"/><circle cx="4.556" cy="4.556" r="4.556" transform="translate(81.859 67.525)" fill="#a0616a"/><path d="M574.09,482.875V484.4c-.28.179-.562.346-.851.5-.115.063-.231.124-.346.185l-.069.035c-.144.072-.286.147-.433.216,0,0-.009,0-.012.006a15.749,15.749,0,0,1-2.016.8l-.009,0a16.012,16.012,0,0,1-3.357.678c-.5.049-1,.072-1.514.072a16.074,16.074,0,0,1-4.145-.542,15.608,15.608,0,0,1-2.025-.684l-.015-.006-.2-.087c-.326-.141-.643-.294-.955-.456l-.135-.069c-.332-.176-.658-.361-.978-.56l-.017-.009a15.789,15.789,0,0,1-1.425-1c-.234-.179-.458-.366-.678-.562-.115-.1-.231-.2-.34-.3a15.6,15.6,0,0,1-1.2-1.235,5.835,5.835,0,0,1,.219-.885l0,0a1.288,1.288,0,0,1,.061-.144,1.157,1.157,0,0,1,.055-.121,2.74,2.74,0,0,1,2.61-1.258c.655-.029,1.379,0,2.143-.006.4,0,.822-.017,1.24-.055,2.639-.239,2.16-1.8,2.279-2.636.118-.813.851-.11.9-.063l0,0a9.308,9.308,0,0,0,4.788.839c.283-.035.565-.055.848-.063.744-.009.583.2.326.381a3.235,3.235,0,0,1-.389.219s-.118.721-.239,1.8c-.115,1.033,3.522,1.39,4.234,1.615h0a2.6,2.6,0,0,1,1.638,1.863Z" transform="translate(-479.523 -398.922)" fill="#c00"/><ellipse cx="0.36" cy="0.659" rx="0.36" ry="0.659" transform="translate(81.439 70.463)" fill="#a0616a"/><ellipse cx="0.36" cy="0.659" rx="0.36" ry="0.659" transform="translate(90.672 70.463)" fill="#a0616a"/><path d="M346.629,434.079l.866,3,11.061-.2-.1-5.494c-.077-4.348-3.15-8.1-7.5-8.022s-7.113,3.753-7.037,8.1l.632,5.661,1.8-.032Z" transform="translate(-321.828 -359.375)" fill="#2f2e41"/><circle cx="4.963" cy="4.963" r="4.963" transform="translate(24.665 66.875)" fill="#ffb6b6"/><path d="M362.919,435.248a1.925,1.925,0,0,0-.342-1.062c-.023-.032-.046-.062-.069-.092a1.934,1.934,0,0,0-1.551-.741l-3.567.064-3.565.062a1.931,1.931,0,0,0-1.893,1.961l.849,1.709.489.982.08-.046c3.085-1.734,4.347-1.757,8.43-.145l.083.032.323-.828.734-1.879Z" transform="translate(-327.859 -366.895)" fill="#2f2e41"/><path d="M356.9,484.246c-1.064-1.062-4.666-.64-4.666-.64l-9.506.6a8.389,8.389,0,0,0-4.7,2.528c.11.108.223.213.337.314a13.306,13.306,0,0,0,15.649,1.486,15.549,15.549,0,0,0,3.138-2.188c.323-.335.582-.328.869-.7a2.864,2.864,0,0,0-1.126-1.4Z" transform="translate(-317.389 -404.669)" fill="#c00"/><circle cx="18.037" cy="18.037" r="18.037" transform="translate(12.535 105.068)" fill="#f0f0f0"/><circle cx="18.037" cy="18.037" r="18.037" transform="translate(129.16 105.068)" fill="#f0f0f0"/><circle cx="18.037" cy="18.037" r="18.037" transform="translate(67.388 105.068)" fill="#f0f0f0"/><circle cx="4.987" cy="4.987" r="4.987" transform="translate(25.291 115.72)" fill="#ffb8b8"/><path d="M354.041,632.944s.424-.744.325-3.23,3.686-1.08,6.849-1.317,2.493,4.15,2.493,4.15a8.268,8.268,0,0,0,.717-2.378,6.913,6.913,0,0,0-.621-4.227c-.327-2.225-2.087-1.512-2.087-1.512a.923.923,0,0,1,.685,1.036c-.718-1.258-2.478-.545-2.478-.545-2.348-1.473-4.728.467-4.728.467a1.714,1.714,0,0,0-1.173,2.9C351.171,629.729,354.041,632.944,354.041,632.944Z" transform="translate(-328.482 -510.678)" fill="#2f2e41"/><path d="M353.822,685.414a27.79,27.79,0,0,0-4.434-1.866l-.2-2.157-7.908-.852L340.28,683.3l-2.838,1.065a1.386,1.386,0,0,0-.288.15h0a2.8,2.8,0,0,0-1.3.45,2.883,2.883,0,0,0-.7.624c.384.291.783.561,1.194.819l.018.009c.117.072.237.144.357.213.216.129.438.252.66.369l.141.072c.324.168.654.327.993.474l.213.09.015.006c.159.066.318.129.48.189a15.774,15.774,0,0,0,1.626.522,16.721,16.721,0,0,0,4.311.564c.531,0,1.056-.024,1.575-.075a16.651,16.651,0,0,0,3.492-.705l.009,0a16.39,16.39,0,0,0,2.1-.831s.009,0,.012-.006c.153-.072.3-.15.45-.225l.072-.036c.12-.063.24-.126.36-.192.3-.165.594-.339.885-.525.081-.048.159-.1.24-.153.114-.075.228-.153.339-.234C354.413,685.747,354.122,685.576,353.822,685.414Z" transform="translate(-315.225 -553.004)" fill="#c00"/><path d="M574.625,690.994l-3-.273-1.8-1.312a.01.01,0,0,0,0-.007l0,0-.072-.053-.009.083-3.032,1.166-3.115-.719-1.078,1.166-4.8,1.592a2.438,2.438,0,0,0-.6.568v0c.2.158.409.313.619.461a15.907,15.907,0,0,0,1.481.95,16.687,16.687,0,0,0,3.954,1.625q.188.052.376.1c.218.053.438.1.658.146q.668.139,1.351.218a16.571,16.571,0,0,0,2.019.121q.692,0,1.37-.053a16.875,16.875,0,0,0,2.36-.359c.028-.007.056-.012.083-.021a16.69,16.69,0,0,0,3.449-1.2c.169-.081.339-.165.505-.25q.616-.316,1.2-.681c.292-.181.577-.373.855-.573.172-.123.341-.248.508-.378l-.018-.038a3.994,3.994,0,0,0-3.254-2.28Z" transform="translate(-482.341 -559.639)" fill="#c00"/><path d="M577.2,629.252a5.524,5.524,0,0,0-1.175-.888,7.858,7.858,0,0,0-7.955-.072,7.488,7.488,0,0,0-1.62,1.286,7.581,7.581,0,0,0-2.107,5.225v5.776h15.108v-6.367A7.468,7.468,0,0,0,577.2,629.252Z" transform="translate(-487.787 -512.88)" fill="#2f2e41"/><circle cx="5.457" cy="5.457" r="5.457" transform="translate(78.357 116.629)" fill="#ffb8b8"/><path d="M581.875,633.228a.675.675,0,0,0-.382-.545,11.393,11.393,0,0,0-10.287.125h-.062l-.021.086c-.672,5.178-.577,5.292-.535,5.338a.675.675,0,0,0,.239.174.654.654,0,0,0,.267.056h7.784l.019-.088a12.7,12.7,0,0,1,.348-1.372,15.228,15.228,0,0,1,.855,1.4l.032.056h1.514a.538.538,0,0,0,.086-.007.649.649,0,0,0,.406-.211C582.176,638.2,582.274,638.094,581.875,633.228Z" transform="translate(-492.464 -516.096)" fill="#2f2e41"/><path d="M824.2,683.886l-.2-2.182L816,680.84l-1.014,2.792-2.876,1.078a1.41,1.41,0,0,0-.3.151,2.9,2.9,0,0,0-1.568.637c.065.054.131.106.2.158.014.014.029.025.043.036.183.142.371.282.56.416.05.036.1.072.151.106a15.032,15.032,0,0,0,1.292.82q.637.363,1.308.669a16.174,16.174,0,0,0,2.546.915q.183.051.366.095c.212.052.427.1.642.142q.651.135,1.317.212a16.147,16.147,0,0,0,1.968.117q.674,0,1.335-.052a16.461,16.461,0,0,0,2.3-.35c.027-.007.054-.011.081-.02a16.267,16.267,0,0,0,3.362-1.17c.165-.079.33-.16.492-.244q.6-.308,1.166-.664c.136-.084.269-.169.4-.26A25.248,25.248,0,0,0,824.2,683.886Z" transform="translate(-672.926 -553.232)" fill="#c00"/><circle cx="5.769" cy="5.769" r="5.769" transform="translate(140.994 114.69)" fill="#a0616a"/><path d="M825.009,624.172a3.643,3.643,0,0,0,2.54.987,23.923,23.923,0,0,0,6.5-.53c.133,1.28-.228,2.66.526,3.713a17.239,17.239,0,0,0,.612-3.907,3.742,3.742,0,0,0-.216-1.674,1.539,1.539,0,0,0-1.311-.967.481.481,0,0,0,.106-.5,1.636,1.636,0,0,0-1.24-1.229l-2.077-.5a8.925,8.925,0,0,0-3.4-.747,3.744,3.744,0,0,0-1.93.536,1.393,1.393,0,0,0-.524,1.744,2.533,2.533,0,0,0-1.93,1.532,4.088,4.088,0,0,0-.146,1.966,13.932,13.932,0,0,0,.73,3.091Z" transform="translate(-682.118 -506.524)" fill="#2f2e41"/><path d="M595.823,435a2.218,2.218,0,0,0-1.085-1.3,6.188,6.188,0,0,0-1.637-.575,10.77,10.77,0,0,0-3.065-.42,4.051,4.051,0,0,0-2.793,1.168,2.528,2.528,0,0,0-.451,2.867l-.057.233a4.271,4.271,0,0,0,4.174-2.056,3.9,3.9,0,0,0,3.69,1.793,1.729,1.729,0,0,0,.659-.19A1.371,1.371,0,0,0,595.823,435Z" transform="translate(-504.486 -366.405)" fill="#2f2e41"/><path d="M899.9,168.1h-6.671a.494.494,0,0,1,0-.988H899.9a.494.494,0,0,1,0,.988Z" transform="translate(-735.034 -166.44)" fill="#3f3d56"/><path d="M899.9,175.6h-6.671a.494.494,0,0,1,0-.988H899.9a.494.494,0,0,1,0,.988Z" transform="translate(-735.034 -172.087)" fill="#3f3d56"/><path d="M899.9,183.1h-6.671a.494.494,0,0,1,0-.988H899.9a.494.494,0,0,1,0,.988Z" transform="translate(-735.034 -177.734)" fill="#3f3d56"/></svg>