<svg xmlns="http://www.w3.org/2000/svg" xmlns:xlink="http://www.w3.org/1999/xlink" width="417.624" height="222.205" viewBox="0 0 417.624 222.205"><defs><linearGradient id="a" x1="0.5" y1="1" x2="0.5" y2="-0.001" gradientUnits="objectBoundingBox"><stop offset="0" stop-color="gray" stop-opacity="0.251"/><stop offset="0.54" stop-color="gray" stop-opacity="0.122"/><stop offset="1" stop-color="gray" stop-opacity="0.102"/></linearGradient></defs><g transform="translate(-1139 -112.001)"><path d="M464.966,348.683q-.7,1.5-1.392,2.968-1.083,2.274-2.138,4.46c-.313.646-.626,1.279-.93,1.913-3.449,7.047-6.67,13.279-9.405,18.405a29.362,29.362,0,0,1-25.592,15.521l-60.822.662h-.642l-5.214.056-4.46.048-13.676.148h-.553l-6.963.076h-.213l-42.914.465-38.306.4-4.456.048-27.674.3h-.032l-17.948.193h-.193l-56.751.614-16.977.185a35.322,35.322,0,0,1-10.7-1.532,34.648,34.648,0,0,1-15.678-9.926,80.19,80.19,0,0,1-16.175-27.577q-.774-2.2-1.444-4.46c-12.357-41.771,2.707-95.663,29.819-131.727q1.7-2.262,3.465-4.412l.028-.032c8.338-10.235,17.687-18.786,27.646-24.866,17.647-10.793,37.2-13.833,56.43-4.773A126.232,126.232,0,0,0,247.3,198.094c1.488.1,2.976.168,4.456.213,33.782,1.063,65.442-11.11,102.621-18.967,1.48-.313,2.964-.622,4.46-.914,26.523-5.278,55.945-8.061,90.934-2.21a75.839,75.839,0,0,1,10.733,2.567q2.314.746,4.46,1.6c16.7,6.794,25.809,19.348,29.679,35.077q.549,2.19.951,4.456C502.458,257.757,482.36,311.428,464.966,348.683Z" transform="translate(1059.649 -60.944)" fill="#f7f7f7"/><g transform="translate(1144.73 117.425)"><path d="M200.914,217V421.393l-16.977.185a35.323,35.323,0,0,1-10.7-1.532V241.866h.028C181.606,231.619,190.955,223.068,200.914,217Z" transform="translate(-139.955 -204.799)" fill="#e6e6e6"/><path d="M546.674,283.444H164.6q1.7-2.262,3.465-4.412V279H545.724Q546.273,281.178,546.674,283.444Z" transform="translate(-134.781 -241.933)" fill="#e6e6e6"/><path d="M1034.16,189.09V360.347h-1.392q-1.083,2.274-2.138,4.46c-.313.646-.626,1.279-.931,1.913V187.47Q1032.014,188.216,1034.16,189.09Z" transform="translate(-652.916 -187.113)" fill="#e6e6e6"/><path d="M769.55,186.58V400.851l-4.46.048v-213.4C766.57,187.182,768.054,186.873,769.55,186.58Z" transform="translate(-494.433 -186.58)" fill="#e6e6e6"/><path d="M502.566,235.833V431.386l-4.456.048V235.62C499.6,235.716,501.086,235.772,502.566,235.833Z" transform="translate(-334.53 -215.952)" fill="#e6e6e6"/><path d="M470.1,618.52q-1.083,2.274-2.138,4.46H91.694q-.774-2.2-1.444-4.46Z" transform="translate(-90.25 -445.282)" fill="#e6e6e6"/></g><g transform="translate(1198.969 158.287)"><rect width="7.117" height="21.597" transform="translate(39.516 68.112)" fill="#3f3d56"/><rect width="7.117" height="22.848" transform="translate(231.041 66.988)" fill="#3f3d56"/><path d="M389.643,515.825v4.869l-56.9.524-.607.011-21.627.2-.517.008-6.574.056h-.195l-40.071.371-65.777.611h-.056l-16.724.157-.18,0-74.313.682V517.7l17.473-10.488,35.059-.292.749,0,.247,0,.749-.011,16.833-.139.753,0,.24,0,.749,0,5.4-.045.142,0,13.316-.112h.109l103.9-.876,2.543-.019h.255l1.94-.019,14.1-.116.749-.011.693-.008h.36l4.386-.034.869-.011,1.165-.008,3.652-.034,5.794-.049.749-.008,1.3-.007h.243l27.984-.24Z" transform="translate(-106.1 -347.398)" fill="#65617d"/><path d="M389.643,515.825v4.869l-56.9.524-.607.011-21.627.2-.517.008-6.574.056h-.195l-40.071.371-65.777.611h-.056l-16.724.157-.18,0-74.313.682V517.7l17.473-10.488,35.059-.292.749,0,.247,0,.749-.011,16.833-.139.753,0,.24,0,.749,0,5.4-.045.142,0,13.316-.112h.109l103.9-.876,2.543-.019h.255l1.94-.019,14.1-.116.749-.011.693-.008h.36l4.386-.034.869-.011,1.165-.008,3.652-.034,5.794-.049.749-.008,1.3-.007h.243l27.984-.24Z" transform="translate(-106.1 -347.398)" opacity="0.2"/><path d="M345.938,656.57v9.173a2.3,2.3,0,0,1-1.311,2.075,2.245,2.245,0,0,1-.936.225l-13.072.277a2.249,2.249,0,0,1-1.011-.214,2.292,2.292,0,0,1-1.337-2.086v-9.45Z" transform="translate(-274.772 -506.867)" fill="#3f3d56"/><path d="M345.938,656.57v9.173a2.3,2.3,0,0,1-1.311,2.075,2.245,2.245,0,0,1-.936.225l-13.072.277a2.249,2.249,0,0,1-1.011-.214,2.292,2.292,0,0,1-1.337-2.086v-9.45Z" transform="translate(-274.772 -506.867)" opacity="0.1"/><path d="M347.938,656.57v9.173a2.3,2.3,0,0,1-1.311,2.075,2.244,2.244,0,0,1-.936.225l-13.072.277a2.249,2.249,0,0,1-1.011-.214,2.292,2.292,0,0,1-1.337-2.086v-9.45Z" transform="translate(-276.022 -506.867)" fill="#3f3d56"/><rect width="17.668" height="11.799" transform="translate(215.309 149.703)" fill="#3f3d56"/><rect width="17.668" height="11.799" transform="translate(215.309 149.703)" opacity="0.1"/><rect width="17.668" height="11.799" transform="translate(214.56 149.703)" fill="#3f3d56"/><path d="M218.717,265.82v2.146l-7.117-.184V265.82Z" transform="translate(-172.084 -197.712)" opacity="0.1"/><path d="M298.862,266.484l-8.551,61.428a1.611,1.611,0,0,1-1.637,1.39l-68.47-1.775-1.3-.034a1.611,1.611,0,0,1-1.558-1.824l9.6-64.3a1.611,1.611,0,0,1,1.7-1.36l68.717,4.652a1.607,1.607,0,0,1,1.5,1.828Z" transform="translate(-205.387 -258.837)" fill="#65617d"/><path d="M163.84,99.16l-7.24,56.682,62.926,2,7.738-54.686Z" transform="translate(-137.685 -93.476)" fill="#f5f9fb"/><rect width="76.661" height="64.923" rx="5.33" transform="translate(104.315 4.807)" fill="#65617d"/><rect width="69.668" height="54.06" transform="translate(107.933 9.178)" fill="#f5f9fb"/><path d="M730.047,262.82v1.42l-7.117.146V262.82Z" transform="translate(-491.89 -195.836)" opacity="0.1"/><path d="M776.012,322.682a1.154,1.154,0,0,1-1.124,1.229l-70.118,1.45a1.154,1.154,0,0,1-1.172-1.045l-6.027-62.657a1.154,1.154,0,0,1,1.094-1.262l69.586-3.461L769,256.9a1.15,1.15,0,0,1,1.206,1.049Z" transform="translate(-505.744 -256.896)" fill="#65617d"/><path d="M628.93,97.944l63.552-3.124,5.367,56.933-63.05,1.5Z" transform="translate(-433.098 -90.762)" fill="#f5f9fb"/><path d="M894.041,322.682a1.154,1.154,0,0,1-1.124,1.229l-6.637-66.975.749-.037a1.15,1.15,0,0,1,1.206,1.049Z" transform="translate(-623.773 -256.896)" opacity="0.1"/><path d="M228.658,259.992,220.2,327.518l-1.3-.034a1.611,1.611,0,0,1-1.558-1.824l9.6-64.3A1.611,1.611,0,0,1,228.658,259.992Z" transform="translate(-205.387 -258.83)" opacity="0.1"/><rect width="7.117" height="6.398" transform="translate(39.516 83.312)" opacity="0.1"/><path d="M268.6,483.65v1.862l-17.668.472V483.65Z" transform="translate(-196.682 -333.951)" opacity="0.1"/><path d="M335.915,482.8v63a1.5,1.5,0,0,1-1.442,1.479l-71.785,1.91h-.019a1.5,1.5,0,0,1-1.48-1.48V482.8a1.5,1.5,0,0,1,1.48-1.479h71.766A1.5,1.5,0,0,1,335.915,482.8Z" transform="translate(-232.817 -397.259)" fill="#65617d"/><path d="M262.688,481.32v67.871h-.019a1.5,1.5,0,0,1-1.48-1.48V482.8a1.5,1.5,0,0,1,1.48-1.479Z" transform="translate(-232.817 -397.259)" opacity="0.1"/><path d="M194.6,319.15h66.485v55.529l-66.485,1.5Z" transform="translate(-161.451 -231.067)" fill="#f5f9fb"/><rect width="7.117" height="6.525" transform="translate(231.041 83.312)" opacity="0.1"/><path d="M696.6,483.65v2.4l-17.668-.472V483.65Z" transform="translate(-464.37 -333.951)" opacity="0.1"/><path d="M742.89,482.8v64.911a1.5,1.5,0,0,1-1.5,1.48h0l-71.8-1.91a1.5,1.5,0,0,1-1.442-1.479v-63a1.5,1.5,0,0,1,1.479-1.479H741.4a1.5,1.5,0,0,1,1.495,1.479Z" transform="translate(-487.346 -397.259)" fill="#65617d"/><path d="M865.188,482.8v64.912a1.5,1.5,0,0,1-1.5,1.479h0V481.32h0a1.5,1.5,0,0,1,1.5,1.48Z" transform="translate(-609.644 -397.259)" opacity="0.1"/><path d="M664.585,319.15H598.1v55.529l66.485,1.5Z" transform="translate(-413.816 -231.067)" fill="#f5f9fb"/><path d="M538.415,482.8v63a1.5,1.5,0,0,1-1.442,1.479l-71.785,1.91h0a1.5,1.5,0,0,1-1.5-1.48V482.8a1.5,1.5,0,0,1,1.48-1.479h71.766A1.5,1.5,0,0,1,538.415,482.8Z" transform="translate(-359.468 -397.259)" fill="#65617d"/><path d="M397.1,319.15h66.485v55.529l-66.485,1.5Z" transform="translate(-288.103 -231.067)" fill="#f5f9fb"/><path d="M389.643,533.65v4.869l-56.9.524-.607.011-21.627.2-.517.008-6.574.056h-.195l-40.071.371-65.777.611h-.056l-16.724.157-.18,0-74.313.682v-5.618l75.852-.5h.18l15.353-.1h.071l106.031-.7h.109l.064,0h.176l1.794-.011h.547l27.9-.187,1.648-.008.367,0Z" transform="translate(-106.1 -365.223)" opacity="0.1"/><circle cx="19.226" cy="19.226" r="19.226" transform="translate(123.541 51.257)" fill="#fbbebe"/><path d="M383.74,489.233a.465.465,0,0,1,.037-.131c.375-1.345,1.041-3.618,1.539-5.435.064-.225.124-.446.18-.655.551-2.049,1.622-6.847,2.217-9.84.21-1.052.375-1.873.408-2.285a62.346,62.346,0,0,1,2.48-6.454c.9-2.187,1.873-4.577,2.588-6.592a22.983,22.983,0,0,0,1.1-3.689,1.91,1.91,0,0,0,0-.8,5.5,5.5,0,0,1-.18-1.311h0c-.086-2.322.607-5.993,1.678-7.532,1.311-1.873,2.247-8.862,2.247-8.862s1.94.281,2.247-1.322a2.3,2.3,0,0,0,.037-.524,2.773,2.773,0,0,0-.034-.416c-.333-2.337,5.514-4.824,8.8-5.36a7.362,7.362,0,0,1,1.124-.1,10.2,10.2,0,0,0,2.341-.539q.524-.161,1.124-.375c1.378-.464,3.026-1.079,4.776-1.753,6.577-2.551,14.54-5.993,14.54-5.993.056-.266.12-.521.191-.772a10.379,10.379,0,0,1,6.124-7.09h0v-.749c0-1.292-.056-2.622-.112-3.948,0-.258-.022-.517-.037-.775V405.5c0-.262-.026-.524-.041-.783l-.067-.052a6.145,6.145,0,0,1-1.461-1.573,5.716,5.716,0,0,1-.532-1.124,34.319,34.319,0,0,1-.891-4.026l-.067-.277a31.459,31.459,0,0,0-1.5-3.963c-.828-2.03-1.465-4.12-2.1-6.236q-.577-1.922-1.165-3.85l-.592-1.963c-.112-.375-.225-.749-.311-1.124h0a4.964,4.964,0,0,1-.1-.524h0a3.746,3.746,0,0,1,.09-1.727,12.032,12.032,0,0,1,.494-1.124,2.954,2.954,0,0,0,.187-.517h0a1.147,1.147,0,0,0,.03-.12,2.119,2.119,0,0,0,.041-.4,6.92,6.92,0,0,0-.195-1.457.026.026,0,0,1,0-.019.964.964,0,0,0-.019-.1,9.535,9.535,0,0,1-.135-1.124,10.656,10.656,0,0,1,1.3-5.832l.071-.135a9.455,9.455,0,0,1,.689-1.041h0a5.282,5.282,0,0,1,.375-.457,1.5,1.5,0,0,1-2.079-.539,1.433,1.433,0,0,1-.086-.169c-.019-.045-.034-.094-.049-.142a3.06,3.06,0,0,1,.794-2.641,6.925,6.925,0,0,1,2.15-1.76h0a1.441,1.441,0,0,1,.15-.079,6.413,6.413,0,0,1,.989-.4h0a5.648,5.648,0,0,1,.61-.165l-1.39-.127-.562-.052a5.428,5.428,0,0,1,4.869-4.086h.4a4.4,4.4,0,0,1,.588.049,1.663,1.663,0,0,1-.993-1.622,5.4,5.4,0,0,0,3.442,1.146h.142a11.245,11.245,0,0,1-.127-1.225h0a12.435,12.435,0,0,1,0-1.671,3.161,3.161,0,0,0,2.54.846l-.779-1.086a3.555,3.555,0,0,0,2.457.768l.18-.019a2.626,2.626,0,0,0,.446-.086H447c-.071-.09-.135-.184-.2-.281l-.022-.045a3.624,3.624,0,0,1-.375-.783,2.486,2.486,0,0,1-.09-.326h0a3.277,3.277,0,0,1,.169-2.041c1.21,1.011,2.536,2.393,4.12,1.348s1.637-2.963,4.12-2.768a3.82,3.82,0,0,1,3.15,2.292,2.528,2.528,0,0,1,2.873-.655,2.566,2.566,0,0,1,1.453,2.581,5.176,5.176,0,0,1,3.128-.124,1.826,1.826,0,0,1,1.064,2.495.544.544,0,0,1-.052.075c-.461.6-1.479.921-1.371,1.671l.157.112.487.352q2.865,2.068,5.581,4.345a4.517,4.517,0,0,1,1.981,2.933,3.236,3.236,0,0,1-.09.888h0c-.06.292-.142.584-.206.876a7.308,7.308,0,0,0-.127,2.266h0c.026.221.06.438.1.659.573,2.9,2.888,5.285,3.116,8.24v.21a6.647,6.647,0,0,1-.026.948,20.219,20.219,0,0,1-1.678,5.244c-.041.1-.082.21-.12.315a52.18,52.18,0,0,0-2.622,10.548,37.557,37.557,0,0,1-.749,3.779,10.011,10.011,0,0,1-1.907,3.907,6.073,6.073,0,0,1-1.258,1.124,6.985,6.985,0,0,1-.993.528v.022c.041.229.075.457.116.685.023.12.041.24.064.375h0a.054.054,0,0,0,0,.022c.315,1.772.674,3.506,1.053,5.154l.191.82c4.719,1.7,5.278,5.2,5.311,6.532a3.615,3.615,0,0,1,0,.536s7.117.187,9.926,2.247a7.615,7.615,0,0,0,1.689.862,31.076,31.076,0,0,0,3.465,1.082c.6.157,1.232.311,1.873.461,1.124.258,2.315.509,3.465.749,3.068.618,5.956,1.124,7.42,1.5,3.495.884,11.488,8.547,11.488,8.547s.936,7.731,1.873,8.858a33.411,33.411,0,0,1,2.622,5.09l6.2,11.016,2.622,4.633h1.685a2.865,2.865,0,0,1,1.2.787c.446.4.94.891,1.375,1.341l.719.768.449.5s2.723.067,3.461,2.221a16.9,16.9,0,0,1,6.847.937,5.29,5.29,0,0,1,.749.4,3.251,3.251,0,0,1,1.547,2.12,3.134,3.134,0,0,1,.067.539c0,.214,0,.427,0,.637-.135,2.835-1.981,5.2-3.678,6.783l.12.213s-.056.135-.165.375c-.03.071-.067.15-.109.24h0c-.221.472-.573,1.18-1.034,2.008a23.716,23.716,0,0,1-3.585,4.933l-.109.112-21.627.2-.064-.075-4.2-5-2.086-2.487-.064-.079-.06.6-.2,1.985-.487,4.8-.026.24v.064l-.056.554.041-.554h-.109l-40.078.375-65.78.727v.315h-.052v-.315l-16.762.18Z" transform="translate(-309.465 -313.866)" fill="url(#a)"/><path d="M561.251,481.254s-37.269,4.495-33.711,0c1.289-1.626,1.644-6.442,1.573-11.93-.022-1.667-.082-3.394-.169-5.113-.412-8.24-1.4-16.293-1.4-16.293s32.587-15.357,28.841-3.184c-1.5,4.918-1.008,11.825.131,18.308.333,1.892.719,3.746,1.124,5.506a129.067,129.067,0,0,0,3.615,12.705Z" transform="translate(-399.253 -371.442)" fill="#fbbebe"/><path d="M561.251,527.369s-37.269,4.495-33.711,0c1.289-1.626,1.644-6.442,1.573-11.93,5.682-2.427,12.911-.618,12.911-.618,7.611-1.517,12.492-1.221,15.612-.157a129.08,129.08,0,0,0,3.615,12.705Z" transform="translate(-399.253 -417.558)" opacity="0.1"/><path d="M400.992,594.286v-.315l65.78-.715,40.078-.375h.112l-.041.554.056-.554h.071v-.064l.513-5.038.195-1.906.06-.6.052-.5,2.315-7.72,2.315-7.708,1.948-6.491,2.974-9.918a33.274,33.274,0,0,0-2.622-5.057c-.936-1.124-1.873-8.8-1.873-8.8s-7.993-7.615-11.488-8.491c-1.465-.375-4.356-.873-7.427-1.5-1.15-.232-2.33-.479-3.465-.749-.641-.146-1.27-.3-1.873-.453a32.95,32.95,0,0,1-3.465-1.071,7.757,7.757,0,0,1-1.686-.858c-2.753-2.019-9.652-2.247-9.918-2.247h0a.157.157,0,0,1,0-.026v-.034a3.828,3.828,0,0,0,0-.472,3,3,0,0,0-.034-.524.472.472,0,0,0-.026-.187c-.019-.135-.041-.277-.075-.427a1.878,1.878,0,0,0-.045-.2,6.447,6.447,0,0,0-.468-1.307c-.026-.06-.06-.124-.09-.184a6.838,6.838,0,0,0-.637-.985c-.049-.064-.1-.131-.157-.195a7.34,7.34,0,0,0-1.019-.989c-.1-.079-.206-.161-.315-.236a1.743,1.743,0,0,0-.191-.135l-.333-.217-.311-.18c-.273-.15-.562-.3-.877-.434-.1-.045-.2-.086-.307-.127l-.408-.157h-.022l-.281-.112c-.214-.071-.431-.135-.659-.2L467,516.3l-.375-.086-.375-.079c-.375-.075-.775-.142-1.195-.195l-.427-.053-.438-.045-.453-.037-.644-.037-.749-.026a46.716,46.716,0,0,0-9.833,1.046,27.067,27.067,0,0,0-6.835-.63h-.326l-.375.022h-.24l-.483.045a3.593,3.593,0,0,0-.487.056c-.161.023-.33.041-.491.067l-.247.041c-.244.041-.491.086-.749.139q-.124.022-.247.056c-.326.071-.652.157-.974.255-.161.045-.322.1-.483.154-.082.023-.161.052-.24.082l-.24.086-.236.094-.281.112c-.142.06-.281.124-.419.191-.079.034-.157.071-.232.112s-.154.075-.225.116a10.4,10.4,0,0,0-2.326,1.641l-.191.183L436,519.8c-.064.064-.124.131-.184.2a8.933,8.933,0,0,0-.682.843c-.06.079-.116.157-.172.24a10.007,10.007,0,0,0-.644,1.094c-.049.09-.094.184-.139.273a12.249,12.249,0,0,0-.749,1.966q-.1.375-.191.749s-7.93,3.5-14.507,6.03c-1.749.674-3.4,1.285-4.776,1.745-.4.135-.775.259-1.124.375a10,10,0,0,1-2.341.539,7.347,7.347,0,0,0-1.124.1c-3.023.491-8.2,2.622-8.768,4.761a1.382,1.382,0,0,0-.037.524s0,.026,0,.041c.375,2.622-2.247,2.247-2.247,2.247s-.936,6.929-2.247,8.8c-.948,1.349-1.6,4.356-1.678,6.626h0a7.342,7.342,0,0,0,.165,2.109v.053a9.246,9.246,0,0,1-.82,3.629c-.663,1.929-1.629,4.326-2.558,6.589a76.732,76.732,0,0,0-2.8,7.2c-.034.3-.131.847-.266,1.547-.547,2.854-1.76,8.289-2.36,10.488-.446,1.641-1.094,3.888-1.539,5.431a.525.525,0,0,1-.037.131l16.792-.165v.315h.052Z" transform="translate(-309.734 -418.787)" fill="#e00"/><path d="M445.44,607.57s21.35,11.05,29.029,9.739Z" transform="translate(-348.054 -476.221)" opacity="0.1"/><path d="M561.44,595.57s20.788,6.742,27.717,7.678S561.44,595.57,561.44,595.57Z" transform="translate(-420.605 -468.716)" opacity="0.1"/><path d="M555.953,525.218c-10.862,2-31.313,1.569-40.153,1.266,3.24-11.611,19.039-7.664,19.039-7.664C554.395,514.918,555.893,523.016,555.953,525.218Z" transform="translate(-392.06 -420.058)" opacity="0.1"/><path d="M555.953,523.218c-10.862,2-31.313,1.569-40.153,1.266,3.24-11.611,19.039-7.664,19.039-7.664C554.395,512.918,555.893,521.016,555.953,523.218Z" transform="translate(-392.06 -418.807)" fill="#e00"/><path d="M776.94,671.763s12.8-1.966,13.046,3.652-6.525,9.544-6.525,9.544Z" transform="translate(-555.387 -516.161)" fill="#fbbebe"/><path d="M556.875,463.043a17.6,17.6,0,0,1-1.686.652A60.2,60.2,0,0,1,542.829,467a20.2,20.2,0,0,1-12.42-2.06,10.759,10.759,0,0,1-1.124-.73c-.412-8.24-1.4-16.293-1.4-16.293s32.587-15.357,28.841-3.184C555.231,449.652,555.736,456.559,556.875,463.043Z" transform="translate(-399.615 -371.442)" opacity="0.1"/><path d="M524.627,356.717a3.547,3.547,0,0,1-3.116-.655l.779,1.083a3.173,3.173,0,0,1-2.539-.843,12.765,12.765,0,0,0,.12,2.9,5.439,5.439,0,0,1-3.581-1.124,1.655,1.655,0,0,0,.989,1.614,5.371,5.371,0,0,0-5.843,4.012l1.955.18a6.918,6.918,0,0,0-3.91,2.386,3.03,3.03,0,0,0-.794,2.622c.262.914,1.528,1.5,2.217.847a10.465,10.465,0,0,0-2.285,8.536,5.418,5.418,0,0,1,.172,1.97,16.7,16.7,0,0,1-.708,1.757,5.55,5.55,0,0,0,.315,3.371l1.757,5.776c.637,2.086,1.27,4.176,2.1,6.2a30.754,30.754,0,0,1,1.5,3.937c.472,1.813.491,3.8,1.5,5.382a7.466,7.466,0,0,0,2.689,2.371,20.206,20.206,0,0,0,12.42,2.06,60.16,60.16,0,0,0,12.342-3.307,11.614,11.614,0,0,0,2.562-1.124c2.791-1.828,3.412-5.566,3.933-8.858a50.292,50.292,0,0,1,2.731-10.787c.817-2.056,1.873-4.143,1.693-6.345-.229-2.925-2.543-5.3-3.116-8.173a7.117,7.117,0,0,1,.026-2.91,6.615,6.615,0,0,0,.3-1.76c-.064-1.206-1.053-2.135-1.981-2.91q-3.023-2.525-6.24-4.772c-.109-.749.91-1.071,1.371-1.663.652-.835-.022-2.161-1.011-2.551a5.177,5.177,0,0,0-3.128.124,2.468,2.468,0,0,0-4.326-1.914,3.821,3.821,0,0,0-3.154-2.277c-2.483-.195-2.532,1.7-4.12,2.749s-2.9-.333-4.12-1.337A3.476,3.476,0,0,0,524.627,356.717Z" transform="translate(-387.133 -316.286)" fill="#101010"/><path d="M741.4,643.066s-.333.794-.948,1.944a25.845,25.845,0,0,1-3.371,4.933l-.1.109h-.607l-21.627.2h-.517l-.064-.075-4.2-4.978-1.581-1.877-.064-.079-.135-.157-.075-.09-.1-.116-3.075-3.648,1.124-4.682,1.914-7.888.049-.191.375-1.5.266-1.124.891-3.663,3.056-12.6,5.431,2.809,5.727,10.113,3.075,5.431h1.686c.318,0,1.049.614,1.783,1.322.262.251.524.517.749.749.667.689,1.195,1.281,1.195,1.281s2.731.06,3.465,2.21a2.608,2.608,0,0,1,.094.318,15.1,15.1,0,0,0,.948,2.457c.483,1.053,1.09,2.247,1.7,3.442,1.142,2.191,2.3,4.277,2.731,5.034l.052.094Z" transform="translate(-510.356 -476.227)" fill="#e00"/><path d="M536.619,649.891l-.037.536v.037l-.064.861-.5,6.933-.6,8.353-.172,2.352L534.87,674v.064l-40.078.375-65.769.712v.315h-.052v-.419l.169-5.379.322-10.51.277-8.911.026-.888a3.944,3.944,0,0,1,4.278-3.809c1.768.15,4.064.333,6.81.528l1.124.082c15.855,1.1,45.157,2.524,74.725.749.622-.034,1.247-.071,1.873-.116,4.585-.288,9.165-.659,13.7-1.124a3.944,3.944,0,0,1,4.345,4.206Z" transform="translate(-337.753 -499.964)" opacity="0.1"/><path d="M429.08,677.983v-.315l65.781-.715,40.078-.375h.112v-.064l.375-5.034.161-2.247.614-8.469.483-6.7V653.9a3.975,3.975,0,0,0-.041-.925.11.11,0,0,0,0-.037,3.892,3.892,0,0,0-.749-1.738,3.948,3.948,0,0,0-3.528-1.5c-4.536.464-9.117.835-13.7,1.124-.625.045-1.251.083-1.873.116-29.568,1.757-58.87.333-74.725-.749l-1.124-.082c-2.745-.195-5.042-.375-6.809-.528a3.948,3.948,0,0,0-4.21,3.2,4.117,4.117,0,0,0-.067.614l-.255,8.3-.348,10.514-.165,5.379V678Z" transform="translate(-337.822 -502.485)" fill="#3f3d56"/><path d="M536.819,659.739l-.461,5.742-.685,8.559-.172,2.143-.375,4.8-.022.24v.064h0l-.056.554.041-.554h-.109l-40.078.375-65.792.712v-.1l.184-5.379.375-10.51.24-6.986a2.382,2.382,0,0,1,1.146-1.966,2.34,2.34,0,0,1,1.416-.337c.787.064,1.753.139,2.88.221,1.832.135,4.09.292,6.72.457,4.869.307,10.978.637,17.979.906,19.477.749,45.771,1,70.747-1.187,1.124-.1,2.285-.206,3.42-.315a2.344,2.344,0,0,1,1.3.247,1.941,1.941,0,0,1,.322.2,2.3,2.3,0,0,1,.749.921,1.343,1.343,0,0,1,.094.229A2.351,2.351,0,0,1,536.819,659.739Z" transform="translate(-337.841 -507.186)" fill="#101010"/><path d="M347.938,677.87v1.195a2.3,2.3,0,0,1-1.311,2.075l-15.02.288a2.292,2.292,0,0,1-1.337-2.086v-1.124Z" transform="translate(-276.022 -520.189)" opacity="0.1"/><path d="M265.921,510.147l-19.571.375v-3.247l19.571-.375Z" transform="translate(-193.818 -348.493)" fill="#3f3d56"/><path d="M265.921,510.147l-19.571.375v-3.247l19.571-.375Z" transform="translate(-193.818 -348.493)" opacity="0.1"/><path d="M267.921,510.147l-19.571.375v-3.247l19.571-.375Z" transform="translate(-195.069 -348.493)" fill="#3f3d56"/><g transform="translate(120.94 37.578)" opacity="0.1"><path d="M551.677,358.846a3.652,3.652,0,0,1-.708-1.626,3.555,3.555,0,0,0,.157,1.723A3.37,3.37,0,0,0,551.677,358.846Z" transform="translate(-534.969 -357.22)"/><path d="M540,365.886a13.153,13.153,0,0,1-.139-1.386v1.39Z" transform="translate(-528.048 -361.773)"/><path d="M621.687,396.316a6.872,6.872,0,0,1,.135-.992,6.735,6.735,0,0,0,.3-1.757,2.308,2.308,0,0,0-.06-.4c-.064.345-.165.689-.24,1.03A7.168,7.168,0,0,0,621.687,396.316Z" transform="translate(-579.21 -379.705)"/><path d="M600.917,367.5l.408.3a7.386,7.386,0,0,0,.963-.832,1.375,1.375,0,0,0,.142-1.363,1.124,1.124,0,0,1-.142.24C601.827,366.432,600.808,366.757,600.917,367.5Z" transform="translate(-566.23 -362.461)"/><path d="M518.216,380.29a4.606,4.606,0,0,0-.326.854,6.8,6.8,0,0,1,1.873-.708Z" transform="translate(-514.307 -371.649)"/><path d="M531.369,368.641a5.552,5.552,0,0,1-.7-.461,1.6,1.6,0,0,0,.034.442A4.437,4.437,0,0,1,531.369,368.641Z" transform="translate(-522.295 -364.075)"/><path d="M554.019,428.33a19.291,19.291,0,0,1-1.686,5.289A50.277,50.277,0,0,0,549.6,444.41c-.521,3.292-1.124,7.031-3.933,8.855a11.237,11.237,0,0,1-2.558,1.124,59.964,59.964,0,0,1-12.361,3.307,20.2,20.2,0,0,1-12.42-2.056,7.493,7.493,0,0,1-2.689-2.371c-1-1.584-1.019-3.57-1.5-5.382a30.8,30.8,0,0,0-1.5-3.94c-.828-2.015-1.464-4.12-2.1-6.192q-.88-2.888-1.757-5.779a10.781,10.781,0,0,1-.427-1.779,6.712,6.712,0,0,0,.427,2.9q.876,2.9,1.757,5.779c.633,2.086,1.27,4.176,2.1,6.192a30.79,30.79,0,0,1,1.5,3.94c.472,1.813.491,3.8,1.5,5.383a7.493,7.493,0,0,0,2.689,2.371,20.209,20.209,0,0,0,12.42,2.056,60.415,60.415,0,0,0,12.361-3.307,11.237,11.237,0,0,0,2.558-1.124c2.79-1.824,3.412-5.562,3.933-8.855a50.275,50.275,0,0,1,2.731-10.791c.817-2.053,1.873-4.139,1.693-6.345C554.027,428.375,554.019,428.352,554.019,428.33Z" transform="translate(-508.324 -401.695)"/><path d="M510.073,419.031v-.041a5.243,5.243,0,0,0-.172-1.966,9.967,9.967,0,0,1-.146-1.244,10.248,10.248,0,0,0,.146,2.367C509.961,418.439,510.028,418.735,510.073,419.031Z" transform="translate(-509.21 -393.846)"/><path d="M511.487,396.3a10.4,10.4,0,0,1,.977-1.375c-.685.656-1.951.071-2.217-.839a2.184,2.184,0,0,0,0,1.124A1.644,1.644,0,0,0,511.487,396.3Z" transform="translate(-509.481 -380.28)"/></g><path d="M762.559,656.57a16.275,16.275,0,0,1,0,8.053C761.372,668.369,762.559,656.57,762.559,656.57Z" transform="translate(-546.063 -506.867)" opacity="0.1"/><path d="M775.267,668.3s.5,5.469-.625,6.439S775.267,668.3,775.267,668.3Z" transform="translate(-553.714 -514.204)" opacity="0.1"/><line y1="0.375" x2="38.059" transform="translate(34.793 96.59)" fill="none" stroke="#e00" stroke-miterlimit="10" stroke-width="2"/><line y1="0.371" x2="38.059" transform="translate(34.793 101.264)" fill="none" stroke="#e00" stroke-miterlimit="10" stroke-width="2"/><line y1="0.375" x2="38.059" transform="translate(34.793 105.935)" fill="none" stroke="#e00" stroke-miterlimit="10" stroke-width="2"/></g></g></svg>