<svg class="svg-icon" style="vertical-align: middle;fill: currentColor;overflow: hidden;" viewBox="0 0 1024 1024" version="1.1" xmlns="http://www.w3.org/2000/svg"><path d="M213.333333 512a42.666667 42.666667 0 0 0-42.666666 42.666667v341.333333a42.666667 42.666667 0 0 0 85.333333 0v-341.333333a42.666667 42.666667 0 0 0-42.666667-42.666667z m213.333334-426.666667a42.666667 42.666667 0 0 0-42.666667 42.666667v768a42.666667 42.666667 0 0 0 85.333333 0V128a42.666667 42.666667 0 0 0-42.666666-42.666667z m426.666666 597.333334a42.666667 42.666667 0 0 0-42.666666 42.666666v170.666667a42.666667 42.666667 0 0 0 85.333333 0v-170.666667a42.666667 42.666667 0 0 0-42.666667-42.666666z m-213.333333-341.333334a42.666667 42.666667 0 0 0-42.666667 42.666667v512a42.666667 42.666667 0 0 0 85.333334 0V384a42.666667 42.666667 0 0 0-42.666667-42.666667z"  /></svg>
