<svg class="svg-icon" style="vertical-align: middle;fill: black;overflow: hidden;" viewBox="0 0 1024 1024" version="1.1" xmlns="http://www.w3.org/2000/svg"><path d="M512 384C307.2 384 85.333333 328.533333 85.333333 213.333333s221.866667-170.666667 426.666667-170.666666 426.666667 55.466667 426.666667 170.666666-221.866667 170.666667-426.666667 170.666667z m0-256C290.133333 128 170.666667 192 170.666667 213.333333s119.466667 85.333333 341.333333 85.333334 341.333333-64 341.333333-85.333334-119.466667-85.333333-341.333333-85.333333zM512 682.666667c-204.8 0-426.666667-55.466667-426.666667-170.666667 0-25.6 17.066667-42.666667 42.666667-42.666667s42.666667 17.066667 42.666667 42.666667c0 21.333333 106.666667 85.333333 341.333333 85.333333s341.333333-64 341.333333-85.333333c0-25.6 17.066667-42.666667 42.666667-42.666667s42.666667 17.066667 42.666667 42.666667c0 115.2-221.866667 170.666667-426.666667 170.666667z"  /><path d="M512 981.333333c-204.8 0-426.666667-55.466667-426.666667-170.666666V213.333333c0-25.6 17.066667-42.666667 42.666667-42.666666s42.666667 17.066667 42.666667 42.666666v597.333334c0 21.333333 106.666667 85.333333 341.333333 85.333333s341.333333-64 341.333333-85.333333V213.333333c0-25.6 17.066667-42.666667 42.666667-42.666666s42.666667 17.066667 42.666667 42.666666v597.333334c0 115.2-221.866667 170.666667-426.666667 170.666666z"  /></svg>
