<svg class="svg-icon" style="vertical-align: middle;fill: currentColor;overflow: hidden;" viewBox="0 0 1024 1024" version="1.1" xmlns="http://www.w3.org/2000/svg"><path d="M859.6992 265.984H222.0544c-3.7376 0-6.656 2.7648-6.656 5.9904v409.1392h130.4576a25.6 25.6 0 0 1 25.6 25.6v113.0496l115.0464-119.6032 10.752-11.1616a25.6 25.6 0 0 1 18.432-7.8848h337.408c3.7376 0 6.656-2.816 6.656-6.0416v-409.088zM320.256 732.3136H189.8496a25.6 25.6 0 0 1-25.6-25.6v-434.688c0-31.744 25.9584-57.2416 57.8048-57.2416H885.248a25.6 25.6 0 0 1 25.6 25.6v434.688c0 31.744-25.9584 57.1904-57.8048 57.2416h-326.5024l-3.1744 3.328-159.0784 165.376a25.6 25.6 0 0 1-44.032-17.7152v-150.9888z" fill="#111111" /><path d="M583.5264 320l-7.6288 204.8h-51.0464l-7.1168-204.8h65.792z m-33.1264 251.7504c10.752 0 20.2752 3.584 27.648 10.9568 7.168 7.168 10.9568 16.384 10.9568 26.8288 0 10.752-3.7376 20.0192-11.3152 27.648a39.7824 39.7824 0 0 1-54.528-0.4096 36.9664 36.9664 0 0 1-10.9568-27.2384c0-10.9056 3.6352-20.1216 10.9568-26.8288a36.9664 36.9664 0 0 1 27.2384-10.9568z" fill="#111111" /></svg>
