<svg width="128" height="128" viewBox="0 0 128 128" fill="none" xmlns="http://www.w3.org/2000/svg">
<mask id="path-1-inside-1_621_259" fill="white">
<path d="M75.3493 74.7339L85.682 64.2906L75.3481 53.8474L43.9113 64.2906L75.3493 74.7339Z"/>
<path d="M75.3493 74.7339L43.9113 64.2906L75.3481 53.8474L68.9382 47.3697L18 64.2907L68.9393 81.2105L75.3493 74.7339Z"/>
<path d="M109.869 64.2897L69.0136 23L56.918 35.2237L68.9382 47.3697L75.3481 53.8474L85.682 64.2906L75.3493 74.7339L68.9393 81.2105L56.9203 93.3582L69.0148 105.581L109.871 64.2921L109.87 64.2909L109.869 64.2897Z"/>
</mask>
<path d="M109.869 64.2897L69.0136 23L56.918 35.2237L68.9382 47.3697L75.3481 53.8474L85.682 64.2906L75.3493 74.7339L68.9393 81.2105L56.9203 93.3582L69.0148 105.581L109.871 64.2921L109.87 64.2909L109.869 64.2897Z" fill="black"/>
<path d="M75.3493 74.7339L75.7047 75.0856L75.7047 75.0856L75.3493 74.7339ZM85.682 64.2906L86.0374 64.6423L86.3854 64.2906L86.0374 63.939L85.682 64.2906ZM75.3481 53.8474L75.7035 53.4957L75.7035 53.4957L75.3481 53.8474ZM43.9113 64.2906L43.7536 63.8161L42.3252 64.2907L43.7536 64.7652L43.9113 64.2906ZM75.7047 75.0856L86.0374 64.6423L85.3265 63.939L74.9938 74.3822L75.7047 75.0856ZM86.0374 63.939L75.7035 53.4957L74.9927 54.1991L85.3266 64.6423L86.0374 63.939ZM75.1905 53.3729L43.7536 63.8161L44.0689 64.7652L75.5057 54.3219L75.1905 53.3729ZM43.7536 64.7652L75.1917 75.2084L75.5069 74.2594L44.0689 63.8161L43.7536 64.7652ZM75.7035 53.4957L69.2936 47.018L68.5828 47.7214L74.9927 54.1991L75.7035 53.4957ZM69.2947 81.5623L75.7047 75.0856L74.9939 74.3822L68.584 80.8588L69.2947 81.5623ZM68.9382 47.3697L69.2535 48.3187L70.7818 47.811L69.649 46.6663L68.9382 47.3697ZM18 64.2907L17.6848 63.3417L14.8278 64.2908L17.6848 65.2397L18 64.2907ZM68.9393 81.2105L69.6502 81.9139L70.7828 80.7691L69.2546 80.2615L68.9393 81.2105ZM109.869 64.2897L110.588 63.5947L110.58 63.5864L109.869 64.2897ZM69.0136 23L69.7245 22.2966L69.0137 21.5783L68.3028 22.2966L69.0136 23ZM56.918 35.2237L56.2072 34.5203L55.5111 35.2237L56.2072 35.9271L56.918 35.2237ZM56.9203 93.3582L56.2095 92.6548L55.5136 93.3582L56.2095 94.0615L56.9203 93.3582ZM69.0148 105.581L68.304 106.284L69.0148 107.002L69.7256 106.284L69.0148 105.581ZM109.871 64.2921L110.582 64.9955L111.283 64.2872L110.577 63.5838L109.871 64.2921ZM109.87 64.2909L109.151 64.9858L109.157 64.9926L109.164 64.9992L109.87 64.2909ZM68.623 46.4207L17.6848 63.3417L18.3152 65.2397L69.2535 48.3187L68.623 46.4207ZM17.6848 65.2397L68.6241 82.1596L69.2546 80.2615L18.3152 63.3417L17.6848 65.2397ZM68.3028 22.2966L56.2072 34.5203L57.6288 35.927L69.7245 23.7034L68.3028 22.2966ZM56.2072 35.9271L68.2274 48.0731L69.649 46.6663L57.6288 34.5202L56.2072 35.9271ZM68.2285 80.5072L56.2095 92.6548L57.6312 94.0615L69.6502 81.9139L68.2285 80.5072ZM56.2095 94.0615L68.304 106.284L69.7256 104.877L57.6312 92.6548L56.2095 94.0615ZM69.7256 106.284L110.582 64.9955L109.16 63.5887L68.304 104.877L69.7256 106.284ZM110.577 63.5838L110.576 63.5826L109.164 64.9992L109.165 65.0004L110.577 63.5838ZM110.589 63.596L110.588 63.5948L109.15 64.9847L109.151 64.9858L110.589 63.596ZM110.58 63.5864L69.7245 22.2966L68.3028 23.7034L109.158 64.9931L110.58 63.5864Z" fill="black" mask="url(#path-1-inside-1_621_259)"/>
</svg>
