<svg class="svg-icon" style="vertical-align: middle;fill: currentColor;overflow: hidden;" viewBox="0 0 1024 1024" version="1.1" xmlns="http://www.w3.org/2000/svg"><path d="M579.4 806c-12.2 0-22.8 8.4-25.4 20.4-2 9-5.4 16.4-10 21.8-2.6 3-10.2 11.8-32.2 11.8-22 0-29.6-9-32.2-11.8-4.6-5.4-8-12.8-10-21.8-2.6-12-13.2-20.4-25.4-20.4-16.8 0-29 15.6-25.4 31.8 10 44.6 42 74.2 93 74.2s83-29.4 93-74.2c3.6-16.2-8.8-31.8-25.4-31.8zM824 704.4c-30.8-40.6-91.4-64.4-91.4-246.2 0-186.6-82.4-261.6-159.2-279.6-7.2-1.8-12.4-4.2-12.4-11.8v-5.8c0-26.6-21.6-49.2-48-49.2h-1.2c-26.4 0-48 22.6-48 49.2v5.8c0 7.4-5.2 10-12.4 11.8-77 18.2-159.2 93-159.2 279.6 0 181.8-60.6 205.4-91.4 246.2-19.8 26.2-1 63.6 31.8 63.6h560.2c32.2 0 50.8-37.6 31.2-63.6z m-78 11.6H279.6c-7.6 0-11.6-8.8-6.6-14.6 14-16 29.4-37 42-66.8 19.2-45.2 28.6-103 28.6-176.4 0-74.6 14-133 41.8-173.6 24.8-36.4 55.8-50.2 77.4-55.2 16.8-4 28.8-11.6 37.2-21 6.4-7.2 17.4-7.6 23.8-0.4 10.2 11.4 24 18.2 37.6 21.4 21.6 5 52.6 18.8 77.4 55.2 27.8 40.6 41.8 99 41.8 173.6 0 73.4 9.4 131.2 28.6 176.4 13 30.4 28.8 51.8 43 67.8 4.4 5.4 0.8 13.6-6.2 13.6z"  /></svg>
