<svg xmlns="http://www.w3.org/2000/svg" width="47.333" height="40.667" viewBox="0 0 47.333 40.667" overflow="visible"><g><path d="M40.331 16.802l.961 3.307-7.361 2.08s0 4.427-3.572 6.186c-3.572 1.761-6.347.269-6.347.269l-.445-1.279 5.3-1.441 1.174-4.535-3.416-3.358-4.906 1.484-.426-1.165s2.293-5.067 9.067-2.187c0 0 2.135 1.333 2.613 2.506l7.358-1.867zM41.292 16.553l1.173-.337.944 3.379-1.229.37zM41.706 16.405l.759-.189.944 3.379-1.229.37-.32-1.13.49-.191zM39.518 17.01l.812-.207.961 3.307-7.361 2.08s-.078 3.864-2.639 5.612c-2.559 1.748-5.441 1.694-7.28.844l-.205-.591s5.007 1.177 7.485-2.585c1.494-2.48 1.467-4.266 1.467-4.266l7.389-1.999-.629-2.195zM21.29 18.349l4.322-1.254 1.012.935-4.908 1.484zM6.058 20.695l.868 3.333 7.386-1.978s2.267 3.802 6.238 3.485c3.972-.317 5.589-3.016 5.589-3.016l-.273-1.33-5.288 1.476-3.328-3.295 1.214-4.635 4.975-1.233-.23-1.22s-4.562-3.181-8.909 2.76c0 0-1.15 2.238-.962 3.492l-7.28 2.161zM5.105 20.972l-1.18.311.917 3.384 1.246-.308zM4.674 21.055l-.749.228.917 3.384 1.246-.308-.301-1.137-.521.085zM6.863 20.457l-.805.238.868 3.333 7.386-1.978s2.047 3.276 5.142 3.468c3.093.192 5.541-1.325 6.685-3l-.123-.613s-3.701 3.572-7.755 1.611c-2.553-1.367-3.442-2.917-3.442-2.917l-7.373 2.062-.583-2.204zM23.21 12.281l-4.353 1.134-.393 1.319 4.976-1.233z"/></g></svg>
