<svg class="svg-icon" style="vertical-align: middle;fill: currentColor;overflow: hidden;" viewBox="0 0 1024 1024" version="1.1" xmlns="http://www.w3.org/2000/svg"><path d="M905.076364 105.565091H121.809455c-40.727273 0-73.821091 33.093818-73.821091 73.821091v498.641454c0 40.727273 33.093818 73.867636 73.821091 73.867637h93.27709a34.210909 34.210909 0 0 0 14.149819-3.118546c1.024-0.465455 1.815273-1.303273 2.792727-1.861818a36.026182 36.026182 0 0 0 8.890182-6.935273c0.325818-0.418909 0.837818-0.512 1.117091-0.930909l170.821818-209.361454 78.615273 67.770182a34.909091 34.909091 0 0 0 48.314181-2.653091l150.667637-161.466182c17.594182 10.472727 37.841455 16.849455 59.717818 16.849454a117.713455 117.713455 0 0 0 117.620364-117.573818 117.76 117.76 0 0 0-117.620364-117.620363 117.76 117.76 0 0 0-117.573818 117.620363c0 17.454545 4.049455 33.885091 10.891636 48.733091l-131.863273 141.265455L431.243636 453.352727a34.909091 34.909091 0 0 0-49.850181 4.375273l-182.923637 224.302545H121.809455a4.002909 4.002909 0 0 1-4.00291-4.049454V179.386182c0-2.187636 1.815273-4.002909 4.00291-4.002909h783.266909c2.187636 0 4.002909 1.861818 4.002909 4.002909v498.641454a4.002909 4.002909 0 0 1-4.002909 4.049455h-405.410909a34.909091 34.909091 0 0 0-34.909091 34.909091c0 0.744727 0.372364 1.349818 0.418909 2.094545l-0.046546 0.325818v147.549091H292.072727a34.909091 34.909091 0 0 0 0 69.818182h442.740364a34.909091 34.909091 0 0 0 0-69.818182h-199.866182v-115.060363h370.129455c40.680727 0 73.821091-33.140364 73.821091-73.867637V179.386182c0-40.727273-33.140364-73.821091-73.821091-73.821091z m-154.903273 179.246545a47.848727 47.848727 0 1 1-47.755636 47.802182c0-26.344727 21.410909-47.802182 47.755636-47.802182z"  /></svg>
