<svg class="svg-icon" style="vertical-align: middle;fill: currentColor;overflow: hidden;" viewBox="0 0 1024 1024" version="1.1" xmlns="http://www.w3.org/2000/svg"><path d="M763.904 356.352c-55.296-149.504-221.696-224.256-371.2-168.448-100.352 38.4-170.496 128-183.296 234.496-115.2 25.6-187.904 140.8-159.744 256 20.48 95.744 108.032 166.4 206.336 166.4h68.096c16.896 0 32.256-14.848 32.256-31.744s-14.848-31.744-32.256-31.744H256c-82.944 4.096-153.6-57.344-157.696-140.8s57.856-153.6 140.8-157.696h6.144c14.848 0 25.6-12.8 27.648-27.648v-2.048c4.608-124.416 107.008-222.72 232.448-218.624 96.256 2.048 181.248 68.096 208.896 162.304v2.048c2.048 4.096 4.096 10.752 8.704 12.8 4.096 4.096 10.752 6.144 16.896 6.144h2.048c100.352 0 181.248 80.896 181.248 181.248 0 93.696-72.704 172.544-166.4 179.2H701.44c-16.896 0-31.744 12.8-34.304 29.696-2.048 16.896 12.8 31.744 29.696 34.304h53.248c134.144-6.656 239.104-119.296 232.448-253.952-5.632-120.832-99.328-219.136-218.624-231.936z" /><path d="M535.552 778.752v-51.2h16.896v-21.504H486.4v21.504h16.896v51.2c-19.456 8.704-27.648 31.744-16.896 51.2 8.704 19.456 32.256 27.648 51.2 16.896 18.944-10.752 27.648-31.744 16.896-51.2-6.144-8.192-12.8-14.848-18.944-16.896z m172.544-72.704h21.504v21.504h-21.504v-21.504z m-313.344 0h21.504v21.504h-21.504v-21.504z m223.744 0h21.504v21.504h-21.504v-21.504z m45.056 0h21.504v21.504h-21.504v-21.504z m-89.6 0h21.504v21.504h-21.504v-21.504z m-224.256 0h21.504v21.504h-21.504v-21.504z m89.6 0H460.8v21.504h-21.504v-21.504z m-132.096 0h21.504v21.504H307.2v-21.504z m0-70.144h21.504v16.896H307.2v-16.896z m0 35.84h21.504v16.896H307.2v-16.896z m0-74.24h21.504v21.504H307.2v-21.504z m266.752 0h21.504v21.504h-21.504v-21.504z m-134.656 0H460.8v21.504h-21.504v-21.504z m268.8 0h21.504v21.504h-21.504v-21.504z m0 74.24h21.504v16.896h-21.504v-16.896z m0-35.84h21.504v16.896h-21.504v-16.896z m-155.648-168.96c-9.216-18.944-32.256-26.624-51.2-17.408-18.944 9.216-26.624 32.256-17.408 51.2 3.584 7.68 9.728 13.824 17.408 17.408v78.848h-16.896v21.504h66.048v-21.504h-16.896v-78.848c20.992-8.192 27.648-31.744 18.944-51.2z m-170.496-20.992c-21.504 0-38.4 16.896-38.4 38.4 0 14.848 8.704 27.648 21.504 34.304v78.848h-14.848v21.504h66.048v-21.504h-19.456v-78.848c12.8-6.144 23.552-19.456 23.552-34.304 2.048-21.504-16.896-38.4-38.4-38.4z m251.392 72.704v78.848h-14.848v21.504h66.048v-21.504h-16.896v-78.848c19.456-8.704 27.648-31.744 16.896-51.2-8.704-19.456-31.744-27.648-51.2-16.896-19.456 8.704-27.648 31.744-16.896 51.2 2.048 8.192 8.704 14.336 16.896 16.896z" /></svg>
