<svg xmlns="http://www.w3.org/2000/svg" width="301.608" height="40" viewBox="0 0 301.608 40"><defs><style>.a{fill:none;stroke:#666;}.b{fill:#e00;}.c{fill:#fff;}</style></defs><g transform="translate(-32 -948.5)"><line class="a" y2="40" transform="translate(98.5 948.5)"/><g transform="translate(32 952)"><path class="b" d="M28.723,18.942c2.781,0,6.8-.573,6.8-3.88a3.11,3.11,0,0,0-.069-.76L33.8,7.111c-.382-1.582-.718-2.3-3.5-3.689C28.149,2.32,23.453.5,22.063.5c-1.294,0-1.669,1.667-3.212,1.667-1.485,0-2.587-1.244-3.977-1.244-1.334,0-2.2.909-2.874,2.778,0,0-1.869,5.271-2.109,6.036a1.429,1.429,0,0,0-.049.431c0,2.049,8.069,8.767,18.88,8.767M35.954,16.4a11.055,11.055,0,0,1,.385,2.251c0,3.111-3.5,4.838-8.1,4.838-10.394.007-19.5-6.082-19.5-10.107a4.1,4.1,0,0,1,.336-1.629C5.339,11.944.5,12.611.5,16.882c0,7,16.58,15.618,29.708,15.618,10.065,0,12.6-4.551,12.6-8.144,0-2.827-2.445-6.036-6.853-7.951" transform="translate(-0.5 -0.5)"/><path d="M64.792,48.76a11.055,11.055,0,0,1,.385,2.251c0,3.111-3.5,4.838-8.1,4.838-10.394.007-19.5-6.082-19.5-10.107a4.1,4.1,0,0,1,.336-1.629l.814-2.013a1.428,1.428,0,0,0-.049.422c0,2.049,8.069,8.767,18.881,8.767,2.781,0,6.8-.573,6.8-3.88a3.11,3.11,0,0,0-.069-.76Z" transform="translate(-29.338 -32.856)"/></g><path class="c" d="M2.136,0H3.984V-7.176H9L12.408,0h2.04L10.872-7.416a4.572,4.572,0,0,0,3.5-4.536c0-2.9-2.136-4.848-5.352-4.848H2.136ZM8.88-15.168c2.208,0,3.648,1.272,3.648,3.24,0,1.944-1.44,3.216-3.648,3.216h-4.9v-6.456ZM26.4-1.344,25.3-2.52a4.786,4.786,0,0,1-3.216,1.2A4.268,4.268,0,0,1,17.9-5.472H27.1V-6c0-3.36-2.3-5.9-5.376-5.9-3.12,0-5.52,2.616-5.52,6.048A5.845,5.845,0,0,0,22.008.216,6.838,6.838,0,0,0,26.4-1.344Zm-4.7-9.048A3.868,3.868,0,0,1,25.368-6.72H17.952A3.912,3.912,0,0,1,21.7-10.392ZM38.736,0h1.752V-17.52l-1.752.36v6.936a4.77,4.77,0,0,0-3.648-1.632c-3.1,0-5.5,2.64-5.5,6.024,0,3.36,2.352,6,5.4,6A4.615,4.615,0,0,0,38.736-1.56ZM31.32-5.856a4.18,4.18,0,0,1,4.1-4.464,4.2,4.2,0,0,1,3.312,1.584v5.808a4.011,4.011,0,0,1-3.312,1.56A4.2,4.2,0,0,1,31.32-5.856ZM49.992,0H51.84V-7.632h9.648V0h1.848V-16.8H61.488v7.512H51.84V-16.8H49.992ZM70.608.216a5.028,5.028,0,0,0,3.72-1.584V0h1.728V-7.776c0-2.664-1.632-4.128-4.536-4.128A10.034,10.034,0,0,0,67.1-10.776l.648,1.344A7.733,7.733,0,0,1,71.3-10.44c1.992,0,3.024.984,3.024,2.9v1.608a6.781,6.781,0,0,0-3.576-.912c-2.64,0-4.392,1.392-4.392,3.48C66.36-1.248,68.112.216,70.608.216ZM68.04-3.408c0-1.3,1.176-2.16,2.976-2.16a6.183,6.183,0,0,1,3.312.84v2.256a4.636,4.636,0,0,1-3.36,1.344C69.216-1.128,68.04-2.04,68.04-3.408Zm12.6.768C80.64-.768,81.7.216,83.712.216A6.578,6.578,0,0,0,85.752-.1v-1.56a4.206,4.206,0,0,1-1.656.312c-1.224,0-1.7-.5-1.7-1.752v-7.176h3.36v-1.44h-3.36v-3.624l-1.752.408v3.216H78.216v1.44H80.64ZM110.16-8.4a8.5,8.5,0,0,0-8.5-8.664,8.5,8.5,0,0,0-8.5,8.664,8.5,8.5,0,0,0,8.5,8.664A8.5,8.5,0,0,0,110.16-8.4Zm-2.952,0c0,3.456-2.376,6.072-5.52,6.072S96.12-4.944,96.12-8.4s2.424-6.1,5.568-6.1S107.208-11.856,107.208-8.4ZM113.064,0h2.712V-8.592a3.083,3.083,0,0,1,2.616-1.44,2.59,2.59,0,0,1,2.64,2.88V0h2.712V-7.92a4.046,4.046,0,0,0-4.152-4.3,4.363,4.363,0,0,0-3.816,2.16v-1.968h-2.712Zm24.312-1.536L135.6-3.192a3.906,3.906,0,0,1-2.856,1.128,3.672,3.672,0,0,1-3.6-3.288h8.88v-.672c0-3.576-2.4-6.192-5.688-6.192A5.922,5.922,0,0,0,126.48-6,6.112,6.112,0,0,0,132.6.24,6.953,6.953,0,0,0,137.376-1.536Zm-5.064-8.472a3.291,3.291,0,0,1,3.144,3h-6.264A3.23,3.23,0,0,1,132.312-10.008ZM146.52,0h2.88V-6.408h4.632c3.408,0,5.616-2.16,5.616-5.16,0-3.1-2.208-5.232-5.616-5.232H146.52Zm7.08-14.376c2.016,0,3.144,1.128,3.144,2.784,0,1.7-1.128,2.832-3.168,2.832H149.4v-5.616ZM161.28-6A6.038,6.038,0,0,0,167.328.24,6.024,6.024,0,0,0,173.376-6a6,6,0,0,0-6.048-6.216A6.018,6.018,0,0,0,161.28-6Zm6.048,3.888c-1.968,0-3.36-1.608-3.36-3.864,0-2.28,1.392-3.912,3.36-3.912,1.944,0,3.36,1.632,3.36,3.912C170.688-3.744,169.3-2.112,167.328-2.112ZM176.184,0H178.9V-7.92a3.3,3.3,0,0,1,3-1.992,3.824,3.824,0,0,1,1.488.288V-12a3.214,3.214,0,0,0-1.176-.24c-1.512,0-2.664.984-3.312,2.832v-2.616h-2.712Zm11.064-3.168c0,2.208,1.272,3.36,3.7,3.36a8.531,8.531,0,0,0,2.328-.336v-2.28a4.981,4.981,0,0,1-1.632.288c-1.224,0-1.68-.456-1.68-1.632v-6.1h3.36v-2.16h-3.36v-3.888l-2.712.576v3.312h-2.424v2.16h2.424Zm12.1,3.36a5.02,5.02,0,0,0,3.576-1.416V0h2.688V-7.848c0-2.784-1.8-4.368-4.92-4.368a11.544,11.544,0,0,0-4.992,1.224l.96,1.968a8.319,8.319,0,0,1,3.5-.936c1.848,0,2.76.816,2.76,2.4v1.32a7.431,7.431,0,0,0-3.24-.744c-2.832,0-4.584,1.368-4.584,3.528S196.824.192,199.344.192Zm-1.7-3.7c0-1.056.96-1.728,2.5-1.728a6.223,6.223,0,0,1,2.784.576v1.968a4.288,4.288,0,0,1-2.832.984C198.6-1.7,197.64-2.4,197.64-3.5Zm13.968-14.112-2.712.456V0h2.712Z" transform="translate(122 977)"/></g></svg>