<svg xmlns="http://www.w3.org/2000/svg" xmlns:xlink="http://www.w3.org/1999/xlink" width="217" height="130" viewBox="0 0 217 130"><defs><clipPath id="a"><rect width="101" height="87" fill="none"/></clipPath></defs><g transform="translate(-537.5 -1206.664)"><g transform="translate(-62.5 24.664)"><g transform="translate(624 1182)" fill="#fff" stroke="#333" stroke-width="1"><rect width="193" height="124" rx="4" stroke="none"/><rect x="0.5" y="0.5" width="192" height="123" rx="3.5" fill="none"/></g><rect width="191" height="18" rx="4" transform="translate(600 1190)" fill="#c00"/><g transform="translate(781 1190)" fill="rgba(255,255,255,0)" stroke="#000" stroke-width="1"><circle cx="3" cy="3" r="3" stroke="none"/><circle cx="3" cy="3" r="2.5" fill="none"/></g><g transform="translate(791 1190)" fill="rgba(255,255,255,0)" stroke="#000" stroke-width="1"><circle cx="3" cy="3" r="3" stroke="none"/><circle cx="3" cy="3" r="2.5" fill="none"/></g><g transform="translate(801 1190)" fill="rgba(255,255,255,0)" stroke="#000" stroke-width="1"><circle cx="3" cy="3" r="3" stroke="none"/><circle cx="3" cy="3" r="2.5" fill="none"/></g><g transform="translate(649 1212)" fill="#fff" stroke="#000" stroke-width="1"><rect width="31" height="89" rx="4" stroke="none"/><rect x="0.5" y="0.5" width="30" height="88" rx="3.5" fill="none"/></g><g transform="translate(690 1212)" clip-path="url(#a)"><g transform="translate(-690 -1212)"><g transform="translate(690 1212)" fill="#fff" stroke="#000" stroke-width="1"><rect width="101" height="8" rx="4" stroke="none"/><rect x="0.5" y="0.5" width="100" height="7" rx="3.5" fill="none"/></g></g><g transform="translate(-690 -1199)"><g transform="translate(690 1212)" fill="#fff" stroke="#000" stroke-width="1"><rect width="101" height="8" rx="4" stroke="none"/><rect x="0.5" y="0.5" width="100" height="7" rx="3.5" fill="none"/></g></g><g transform="translate(-690 -1186)"><g transform="translate(690 1212)" fill="#fff" stroke="#000" stroke-width="1"><rect width="101" height="8" rx="4" stroke="none"/><rect x="0.5" y="0.5" width="100" height="7" rx="3.5" fill="none"/></g></g><g transform="translate(-690 -1173)"><g transform="translate(690 1212)" fill="#fff" stroke="#000" stroke-width="1"><rect width="101" height="8" rx="4" stroke="none"/><rect x="0.5" y="0.5" width="100" height="7" rx="3.5" fill="none"/></g></g><g transform="translate(-690 -1160)"><g transform="translate(690 1212)" fill="#fff" stroke="#000" stroke-width="1"><rect width="101" height="8" rx="4" stroke="none"/><rect x="0.5" y="0.5" width="100" height="7" rx="3.5" fill="none"/></g></g><g transform="translate(-690 -1147)"><g transform="translate(690 1212)" fill="#fff" stroke="#000" stroke-width="1"><rect width="101" height="8" rx="4" stroke="none"/><rect x="0.5" y="0.5" width="100" height="7" rx="3.5" fill="none"/></g></g><g transform="translate(-690 -1134)"><g transform="translate(690 1212)" fill="#fff" stroke="#000" stroke-width="1"><rect width="101" height="8" rx="4" stroke="none"/><rect x="0.5" y="0.5" width="100" height="7" rx="3.5" fill="none"/></g></g></g><rect width="191" height="32" rx="4" transform="translate(600 1280)" fill="rgba(183,2,2,0.1)"/></g></g></svg>