<svg xmlns="http://www.w3.org/2000/svg" width="198.471" height="170.522" viewBox="0 0 198.471 170.522"><g transform="translate(-789.529 -1873.725)"><g transform="translate(795 1897)" fill="#fff" stroke="#333" stroke-width="1"><rect width="193" height="124" rx="4" stroke="none"/><rect x="0.5" y="0.5" width="192" height="123" rx="3.5" fill="none"/></g><g transform="translate(952 1905)" fill="rgba(255,255,255,0)" stroke="#000" stroke-width="1"><circle cx="3" cy="3" r="3" stroke="none"/><circle cx="3" cy="3" r="2.5" fill="none"/></g><g transform="translate(962 1905)" fill="rgba(255,255,255,0)" stroke="#000" stroke-width="1"><circle cx="3" cy="3" r="3" stroke="none"/><circle cx="3" cy="3" r="2.5" fill="none"/></g><g transform="translate(972 1905)" fill="rgba(255,255,255,0)" stroke="#000" stroke-width="1"><circle cx="3" cy="3" r="3" stroke="none"/><circle cx="3" cy="3" r="2.5" fill="none"/></g><path d="M45.893,0l15.3,26.516-15.3,26.516H15.3L0,26.516,15.3,0Z" transform="translate(848.569 1949.4) rotate(-30)"/><path d="M45.893,0l15.3,26.516-15.3,26.516H15.3L0,26.516,15.3,0Z" transform="translate(846.529 1945.32) rotate(-30)" fill="#b70202"/><g transform="translate(789.529 1945.32) rotate(-30)" fill="rgba(183,2,2,0.1)"><path d="M 45.31513977050781 52.03169250488281 L 15.87513446807861 52.03169250488281 L 1.154486060142517 26.51584434509277 L 15.87514400482178 1.000004291534424 L 45.31513977050781 1.000004291534424 L 60.03578567504883 26.51584434509277 L 45.31513977050781 52.03169250488281 Z" stroke="none"/><path d="M 16.45270156860352 1.999996185302734 L 2.308963775634766 26.51584434509277 L 16.45269012451172 51.03168487548828 L 44.73757934570312 51.03168487548828 L 58.88130950927734 26.51584434509277 L 44.73757934570312 1.999996185302734 L 16.45270156860352 1.999996185302734 M 15.29757690429688 -3.814697265625e-06 L 45.89270782470703 -3.814697265625e-06 L 61.19027709960938 26.51584434509277 L 45.89270782470703 53.03168487548828 L 15.29756546020508 53.03168487548828 L -3.814697265625e-06 26.51584434509277 L 15.29757690429688 -3.814697265625e-06 Z" stroke="none"/></g><g transform="translate(818.529 1893.32) rotate(-30)" fill="rgba(183,2,2,0.1)"><path d="M 45.31501388549805 52.03169250488281 L 15.87513446807861 52.03169250488281 L 1.154427886009216 26.51574325561523 L 10.1638822555542 10.89283847808838 L 54.32484436035156 36.40811538696289 L 45.31501388549805 52.03169250488281 Z" stroke="none"/><path d="M 44.73733901977539 51.03169250488281 L 52.95941543579102 36.77412414550781 L 10.53017044067383 12.25939464569092 L 2.308846235275269 26.51563835144043 L 16.45269203186035 51.03169250488281 L 44.73733901977539 51.03169250488281 M 45.89270782470703 53.03169250488281 L 15.29756641387939 53.03169250488281 L -3.357543846504996e-06 26.51584434509277 L 9.797576904296875 9.526284217834473 L 55.69027709960938 36.0421257019043 L 45.89270782470703 53.03169250488281 Z" stroke="none"/></g><g transform="translate(880.529 1995.32) rotate(-30)" fill="rgba(183,2,2,0.1)"><path d="M 44.02658843994141 54.26331329345703 L -0.1343930810689926 28.7480297088623 L 15.8751220703125 1.000000357627869 L 45.31513977050781 1.000000357627869 L 60.0357780456543 26.51582527160645 L 44.02658843994141 54.26331329345703 Z" stroke="none"/><path d="M 16.45266342163086 2 L 1.231216430664062 28.38212966918945 L 43.66047668457031 52.89685821533203 L 58.88129043579102 26.51580810546875 L 44.73757934570312 2 L 16.45266342163086 2 M 15.29757690429688 0 L 45.89270782470703 0 L 61.19027709960938 26.51584053039551 L 44.39270782470703 55.6297607421875 L -1.500003814697266 29.11392021179199 L 15.29757690429688 0 Z" stroke="none"/></g><g transform="translate(907.529 1945.32) rotate(-30)" fill="rgba(183,2,2,0.1)"><path d="M 45.31513977050781 52.03169250488281 L 15.87513446807861 52.03169250488281 L 1.154486060142517 26.51584434509277 L 15.87514400482178 1.000004291534424 L 45.31513977050781 1.000004291534424 L 60.03578567504883 26.51584434509277 L 45.31513977050781 52.03169250488281 Z" stroke="none"/><path d="M 16.45270156860352 1.999996185302734 L 2.308963775634766 26.51584434509277 L 16.45269012451172 51.03168487548828 L 44.73757934570312 51.03168487548828 L 58.88130950927734 26.51584434509277 L 44.73757934570312 1.999996185302734 L 16.45270156860352 1.999996185302734 M 15.29757690429688 -3.814697265625e-06 L 45.89270782470703 -3.814697265625e-06 L 61.19027709960938 26.51584434509277 L 45.89270782470703 53.03168487548828 L 15.29756546020508 53.03168487548828 L -3.814697265625e-06 26.51584434509277 L 15.29757690429688 -3.814697265625e-06 Z" stroke="none"/></g></g></svg>