<svg xmlns="http://www.w3.org/2000/svg" width="193" height="124" viewBox="0 0 193 124"><g transform="translate(-407 -563)"><g transform="translate(-387.5 -664.664)"><g transform="translate(794.5 1227.664)" fill="#fff" stroke="#333" stroke-width="1"><rect width="193" height="124" rx="4" stroke="none"/><rect x="0.5" y="0.5" width="192" height="123" rx="3.5" fill="none"/></g><g transform="translate(951.5 1235.664)" fill="rgba(255,255,255,0)" stroke="#000" stroke-width="1"><circle cx="3" cy="3" r="3" stroke="none"/><circle cx="3" cy="3" r="2.5" fill="none"/></g><g transform="translate(961.5 1235.664)" fill="rgba(255,255,255,0)" stroke="#000" stroke-width="1"><circle cx="3" cy="3" r="3" stroke="none"/><circle cx="3" cy="3" r="2.5" fill="none"/></g><g transform="translate(971.5 1235.664)" fill="rgba(255,255,255,0)" stroke="#000" stroke-width="1"><circle cx="3" cy="3" r="3" stroke="none"/><circle cx="3" cy="3" r="2.5" fill="none"/></g></g><g transform="translate(483.753 581.396)"><path d="M125.151,31.917l-.039,23.335,20.119-11.576.022-22.772Z" transform="translate(-125.071 -20.199)" fill="rgba(183,2,2,0.1)" opacity="0.8"/><path d="M199.786,54.932,199.739,31.9,179.488,20.9l-.022,22.772Z" transform="translate(-159.306 -20.199)" fill="rgba(183,2,2,0.1)" opacity="0.8"/><path d="M125.112,94l20.119-11.576,20.334,11.267-20.312,11.988Z" transform="translate(-125.071 -58.948)" fill="rgba(183,2,2,0.1)" opacity="0.803"/><path d="M125.634,50.9l18.817,10.825.115,22.918L125.61,73.672l.024-22.021Zm-.61-.283L125,74.023,145.183,85.7l-.122-24.335-18.8-10.75Z" transform="translate(-125 -38.914)" fill="rgba(183,2,2,0.1)"/><path d="M145.224,19.7l19.017,10.986L145.124,41.47,126.29,30.683l18.934-10.971Zm0-.7L125.066,30.688l20.056,11.474L165.475,30.7,145.224,19Z" transform="translate(-125.042 -19)" fill="rgba(183,2,2,0.1)"/></g><g transform="translate(510.505 604.547)"><path d="M125.151,31.917l-.039,23.335,20.119-11.576.022-22.772Z" transform="translate(-125.07 -20.199)" fill="rgba(183,2,2,0.1)" opacity="0.8"/><path d="M199.786,54.932,199.739,31.9,179.488,20.9l-.022,22.772Z" transform="translate(-159.305 -20.199)" fill="rgba(183,2,2,0.1)" opacity="0.8"/><path d="M125.112,94l20.119-11.576,20.334,11.267-20.312,11.988Z" transform="translate(-125.07 -58.948)" fill="rgba(183,2,2,0.1)" opacity="0.803"/><path d="M125.634,50.9l18.817,10.825.115,22.918L125.61,73.672l.024-22.021Zm-.61-.283L125,74.023,145.183,85.7l-.122-24.335-18.8-10.75Z" transform="translate(-125 -38.914)" fill="rgba(183,2,2,0.1)"/><path d="M145.224,19.7l19.017,10.986L145.124,41.47,126.29,30.683l18.934-10.971Zm0-.7L125.066,30.688l20.056,11.474L165.475,30.7,145.224,19Z" transform="translate(-125.041 -19)" fill="rgba(183,2,2,0.1)"/></g><g transform="translate(457 605.062)"><path d="M125.151,31.917l-.039,23.335,20.119-11.576.022-22.772Z" transform="translate(-125.071 -20.199)" fill="rgba(183,2,2,0.1)" opacity="0.8"/><path d="M199.786,54.932,199.739,31.9,179.488,20.9l-.022,22.772Z" transform="translate(-159.306 -20.199)" fill="rgba(183,2,2,0.1)" opacity="0.8"/><path d="M125.112,94l20.119-11.576,20.334,11.267-20.312,11.988Z" transform="translate(-125.071 -58.948)" fill="rgba(183,2,2,0.1)" opacity="0.803"/><path d="M125.634,50.9l18.817,10.825.115,22.918L125.61,73.672l.024-22.021Zm-.61-.283L125,74.023,145.183,85.7l-.122-24.335-18.8-10.75Z" transform="translate(-125 -38.914)" fill="rgba(183,2,2,0.1)"/><path d="M145.224,19.7l19.017,10.986L145.124,41.47,126.29,30.683l18.934-10.971Zm0-.7L125.066,30.688l20.056,11.474L165.475,30.7,145.224,19Z" transform="translate(-125.041 -19)" fill="rgba(183,2,2,0.1)"/></g><g transform="translate(483.753 628.213)"><path d="M125.151,31.917l-.039,23.335,20.119-11.576.022-22.772Z" transform="translate(-125.071 -20.199)" fill="#b70202" opacity="0.8"/><path d="M199.786,54.932,199.739,31.9,179.488,20.9l-.022,22.772Z" transform="translate(-159.306 -20.199)" fill="#b70202" opacity="0.8"/><path d="M125.112,94l20.119-11.576,20.334,11.267-20.312,11.988Z" transform="translate(-125.071 -58.948)" fill="#b70202" opacity="0.803"/><path d="M125.634,50.9l18.817,10.825.115,22.918L125.61,73.672l.024-22.021Zm-.61-.283L125,74.023,145.183,85.7l-.122-24.335-18.8-10.75Z" transform="translate(-125 -38.914)" fill="#b70202"/><path d="M145.224,19.7l19.017,10.986L145.124,41.47,126.29,30.683l18.934-10.971Zm0-.7L125.066,30.688l20.056,11.474L165.475,30.7,145.224,19Z" transform="translate(-125.042 -19)" fill="#b70202"/></g></g></svg>