<?xml version="1.0" encoding="UTF-8" standalone="no"?>
<svg
   xmlns:dc="http://purl.org/dc/elements/1.1/"
   xmlns:cc="http://creativecommons.org/ns#"
   xmlns:rdf="http://www.w3.org/1999/02/22-rdf-syntax-ns#"
   xmlns:svg="http://www.w3.org/2000/svg"
   xmlns="http://www.w3.org/2000/svg"
   xmlns:sodipodi="http://sodipodi.sourceforge.net/DTD/sodipodi-0.dtd"
   xmlns:inkscape="http://www.inkscape.org/namespaces/inkscape"
   inkscape:version="1.0 (4035a4fb49, 2020-05-01)"
   sodipodi:docname="op_footer_cubes_illustration_rtl.svg"
   id="svg64"
   version="1.1"
   viewBox="0 0 182.711 226.942"
   height="226.942"
   width="182.711">
  <metadata
     id="metadata70">
    <rdf:RDF>
      <cc:Work
         rdf:about="">
        <dc:format>image/svg+xml</dc:format>
        <dc:type
           rdf:resource="http://purl.org/dc/dcmitype/StillImage" />
        <dc:title></dc:title>
      </cc:Work>
    </rdf:RDF>
  </metadata>
  <defs
     id="defs68" />
  <sodipodi:namedview
     inkscape:current-layer="svg64"
     inkscape:window-maximized="1"
     inkscape:window-y="27"
     inkscape:window-x="0"
     inkscape:cy="135.09441"
     inkscape:cx="29.352306"
     inkscape:zoom="2.6203911"
     showgrid="false"
     id="namedview66"
     inkscape:window-height="1027"
     inkscape:window-width="1920"
     inkscape:pageshadow="2"
     inkscape:pageopacity="0"
     guidetolerance="10"
     gridtolerance="10"
     objecttolerance="10"
     borderopacity="1"
     bordercolor="#666666"
     pagecolor="#ffffff" />
  <g
     id="g62"
     opacity="0.25"
     transform="matrix(-1,0,0,1,182.712,0)">
    <g
       id="g12">
      <path
         id="path2"
         opacity="0.8"
         fill="#dddddd"
         transform="translate(-85.631,-19.534)"
         d="m 164.185,42.31 0.076,45.357 -39.107,-22.5 -0.042,-44.267 z" />
      <path
         id="path4"
         opacity="0.8"
         fill="#dddddd"
         transform="translate(-179.438,-19.534)"
         d="m 179.466,87.047 0.09,-44.775 39.363,-21.372 0.043,44.263 z" />
      <path
         id="path6"
         opacity="0.803"
         fill="#f3f3f3"
         transform="translate(-125.112,-36.792)"
         d="m 203.742,104.926 -39.107,-22.5 -39.524,21.9 39.481,23.3 z" />
      <path
         id="path8"
         fill="#ffffff"
         transform="translate(-85.519,-27.869)"
         d="M 163,51.166 126.422,72.208 126.199,116.755 163.045,95.429 163,52.626 Z m 1.185,-0.55 0.047,45.495 -39.232,22.701 0.237,-47.3 36.548,-20.894 z" />
      <path
         id="path10"
         fill="#ffffff"
         transform="translate(-124.947,-19)"
         d="m 164.428,20.37 -36.964,21.354 37.159,20.951 36.609,-20.965 -36.8,-21.326 z m 0,-1.355 39.182,22.7 -38.983,22.3 L 125.066,41.747 164.428,19 Z" />
    </g>
    <g
       id="g24"
       transform="translate(52,45)">
      <path
         id="path14"
         opacity="0.8"
         fill="#dddddd"
         transform="translate(-85.631,-19.534)"
         d="m 164.185,42.31 0.076,45.357 -39.107,-22.5 -0.042,-44.267 z" />
      <path
         id="path16"
         opacity="0.8"
         fill="#dddddd"
         transform="translate(-179.438,-19.534)"
         d="m 179.466,87.047 0.09,-44.775 39.363,-21.372 0.043,44.263 z" />
      <path
         id="path18"
         opacity="0.803"
         fill="#f3f3f3"
         transform="translate(-125.112,-36.792)"
         d="m 203.742,104.926 -39.107,-22.5 -39.524,21.9 39.481,23.3 z" />
      <path
         id="path20"
         fill="#ffffff"
         transform="translate(-85.519,-27.869)"
         d="M 163,51.166 126.422,72.208 126.199,116.755 163.045,95.429 163,52.626 Z m 1.185,-0.55 0.047,45.495 -39.232,22.701 0.237,-47.3 36.548,-20.894 z" />
      <path
         id="path22"
         fill="#ffffff"
         transform="translate(-124.947,-19)"
         d="m 164.428,20.37 -36.964,21.354 37.159,20.951 36.609,-20.965 -36.8,-21.326 z m 0,-1.355 39.182,22.7 -38.983,22.3 L 125.066,41.747 164.428,19 Z" />
    </g>
    <g
       id="g36"
       transform="translate(0,90)">
      <path
         id="path26"
         opacity="0.8"
         fill="#dddddd"
         transform="translate(-85.631,-19.534)"
         d="m 164.185,42.31 0.076,45.357 -39.107,-22.5 -0.042,-44.267 z" />
      <path
         id="path28"
         opacity="0.8"
         fill="#dddddd"
         transform="translate(-179.438,-19.534)"
         d="m 179.466,87.047 0.09,-44.775 39.363,-21.372 0.043,44.263 z" />
      <path
         id="path30"
         opacity="0.803"
         fill="#f3f3f3"
         transform="translate(-125.112,-36.792)"
         d="m 203.742,104.926 -39.107,-22.5 -39.524,21.9 39.481,23.3 z" />
      <path
         id="path32"
         fill="#ffffff"
         transform="translate(-85.519,-27.869)"
         d="M 163,51.166 126.422,72.208 126.199,116.755 163.045,95.429 163,52.626 Z m 1.185,-0.55 0.047,45.495 -39.232,22.701 0.237,-47.3 36.548,-20.894 z" />
      <path
         id="path34"
         fill="#ffffff"
         transform="translate(-124.947,-19)"
         d="m 164.428,20.37 -36.964,21.354 37.159,20.951 36.609,-20.965 -36.8,-21.326 z m 0,-1.355 39.182,22.7 -38.983,22.3 L 125.066,41.747 164.428,19 Z" />
    </g>
    <g
       id="g48"
       transform="translate(104,91)">
      <path
         id="path38"
         opacity="0.8"
         fill="#dddddd"
         transform="translate(-85.631,-19.534)"
         d="m 164.185,42.31 0.076,45.357 -39.107,-22.5 -0.042,-44.267 z" />
      <path
         id="path40"
         opacity="0.8"
         fill="#dddddd"
         transform="translate(-179.438,-19.534)"
         d="m 179.466,87.047 0.09,-44.775 39.363,-21.372 0.043,44.263 z" />
      <path
         id="path42"
         opacity="0.803"
         fill="#f3f3f3"
         transform="translate(-125.112,-36.792)"
         d="m 203.742,104.926 -39.107,-22.5 -39.524,21.9 39.481,23.3 z" />
      <path
         id="path44"
         fill="#ffffff"
         transform="translate(-85.519,-27.869)"
         d="M 163,51.166 126.422,72.208 126.199,116.755 163.045,95.429 163,52.626 Z m 1.185,-0.55 0.047,45.495 -39.232,22.701 0.237,-47.3 36.548,-20.894 z" />
      <path
         id="path46"
         fill="#ffffff"
         transform="translate(-124.947,-19)"
         d="m 164.428,20.37 -36.964,21.354 37.159,20.951 36.609,-20.965 -36.8,-21.326 z m 0,-1.355 39.182,22.7 -38.983,22.3 L 125.066,41.747 164.428,19 Z" />
    </g>
    <g
       id="g60"
       transform="translate(52,136)">
      <path
         id="path50"
         opacity="0.8"
         fill="#dddddd"
         transform="translate(-85.631,-19.534)"
         d="m 164.185,42.31 0.076,45.357 -39.107,-22.5 -0.042,-44.267 z" />
      <path
         id="path52"
         opacity="0.8"
         fill="#dddddd"
         transform="translate(-179.438,-19.534)"
         d="m 179.466,87.047 0.09,-44.775 39.363,-21.372 0.043,44.263 z" />
      <path
         id="path54"
         opacity="0.803"
         fill="#f3f3f3"
         transform="translate(-125.112,-36.792)"
         d="m 203.742,104.926 -39.107,-22.5 -39.524,21.9 39.481,23.3 z" />
      <path
         id="path56"
         fill="#ffffff"
         transform="translate(-85.519,-27.869)"
         d="M 163,51.166 126.422,72.208 126.199,116.755 163.045,95.429 163,52.626 Z m 1.185,-0.55 0.047,45.495 -39.232,22.701 0.237,-47.3 36.548,-20.894 z" />
      <path
         id="path58"
         fill="#ffffff"
         transform="translate(-124.947,-19)"
         d="m 164.428,20.37 -36.964,21.354 37.159,20.951 36.609,-20.965 -36.8,-21.326 z m 0,-1.355 39.182,22.7 -38.983,22.3 L 125.066,41.747 164.428,19 Z" />
    </g>
  </g>
</svg>
