<svg xmlns="http://www.w3.org/2000/svg" width="182.711" height="226.942" viewBox="0 0 182.711 226.942"><g transform="translate(0)" opacity="0.25"><g transform="translate(0)"><path d="M164.185,42.31l.076,45.357-39.107-22.5L125.112,20.9Z" transform="translate(-85.631 -19.534)" fill="#ddd" opacity="0.8"/><path d="M179.466,87.047l.09-44.775L218.919,20.9l.043,44.263Z" transform="translate(-179.438 -19.534)" fill="#ddd" opacity="0.8"/><path d="M203.742,104.926l-39.107-22.5-39.524,21.9,39.481,23.3Z" transform="translate(-125.112 -36.792)" fill="#f3f3f3" opacity="0.803"/><path d="M163,51.166,126.422,72.208l-.223,44.547,36.846-21.326L163,52.626Zm1.185-.55.047,45.495L125,118.812l.237-47.3,36.548-20.894Z" transform="translate(-85.519 -27.869)" fill="#fff"/><path d="M164.428,20.37,127.464,41.724l37.159,20.951L201.232,41.71l-36.8-21.326Zm0-1.355,39.182,22.7-38.983,22.3L125.066,41.747,164.428,19Z" transform="translate(-124.947 -19)" fill="#fff"/></g><g transform="translate(52 45)"><path d="M164.185,42.31l.076,45.357-39.107-22.5L125.112,20.9Z" transform="translate(-85.631 -19.534)" fill="#ddd" opacity="0.8"/><path d="M179.466,87.047l.09-44.775L218.919,20.9l.043,44.263Z" transform="translate(-179.438 -19.534)" fill="#ddd" opacity="0.8"/><path d="M203.742,104.926l-39.107-22.5-39.524,21.9,39.481,23.3Z" transform="translate(-125.112 -36.792)" fill="#f3f3f3" opacity="0.803"/><path d="M163,51.166,126.422,72.208l-.223,44.547,36.846-21.326L163,52.626Zm1.185-.55.047,45.495L125,118.812l.237-47.3,36.548-20.894Z" transform="translate(-85.519 -27.869)" fill="#fff"/><path d="M164.428,20.37,127.464,41.724l37.159,20.951L201.232,41.71l-36.8-21.326Zm0-1.355,39.182,22.7-38.983,22.3L125.066,41.747,164.428,19Z" transform="translate(-124.947 -19)" fill="#fff"/></g><g transform="translate(0 90)"><path d="M164.185,42.31l.076,45.357-39.107-22.5L125.112,20.9Z" transform="translate(-85.631 -19.534)" fill="#ddd" opacity="0.8"/><path d="M179.466,87.047l.09-44.775L218.919,20.9l.043,44.263Z" transform="translate(-179.438 -19.534)" fill="#ddd" opacity="0.8"/><path d="M203.742,104.926l-39.107-22.5-39.524,21.9,39.481,23.3Z" transform="translate(-125.112 -36.792)" fill="#f3f3f3" opacity="0.803"/><path d="M163,51.166,126.422,72.208l-.223,44.547,36.846-21.326L163,52.626Zm1.185-.55.047,45.495L125,118.812l.237-47.3,36.548-20.894Z" transform="translate(-85.519 -27.869)" fill="#fff"/><path d="M164.428,20.37,127.464,41.724l37.159,20.951L201.232,41.71l-36.8-21.326Zm0-1.355,39.182,22.7-38.983,22.3L125.066,41.747,164.428,19Z" transform="translate(-124.947 -19)" fill="#fff"/></g><g transform="translate(104 91)"><path d="M164.185,42.31l.076,45.357-39.107-22.5L125.112,20.9Z" transform="translate(-85.631 -19.534)" fill="#ddd" opacity="0.8"/><path d="M179.466,87.047l.09-44.775L218.919,20.9l.043,44.263Z" transform="translate(-179.438 -19.534)" fill="#ddd" opacity="0.8"/><path d="M203.742,104.926l-39.107-22.5-39.524,21.9,39.481,23.3Z" transform="translate(-125.112 -36.792)" fill="#f3f3f3" opacity="0.803"/><path d="M163,51.166,126.422,72.208l-.223,44.547,36.846-21.326L163,52.626Zm1.185-.55.047,45.495L125,118.812l.237-47.3,36.548-20.894Z" transform="translate(-85.519 -27.869)" fill="#fff"/><path d="M164.428,20.37,127.464,41.724l37.159,20.951L201.232,41.71l-36.8-21.326Zm0-1.355,39.182,22.7-38.983,22.3L125.066,41.747,164.428,19Z" transform="translate(-124.947 -19)" fill="#fff"/></g><g transform="translate(52 136)"><path d="M164.185,42.31l.076,45.357-39.107-22.5L125.112,20.9Z" transform="translate(-85.631 -19.534)" fill="#ddd" opacity="0.8"/><path d="M179.466,87.047l.09-44.775L218.919,20.9l.043,44.263Z" transform="translate(-179.438 -19.534)" fill="#ddd" opacity="0.8"/><path d="M203.742,104.926l-39.107-22.5-39.524,21.9,39.481,23.3Z" transform="translate(-125.112 -36.792)" fill="#f3f3f3" opacity="0.803"/><path d="M163,51.166,126.422,72.208l-.223,44.547,36.846-21.326L163,52.626Zm1.185-.55.047,45.495L125,118.812l.237-47.3,36.548-20.894Z" transform="translate(-85.519 -27.869)" fill="#fff"/><path d="M164.428,20.37,127.464,41.724l37.159,20.951L201.232,41.71l-36.8-21.326Zm0-1.355,39.182,22.7-38.983,22.3L125.066,41.747,164.428,19Z" transform="translate(-124.947 -19)" fill="#fff"/></g></g></svg>