<svg xmlns="http://www.w3.org/2000/svg" width="318.055" height="142.023" viewBox="0 0 318.055 142.023">
  <defs>
    <style>
      .cls-1 {
        opacity: 0.11;
      }

      .cls-2 {
        fill: #e00;
      }
    </style>
  </defs>
  <g id="Group_3272" data-name="Group 3272" transform="translate(-696.499 -153.976)">
    <g id="Group_3245" data-name="Group 3245" class="cls-1" transform="translate(708.407 166.176)">
      <path id="Union_1" data-name="Union 1" class="cls-2" d="M70.873,129.558V94.7H0V85.409H.185L70.873.047V.013H70.9L70.912,0l.02.014h9.237V129.558Zm0-44.149V15.631L12.322,85.409Z"/>
      <path id="Union_2" data-name="Union 2" class="cls-2" d="M70.873,129.558V94.7H0V85.409H.185L70.873.047V.013H70.9L70.912,0l.02.014h9.237V129.558Zm0-44.149V15.631L12.322,85.409Z" transform="translate(225.979 0.014)"/>
      <path id="Exclusion_1" data-name="Exclusion 1" d="M65,130a65.474,65.474,0,0,1-13.1-1.32,64.633,64.633,0,0,1-23.242-9.78A65.194,65.194,0,0,1,5.108,90.3,64.655,64.655,0,0,1,1.321,78.1a65.63,65.63,0,0,1,0-26.2A64.645,64.645,0,0,1,11.1,28.658,65.193,65.193,0,0,1,39.7,5.107,64.7,64.7,0,0,1,51.9,1.32a65.62,65.62,0,0,1,26.2,0,64.63,64.63,0,0,1,23.242,9.78,65.189,65.189,0,0,1,23.55,28.6,64.655,64.655,0,0,1,3.787,12.2,65.63,65.63,0,0,1,0,26.2,64.65,64.65,0,0,1-9.78,23.243,65.192,65.192,0,0,1-28.6,23.55,64.7,64.7,0,0,1-12.2,3.787A65.479,65.479,0,0,1,65,130ZM65,9.328a56.059,56.059,0,0,0-11.219,1.131,55.36,55.36,0,0,0-19.907,8.376A55.844,55.844,0,0,0,13.7,43.33a55.418,55.418,0,0,0-3.244,10.45,56.219,56.219,0,0,0,0,22.441,55.355,55.355,0,0,0,8.377,19.906A55.833,55.833,0,0,0,43.33,116.3a55.373,55.373,0,0,0,10.45,3.244,56.2,56.2,0,0,0,22.439,0,55.366,55.366,0,0,0,19.908-8.376A55.841,55.841,0,0,0,116.3,86.67a55.408,55.408,0,0,0,3.244-10.45,56.219,56.219,0,0,0,0-22.441,55.363,55.363,0,0,0-8.377-19.906A55.833,55.833,0,0,0,86.671,13.7,55.374,55.374,0,0,0,76.22,10.459,56.066,56.066,0,0,0,65,9.328Z" transform="translate(88.593 -0.176)"/>
    </g>
    <g id="Group_3243" data-name="Group 3243" transform="translate(696.499 153.977)">
      <path id="Union_1-2" data-name="Union 1" class="cls-2" d="M70.873,129.558V94.7H0V85.409H.185L70.873.047V.013H70.9L70.912,0l.02.014h9.237V129.558Zm0-44.149V15.631L12.322,85.409Z"/>
      <path id="Union_2-2" data-name="Union 2" class="cls-2" d="M70.873,129.558V94.7H0V85.409H.185L70.873.047V.013H70.9L70.912,0l.02.014h9.237V129.558Zm0-44.149V15.631L12.322,85.409Z" transform="translate(225.979 0.014)"/>
      <path id="Exclusion_1-2" data-name="Exclusion 1" d="M64.773,129.545a65.235,65.235,0,0,1-13.053-1.316,64.41,64.41,0,0,1-23.161-9.746A64.964,64.964,0,0,1,5.09,89.985,64.439,64.439,0,0,1,1.316,77.827a65.4,65.4,0,0,1,0-26.107,64.421,64.421,0,0,1,9.747-23.162A64.965,64.965,0,0,1,39.561,5.09,64.412,64.412,0,0,1,51.719,1.316a65.38,65.38,0,0,1,26.108,0,64.395,64.395,0,0,1,23.161,9.746,64.961,64.961,0,0,1,23.468,28.5,64.441,64.441,0,0,1,3.774,12.159,65.4,65.4,0,0,1,0,26.107,64.423,64.423,0,0,1-9.746,23.161,64.964,64.964,0,0,1-28.5,23.468,64.446,64.446,0,0,1-12.158,3.774A65.241,65.241,0,0,1,64.773,129.545Zm0-120.25a55.85,55.85,0,0,0-11.18,1.127,55.172,55.172,0,0,0-19.837,8.347,55.649,55.649,0,0,0-20.1,24.408,55.225,55.225,0,0,0-3.233,10.414,56.022,56.022,0,0,0,0,22.362,55.164,55.164,0,0,0,8.348,19.837,55.648,55.648,0,0,0,24.408,20.1,55.181,55.181,0,0,0,10.414,3.232,56.025,56.025,0,0,0,22.361,0,55.167,55.167,0,0,0,19.838-8.348,55.64,55.64,0,0,0,20.1-24.408,55.2,55.2,0,0,0,3.233-10.414,56.016,56.016,0,0,0,0-22.362,55.159,55.159,0,0,0-8.348-19.836,55.636,55.636,0,0,0-24.409-20.1,55.114,55.114,0,0,0-10.414-3.232A55.859,55.859,0,0,0,64.773,9.3Z" transform="translate(88.3 0.014)"/>
    </g>
  </g>
</svg>
