<svg xmlns="http://www.w3.org/2000/svg" xmlns:xlink="http://www.w3.org/1999/xlink" width="17" height="13" viewBox="0 0 17 13"><defs><clipPath id="a"><rect width="17" height="13" fill="none"/></clipPath></defs><g clip-path="url(#a)"><path d="M6.648,12.1a4,4,0,0,1-5.523-.47c-1.5-1.8-1.784-5.195.821-8.207A12.541,12.541,0,0,1,6.592,0l.85,1.326C4.835,2.542,2.909,4.2,2.626,6.963a10.14,10.14,0,0,1,3,.249A2.649,2.649,0,0,1,7.441,8.925,2.815,2.815,0,0,1,6.648,12.1ZM16,12.1a4,4,0,0,1-5.523-.47c-1.5-1.8-1.784-5.195.821-8.207A12.541,12.541,0,0,1,15.939,0l.85,1.326C14.211,2.542,12.285,4.2,12,6.963a10.14,10.14,0,0,1,3,.249,2.649,2.649,0,0,1,1.813,1.713A2.873,2.873,0,0,1,16,12.1Z" transform="translate(0.011)" fill="#ddd"/></g></svg>