<svg xmlns="http://www.w3.org/2000/svg" width="47.229" height="55.816" viewBox="0 0 47.229 55.816"><defs><style>.a{fill:#f0ab00;}</style></defs><path class="a" d="M103.748,57.724a19.4,19.4,0,0,1,3.208.6,13.673,13.673,0,0,1,10.422,13.4V88.844L118.63,90.1l1.045,1.05H87.554L88.6,90.1l1.251-1.256V71.722a13.674,13.674,0,0,1,10.422-13.4,23.752,23.752,0,0,1,3.208-.6M103.614,48a4.1,4.1,0,0,0-4.167,4.186V54.14A18.088,18.088,0,0,0,85.556,71.722V87.071L80,92.653v2.791h47.229V92.653l-5.556-5.582V71.722A18.089,18.089,0,0,0,107.782,54.14V52.186A4.1,4.1,0,0,0,103.614,48Zm5.556,50.234H98.058a5.556,5.556,0,1,0,11.113,0Z" transform="translate(-80 -48)"/></svg>