<svg xmlns="http://www.w3.org/2000/svg" width="17" height="13" viewBox="0 0 17 13"><path d="M10.33,12.1a4,4,0,0,0,5.523-.47c1.5-1.8,1.784-5.195-.821-8.207A12.541,12.541,0,0,0,10.386,0l-.85,1.326c2.606,1.216,4.532,2.874,4.815,5.637a10.14,10.14,0,0,0-3,.249A2.649,2.649,0,0,0,9.537,8.925,2.815,2.815,0,0,0,10.33,12.1Zm-9.347,0a4,4,0,0,0,5.523-.47c1.5-1.8,1.784-5.195-.821-8.207A12.541,12.541,0,0,0,1.039,0L.19,1.326C2.767,2.542,4.693,4.2,4.976,6.963a10.14,10.14,0,0,0-3,.249A2.649,2.649,0,0,0,.161,8.925,2.873,2.873,0,0,0,.983,12.1Z" transform="translate(0.011)" fill="#ddd"/></svg>