<svg xmlns="http://www.w3.org/2000/svg" width="1920.462" height="916.5" viewBox="0 0 1920.462 916.5"><g transform="translate(0 -72)"><g transform="translate(830.5 587)" fill="#fff" stroke="#151515" stroke-width="1"><rect width="251" height="167" rx="4" stroke="none"/><rect x="0.5" y="0.5" width="250" height="166" rx="3.5" fill="none"/></g><g transform="translate(843.5 599)" fill="#fff" stroke="#151515" stroke-width="1"><rect width="60" height="8" rx="4" stroke="none"/><rect x="0.5" y="0.5" width="59" height="7" rx="3.5" fill="none"/></g><g transform="translate(1062.5 599)" fill="#fff" stroke="#151515" stroke-width="1"><circle cx="4" cy="4" r="4" stroke="none"/><circle cx="4" cy="4" r="3.5" fill="none"/></g><g transform="translate(1042.5 599)" fill="#fff" stroke="#151515" stroke-width="1"><circle cx="4" cy="4" r="4" stroke="none"/><circle cx="4" cy="4" r="3.5" fill="none"/></g><g transform="translate(1052.5 599)" fill="#fff" stroke="#151515" stroke-width="1"><circle cx="4" cy="4" r="4" stroke="none"/><circle cx="4" cy="4" r="3.5" fill="none"/></g><rect width="147" height="8" rx="4" transform="translate(923.5 623)" fill="#f5f5f5"/><rect width="81" height="8" rx="4" transform="translate(923.5 635)" fill="#f5f5f5"/><rect width="81" height="8" rx="4" transform="translate(923.5 659)" fill="#f5f5f5"/><rect width="104" height="8" rx="4" transform="translate(923.5 647)" fill="#f5f5f5"/><rect width="45" height="8" rx="4" transform="translate(1009.5 635)" fill="#f5f5f5"/><rect width="45" height="8" rx="4" transform="translate(1009.5 659)" fill="#f5f5f5"/><g transform="translate(-377.5 461)"><rect width="113" height="8" rx="4" transform="translate(1221 236)" fill="#f5f5f5"/><rect width="46" height="8" rx="4" transform="translate(1221 248)" fill="#f5f5f5"/><rect width="63" height="8" rx="4" transform="translate(1221 260)" fill="#f5f5f5"/><rect width="45" height="8" rx="4" transform="translate(1271 248)" fill="#f5f5f5"/></g><g transform="translate(661 699)" fill="#fff" stroke="#151515" stroke-width="1"><rect width="251" height="167" rx="4" stroke="none"/><rect x="0.5" y="0.5" width="250" height="166" rx="3.5" fill="none"/></g><g transform="translate(674 711)" fill="#fff" stroke="#151515" stroke-width="1"><rect width="60" height="8" rx="4" stroke="none"/><rect x="0.5" y="0.5" width="59" height="7" rx="3.5" fill="none"/></g><g transform="translate(893 711)" fill="#fff" stroke="#151515" stroke-width="1"><circle cx="4" cy="4" r="4" stroke="none"/><circle cx="4" cy="4" r="3.5" fill="none"/></g><g transform="translate(873 711)" fill="#fff" stroke="#151515" stroke-width="1"><circle cx="4" cy="4" r="4" stroke="none"/><circle cx="4" cy="4" r="3.5" fill="none"/></g><g transform="translate(883 711)" fill="#fff" stroke="#151515" stroke-width="1"><circle cx="4" cy="4" r="4" stroke="none"/><circle cx="4" cy="4" r="3.5" fill="none"/></g><rect width="155" height="8" rx="4" transform="translate(746 735)" fill="#f5f5f5"/><rect width="88" height="8" rx="4" transform="translate(746 747)" fill="#f5f5f5"/><rect width="88" height="8" rx="4" transform="translate(748 771)" fill="#f5f5f5"/><rect width="110" height="8" rx="4" transform="translate(748 759)" fill="#f5f5f5"/><rect width="45" height="8" rx="4" transform="translate(840 747)" fill="#f5f5f5"/><rect width="45" height="8" rx="4" transform="translate(842 771)" fill="#f5f5f5"/><g transform="translate(-547 573)"><rect width="113" height="8" rx="4" transform="translate(1221 236)" fill="#f5f5f5"/><rect width="46" height="8" rx="4" transform="translate(1221 248)" fill="#f5f5f5"/><rect width="63" height="8" rx="4" transform="translate(1221 260)" fill="#f5f5f5"/><rect width="45" height="8" rx="4" transform="translate(1271 248)" fill="#f5f5f5"/></g><g transform="translate(1008 699)" fill="#fff" stroke="#151515" stroke-width="1"><rect width="251" height="167" rx="4" stroke="none"/><rect x="0.5" y="0.5" width="250" height="166" rx="3.5" fill="none"/></g><g transform="translate(1021 711)" fill="#fff" stroke="#151515" stroke-width="1"><rect width="60" height="8" rx="4" stroke="none"/><rect x="0.5" y="0.5" width="59" height="7" rx="3.5" fill="none"/></g><g transform="translate(1240 711)" fill="#fff" stroke="#151515" stroke-width="1"><circle cx="4" cy="4" r="4" stroke="none"/><circle cx="4" cy="4" r="3.5" fill="none"/></g><g transform="translate(1220 711)" fill="#fff" stroke="#151515" stroke-width="1"><circle cx="4" cy="4" r="4" stroke="none"/><circle cx="4" cy="4" r="3.5" fill="none"/></g><g transform="translate(1230 711)" fill="#fff" stroke="#151515" stroke-width="1"><circle cx="4" cy="4" r="4" stroke="none"/><circle cx="4" cy="4" r="3.5" fill="none"/></g><rect width="141" height="8" rx="4" transform="translate(1107 735)" fill="#f5f5f5"/><rect width="74" height="8" rx="4" transform="translate(1107 747)" fill="#f5f5f5"/><rect width="74" height="8" rx="4" transform="translate(1107 771)" fill="#f5f5f5"/><rect width="91" height="8" rx="4" transform="translate(1107 759)" fill="#f5f5f5"/><rect width="45" height="8" rx="4" transform="translate(1185 747)" fill="#f5f5f5"/><rect width="45" height="8" rx="4" transform="translate(1185 771)" fill="#f5f5f5"/><g transform="translate(1022 800)"><rect width="113" height="8" rx="4" fill="#f5f5f5"/><rect width="46" height="8" rx="4" transform="translate(0 12)" fill="#f5f5f5"/><rect width="63" height="8" rx="4" transform="translate(0 24)" fill="#f5f5f5"/><rect width="45" height="8" rx="4" transform="translate(50 12)" fill="#f5f5f5"/></g><g transform="translate(844.234 624)"><path d="M53.349,307.062a3.126,3.126,0,0,0-2.549-.688l-18.987,3.3-5.393-5.393a.953.953,0,0,0-.677-.28H2.766v1.915h7.659v13.4H2.766v1.915H15.212a.956.956,0,0,0,.957-.957v-.957h2.646l10.235,5.118a3.118,3.118,0,0,0,2.975-.095l20.885-12.186a3.128,3.128,0,0,0,.437-5.1ZM14.255,319.32H12.34v-13.4h1.915ZM51.948,310.5,31.063,322.688a1.209,1.209,0,0,1-1.155.036l-10.437-5.219a.955.955,0,0,0-.429-.1H16.17V305.916h9.177l7.543,7.543a1.751,1.751,0,0,1-2.476,2.476l-4.951-4.952-1.354,1.354,4.951,4.951a3.665,3.665,0,0,0,5.183-5.183l-.775-.775,17.657-3.071a1.216,1.216,0,0,1,1.424,1.2,1.22,1.22,0,0,1-.6,1.051Z" transform="translate(0 -267.622)" fill="#0070e0"/><path d="M24.173,0a13.4,13.4,0,1,0,13.4,13.4A13.418,13.418,0,0,0,24.173,0Zm0,24.891A11.488,11.488,0,1,1,35.661,13.4,11.5,11.5,0,0,1,24.173,24.891Z" transform="translate(-7.046)" fill="#0070e0"/><path d="M264.173,48a13.4,13.4,0,1,0,13.4,13.4A13.418,13.418,0,0,0,264.173,48Zm0,24.891A11.488,11.488,0,1,1,275.661,61.4,11.5,11.5,0,0,1,264.173,72.891Z" transform="translate(-218.325 -42.256)" fill="#0070e0"/><path d="M61.644,72a2.872,2.872,0,1,0,2.872,2.872A2.876,2.876,0,0,0,61.644,72Zm0,3.829a.957.957,0,1,1,.957-.957A.958.958,0,0,1,61.644,75.829Z" transform="translate(-49.304 -63.384)" fill="#0070e0"/><path d="M141.642,72a2.872,2.872,0,1,0,2.872,2.872A2.876,2.876,0,0,0,141.642,72Zm0,3.829a.957.957,0,1,1,.957-.957A.958.958,0,0,1,141.642,75.829Z" transform="translate(-119.728 -63.384)" fill="#0070e0"/><path d="M301.642,120a2.872,2.872,0,1,0,2.872,2.872A2.876,2.876,0,0,0,301.642,120Zm0,3.829a.957.957,0,1,1,.957-.957A.958.958,0,0,1,301.642,123.829Z" transform="translate(-260.581 -105.64)" fill="#0070e0"/><path d="M381.642,120a2.872,2.872,0,1,0,2.872,2.872A2.876,2.876,0,0,0,381.642,120Zm0,3.829a.957.957,0,1,1,.957-.957A.958.958,0,0,1,381.642,123.829Z" transform="translate(-331.007 -105.64)" fill="#0070e0"/><path d="M87.557,136a4.792,4.792,0,0,0-4.787,4.787h1.915a2.872,2.872,0,1,1,5.744,0h1.915A4.792,4.792,0,0,0,87.557,136Z" transform="translate(-70.43 -119.725)" fill="#0070e0"/><path d="M330.429,192a2.872,2.872,0,1,1-5.744,0H322.77a4.787,4.787,0,0,0,9.574,0Z" transform="translate(-281.709 -169.023)" fill="#0070e0"/><rect width="1.915" height="1.915" transform="translate(41.061)" fill="#0070e0"/><rect width="1.915" height="1.915" transform="translate(44.891)" fill="#0070e0"/><rect width="1.915" height="1.915" transform="translate(48.72)" fill="#0070e0"/></g><path d="M72.541,21.514a1.176,1.176,0,0,0,1.166-1.166V9.433a1.27,1.27,0,0,0-1.27-1.166H68.092V4.557a4.557,4.557,0,0,0-9.115,0v3.71H38.522V4.557a4.557,4.557,0,0,0-9.115,0v3.71H25.167A1.176,1.176,0,0,0,24,9.433V20.349a1.176,1.176,0,0,0,1.166,1.165h4.769v3.921H25.166A1.176,1.176,0,0,0,24,26.6V37.519a1.176,1.176,0,0,0,1.166,1.166h4.769v15.05h-1.59a1.166,1.166,0,1,0,0,2.332h5.617a1.166,1.166,0,1,0,0-2.332H32.373V38.685H64.7v15.05H63.109a1.166,1.166,0,1,0,0,2.332h5.617a1.166,1.166,0,1,0,0-2.332h-1.59V38.685h5.405a1.176,1.176,0,0,0,1.166-1.166V26.6a1.176,1.176,0,0,0-1.166-1.166H67.136V21.514ZM68.726,10.7l-7.1,8.481H57.6L64.7,10.7ZM64.7,21.514v3.921H32.373V21.514ZM61.519,4.557a2.12,2.12,0,1,1,4.239,0v3.71H61.519Zm0,6.041-7.1,8.479H50.39l7.1-8.479Zm-7.207,0-7.1,8.479H43.186l7.1-8.479Zm-7.207,0L40,19.078H36.082l7-8.479ZM31.843,4.557a2.12,2.12,0,0,1,4.239,0v3.71H31.843ZM26.332,10.6H32.8l-6.465,7.737Zm2.544,8.479,7.1-8.479H40l-7.1,8.479Zm-2.544,8.691H32.8l-6.465,7.737Zm2.544,8.585,7.1-8.479H40l-7.1,8.479Zm7.207,0,7.1-8.479h4.028l-7.1,8.479Zm7.207,0,7.1-8.479h4.028l-7.1,8.479Zm7.207,0,7.1-8.479h3.922l-7,8.479Zm20.773,0H64.8l6.465-7.737Zm-2.544-8.585-7.1,8.479H57.6l7.1-8.479ZM64.8,19.186l6.465-7.737v7.737Z" transform="translate(650 731)" fill="#1b8793"/><path d="M16.335,50.17a1.167,1.167,0,0,1-1.167,1.167h-7a3.5,3.5,0,0,1-3.5-3.5V43.173a1.167,1.167,0,1,1,2.333,0v4.664A1.168,1.168,0,0,0,8.164,49h7a1.167,1.167,0,0,1,1.171,1.167Zm7-31.736A1.167,1.167,0,0,0,22.168,19.6v.237a1.167,1.167,0,0,0,2.333,0V19.6a1.167,1.167,0,0,0-1.167-1.168ZM17.5,7H21a1.168,1.168,0,0,1,1.167,1.167V14A1.167,1.167,0,0,0,24.5,14V8.167a3.5,3.5,0,0,0-3.5-3.5H17.5A1.167,1.167,0,1,0,17.5,7ZM50.17,40.836A1.167,1.167,0,0,0,49,42v5.833A1.168,1.168,0,0,1,47.836,49h-3.5a1.167,1.167,0,0,0,0,2.333h3.5a3.5,3.5,0,0,0,3.5-3.5V42a1.167,1.167,0,0,0-1.167-1.167ZM21,49h-.237a1.167,1.167,0,1,0,0,2.333H21A1.167,1.167,0,0,0,21,49ZM56,31.5V51.336A4.672,4.672,0,0,1,51.34,56H4.664A4.672,4.672,0,0,1,0,51.336v-32.6a1.167,1.167,0,0,1,1.239-1.164l3.51.219a3.218,3.218,0,1,0,0-6.423l-3.51.219A1.167,1.167,0,0,1,0,10.428V4.664A4.672,4.672,0,0,1,4.664,0H24.5a4.672,4.672,0,0,1,4.664,4.664V26.835h6.853l-.141-2.27a5.551,5.551,0,1,1,11.08,0l-.141,2.27h4.519A4.672,4.672,0,0,1,56,31.5ZM2.332,26.838h8.094a1.167,1.167,0,0,1,1.164,1.239l-.219,3.51a3.218,3.218,0,1,0,6.423,0l-.219-3.51a1.167,1.167,0,0,1,1.164-1.239h8.094V4.664a2.336,2.336,0,0,0-2.33-2.33H4.664a2.336,2.336,0,0,0-2.33,2.33V9.183L4.6,9.041a5.551,5.551,0,1,1,0,11.08l-2.27-.139ZM28.074,44.411l3.51.219a3.218,3.218,0,1,0,0-6.423l-3.51.22a1.167,1.167,0,0,1-1.239-1.164V29.167H19.982l.141,2.27a5.551,5.551,0,1,1-11.08,0l.141-2.27H2.333V51.336a2.336,2.336,0,0,0,2.33,2.335H26.835v-8.1a1.167,1.167,0,0,1,1.239-1.164Zm25.6-12.91a2.336,2.336,0,0,0-2.335-2.334H45.576a1.167,1.167,0,0,1-1.164-1.239l.22-3.51a3.218,3.218,0,1,0-6.423,0l.22,3.51a1.167,1.167,0,0,1-1.165,1.239H29.167v6.853l2.27-.141a5.551,5.551,0,1,1,0,11.08l-2.27-.142v6.854H51.336a2.336,2.336,0,0,0,2.335-2.335ZM50.17,35A1.167,1.167,0,0,0,49,36.168v.237a1.167,1.167,0,0,0,2.333,0v-.237A1.167,1.167,0,0,0,50.17,35Z" transform="translate(1027 731)" fill="#e00"/><path d="M8542-2968v264.174H8353.461v227.858h294.447v209.01h216.554" transform="translate(-8204 3040)" fill="none" stroke="#ccc" stroke-width="1"/><path d="M8204-2885.392h120.469v294.319h211.978v248.741h234.359v76.118" transform="translate(-8204 3040)" fill="none" stroke="#ccc" stroke-width="1"/><path d="M8204-2052h200.814v-763.606h201.447v708.041h120.187v-158.863" transform="translate(-8204 3040)" fill="none" stroke="#ccc" stroke-width="1"/><path d="M8675.922-2968v264.174h188.539v227.858H8570.014v209.01H8353.46" transform="translate(-7093.46 3040)" fill="none" stroke="#ccc" stroke-width="1"/><path d="M8770.8-2885.392H8650.336v294.319H8438.358v248.741H8204v76.118" transform="translate(-6850.343 3040)" fill="none" stroke="#ccc" stroke-width="1"/><path d="M8726.449-2052H8525.635v-763.606H8324.188v708.041H8204v-159.153" transform="translate(-6805.987 3040)" fill="none" stroke="#ccc" stroke-width="1"/></g></svg>