<svg id="Icons" xmlns="http://www.w3.org/2000/svg" viewBox="0 0 36 36"><defs><style>.cls-1{fill:#e00;}</style></defs><title>Icon-Red_Hat-Objects-Padlock_Locked-A-Red-RGB</title><path class="cls-1" d="M18,6.27A5.76,5.76,0,0,0,12.25,12v2.39H10a.75.75,0,0,0-.75.75v14a.75.75,0,0,0,.75.75H26a.76.76,0,0,0,.75-.75v-14a.76.76,0,0,0-.75-.75H23.75V12A5.76,5.76,0,0,0,18,6.27ZM13.75,12a4.25,4.25,0,0,1,8.5,0v2.39h-8.5Zm11.5,3.89v2.5H19a.75.75,0,0,0,0,1.5h6.25v1.5H19a.75.75,0,0,0,0,1.5h6.25v1.5H19a.75.75,0,0,0,0,1.5h6.25v2.5H10.75V15.91Z"/></svg>