<svg xmlns="http://www.w3.org/2000/svg" width="46" height="55.816" viewBox="0 0 46 55.816"><defs><style>.a{fill:#0070e0;}</style></defs><path class="a" d="M31.306,62.082A22.964,22.964,0,0,0,54.2,40.867V13.111a1.768,1.768,0,0,0-1.368-1.721L31.613,6.321a1.627,1.627,0,0,0-.825,0L9.568,11.39a1.792,1.792,0,0,0-1.368,1.7V40.556A22.588,22.588,0,0,0,10.982,50.1v.118A23.059,23.059,0,0,0,31.306,62.082Zm0-3.537a19.593,19.593,0,0,1-15.844-8.111l34.99-7.71A19.428,19.428,0,0,1,31.306,58.546ZM11.949,14.5,31.306,9.787,50.758,14.5V18.44L11.9,26.857Zm0,16.057,38.809-8.417v17L13.576,47.228a18.721,18.721,0,0,1-1.721-6.767Z" transform="translate(-8.2 -6.267)"/></svg>