<svg xmlns="http://www.w3.org/2000/svg" width="69.43" height="55.816" viewBox="0 0 69.43 55.816"><g transform="translate(-914 -1200)"><path d="M60.911,43.519V16.292a2.042,2.042,0,0,0-2.042-2.042H45.256a2.042,2.042,0,0,0,0,4.084H56.827V41.477H50.7a2.015,2.015,0,0,0-2.042,2.042v3.267l-4.683-4.71a2.042,2.042,0,0,0-1.443-.6H17.321V35.623a1.906,1.906,0,0,0-.572-1.661,2.015,2.015,0,0,0-2.886,0c-.653.653-.653.653-.6,9.611a2.069,2.069,0,0,0,2.042,2.042H41.689c6.752,6.834,8.168,8.168,9.067,8.168a1.715,1.715,0,0,0,.708-.191,2.042,2.042,0,0,0,1.28-1.879v-6.1h6.126a2.069,2.069,0,0,0,2.042-2.1Z" transform="translate(922.518 1202.032)" fill="#1b8793"/><path d="M7.292,39.581h6.126v6.072a2.042,2.042,0,0,0,1.252,1.879,1.96,1.96,0,0,0,.79.163,2.1,2.1,0,0,0,1.443-.6l7.569-7.569H50.856A2.069,2.069,0,0,0,52.9,37.485V10.258A2.042,2.042,0,0,0,50.856,8.27H7.292A2.015,2.015,0,0,0,5.25,10.258V37.485a2.042,2.042,0,0,0,2.042,2.1ZM9.335,12.354H48.814V35.47H23.629a1.933,1.933,0,0,0-1.443.6L17.5,40.779V37.485A2.042,2.042,0,0,0,15.461,35.5H9.335Z" transform="translate(908.75 1191.73)" fill="#1b8793"/></g></svg>