<svg xmlns="http://www.w3.org/2000/svg" xmlns:xlink="http://www.w3.org/1999/xlink" width="177.058" height="177.058" viewBox="0 0 177.058 177.058"><defs><style>.a{opacity:0.5;}.b{fill:url(#a);}.c{fill:#f5f5f5;}.d{fill:#c00;}.e{fill:#f55f44;}.f{opacity:0.1;}.g{fill:#fda57d;}.h{fill:#333;}</style><linearGradient id="a" x1="0.5" y1="1" x2="0.5" gradientUnits="objectBoundingBox"><stop offset="0" stop-color="gray" stop-opacity="0.251"/><stop offset="0.54" stop-color="gray" stop-opacity="0.122"/><stop offset="1" stop-color="gray" stop-opacity="0.102"/></linearGradient></defs><g transform="translate(-393.751 -1343.43)"><g class="a" transform="translate(393.751 1343.43)"><circle class="b" cx="88.529" cy="88.529" r="88.529" transform="translate(0 0)"/></g><circle class="c" cx="86.658" cy="86.658" r="86.658" transform="translate(395.79 1344.736)"/><path class="d" d="M579.3,549.143a86.252,86.252,0,0,0,47.607-14.255c-3.193-17.448-15.347-18.448-15.347-18.448H544.579s-11.459.94-15.049,17A86.26,86.26,0,0,0,579.3,549.143Z" transform="translate(-96.774 969.252)"/><circle class="e" cx="41.832" cy="41.832" r="41.832" transform="translate(439.776 1387.737)"/><path class="f" d="M366.53,416.8h26.805v21.443a13.4,13.4,0,0,1-13.4,13.4h0a13.4,13.4,0,0,1-13.4-13.4V416.8Z" transform="translate(101.579 1047.61)"/><path class="g" d="M369.091,415.5h21.687a2.559,2.559,0,0,1,2.559,2.559v18.884a13.4,13.4,0,0,1-13.4,13.4h0a13.4,13.4,0,0,1-13.4-13.4V418.059A2.559,2.559,0,0,1,369.1,415.5Z" transform="translate(101.577 1047.917)"/><path class="f" d="M575.88,500.836a38.578,38.578,0,0,0,26.806.076V497.62H575.88Z" transform="translate(-107.717 973.696)"/><circle class="g" cx="38.417" cy="38.417" r="38.417" transform="translate(443.191 1399.493)"/><circle class="e" cx="15.461" cy="15.461" r="15.461" transform="translate(466.093 1371.557)"/><circle class="e" cx="10.152" cy="10.152" r="10.152" transform="translate(471.402 1361.641)"/><path class="e" d="M581.623,392.26a15.461,15.461,0,0,1-8.059-19.77c-.107.214-.214.435-.313.657A15.464,15.464,0,0,0,601.469,385.8c.1-.222.191-.443.283-.672a15.461,15.461,0,0,1-20.129,7.127Z" transform="translate(-106.776 1003.238)"/><path class="f" d="M557.67,405.154S573.857,438,619.546,418.9l-10.634-16.676-18.846-6.768Z" transform="translate(-103.418 997.815)"/><path class="e" d="M557.67,404.514s16.187,32.848,61.876,13.75l-10.634-16.676-18.846-6.768Z" transform="translate(-103.418 997.966)"/><path class="h" d="M574,391.668a190.861,190.861,0,0,1,29.93,0S581.822,393.723,574,391.668Z" transform="translate(-107.273 998.849)"/><path class="e" d="M595.742,353.238a10.18,10.18,0,0,0-2.292.176h.588a10.145,10.145,0,0,1,1.528,20.114,10.145,10.145,0,0,0,.183-20.289Z" transform="translate(-111.865 1007.785)"/><ellipse class="g" cx="3.575" cy="6.699" rx="3.575" ry="6.699" transform="translate(439.608 1431.172)"/><ellipse class="g" cx="3.575" cy="6.699" rx="3.575" ry="6.699" transform="translate(516.449 1431.172)"/><path class="e" d="M345.22,335.805l7.494-3.865,1.688,6.2-4.591,3.124Z" transform="translate(106.61 1067.645)"/></g></svg>