<svg xmlns="http://www.w3.org/2000/svg" xmlns:xlink="http://www.w3.org/1999/xlink" width="178.447" height="178.447" viewBox="0 0 178.447 178.447"><defs><style>.a{opacity:0.5;}.b{fill:url(#a);}.c{fill:#f5f5f5;}.d{fill:#c00;}.e{fill:#333;}.f{opacity:0.1;}.g{fill:#fdb797;}</style><linearGradient id="a" x1="0.5" y1="1" x2="0.5" gradientUnits="objectBoundingBox"><stop offset="0" stop-color="gray" stop-opacity="0.251"/><stop offset="0.54" stop-color="gray" stop-opacity="0.122"/><stop offset="1" stop-color="gray" stop-opacity="0.102"/></linearGradient></defs><g transform="translate(-124.561 -1335.84)"><g class="a" transform="translate(124.561 1335.84)"><circle class="b" cx="89.224" cy="89.224" r="89.224" transform="translate(0)"/></g><circle class="c" cx="87.337" cy="87.337" r="87.337" transform="translate(126.616 1337.157)"/><path class="d" d="M310.49,541.809a86.929,86.929,0,0,0,48-14.366c-3.218-17.585-15.467-18.593-15.467-18.593H275.467s-11.548.947-15.167,17.13a86.937,86.937,0,0,0,50.19,15.829Z" transform="translate(-96.459 970.368)"/><circle class="e" cx="42.16" cy="42.16" r="42.16" transform="translate(170.947 1380.494)"/><path class="f" d="M97.34,409.21h27.016v21.611a13.5,13.5,0,0,1-13.5,13.5h0a13.5,13.5,0,0,1-13.5-13.5V409.21Z" transform="translate(102.163 1048.559)"/><path class="g" d="M99.919,407.908h21.857a2.579,2.579,0,0,1,2.579,2.579v19.047a13.5,13.5,0,0,1-13.5,13.5h0a13.5,13.5,0,0,1-13.512-13.5V410.479a2.579,2.579,0,0,1,2.579-2.579Z" transform="translate(102.163 1048.86)"/><path class="f" d="M306.69,493.264a38.88,38.88,0,0,0,27.016.077V490H306.69Z" transform="translate(-107.134 974.706)"/><circle class="g" cx="38.718" cy="38.718" r="38.718" transform="translate(174.388 1392.343)"/><path class="f" d="M288.48,397.63s16.314,33.106,62.362,13.858l-10.717-16.807-18.993-6.821Z" transform="translate(-102.943 998.208)"/><path class="e" d="M288.48,397s16.314,33.106,62.362,13.858l-10.717-16.807-18.993-6.821Z" transform="translate(-102.943 998.353)"/><path class="e" d="M288.049,389.013A22.365,22.365,0,0,1,293.592,380c7.614-7.53,20.1-9.116,26.508-17.708a5.012,5.012,0,0,1-2.31,7.068c6.159-.038,13.25-.577,16.714-5.628a11.479,11.479,0,0,1-1.932,12.118c5.435.246,11.241,3.934,11.595,9.37.231,3.619-2.033,7.045-5.012,9.123s-6.575,3.026-10.116,3.811C318.706,400.446,281.3,410,288.049,389.013Z" transform="translate(-102.658 1004.092)"/><ellipse class="g" cx="3.603" cy="6.752" rx="3.603" ry="6.752" transform="translate(170.77 1424.271)"/><ellipse class="g" cx="3.603" cy="6.752" rx="3.603" ry="6.752" transform="translate(248.214 1424.271)"/></g></svg>