<?xml version="1.0" encoding="UTF-8" standalone="no"?>
<svg
   xmlns:dc="http://purl.org/dc/elements/1.1/"
   xmlns:cc="http://creativecommons.org/ns#"
   xmlns:rdf="http://www.w3.org/1999/02/22-rdf-syntax-ns#"
   xmlns:svg="http://www.w3.org/2000/svg"
   xmlns="http://www.w3.org/2000/svg"
   xmlns:sodipodi="http://sodipodi.sourceforge.net/DTD/sodipodi-0.dtd"
   xmlns:inkscape="http://www.inkscape.org/namespaces/inkscape"
   inkscape:version="1.0 (4035a4fb49, 2020-05-01)"
   height="303.50092"
   width="574.37323"
   sodipodi:docname="api-gateway-authorization-workflow.svg"
   id="svg85"
   stroke-miterlimit="10"
   stroke-linecap="square"
   stroke="none"
   fill="none"
   viewBox="0 0 574.37323 303.50092"
   version="1.1">
  <metadata
     id="metadata91">
    <rdf:RDF>
      <cc:Work
         rdf:about="">
        <dc:format>image/svg+xml</dc:format>
        <dc:type
           rdf:resource="http://purl.org/dc/dcmitype/StillImage" />
        <dc:title></dc:title>
      </cc:Work>
    </rdf:RDF>
  </metadata>
  <defs
     id="defs89">
    <clipPath
       id="clipPath177"
       clipPathUnits="userSpaceOnUse">
      <rect
         y="24.672876"
         x="171.57742"
         height="303.50092"
         width="574.37323"
         id="rect179"
         style="fill:#a07cbc;stroke:#a07cbc" />
    </clipPath>
  </defs>
  <sodipodi:namedview
     inkscape:current-layer="svg85"
     inkscape:window-maximized="1"
     inkscape:window-y="25"
     inkscape:window-x="0"
     inkscape:cy="213.562"
     inkscape:cx="340.42258"
     inkscape:zoom="1.0976562"
     fit-margin-bottom="0"
     fit-margin-right="0"
     fit-margin-left="0"
     fit-margin-top="0"
     showgrid="false"
     id="namedview87"
     inkscape:window-height="1025"
     inkscape:window-width="1920"
     inkscape:pageshadow="2"
     inkscape:pageopacity="0"
     guidetolerance="10"
     gridtolerance="10"
     objecttolerance="10"
     borderopacity="1"
     bordercolor="#666666"
     pagecolor="#ffffff" />
  <clipPath
     id="p.0">
    <path
       id="path2"
       clip-rule="nonzero"
       d="M 0,0 H 1024 V 768 H 0 Z" />
  </clipPath>
  <g
     transform="translate(-171.57742,-24.672876)"
     id="g83"
     clip-path="url(#clipPath177)">
    <path
       id="path5"
       fill-rule="evenodd"
       d="M 0,0 H 1024 V 768 H 0 Z"
       fill-opacity="0"
       fill="#000000" />
    <path
       id="path7"
       fill-rule="evenodd"
       d="m 378.85565,91.19685 h 165.35431 v 59.1181 H 378.85565 Z"
       fill="#cfe2f3" />
    <path
       id="path9"
       fill-rule="evenodd"
       d="m 378.85565,91.19685 h 165.35431 v 59.1181 H 378.85565 Z"
       stroke-linecap="butt"
       stroke-linejoin="round"
       stroke-width="1"
       stroke="#000000" />
    <path
       id="path11"
       fill-rule="nonzero"
       d="m 407.0632,127.6759 5.125,-13.35937 h 1.90625 l 5.46875,13.35937 h -2.01563 l -1.54687,-4.04687 h -5.59375 l -1.46875,4.04687 z m 3.85937,-5.48437 h 4.53125 l -1.40625,-3.70313 q -0.625,-1.6875 -0.9375,-2.76562 -0.26562,1.28125 -0.71875,2.54687 z m 10.05295,5.48437 v -13.35937 h 5.04688 q 1.32812,0 2.03125,0.125 0.96875,0.17187 1.64062,0.64062 0.67188,0.45313 1.07813,1.28125 0.40625,0.82813 0.40625,1.82813 0,1.70312 -1.09375,2.89062 -1.07813,1.17188 -3.92188,1.17188 h -3.42187 v 5.42187 z m 1.76563,-7 h 3.45312 q 1.71875,0 2.4375,-0.64062 0.71875,-0.64063 0.71875,-1.79688 0,-0.84375 -0.42187,-1.4375 -0.42188,-0.59375 -1.125,-0.78125 -0.4375,-0.125 -1.64063,-0.125 h -3.42187 z m 10.97482,7 v -13.35937 h 1.76563 v 13.35937 z m 16.31973,-5.23437 v -1.57813 h 5.65625 v 4.95313 q -1.29687,1.04687 -2.6875,1.57812 -1.375,0.51563 -2.84375,0.51563 -1.96875,0 -3.57812,-0.84375 -1.60938,-0.84375 -2.42188,-2.4375 -0.8125,-1.59375 -0.8125,-3.5625 0,-1.95313 0.8125,-3.64063 0.8125,-1.6875 2.34375,-2.5 1.53125,-0.82812 3.51563,-0.82812 1.45312,0 2.625,0.46875 1.17187,0.46875 1.82812,1.3125 0.67188,0.82812 1.01563,2.17187 l -1.59375,0.4375 q -0.29688,-1.01562 -0.75,-1.59375 -0.4375,-0.59375 -1.26563,-0.9375 -0.82812,-0.34375 -1.84375,-0.34375 -1.20312,0 -2.09375,0.375 -0.89062,0.35938 -1.4375,0.96875 -0.53125,0.59375 -0.82812,1.3125 -0.51563,1.23438 -0.51563,2.6875 0,1.78125 0.60938,2.98438 0.625,1.20312 1.79687,1.79687 1.17188,0.57813 2.5,0.57813 1.14063,0 2.23438,-0.4375 1.09375,-0.45313 1.65625,-0.95313 v -2.48437 z m 14.37079,4.04687 q -0.92187,0.76563 -1.76562,1.09375 -0.82813,0.3125 -1.79688,0.3125 -1.59375,0 -2.45312,-0.78125 -0.85938,-0.78125 -0.85938,-1.98437 0,-0.71875 0.32813,-1.29688 0.32812,-0.59375 0.84375,-0.9375 0.53125,-0.35937 1.1875,-0.54687 0.46875,-0.125 1.45312,-0.25 1.98438,-0.23438 2.92188,-0.5625 0.0156,-0.34375 0.0156,-0.42188 0,-1 -0.46875,-1.42187 -0.625,-0.54688 -1.875,-0.54688 -1.15625,0 -1.70312,0.40625 -0.54688,0.40625 -0.8125,1.42188 l -1.60938,-0.21875 q 0.21875,-1.01563 0.71875,-1.64063 0.5,-0.64062 1.45313,-0.98437 0.95312,-0.34375 2.1875,-0.34375 1.25,0 2.01562,0.29687 0.78125,0.28125 1.14063,0.73438 0.375,0.4375 0.51562,1.10937 0.0781,0.42188 0.0781,1.51563 v 2.1875 q 0,2.28125 0.10937,2.89062 0.10938,0.59375 0.40625,1.15625 h -1.70312 q -0.26563,-0.51562 -0.32813,-1.1875 z m -0.14062,-3.67187 q -0.89063,0.375 -2.67188,0.625 -1.01562,0.14062 -1.4375,0.32812 -0.42187,0.1875 -0.65625,0.53125 -0.21875,0.34375 -0.21875,0.78125 0,0.65625 0.5,1.09375 0.5,0.4375 1.45313,0.4375 0.9375,0 1.67187,-0.40625 0.75,-0.42187 1.09375,-1.14062 0.26563,-0.5625 0.26563,-1.64063 z m 7.78198,3.39062 0.23438,1.45313 q -0.6875,0.14062 -1.23438,0.14062 -0.89062,0 -1.39062,-0.28125 -0.48438,-0.28125 -0.6875,-0.73437 -0.20313,-0.46875 -0.20313,-1.9375 v -5.57813 h -1.20312 v -1.26562 h 1.20312 v -2.39063 l 1.625,-0.98437 v 3.375 h 1.65625 v 1.26562 h -1.65625 v 5.67188 q 0,0.6875 0.0781,0.89062 0.0937,0.20313 0.28125,0.32813 0.20312,0.10937 0.57812,0.10937 0.26563,0 0.71875,-0.0625 z m 8.23016,-1.64062 1.6875,0.20312 q -0.40625,1.48438 -1.48437,2.3125 -1.07813,0.8125 -2.76563,0.8125 -2.125,0 -3.375,-1.29687 -1.23437,-1.3125 -1.23437,-3.67188 0,-2.45312 1.25,-3.79687 1.26562,-1.34375 3.26562,-1.34375 1.9375,0 3.15625,1.32812 1.23438,1.3125 1.23438,3.70313 0,0.15625 0,0.4375 h -7.21875 q 0.0937,1.59375 0.90625,2.45312 0.8125,0.84375 2.01562,0.84375 0.90625,0 1.54688,-0.46875 0.64062,-0.48437 1.01562,-1.51562 z m -5.39062,-2.65625 h 5.40625 q -0.10938,-1.21875 -0.625,-1.82813 -0.78125,-0.95312 -2.03125,-0.95312 -1.125,0 -1.90625,0.76562 -0.76563,0.75 -0.84375,2.01563 z m 10.92261,5.76562 -2.96875,-9.67187 h 1.70312 l 1.53125,5.57812 0.57813,2.07813 q 0.0469,-0.15625 0.5,-2 l 1.54687,-5.65625 h 1.6875 l 1.4375,5.60937 0.48438,1.84375 0.5625,-1.85937 1.65625,-5.59375 h 1.59375 l -3.03125,9.67187 h -1.70313 l -1.53125,-5.79687 -0.375,-1.64063 -1.95312,7.4375 z m 18.00418,-1.1875 q -0.92188,0.76563 -1.76563,1.09375 -0.82812,0.3125 -1.79687,0.3125 -1.59375,0 -2.45313,-0.78125 -0.85937,-0.78125 -0.85937,-1.98437 0,-0.71875 0.32812,-1.29688 0.32813,-0.59375 0.84375,-0.9375 0.53125,-0.35937 1.1875,-0.54687 0.46875,-0.125 1.45313,-0.25 1.98437,-0.23438 2.92187,-0.5625 0.0156,-0.34375 0.0156,-0.42188 0,-1 -0.46875,-1.42187 -0.625,-0.54688 -1.875,-0.54688 -1.15625,0 -1.70313,0.40625 -0.54687,0.40625 -0.8125,1.42188 l -1.60937,-0.21875 q 0.21875,-1.01563 0.71875,-1.64063 0.5,-0.64062 1.45312,-0.98437 0.95313,-0.34375 2.1875,-0.34375 1.25,0 2.01563,0.29687 0.78125,0.28125 1.14062,0.73438 0.375,0.4375 0.51563,1.10937 0.0781,0.42188 0.0781,1.51563 v 2.1875 q 0,2.28125 0.10938,2.89062 0.10937,0.59375 0.40625,1.15625 h -1.70313 q -0.26562,-0.51562 -0.32812,-1.1875 z m -0.14063,-3.67187 q -0.89062,0.375 -2.67187,0.625 -1.01563,0.14062 -1.4375,0.32812 -0.42188,0.1875 -0.65625,0.53125 -0.21875,0.34375 -0.21875,0.78125 0,0.65625 0.5,1.09375 0.5,0.4375 1.45312,0.4375 0.9375,0 1.67188,-0.40625 0.75,-0.42187 1.09375,-1.14062 0.26562,-0.5625 0.26562,-1.64063 z m 4.12573,8.57812 -0.1875,-1.53125 q 0.54688,0.14063 0.9375,0.14063 0.54688,0 0.875,-0.1875 0.32813,-0.17188 0.54688,-0.5 0.15625,-0.25 0.5,-1.21875 0.0469,-0.14063 0.14062,-0.40625 l -3.67187,-9.6875 h 1.76562 l 2.01563,5.59375 q 0.39062,1.07812 0.70312,2.25 0.28125,-1.125 0.67185,-2.20313 l 2.07812,-5.64062 h 1.64063 l -3.6875,9.82812 q -0.59372,1.60938 -0.92185,2.20313 -0.4375,0.8125 -1,1.1875 -0.5625,0.375 -1.34375,0.375 -0.48437,0 -1.0625,-0.20313 z"
       fill="#000000" />
    <path
       id="path13"
       fill-rule="evenodd"
       d="m 177.57742,270.5675 h 155.05511 v 53.60629 H 177.57742 Z"
       fill="#cfe2f3" />
    <path
       id="path15"
       fill-rule="evenodd"
       d="m 177.57742,270.5675 h 155.05511 v 53.60629 H 177.57742 Z"
       stroke-linecap="butt"
       stroke-linejoin="round"
       stroke-width="1"
       stroke="#000000" />
    <path
       id="path17"
       fill-rule="nonzero"
       d="m 196.36838,304.29065 v -13.35937 h 2.65625 l 3.15625,9.45312 q 0.4375,1.32813 0.64062,1.98438 0.23438,-0.73438 0.70313,-2.14063 l 3.20312,-9.29687 h 2.375 v 13.35937 h -1.70312 v -11.17187 l -3.875,11.17187 h -1.59375 l -3.85938,-11.375 v 11.375 z m 15.38455,-11.46875 v -1.89062 h 1.64063 v 1.89062 z m 0,11.46875 v -9.67187 h 1.64063 v 9.67187 z m 10.45732,-3.54687 1.60938,0.21875 q -0.26563,1.65625 -1.35938,2.60937 -1.07812,0.9375 -2.67187,0.9375 -1.98438,0 -3.1875,-1.29687 -1.20313,-1.29688 -1.20313,-3.71875 0,-1.57813 0.51563,-2.75 0.51562,-1.17188 1.57812,-1.75 1.0625,-0.59375 2.3125,-0.59375 1.57813,0 2.57813,0.79687 1,0.79688 1.28125,2.26563 l -1.59375,0.23437 q -0.23438,-0.96875 -0.8125,-1.45312 -0.57813,-0.5 -1.39063,-0.5 -1.23437,0 -2.01562,0.89062 -0.78125,0.89063 -0.78125,2.8125 0,1.95313 0.75,2.84375 0.75,0.875 1.95312,0.875 0.96875,0 1.60938,-0.59375 0.65625,-0.59375 0.82812,-1.82812 z m 3,3.54687 v -9.67187 h 1.46875 v 1.46875 q 0.5625,-1.03125 1.03125,-1.35938 0.48438,-0.32812 1.0625,-0.32812 0.82813,0 1.6875,0.53125 l -0.5625,1.51562 q -0.60937,-0.35937 -1.20312,-0.35937 -0.54688,0 -0.96875,0.32812 -0.42188,0.32813 -0.60938,0.89063 -0.28125,0.875 -0.28125,1.92187 v 5.0625 z m 5.61893,-4.84375 q 0,-2.6875 1.48437,-3.96875 1.25,-1.07812 3.04688,-1.07812 2,0 3.26562,1.3125 1.26563,1.29687 1.26563,3.60937 0,1.85938 -0.5625,2.9375 -0.5625,1.0625 -1.64063,1.65625 -1.0625,0.59375 -2.32812,0.59375 -2.03125,0 -3.28125,-1.29687 -1.25,-1.3125 -1.25,-3.76563 z m 1.6875,0 q 0,1.85938 0.79687,2.79688 0.8125,0.92187 2.04688,0.92187 1.21875,0 2.03125,-0.92187 0.8125,-0.9375 0.8125,-2.84375 0,-1.79688 -0.8125,-2.71875 -0.8125,-0.92188 -2.03125,-0.92188 -1.23438,0 -2.04688,0.92188 -0.79687,0.90625 -0.79687,2.76562 z m 8.64134,1.95313 1.625,-0.25 q 0.125,0.96875 0.75,1.5 0.625,0.51562 1.75,0.51562 1.125,0 1.67188,-0.45312 0.54687,-0.46875 0.54687,-1.09375 0,-0.54688 -0.48437,-0.875 -0.32813,-0.21875 -1.67188,-0.54688 -1.8125,-0.46875 -2.51562,-0.79687 -0.6875,-0.32813 -1.04688,-0.90625 -0.35937,-0.59375 -0.35937,-1.3125 0,-0.64063 0.29687,-1.1875 0.29688,-0.5625 0.8125,-0.92188 0.375,-0.28125 1.03125,-0.46875 0.67188,-0.20312 1.42188,-0.20312 1.14062,0 2,0.32812 0.85937,0.32813 1.26562,0.89063 0.42188,0.5625 0.57813,1.5 l -1.60938,0.21875 q -0.10937,-0.75 -0.64062,-1.17188 -0.51563,-0.42187 -1.46875,-0.42187 -1.14063,0 -1.625,0.375 -0.46875,0.375 -0.46875,0.875 0,0.3125 0.1875,0.57812 0.20312,0.26563 0.64062,0.4375 0.23438,0.0937 1.4375,0.42188 1.75,0.45312 2.4375,0.75 0.6875,0.29687 1.07813,0.85937 0.39062,0.5625 0.39062,1.40625 0,0.82813 -0.48437,1.54688 -0.46875,0.71875 -1.375,1.125 -0.90625,0.39062 -2.04688,0.39062 -1.875,0 -2.875,-0.78125 -0.98437,-0.78125 -1.25,-2.32812 z m 16.60938,-0.21875 1.6875,0.20312 q -0.40625,1.48438 -1.48438,2.3125 -1.07812,0.8125 -2.76562,0.8125 -2.125,0 -3.375,-1.29687 -1.23438,-1.3125 -1.23438,-3.67188 0,-2.45312 1.25,-3.79687 1.26563,-1.34375 3.26563,-1.34375 1.9375,0 3.15625,1.32812 1.23437,1.3125 1.23437,3.70313 0,0.15625 0,0.4375 h -7.21875 q 0.0937,1.59375 0.90625,2.45312 0.8125,0.84375 2.01563,0.84375 0.90625,0 1.54687,-0.46875 0.64063,-0.48437 1.01563,-1.51562 z m -5.39063,-2.65625 h 5.40625 q -0.10937,-1.21875 -0.625,-1.82813 -0.78125,-0.95312 -2.03125,-0.95312 -1.125,0 -1.90625,0.76562 -0.76562,0.75 -0.84375,2.01563 z m 9.1257,5.76562 v -9.67187 h 1.46875 v 1.46875 q 0.5625,-1.03125 1.03125,-1.35938 0.48438,-0.32812 1.0625,-0.32812 0.82813,0 1.6875,0.53125 l -0.5625,1.51562 q -0.60937,-0.35937 -1.20312,-0.35937 -0.54688,0 -0.96875,0.32812 -0.42188,0.32813 -0.60938,0.89063 -0.28125,0.875 -0.28125,1.92187 v 5.0625 z m 8.91581,0 -3.6875,-9.67187 h 1.73437 l 2.07813,5.79687 q 0.32812,0.9375 0.625,1.9375 0.20312,-0.76562 0.60937,-1.82812 l 2.14063,-5.90625 h 1.6875 l -3.65625,9.67187 z m 6.64062,-11.46875 v -1.89062 h 1.64063 v 1.89062 z m 0,11.46875 v -9.67187 h 1.64063 v 9.67187 z m 10.45734,-3.54687 1.60937,0.21875 q -0.26562,1.65625 -1.35937,2.60937 -1.07813,0.9375 -2.67188,0.9375 -1.98437,0 -3.1875,-1.29687 -1.20312,-1.29688 -1.20312,-3.71875 0,-1.57813 0.51562,-2.75 0.51563,-1.17188 1.57813,-1.75 1.0625,-0.59375 2.3125,-0.59375 1.57812,0 2.57812,0.79687 1,0.79688 1.28125,2.26563 l -1.59375,0.23437 q -0.23437,-0.96875 -0.8125,-1.45312 -0.57812,-0.5 -1.39062,-0.5 -1.23438,0 -2.01563,0.89062 -0.78125,0.89063 -0.78125,2.8125 0,1.95313 0.75,2.84375 0.75,0.875 1.95313,0.875 0.96875,0 1.60937,-0.59375 0.65625,-0.59375 0.82813,-1.82812 z m 9.64062,0.4375 1.6875,0.20312 q -0.40625,1.48438 -1.48437,2.3125 -1.07813,0.8125 -2.76563,0.8125 -2.125,0 -3.375,-1.29687 -1.23437,-1.3125 -1.23437,-3.67188 0,-2.45312 1.25,-3.79687 1.26562,-1.34375 3.26562,-1.34375 1.9375,0 3.15625,1.32812 1.23438,1.3125 1.23438,3.70313 0,0.15625 0,0.4375 h -7.21875 q 0.0937,1.59375 0.90625,2.45312 0.8125,0.84375 2.01562,0.84375 0.90625,0 1.54688,-0.46875 0.64062,-0.48437 1.01562,-1.51562 z m -5.39062,-2.65625 h 5.40625 q -0.10938,-1.21875 -0.625,-1.82813 -0.78125,-0.95312 -2.03125,-0.95312 -1.125,0 -1.90625,0.76562 -0.76563,0.75 -0.84375,2.01563 z m 20.04339,5.76562 h -1.64062 v -10.45312 q -0.59375,0.5625 -1.5625,1.14062 -0.95313,0.5625 -1.71875,0.84375 v -1.59375 q 1.375,-0.64062 2.40625,-1.5625 1.03125,-0.92187 1.45312,-1.78125 h 1.0625 z"
       fill="#000000" />
    <path
       id="path19"
       fill-rule="evenodd"
       d="m 384.0059,270.5675 h 155.05515 v 53.60629 H 384.0059 Z"
       fill="#cfe2f3" />
    <path
       id="path21"
       fill-rule="evenodd"
       d="m 384.0059,270.5675 h 155.05515 v 53.60629 H 384.0059 Z"
       stroke-linecap="butt"
       stroke-linejoin="round"
       stroke-width="1"
       stroke="#000000" />
    <path
       id="path23"
       fill-rule="nonzero"
       d="m 402.79684,304.29065 v -13.35937 h 2.65625 l 3.15625,9.45312 q 0.4375,1.32813 0.64062,1.98438 0.23438,-0.73438 0.70313,-2.14063 l 3.20312,-9.29687 h 2.375 v 13.35937 h -1.70312 v -11.17187 l -3.875,11.17187 h -1.59375 l -3.85938,-11.375 v 11.375 z m 15.38455,-11.46875 v -1.89062 h 1.64063 v 1.89062 z m 0,11.46875 v -9.67187 h 1.64063 v 9.67187 z m 10.45734,-3.54687 1.60937,0.21875 q -0.26562,1.65625 -1.35937,2.60937 -1.07813,0.9375 -2.67188,0.9375 -1.98437,0 -3.1875,-1.29687 -1.20312,-1.29688 -1.20312,-3.71875 0,-1.57813 0.51562,-2.75 0.51563,-1.17188 1.57813,-1.75 1.0625,-0.59375 2.3125,-0.59375 1.57812,0 2.57812,0.79687 1,0.79688 1.28125,2.26563 l -1.59375,0.23437 q -0.23437,-0.96875 -0.8125,-1.45312 -0.57812,-0.5 -1.39062,-0.5 -1.23438,0 -2.01563,0.89062 -0.78125,0.89063 -0.78125,2.8125 0,1.95313 0.75,2.84375 0.75,0.875 1.95313,0.875 0.96875,0 1.60937,-0.59375 0.65625,-0.59375 0.82813,-1.82812 z m 3,3.54687 v -9.67187 h 1.46875 v 1.46875 q 0.5625,-1.03125 1.03125,-1.35938 0.48437,-0.32812 1.0625,-0.32812 0.82812,0 1.6875,0.53125 l -0.5625,1.51562 q -0.60938,-0.35937 -1.20313,-0.35937 -0.54687,0 -0.96875,0.32812 -0.42187,0.32813 -0.60937,0.89063 -0.28125,0.875 -0.28125,1.92187 v 5.0625 z m 5.61892,-4.84375 q 0,-2.6875 1.48438,-3.96875 1.25,-1.07812 3.04687,-1.07812 2,0 3.26563,1.3125 1.26562,1.29687 1.26562,3.60937 0,1.85938 -0.5625,2.9375 -0.5625,1.0625 -1.64062,1.65625 -1.0625,0.59375 -2.32813,0.59375 -2.03125,0 -3.28125,-1.29687 -1.25,-1.3125 -1.25,-3.76563 z m 1.6875,0 q 0,1.85938 0.79688,2.79688 0.8125,0.92187 2.04687,0.92187 1.21875,0 2.03125,-0.92187 0.8125,-0.9375 0.8125,-2.84375 0,-1.79688 -0.8125,-2.71875 -0.8125,-0.92188 -2.03125,-0.92188 -1.23437,0 -2.04687,0.92188 -0.79688,0.90625 -0.79688,2.76562 z m 8.64133,1.95313 1.625,-0.25 q 0.125,0.96875 0.75,1.5 0.625,0.51562 1.75,0.51562 1.125,0 1.67188,-0.45312 0.54687,-0.46875 0.54687,-1.09375 0,-0.54688 -0.48437,-0.875 -0.32813,-0.21875 -1.67188,-0.54688 -1.8125,-0.46875 -2.51562,-0.79687 -0.6875,-0.32813 -1.04688,-0.90625 -0.35937,-0.59375 -0.35937,-1.3125 0,-0.64063 0.29687,-1.1875 0.29688,-0.5625 0.8125,-0.92188 0.375,-0.28125 1.03125,-0.46875 0.67188,-0.20312 1.42188,-0.20312 1.14062,0 2,0.32812 0.85937,0.32813 1.26562,0.89063 0.42188,0.5625 0.57813,1.5 l -1.60938,0.21875 q -0.10937,-0.75 -0.64062,-1.17188 -0.51563,-0.42187 -1.46875,-0.42187 -1.14063,0 -1.625,0.375 -0.46875,0.375 -0.46875,0.875 0,0.3125 0.1875,0.57812 0.20312,0.26563 0.64062,0.4375 0.23438,0.0937 1.4375,0.42188 1.75,0.45312 2.4375,0.75 0.6875,0.29687 1.07813,0.85937 0.39062,0.5625 0.39062,1.40625 0,0.82813 -0.48437,1.54688 -0.46875,0.71875 -1.375,1.125 -0.90625,0.39062 -2.04688,0.39062 -1.875,0 -2.875,-0.78125 -0.98437,-0.78125 -1.25,-2.32812 z m 16.60938,-0.21875 1.6875,0.20312 q -0.40625,1.48438 -1.48438,2.3125 -1.07812,0.8125 -2.76562,0.8125 -2.125,0 -3.375,-1.29687 -1.23438,-1.3125 -1.23438,-3.67188 0,-2.45312 1.25,-3.79687 1.26563,-1.34375 3.26563,-1.34375 1.9375,0 3.15625,1.32812 1.23437,1.3125 1.23437,3.70313 0,0.15625 0,0.4375 h -7.21875 q 0.0937,1.59375 0.90625,2.45312 0.8125,0.84375 2.01563,0.84375 0.90625,0 1.54687,-0.46875 0.64063,-0.48437 1.01563,-1.51562 z m -5.39063,-2.65625 h 5.40625 q -0.10937,-1.21875 -0.625,-1.82813 -0.78125,-0.95312 -2.03125,-0.95312 -1.125,0 -1.90625,0.76562 -0.76562,0.75 -0.84375,2.01563 z m 9.12573,5.76562 v -9.67187 h 1.46875 v 1.46875 q 0.5625,-1.03125 1.03125,-1.35938 0.48438,-0.32812 1.0625,-0.32812 0.82813,0 1.6875,0.53125 l -0.5625,1.51562 q -0.60937,-0.35937 -1.20312,-0.35937 -0.54688,0 -0.96875,0.32812 -0.42188,0.32813 -0.60938,0.89063 -0.28125,0.875 -0.28125,1.92187 v 5.0625 z m 8.91581,0 -3.6875,-9.67187 h 1.73437 l 2.07813,5.79687 q 0.32812,0.9375 0.625,1.9375 0.20312,-0.76562 0.60937,-1.82812 l 2.14063,-5.90625 h 1.6875 l -3.65625,9.67187 z m 6.64062,-11.46875 v -1.89062 h 1.64063 v 1.89062 z m 0,11.46875 v -9.67187 h 1.64063 v 9.67187 z m 10.45731,-3.54687 1.60937,0.21875 q -0.26562,1.65625 -1.35937,2.60937 -1.07813,0.9375 -2.67188,0.9375 -1.98437,0 -3.1875,-1.29687 -1.20312,-1.29688 -1.20312,-3.71875 0,-1.57813 0.51562,-2.75 0.51563,-1.17188 1.57813,-1.75 1.0625,-0.59375 2.3125,-0.59375 1.57812,0 2.57812,0.79687 1,0.79688 1.28125,2.26563 l -1.59375,0.23437 q -0.23437,-0.96875 -0.8125,-1.45312 -0.57812,-0.5 -1.39062,-0.5 -1.23438,0 -2.01563,0.89062 -0.78125,0.89063 -0.78125,2.8125 0,1.95313 0.75,2.84375 0.75,0.875 1.95313,0.875 0.96875,0 1.60937,-0.59375 0.65625,-0.59375 0.82813,-1.82812 z m 9.64062,0.4375 1.6875,0.20312 q -0.40625,1.48438 -1.48437,2.3125 -1.07813,0.8125 -2.76563,0.8125 -2.125,0 -3.375,-1.29687 -1.23437,-1.3125 -1.23437,-3.67188 0,-2.45312 1.25,-3.79687 1.26562,-1.34375 3.26562,-1.34375 1.9375,0 3.15625,1.32812 1.23438,1.3125 1.23438,3.70313 0,0.15625 0,0.4375 h -7.21875 q 0.0937,1.59375 0.90625,2.45312 0.8125,0.84375 2.01562,0.84375 0.90625,0 1.54688,-0.46875 0.64062,-0.48437 1.01562,-1.51562 z m -5.39062,-2.65625 h 5.40625 q -0.10938,-1.21875 -0.625,-1.82813 -0.78125,-0.95312 -2.03125,-0.95312 -1.125,0 -1.90625,0.76562 -0.76563,0.75 -0.84375,2.01563 z m 22.48089,4.1875 v 1.57812 h -8.82812 q -0.0156,-0.59375 0.1875,-1.14062 0.34375,-0.90625 1.07812,-1.78125 0.75,-0.875 2.15625,-2.01563 2.17188,-1.78125 2.9375,-2.82812 0.76563,-1.04688 0.76563,-1.96875 0,-0.98438 -0.70313,-1.64063 -0.6875,-0.67187 -1.8125,-0.67187 -1.1875,0 -1.90625,0.71875 -0.70312,0.70312 -0.70312,1.95312 l -1.6875,-0.17187 q 0.17187,-1.89063 1.29687,-2.875 1.14063,-0.98438 3.03125,-0.98438 1.92188,0 3.04688,1.0625 1.125,1.0625 1.125,2.64063 0,0.79687 -0.32813,1.57812 -0.32812,0.78125 -1.09375,1.64063 -0.75,0.84375 -2.53125,2.34375 -1.46875,1.23437 -1.89062,1.6875 -0.42188,0.4375 -0.6875,0.875 z"
       fill="#000000" />
    <path
       id="path25"
       fill-rule="evenodd"
       d="m 583.30444,270.5675 h 155.05511 v 53.60629 H 583.30444 Z"
       fill="#cfe2f3" />
    <path
       id="path27"
       fill-rule="evenodd"
       d="m 583.30444,270.5675 h 155.05511 v 53.60629 H 583.30444 Z"
       stroke-linecap="butt"
       stroke-linejoin="round"
       stroke-width="1"
       stroke="#000000" />
    <path
       id="path29"
       fill-rule="nonzero"
       d="m 600.5468,304.29065 v -13.35937 h 2.65625 l 3.15625,9.45312 q 0.4375,1.32813 0.64062,1.98438 0.23438,-0.73438 0.70313,-2.14063 l 3.20312,-9.29687 h 2.375 v 13.35937 h -1.70312 v -11.17187 l -3.875,11.17187 h -1.59375 l -3.85938,-11.375 v 11.375 z m 15.38452,-11.46875 v -1.89062 h 1.64063 v 1.89062 z m 0,11.46875 v -9.67187 h 1.64063 v 9.67187 z m 10.45734,-3.54687 1.60937,0.21875 q -0.26562,1.65625 -1.35937,2.60937 -1.07813,0.9375 -2.67188,0.9375 -1.98437,0 -3.1875,-1.29687 -1.20312,-1.29688 -1.20312,-3.71875 0,-1.57813 0.51562,-2.75 0.51563,-1.17188 1.57813,-1.75 1.0625,-0.59375 2.3125,-0.59375 1.57812,0 2.57812,0.79687 1,0.79688 1.28125,2.26563 l -1.59375,0.23437 q -0.23437,-0.96875 -0.8125,-1.45312 -0.57812,-0.5 -1.39062,-0.5 -1.23438,0 -2.01563,0.89062 -0.78125,0.89063 -0.78125,2.8125 0,1.95313 0.75,2.84375 0.75,0.875 1.95313,0.875 0.96875,0 1.60937,-0.59375 0.65625,-0.59375 0.82813,-1.82812 z m 3,3.54687 v -9.67187 h 1.46875 v 1.46875 q 0.5625,-1.03125 1.03125,-1.35938 0.48437,-0.32812 1.0625,-0.32812 0.82812,0 1.6875,0.53125 l -0.5625,1.51562 q -0.60938,-0.35937 -1.20313,-0.35937 -0.54687,0 -0.96875,0.32812 -0.42187,0.32813 -0.60937,0.89063 -0.28125,0.875 -0.28125,1.92187 v 5.0625 z m 5.61889,-4.84375 q 0,-2.6875 1.48438,-3.96875 1.25,-1.07812 3.04687,-1.07812 2,0 3.26563,1.3125 1.26562,1.29687 1.26562,3.60937 0,1.85938 -0.5625,2.9375 -0.5625,1.0625 -1.64062,1.65625 -1.0625,0.59375 -2.32813,0.59375 -2.03125,0 -3.28125,-1.29687 -1.25,-1.3125 -1.25,-3.76563 z m 1.6875,0 q 0,1.85938 0.79688,2.79688 0.8125,0.92187 2.04687,0.92187 1.21875,0 2.03125,-0.92187 0.8125,-0.9375 0.8125,-2.84375 0,-1.79688 -0.8125,-2.71875 -0.8125,-0.92188 -2.03125,-0.92188 -1.23437,0 -2.04687,0.92188 -0.79688,0.90625 -0.79688,2.76562 z m 8.64136,1.95313 1.625,-0.25 q 0.125,0.96875 0.75,1.5 0.625,0.51562 1.75,0.51562 1.125,0 1.67188,-0.45312 0.54687,-0.46875 0.54687,-1.09375 0,-0.54688 -0.48437,-0.875 -0.32813,-0.21875 -1.67188,-0.54688 -1.8125,-0.46875 -2.51562,-0.79687 -0.6875,-0.32813 -1.04688,-0.90625 -0.35937,-0.59375 -0.35937,-1.3125 0,-0.64063 0.29687,-1.1875 0.29688,-0.5625 0.8125,-0.92188 0.375,-0.28125 1.03125,-0.46875 0.67188,-0.20312 1.42188,-0.20312 1.14062,0 2,0.32812 0.85937,0.32813 1.26562,0.89063 0.42188,0.5625 0.57813,1.5 l -1.60938,0.21875 q -0.10937,-0.75 -0.64062,-1.17188 -0.51563,-0.42187 -1.46875,-0.42187 -1.14063,0 -1.625,0.375 -0.46875,0.375 -0.46875,0.875 0,0.3125 0.1875,0.57812 0.20312,0.26563 0.64062,0.4375 0.23438,0.0937 1.4375,0.42188 1.75,0.45312 2.4375,0.75 0.6875,0.29687 1.07813,0.85937 0.39062,0.5625 0.39062,1.40625 0,0.82813 -0.48437,1.54688 -0.46875,0.71875 -1.375,1.125 -0.90625,0.39062 -2.04688,0.39062 -1.875,0 -2.875,-0.78125 -0.98437,-0.78125 -1.25,-2.32812 z m 16.60938,-0.21875 1.6875,0.20312 q -0.40625,1.48438 -1.48438,2.3125 -1.07812,0.8125 -2.76562,0.8125 -2.125,0 -3.375,-1.29687 -1.23438,-1.3125 -1.23438,-3.67188 0,-2.45312 1.25,-3.79687 1.26563,-1.34375 3.26563,-1.34375 1.9375,0 3.15625,1.32812 1.23437,1.3125 1.23437,3.70313 0,0.15625 0,0.4375 h -7.21875 q 0.0937,1.59375 0.90625,2.45312 0.8125,0.84375 2.01563,0.84375 0.90625,0 1.54687,-0.46875 0.64063,-0.48437 1.01563,-1.51562 z m -5.39063,-2.65625 h 5.40625 q -0.10937,-1.21875 -0.625,-1.82813 -0.78125,-0.95312 -2.03125,-0.95312 -1.125,0 -1.90625,0.76562 -0.76562,0.75 -0.84375,2.01563 z m 9.12573,5.76562 v -9.67187 h 1.46875 v 1.46875 q 0.5625,-1.03125 1.03125,-1.35938 0.48438,-0.32812 1.0625,-0.32812 0.82813,0 1.6875,0.53125 l -0.5625,1.51562 q -0.60937,-0.35937 -1.20312,-0.35937 -0.54688,0 -0.96875,0.32812 -0.42188,0.32813 -0.60938,0.89063 -0.28125,0.875 -0.28125,1.92187 v 5.0625 z m 8.91577,0 -3.6875,-9.67187 h 1.73438 l 2.07812,5.79687 q 0.32813,0.9375 0.625,1.9375 0.20313,-0.76562 0.60938,-1.82812 l 2.14062,-5.90625 h 1.6875 l -3.65625,9.67187 z m 6.64063,-11.46875 v -1.89062 h 1.64062 v 1.89062 z m 0,11.46875 v -9.67187 h 1.64062 v 9.67187 z m 10.45734,-3.54687 1.60937,0.21875 q -0.26562,1.65625 -1.35937,2.60937 -1.07813,0.9375 -2.67188,0.9375 -1.98437,0 -3.1875,-1.29687 -1.20312,-1.29688 -1.20312,-3.71875 0,-1.57813 0.51562,-2.75 0.51563,-1.17188 1.57813,-1.75 1.0625,-0.59375 2.3125,-0.59375 1.57812,0 2.57812,0.79687 1,0.79688 1.28125,2.26563 l -1.59375,0.23437 q -0.23437,-0.96875 -0.8125,-1.45312 -0.57812,-0.5 -1.39062,-0.5 -1.23438,0 -2.01563,0.89062 -0.78125,0.89063 -0.78125,2.8125 0,1.95313 0.75,2.84375 0.75,0.875 1.95313,0.875 0.96875,0 1.60937,-0.59375 0.65625,-0.59375 0.82813,-1.82812 z m 9.64062,0.4375 1.6875,0.20312 q -0.40625,1.48438 -1.48437,2.3125 -1.07813,0.8125 -2.76563,0.8125 -2.125,0 -3.375,-1.29687 -1.23437,-1.3125 -1.23437,-3.67188 0,-2.45312 1.25,-3.79687 1.26562,-1.34375 3.26562,-1.34375 1.9375,0 3.15625,1.32812 1.23438,1.3125 1.23438,3.70313 0,0.15625 0,0.4375 h -7.21875 q 0.0937,1.59375 0.90625,2.45312 0.8125,0.84375 2.01562,0.84375 0.90625,0 1.54688,-0.46875 0.64062,-0.48437 1.01562,-1.51562 z m -5.39062,-2.65625 h 5.40625 q -0.10938,-1.21875 -0.625,-1.82813 -0.78125,-0.95312 -2.03125,-0.95312 -1.125,0 -1.90625,0.76562 -0.76563,0.75 -0.84375,2.01563 z m 14.51214,5.76562 v -13.35937 h 1.8125 l 7.01563,10.48437 v -10.48437 h 1.6875 v 13.35937 h -1.8125 l -7.01563,-10.5 v 10.5 z"
       fill="#000000" />
    <path
       id="path31"
       fill-rule="evenodd"
       d="M 425.30972,151.32341 255.10498,270.5675"
       fill-opacity="0"
       fill="#000000" />
    <path
       id="path33"
       fill-rule="evenodd"
       d="M 422.5029,153.28983 260.01901,267.12479"
       stroke-linecap="butt"
       stroke-linejoin="round"
       stroke-width="1"
       stroke="#000000" />
    <path
       id="path35"
       fill-rule="evenodd"
       d="m 422.5029,153.28983 -0.27576,1.5663 1.88526,-2.69391 -3.17578,0.85184 z"
       stroke-linecap="butt"
       stroke-width="1"
       stroke="#000000"
       fill="#000000" />
    <path
       id="path37"
       fill-rule="evenodd"
       d="m 259.07126,265.772 -2.76898,3.95666 4.66449,-1.25112 z"
       stroke-linecap="butt"
       stroke-width="1"
       stroke="#000000"
       fill="#000000" />
    <path
       id="path39"
       fill-rule="evenodd"
       d="M 461.5328,150.31496 V 270.56693"
       fill-opacity="0"
       fill="#000000" />
    <path
       id="path41"
       fill-rule="evenodd"
       d="M 461.5328,153.74205 V 264.56693"
       stroke-linecap="butt"
       stroke-linejoin="round"
       stroke-width="1"
       stroke="#000000" />
    <path
       id="path43"
       fill-rule="evenodd"
       d="m 461.5328,153.74205 1.12457,1.12459 -1.12457,-3.08978 -1.12457,3.08978 z"
       stroke-linecap="butt"
       stroke-width="1"
       stroke="#000000"
       fill="#000000" />
    <path
       id="path45"
       fill-rule="evenodd"
       d="m 459.88107,264.56693 1.65173,4.53812 1.65174,-4.53812 z"
       stroke-linecap="butt"
       stroke-width="1"
       stroke="#000000"
       fill="#000000" />
    <path
       id="path47"
       fill-rule="evenodd"
       d="M 512.5485,151.3549 660.83201,270.5675"
       fill-opacity="0"
       fill="#000000" />
    <path
       id="path49"
       fill-rule="evenodd"
       d="M 515.2195,153.5022 656.15584,266.80808"
       stroke-linecap="butt"
       stroke-linejoin="round"
       stroke-width="1"
       stroke="#000000" />
    <path
       id="path51"
       fill-rule="evenodd"
       d="m 515.2195,153.50221 1.58112,-0.17183 -3.11268,-1.05951 1.70343,2.81243 z"
       stroke-linecap="butt"
       stroke-width="1"
       stroke="#000000"
       fill="#000000" />
    <path
       id="path53"
       fill-rule="evenodd"
       d="m 655.1209,268.09537 4.57178,1.55615 -2.50196,-4.13074 z"
       stroke-linecap="butt"
       stroke-width="1"
       stroke="#000000"
       fill="#000000" />
    <path
       id="path55"
       fill-rule="evenodd"
       d="m 536.3438,277.0525 h 46.96063 v 26.58267 H 536.3438 Z"
       fill-opacity="0"
       fill="#000000" />
    <path
       id="path57"
       fill-rule="nonzero"
       d="m 547.5157,303.9725 v -1.875 h 1.875 v 1.875 z m 6.23438,0 v -1.875 h 1.85937 v 1.875 z m 6.20312,0 v -1.875 h 1.875 v 1.875 z m 5.73438,0 v -1.875 h 1.875 v 1.875 z"
       fill="#000000" />
    <path
       id="path59"
       fill-rule="evenodd"
       d="m 429.50656,27.61155 0.0315,63.55905"
       fill-opacity="0"
       fill="#000000" />
    <path
       id="path61"
       fill-rule="evenodd"
       d="m 429.50656,27.61155 0.0285,57.55905"
       stroke-linecap="butt"
       stroke-linejoin="round"
       stroke-width="1"
       stroke="#000000" />
    <path
       id="path63"
       fill-rule="evenodd"
       d="m 427.88336,85.171425 1.65396,4.537277 1.64951,-4.538917 z"
       stroke-linecap="butt"
       stroke-width="1"
       stroke="#000000"
       fill="#000000" />
    <path
       id="path65"
       fill-rule="evenodd"
       d="m 503.13647,25.566929 v 64.62993"
       fill-opacity="0"
       fill="#000000" />
    <path
       id="path67"
       fill-rule="evenodd"
       d="m 503.13647,28.994015 v 61.20284"
       stroke-linecap="butt"
       stroke-linejoin="round"
       stroke-width="1"
       stroke="#000000" />
    <path
       id="path69"
       fill-rule="evenodd"
       d="m 503.13647,28.994015 1.1246,1.124584 -1.1246,-3.089767 -1.12457,3.089767 z"
       stroke-linecap="butt"
       stroke-width="1"
       stroke="#000000"
       fill="#000000" />
    <path
       id="path71"
       fill-rule="evenodd"
       d="m 340.63254,40.062992 h 92.66144 v 34.771656 h -92.66144 z"
       fill-opacity="0"
       fill="#000000" />
    <path
       id="path73"
       fill-rule="nonzero"
       d="M 350.89816,64.423 V 52.969871 h 5.07813 q 1.53125,0 2.32812,0.3125 0.79688,0.296875 1.26563,1.078125 0.48437,0.78125 0.48437,1.734375 0,1.21875 -0.79687,2.0625 -0.78125,0.828125 -2.4375,1.046875 0.60937,0.296875 0.92187,0.578125 0.65625,0.609375 1.25,1.515625 l 2,3.125004 h -1.90625 l -1.51562,-2.390629 q -0.67188,-1.03125 -1.10938,-1.578125 -0.42187,-0.546875 -0.76562,-0.765625 -0.32813,-0.21875 -0.6875,-0.296875 -0.25,-0.0625 -0.84375,-0.0625 h -1.75 V 64.423 Z m 1.51563,-6.406254 h 3.25 q 1.04687,0 1.625,-0.203125 0.59375,-0.21875 0.89062,-0.6875 0.3125,-0.484375 0.3125,-1.03125 0,-0.8125 -0.59375,-1.328125 -0.59375,-0.53125 -1.85937,-0.53125 h -3.625 z m 15.50781,3.734375 1.45312,0.171875 q -0.34375,1.28125 -1.28125,1.984375 -0.92187,0.703129 -2.35937,0.703129 -1.82813,0 -2.89063,-1.125004 -1.0625,-1.125 -1.0625,-3.140625 0,-2.09375 1.07813,-3.25 1.07812,-1.15625 2.79687,-1.15625 1.65625,0 2.70313,1.140625 1.0625,1.125 1.0625,3.171875 0,0.125 0,0.375 h -6.1875 q 0.0781,1.375 0.76562,2.109375 0.70313,0.71875 1.73438,0.71875 0.78125,0 1.32812,-0.40625 0.54688,-0.40625 0.85938,-1.296875 z m -4.60938,-2.28125 h 4.625 q -0.0937,-1.046875 -0.53125,-1.5625 -0.67187,-0.8125 -1.73437,-0.8125 -0.96875,0 -1.64063,0.65625 -0.65625,0.640625 -0.71875,1.71875 z m 13.11719,8.140629 v -4.078129 q -0.32812,0.468754 -0.92187,0.781254 -0.57813,0.296875 -1.25,0.296875 -1.46875,0 -2.54688,-1.171879 -1.0625,-1.1875 -1.0625,-3.25 0,-1.25 0.4375,-2.234375 0.4375,-1 1.25,-1.5 0.82813,-0.515625 1.8125,-0.515625 1.54688,0 2.42188,1.296875 v -1.109375 h 1.26562 V 67.6105 Z m -4.32812,-7.359379 q 0,1.59375 0.67187,2.40625 0.67188,0.796875 1.60938,0.796875 0.89062,0 1.53125,-0.765625 0.65625,-0.765625 0.65625,-2.3125 0,-1.65625 -0.6875,-2.484375 -0.67188,-0.84375 -1.59375,-0.84375 -0.92188,0 -1.5625,0.78125 -0.625,0.765625 -0.625,2.421875 z M 385.4841,64.423 v -1.218754 q -0.96875,1.406254 -2.64063,1.406254 -0.73437,0 -1.375,-0.28125 -0.625,-0.28125 -0.9375,-0.703129 -0.3125,-0.4375 -0.4375,-1.046875 -0.0781,-0.421875 -0.0781,-1.3125 v -5.140625 h 1.40625 v 4.59375 q 0,1.109375 0.0781,1.484375 0.14063,0.5625 0.5625,0.875 0.4375,0.3125 1.0625,0.3125 0.64063,0 1.1875,-0.3125 0.5625,-0.328125 0.78125,-0.890625 0.23438,-0.5625 0.23438,-1.625 v -4.4375 h 1.40625 V 64.423 Z m 9.13281,-2.671879 1.45313,0.171875 q -0.34375,1.28125 -1.28125,1.984375 -0.92188,0.703129 -2.35938,0.703129 -1.82812,0 -2.89062,-1.125004 -1.0625,-1.125 -1.0625,-3.140625 0,-2.09375 1.07812,-3.25 1.07813,-1.15625 2.79688,-1.15625 1.65625,0 2.70312,1.140625 1.0625,1.125 1.0625,3.171875 0,0.125 0,0.375 h -6.1875 q 0.0781,1.375 0.76563,2.109375 0.70312,0.71875 1.73437,0.71875 0.78125,0 1.32813,-0.40625 0.54687,-0.40625 0.85937,-1.296875 z m -4.60937,-2.28125 h 4.625 q -0.0937,-1.046875 -0.53125,-1.5625 -0.67188,-0.8125 -1.73438,-0.8125 -0.96875,0 -1.64062,0.65625 -0.65625,0.640625 -0.71875,1.71875 z m 7.27343,2.46875 1.39063,-0.21875 q 0.10937,0.84375 0.64062,1.296875 0.54688,0.4375 1.5,0.4375 0.96875,0 1.4375,-0.390625 0.46875,-0.40625 0.46875,-0.9375 0,-0.46875 -0.40625,-0.75 -0.29687,-0.1875 -1.4375,-0.46875 -1.54687,-0.390625 -2.15625,-0.671875 -0.59375,-0.296875 -0.90625,-0.796875 -0.29687,-0.5 -0.29687,-1.109375 0,-0.5625 0.25,-1.03125 0.25,-0.46875 0.6875,-0.78125 0.32812,-0.25 0.89062,-0.40625 0.57813,-0.171875 1.21875,-0.171875 0.98438,0 1.71875,0.28125 0.73438,0.28125 1.07813,0.765625 0.35937,0.46875 0.5,1.28125 l -1.375,0.1875 q -0.0937,-0.640625 -0.54688,-1 -0.45312,-0.359375 -1.26562,-0.359375 -0.96875,0 -1.39063,0.328125 -0.40625,0.3125 -0.40625,0.734375 0,0.28125 0.17188,0.5 0.17187,0.21875 0.53125,0.375 0.21875,0.07813 1.25,0.359375 1.48437,0.390625 2.07812,0.65625 0.59375,0.25 0.92188,0.734375 0.34375,0.484375 0.34375,1.203125 0,0.703125 -0.42188,1.328125 -0.40625,0.609375 -1.1875,0.953129 -0.76562,0.34375 -1.73437,0.34375 -1.625,0 -2.46875,-0.671879 -0.84375,-0.671875 -1.07813,-2 z m 11.625,1.21875 0.20313,1.250004 q -0.59375,0.125 -1.0625,0.125 -0.76563,0 -1.1875,-0.234375 -0.42188,-0.25 -0.59375,-0.640629 -0.17188,-0.40625 -0.17188,-1.671875 v -4.765625 h -1.03125 v -1.09375 h 1.03125 v -2.0625 l 1.40625,-0.84375 v 2.90625 h 1.40625 v 1.09375 h -1.40625 v 4.84375 q 0,0.609375 0.0625,0.78125 0.0781,0.171875 0.25,0.28125 0.17188,0.09375 0.48438,0.09375 0.23437,0 0.60937,-0.0625 z"
       fill="#000000" />
    <path
       id="path75"
       fill-rule="evenodd"
       d="M 513.4934,40.062992 H 625.8399 V 74.834648 H 513.4934 Z"
       fill-opacity="0"
       fill="#000000" />
    <path
       id="path77"
       fill-rule="nonzero"
       d="M 523.75903,64.423 V 52.969871 h 5.07813 q 1.53125,0 2.32812,0.3125 0.79688,0.296875 1.26563,1.078125 0.48437,0.78125 0.48437,1.734375 0,1.21875 -0.79687,2.0625 -0.78125,0.828125 -2.4375,1.046875 0.60937,0.296875 0.92187,0.578125 0.65625,0.609375 1.25,1.515625 l 2,3.125004 h -1.90625 l -1.51562,-2.390629 q -0.67188,-1.03125 -1.10938,-1.578125 -0.42187,-0.546875 -0.76562,-0.765625 -0.32813,-0.21875 -0.6875,-0.296875 -0.25,-0.0625 -0.84375,-0.0625 h -1.75 V 64.423 Z m 1.51563,-6.406254 h 3.25 q 1.04687,0 1.625,-0.203125 0.59375,-0.21875 0.89062,-0.6875 0.3125,-0.484375 0.3125,-1.03125 0,-0.8125 -0.59375,-1.328125 -0.59375,-0.53125 -1.85937,-0.53125 h -3.625 z m 15.50781,3.734375 1.45312,0.171875 q -0.34375,1.28125 -1.28125,1.984375 -0.92187,0.703129 -2.35937,0.703129 -1.82813,0 -2.89063,-1.125004 -1.0625,-1.125 -1.0625,-3.140625 0,-2.09375 1.07813,-3.25 1.07812,-1.15625 2.79687,-1.15625 1.65625,0 2.70313,1.140625 1.0625,1.125 1.0625,3.171875 0,0.125 0,0.375 h -6.1875 q 0.0781,1.375 0.76562,2.109375 0.70313,0.71875 1.73438,0.71875 0.78125,0 1.32812,-0.40625 0.54688,-0.40625 0.85938,-1.296875 z m -4.60938,-2.28125 h 4.625 q -0.0937,-1.046875 -0.53125,-1.5625 -0.67187,-0.8125 -1.73437,-0.8125 -0.96875,0 -1.64063,0.65625 -0.65625,0.640625 -0.71875,1.71875 z m 7.27344,2.46875 1.39063,-0.21875 q 0.10937,0.84375 0.64062,1.296875 0.54688,0.4375 1.5,0.4375 0.96875,0 1.4375,-0.390625 0.46875,-0.40625 0.46875,-0.9375 0,-0.46875 -0.40625,-0.75 -0.29687,-0.1875 -1.4375,-0.46875 -1.54687,-0.390625 -2.15625,-0.671875 -0.59375,-0.296875 -0.90625,-0.796875 -0.29687,-0.5 -0.29687,-1.109375 0,-0.5625 0.25,-1.03125 0.25,-0.46875 0.6875,-0.78125 0.32812,-0.25 0.89062,-0.40625 0.57813,-0.171875 1.21875,-0.171875 0.98438,0 1.71875,0.28125 0.73438,0.28125 1.07813,0.765625 0.35937,0.46875 0.5,1.28125 l -1.375,0.1875 q -0.0937,-0.640625 -0.54688,-1 -0.45312,-0.359375 -1.26562,-0.359375 -0.96875,0 -1.39063,0.328125 -0.40625,0.3125 -0.40625,0.734375 0,0.28125 0.17188,0.5 0.17187,0.21875 0.53125,0.375 0.21875,0.07813 1.25,0.359375 1.48437,0.390625 2.07812,0.65625 0.59375,0.25 0.92188,0.734375 0.34375,0.484375 0.34375,1.203125 0,0.703125 -0.42188,1.328125 -0.40625,0.609375 -1.1875,0.953129 -0.76562,0.34375 -1.73437,0.34375 -1.625,0 -2.46875,-0.671879 -0.84375,-0.671875 -1.07813,-2 z m 8.5625,5.671879 V 56.126121 h 1.28125 v 1.078125 q 0.45313,-0.640625 1.01563,-0.953125 0.57812,-0.3125 1.39062,-0.3125 1.0625,0 1.875,0.546875 0.8125,0.546875 1.21875,1.546875 0.42188,0.984375 0.42188,2.171875 0,1.28125 -0.46875,2.296875 -0.45313,1.015625 -1.32813,1.562504 -0.85937,0.546875 -1.82812,0.546875 -0.70313,0 -1.26563,-0.296875 -0.54687,-0.296875 -0.90625,-0.750004 V 67.6105 Z m 1.26563,-7.296879 q 0,1.609375 0.64062,2.375 0.65625,0.765625 1.57813,0.765625 0.9375,0 1.60937,-0.796875 0.67188,-0.796875 0.67188,-2.453125 0,-1.59375 -0.65625,-2.375 -0.65625,-0.796875 -1.5625,-0.796875 -0.89063,0 -1.59375,0.84375 -0.6875,0.84375 -0.6875,2.4375 z m 7.10156,-0.04687 q 0,-2.296875 1.28125,-3.40625 1.07812,-0.921875 2.60937,-0.921875 1.71875,0 2.79688,1.125 1.09375,1.109375 1.09375,3.09375 0,1.59375 -0.48438,2.515625 -0.48437,0.921875 -1.40625,1.437504 -0.90625,0.5 -2,0.5 -1.73437,0 -2.8125,-1.109379 -1.07812,-1.125 -1.07812,-3.234375 z m 1.45312,0 q 0,1.59375 0.6875,2.390625 0.70313,0.796875 1.75,0.796875 1.04688,0 1.73438,-0.796875 0.70312,-0.796875 0.70312,-2.4375 0,-1.53125 -0.70312,-2.328125 -0.6875,-0.796875 -1.73438,-0.796875 -1.04687,0 -1.75,0.796875 -0.6875,0.78125 -0.6875,2.375 z m 7.97657,4.156254 v -8.296879 h 1.26562 v 1.171875 q 0.90625,-1.359375 2.64063,-1.359375 0.75,0 1.375,0.265625 0.625,0.265625 0.9375,0.703125 0.3125,0.4375 0.4375,1.046875 0.0781,0.390625 0.0781,1.359375 V 64.423 h -1.40625 v -5.046879 q 0,-0.859375 -0.17187,-1.28125 -0.15625,-0.4375 -0.57813,-0.6875 -0.40625,-0.25 -0.96875,-0.25 -0.90625,0 -1.5625,0.578125 -0.64062,0.5625 -0.64062,2.15625 V 64.423 Z m 8.33593,-2.484379 1.39063,-0.21875 q 0.10937,0.84375 0.64062,1.296875 0.54688,0.4375 1.5,0.4375 0.96875,0 1.4375,-0.390625 0.46875,-0.40625 0.46875,-0.9375 0,-0.46875 -0.40625,-0.75 -0.29687,-0.1875 -1.4375,-0.46875 -1.54687,-0.390625 -2.15625,-0.671875 -0.59375,-0.296875 -0.90625,-0.796875 -0.29687,-0.5 -0.29687,-1.109375 0,-0.5625 0.25,-1.03125 0.25,-0.46875 0.6875,-0.78125 0.32812,-0.25 0.89062,-0.40625 0.57813,-0.171875 1.21875,-0.171875 0.98438,0 1.71875,0.28125 0.73438,0.28125 1.07813,0.765625 0.35937,0.46875 0.5,1.28125 l -1.375,0.1875 q -0.0937,-0.640625 -0.54688,-1 -0.45312,-0.359375 -1.26562,-0.359375 -0.96875,0 -1.39063,0.328125 -0.40625,0.3125 -0.40625,0.734375 0,0.28125 0.17188,0.5 0.17187,0.21875 0.53125,0.375 0.21875,0.07813 1.25,0.359375 1.48437,0.390625 2.07812,0.65625 0.59375,0.25 0.92188,0.734375 0.34375,0.484375 0.34375,1.203125 0,0.703125 -0.42188,1.328125 -0.40625,0.609375 -1.1875,0.953129 -0.76562,0.34375 -1.73437,0.34375 -1.625,0 -2.46875,-0.671879 -0.84375,-0.671875 -1.07813,-2 z m 14.23438,-0.1875 1.45312,0.171875 q -0.34375,1.28125 -1.28125,1.984375 -0.92187,0.703129 -2.35937,0.703129 -1.82813,0 -2.89063,-1.125004 -1.0625,-1.125 -1.0625,-3.140625 0,-2.09375 1.07813,-3.25 1.07812,-1.15625 2.79687,-1.15625 1.65625,0 2.70313,1.140625 1.0625,1.125 1.0625,3.171875 0,0.125 0,0.375 h -6.1875 q 0.0781,1.375 0.76562,2.109375 0.70313,0.71875 1.73438,0.71875 0.78125,0 1.32812,-0.40625 0.54688,-0.40625 0.85938,-1.296875 z m -4.60938,-2.28125 h 4.625 q -0.0937,-1.046875 -0.53125,-1.5625 -0.67187,-0.8125 -1.73437,-0.8125 -0.96875,0 -1.64063,0.65625 -0.65625,0.640625 -0.71875,1.71875 z"
       fill="#000000" />
    <path
       id="path79"
       fill-rule="evenodd"
       d="m 558.35956,99.26247 h 194.29926 v 43.46457 H 558.35956 Z"
       fill-opacity="0"
       fill="#000000" />
    <path
       id="path81"
       fill-rule="nonzero"
       d="M 571.5158,123.62247 V 113.5131 h -3.78125 v -1.34375 h 9.07813 v 1.34375 h -3.78125 v 10.10937 z m 4.375,-4.15625 q 0,-2.29687 1.28125,-3.40625 1.07813,-0.92187 2.60938,-0.92187 1.71875,0 2.79687,1.125 1.09375,1.10937 1.09375,3.09375 0,1.59375 -0.48437,2.51562 -0.48438,0.92188 -1.40625,1.4375 -0.90625,0.5 -2,0.5 -1.73438,0 -2.8125,-1.10937 -1.07813,-1.125 -1.07813,-3.23438 z m 1.45313,0 q 0,1.59375 0.6875,2.39063 0.70312,0.79687 1.75,0.79687 1.04687,0 1.73437,-0.79687 0.70313,-0.79688 0.70313,-2.4375 0,-1.53125 -0.70313,-2.32813 -0.6875,-0.79687 -1.73437,-0.79687 -1.04688,0 -1.75,0.79687 -0.6875,0.78125 -0.6875,2.375 z m 7.97656,4.15625 v -11.45312 h 1.40625 v 6.53125 l 3.32812,-3.375 h 1.82813 l -3.17188,3.07812 3.48438,5.21875 h -1.73438 l -2.73437,-4.25 -1,0.95313 v 3.29687 z m 13.67187,-2.67187 1.45313,0.17187 q -0.34375,1.28125 -1.28125,1.98438 -0.92188,0.70312 -2.35938,0.70312 -1.82812,0 -2.89062,-1.125 -1.0625,-1.125 -1.0625,-3.14062 0,-2.09375 1.07812,-3.25 1.07813,-1.15625 2.79688,-1.15625 1.65625,0 2.70312,1.14062 1.0625,1.125 1.0625,3.17188 0,0.125 0,0.375 h -6.1875 q 0.0781,1.375 0.76563,2.10937 0.70312,0.71875 1.73437,0.71875 0.78125,0 1.32813,-0.40625 0.54687,-0.40625 0.85937,-1.29687 z m -4.60937,-2.28125 h 4.625 q -0.0937,-1.04688 -0.53125,-1.5625 -0.67188,-0.8125 -1.73438,-0.8125 -0.96875,0 -1.64062,0.65625 -0.65625,0.64062 -0.71875,1.71875 z m 7.83594,4.95312 v -8.29687 h 1.26562 v 1.17187 q 0.90625,-1.35937 2.64063,-1.35937 0.75,0 1.375,0.26562 0.625,0.26563 0.9375,0.70313 0.3125,0.4375 0.4375,1.04687 0.0781,0.39063 0.0781,1.35938 v 5.10937 h -1.40625 v -5.04687 q 0,-0.85938 -0.17187,-1.28125 -0.15625,-0.4375 -0.57813,-0.6875 -0.40625,-0.25 -0.96875,-0.25 -0.90625,0 -1.5625,0.57812 -0.64062,0.5625 -0.64062,2.15625 v 4.53125 z m 16.79687,0 -4.4375,-11.45312 h 1.64063 l 2.96875,8.3125 q 0.35937,1 0.60937,1.875 0.26563,-0.9375 0.60938,-1.875 l 3.09375,-8.3125 h 1.54687 l -4.48437,11.45312 z m 12.00781,-2.67187 1.45313,0.17187 q -0.34375,1.28125 -1.28125,1.98438 -0.92188,0.70312 -2.35938,0.70312 -1.82812,0 -2.89062,-1.125 -1.0625,-1.125 -1.0625,-3.14062 0,-2.09375 1.07812,-3.25 1.07813,-1.15625 2.79688,-1.15625 1.65625,0 2.70312,1.14062 1.0625,1.125 1.0625,3.17188 0,0.125 0,0.375 h -6.1875 q 0.0781,1.375 0.76563,2.10937 0.70312,0.71875 1.73437,0.71875 0.78125,0 1.32813,-0.40625 0.54687,-0.40625 0.85937,-1.29687 z m -4.60937,-2.28125 h 4.625 q -0.0937,-1.04688 -0.53125,-1.5625 -0.67188,-0.8125 -1.73438,-0.8125 -0.96875,0 -1.64062,0.65625 -0.65625,0.64062 -0.71875,1.71875 z m 7.82031,4.95312 v -8.29687 h 1.26563 v 1.25 q 0.48437,-0.875 0.89062,-1.15625 0.40625,-0.28125 0.90625,-0.28125 0.70313,0 1.4375,0.45312 l -0.48437,1.29688 q -0.51563,-0.29688 -1.03125,-0.29688 -0.45313,0 -0.82813,0.28125 -0.35937,0.26563 -0.51562,0.76563 -0.23438,0.75 -0.23438,1.64062 v 4.34375 z m 5.34375,-9.84375 v -1.60937 h 1.40625 v 1.60937 z m 0,9.84375 v -8.29687 h 1.40625 v 8.29687 z m 3.88281,0 v -7.20312 h -1.23437 v -1.09375 h 1.23437 v -0.89063 q 0,-0.82812 0.15625,-1.23437 0.20313,-0.54688 0.70313,-0.89063 0.51562,-0.34375 1.4375,-0.34375 0.59375,0 1.3125,0.14063 l -0.20313,1.23437 q -0.4375,-0.0781 -0.82812,-0.0781 -0.64063,0 -0.90625,0.28125 -0.26563,0.26562 -0.26563,1.01562 v 0.76563 h 1.60938 v 1.09375 h -1.60938 v 7.20312 z m 4.11719,-9.84375 v -1.60937 h 1.40625 v 1.60937 z m 0,9.84375 v -8.29687 h 1.40625 v 8.29687 z m 8.96094,-3.04687 1.39062,0.1875 q -0.23437,1.42187 -1.17187,2.23437 -0.92188,0.8125 -2.28125,0.8125 -1.70313,0 -2.75,-1.10937 -1.03125,-1.125 -1.03125,-3.20313 0,-1.34375 0.4375,-2.34375 0.45312,-1.01562 1.35937,-1.51562 0.92188,-0.5 1.98438,-0.5 1.35937,0 2.21875,0.6875 0.85937,0.67187 1.09375,1.9375 l -1.35938,0.20312 q -0.20312,-0.82812 -0.70312,-1.25 -0.48438,-0.42187 -1.1875,-0.42187 -1.0625,0 -1.73438,0.76562 -0.65625,0.75 -0.65625,2.40625 0,1.67188 0.64063,2.4375 0.64062,0.75 1.67187,0.75 0.82813,0 1.375,-0.5 0.5625,-0.51562 0.70313,-1.57812 z m 8,2.01562 q -0.78125,0.67188 -1.5,0.95313 -0.71875,0.26562 -1.54688,0.26562 -1.375,0 -2.10937,-0.67187 -0.73438,-0.67188 -0.73438,-1.70313 0,-0.60937 0.28125,-1.10937 0.28125,-0.51563 0.71875,-0.8125 0.45313,-0.3125 1.01563,-0.46875 0.42187,-0.10938 1.25,-0.20313 1.70312,-0.20312 2.51562,-0.48437 0,-0.29688 0,-0.375 0,-0.85938 -0.39062,-1.20313 -0.54688,-0.48437 -1.60938,-0.48437 -0.98437,0 -1.46875,0.35937 -0.46875,0.34375 -0.6875,1.21875 l -1.375,-0.1875 q 0.1875,-0.875 0.60938,-1.42187 0.4375,-0.54688 1.25,-0.82813 0.8125,-0.29687 1.875,-0.29687 1.0625,0 1.71875,0.25 0.67187,0.25 0.98437,0.625 0.3125,0.375 0.4375,0.95312 0.0781,0.35938 0.0781,1.29688 v 1.875 q 0,1.96875 0.0781,2.48437 0.0937,0.51563 0.35938,1 h -1.46875 q -0.21875,-0.4375 -0.28125,-1.03125 z m -0.10938,-3.14062 q -0.76562,0.3125 -2.29687,0.53125 -0.875,0.125 -1.23438,0.28125 -0.35937,0.15625 -0.5625,0.46875 -0.1875,0.29687 -0.1875,0.65625 0,0.5625 0.42188,0.9375 0.4375,0.375 1.25,0.375 0.8125,0 1.4375,-0.34375 0.64062,-0.35938 0.9375,-0.98438 0.23437,-0.46875 0.23437,-1.40625 z m 6.66407,2.90625 0.20312,1.25 q -0.59375,0.125 -1.0625,0.125 -0.76562,0 -1.1875,-0.23438 -0.42187,-0.25 -0.59375,-0.64062 -0.17187,-0.40625 -0.17187,-1.67188 v -4.76562 h -1.03125 v -1.09375 h 1.03125 v -2.0625 l 1.40625,-0.84375 v 2.90625 h 1.40625 v 1.09375 h -1.40625 v 4.84375 q 0,0.60937 0.0625,0.78125 0.0781,0.17187 0.25,0.28125 0.17187,0.0937 0.48437,0.0937 0.23438,0 0.60938,-0.0625 z m 1.38281,-8.57813 v -1.60937 h 1.40625 v 1.60937 z m 0,9.84375 v -8.29687 h 1.40625 v 8.29687 z m 3.02344,-4.15625 q 0,-2.29687 1.28125,-3.40625 1.07812,-0.92187 2.60937,-0.92187 1.71875,0 2.79688,1.125 1.09375,1.10937 1.09375,3.09375 0,1.59375 -0.48438,2.51562 -0.48437,0.92188 -1.40625,1.4375 -0.90625,0.5 -2,0.5 -1.73437,0 -2.8125,-1.10937 -1.07812,-1.125 -1.07812,-3.23438 z m 1.45312,0 q 0,1.59375 0.6875,2.39063 0.70313,0.79687 1.75,0.79687 1.04688,0 1.73438,-0.79687 0.70312,-0.79688 0.70312,-2.4375 0,-1.53125 -0.70312,-2.32813 -0.6875,-0.79687 -1.73438,-0.79687 -1.04687,0 -1.75,0.79687 -0.6875,0.78125 -0.6875,2.375 z m 7.97656,4.15625 v -8.29687 h 1.26563 v 1.17187 q 0.90625,-1.35937 2.64062,-1.35937 0.75,0 1.375,0.26562 0.625,0.26563 0.9375,0.70313 0.3125,0.4375 0.4375,1.04687 0.0781,0.39063 0.0781,1.35938 v 5.10937 h -1.40625 v -5.04687 q 0,-0.85938 -0.17188,-1.28125 -0.15625,-0.4375 -0.57812,-0.6875 -0.40625,-0.25 -0.96875,-0.25 -0.90625,0 -1.5625,0.57812 -0.64063,0.5625 -0.64063,2.15625 v 4.53125 z"
       fill="#000000" />
  </g>
</svg>
