<?xml version="1.0" encoding="UTF-8" standalone="no"?>
<svg
   xmlns:dc="http://purl.org/dc/elements/1.1/"
   xmlns:cc="http://creativecommons.org/ns#"
   xmlns:rdf="http://www.w3.org/1999/02/22-rdf-syntax-ns#"
   xmlns:svg="http://www.w3.org/2000/svg"
   xmlns="http://www.w3.org/2000/svg"
   xmlns:sodipodi="http://sodipodi.sourceforge.net/DTD/sodipodi-0.dtd"
   xmlns:inkscape="http://www.inkscape.org/namespaces/inkscape"
   inkscape:version="1.0 (4035a4fb49, 2020-05-01)"
   height="101"
   width="600"
   sodipodi:docname="authorization-workflow.svg"
   id="svg43"
   stroke-miterlimit="10"
   stroke-linecap="square"
   stroke="none"
   fill="none"
   viewBox="0 0 600 101"
   version="1.1">
  <metadata
     id="metadata49">
    <rdf:RDF>
      <cc:Work
         rdf:about="">
        <dc:format>image/svg+xml</dc:format>
        <dc:type
           rdf:resource="http://purl.org/dc/dcmitype/StillImage" />
        <dc:title></dc:title>
      </cc:Work>
    </rdf:RDF>
  </metadata>
  <defs
     id="defs47">
    <clipPath
       id="clipPath98"
       clipPathUnits="userSpaceOnUse">
      <rect
         y="209.48079"
         x="184.29527"
         height="101.61433"
         width="599.28552"
         id="rect100"
         style="fill:#a07cbc;stroke:#a07cbc" />
    </clipPath>
  </defs>
  <sodipodi:namedview
     inkscape:current-layer="svg43"
     inkscape:window-maximized="1"
     inkscape:window-y="25"
     inkscape:window-x="0"
     inkscape:cy="238.23488"
     inkscape:cx="514.27758"
     inkscape:zoom="1.0976562"
     showgrid="false"
     id="namedview45"
     inkscape:window-height="1025"
     inkscape:window-width="1920"
     inkscape:pageshadow="2"
     inkscape:pageopacity="0"
     guidetolerance="10"
     gridtolerance="10"
     objecttolerance="10"
     borderopacity="1"
     bordercolor="#666666"
     pagecolor="#ffffff" />
  <clipPath
     id="p.0">
    <path
       id="path2"
       clip-rule="nonzero"
       d="M 0,0 H 1024 V 768 H 0 Z" />
  </clipPath>
  <g
     transform="translate(-183.44712,-208.30158)"
     id="g41"
     clip-path="url(#clipPath98)">
    <path
       id="path5"
       fill-rule="evenodd"
       d="M 0,0 H 1024 V 768 H 0 Z"
       fill-opacity="0"
       fill="#000000" />
    <path
       id="path7"
       fill-rule="evenodd"
       d="m 195.37534,217.82152 h 168.7244 v 56.25197 h -168.7244 z"
       fill="#cfe2f3" />
    <path
       id="path9"
       fill-rule="evenodd"
       d="m 195.37534,217.82152 h 168.7244 v 56.25197 h -168.7244 z"
       stroke-linecap="butt"
       stroke-linejoin="round"
       stroke-width="1"
       stroke="#000000" />
    <path
       id="path11"
       fill-rule="nonzero"
       d="m 256.5813,248.57063 1.65625,-0.14063 q 0.125,1 0.54687,1.64063 0.4375,0.64062 1.34375,1.04687 0.92188,0.39063 2.0625,0.39063 1,0 1.78125,-0.29688 0.78125,-0.29687 1.15625,-0.8125 0.375,-0.53125 0.375,-1.15625 0,-0.625 -0.375,-1.09375 -0.35937,-0.46875 -1.1875,-0.79687 -0.54687,-0.20313 -2.39062,-0.64063 -1.82813,-0.45312 -2.5625,-0.84375 -0.96875,-0.5 -1.4375,-1.23437 -0.46875,-0.75 -0.46875,-1.67188 0,-1 0.57812,-1.875 0.57813,-0.89062 1.67188,-1.34375 1.10937,-0.45312 2.45312,-0.45312 1.48438,0 2.60938,0.48437 1.14062,0.46875 1.75,1.40625 0.60937,0.92188 0.65625,2.09375 l -1.6875,0.125 q -0.14063,-1.26562 -0.9375,-1.90625 -0.78125,-0.65625 -2.3125,-0.65625 -1.60938,0 -2.34375,0.59375 -0.73438,0.59375 -0.73438,1.42188 0,0.71875 0.53125,1.17187 0.5,0.46875 2.65625,0.96875 2.15625,0.48438 2.95313,0.84375 1.17187,0.53125 1.71875,1.35938 0.5625,0.82812 0.5625,1.90625 0,1.0625 -0.60938,2.01562 -0.60937,0.9375 -1.75,1.46875 -1.14062,0.51563 -2.57812,0.51563 -1.8125,0 -3.04688,-0.53125 -1.21875,-0.53125 -1.92187,-1.59375 -0.6875,-1.0625 -0.71875,-2.40625 z m 12.44357,0 1.65625,-0.14063 q 0.125,1 0.54688,1.64063 0.4375,0.64062 1.34375,1.04687 0.92187,0.39063 2.0625,0.39063 1,0 1.78125,-0.29688 0.78125,-0.29687 1.15625,-0.8125 0.375,-0.53125 0.375,-1.15625 0,-0.625 -0.375,-1.09375 -0.35938,-0.46875 -1.1875,-0.79687 -0.54688,-0.20313 -2.39063,-0.64063 -1.82812,-0.45312 -2.5625,-0.84375 -0.96875,-0.5 -1.4375,-1.23437 -0.46875,-0.75 -0.46875,-1.67188 0,-1 0.57813,-1.875 0.57812,-0.89062 1.67187,-1.34375 1.10938,-0.45312 2.45313,-0.45312 1.48437,0 2.60937,0.48437 1.14063,0.46875 1.75,1.40625 0.60938,0.92188 0.65625,2.09375 l -1.6875,0.125 q -0.14062,-1.26562 -0.9375,-1.90625 -0.78125,-0.65625 -2.3125,-0.65625 -1.60937,0 -2.34375,0.59375 -0.73437,0.59375 -0.73437,1.42188 0,0.71875 0.53125,1.17187 0.5,0.46875 2.65625,0.96875 2.15625,0.48438 2.95312,0.84375 1.17188,0.53125 1.71875,1.35938 0.5625,0.82812 0.5625,1.90625 0,1.0625 -0.60937,2.01562 -0.60938,0.9375 -1.75,1.46875 -1.14063,0.51563 -2.57813,0.51563 -1.8125,0 -3.04687,-0.53125 -1.21875,-0.53125 -1.92188,-1.59375 -0.6875,-1.0625 -0.71875,-2.40625 z m 13.3342,4.29687 v -13.35937 h 1.76563 v 13.35937 z"
       fill="#000000" />
    <path
       id="path13"
       fill-rule="evenodd"
       d="m 608.1627,217.82152 h 168.72443 v 56.25197 H 608.1627 Z"
       fill="#cfe2f3" />
    <path
       id="path15"
       fill-rule="evenodd"
       d="m 608.1627,217.82152 h 168.72443 v 56.25197 H 608.1627 Z"
       stroke-linecap="butt"
       stroke-linejoin="round"
       stroke-width="1"
       stroke="#000000" />
    <path
       id="path17"
       fill-rule="nonzero"
       d="m 673.6694,248.57063 1.65625,-0.14063 q 0.125,1 0.54687,1.64063 0.4375,0.64062 1.34375,1.04687 0.92188,0.39063 2.0625,0.39063 1,0 1.78125,-0.29688 0.78125,-0.29687 1.15625,-0.8125 0.375,-0.53125 0.375,-1.15625 0,-0.625 -0.375,-1.09375 -0.35937,-0.46875 -1.1875,-0.79687 -0.54687,-0.20313 -2.39062,-0.64063 -1.82813,-0.45312 -2.5625,-0.84375 -0.96875,-0.5 -1.4375,-1.23437 -0.46875,-0.75 -0.46875,-1.67188 0,-1 0.57812,-1.875 0.57813,-0.89062 1.67188,-1.34375 1.10937,-0.45312 2.45312,-0.45312 1.48438,0 2.60938,0.48437 1.14062,0.46875 1.75,1.40625 0.60937,0.92188 0.65625,2.09375 l -1.6875,0.125 q -0.14063,-1.26562 -0.9375,-1.90625 -0.78125,-0.65625 -2.3125,-0.65625 -1.60938,0 -2.34375,0.59375 -0.73438,0.59375 -0.73438,1.42188 0,0.71875 0.53125,1.17187 0.5,0.46875 2.65625,0.96875 2.15625,0.48438 2.95313,0.84375 1.17187,0.53125 1.71875,1.35938 0.5625,0.82812 0.5625,1.90625 0,1.0625 -0.60938,2.01562 -0.60937,0.9375 -1.75,1.46875 -1.14062,0.51563 -2.57812,0.51563 -1.8125,0 -3.04688,-0.53125 -1.21875,-0.53125 -1.92187,-1.59375 -0.6875,-1.0625 -0.71875,-2.40625 z m 12.4436,0 1.65625,-0.14063 q 0.125,1 0.54688,1.64063 0.4375,0.64062 1.34375,1.04687 0.92187,0.39063 2.0625,0.39063 1,0 1.78125,-0.29688 0.78125,-0.29687 1.15625,-0.8125 0.375,-0.53125 0.375,-1.15625 0,-0.625 -0.375,-1.09375 -0.35938,-0.46875 -1.1875,-0.79687 -0.54688,-0.20313 -2.39063,-0.64063 -1.82812,-0.45312 -2.5625,-0.84375 -0.96875,-0.5 -1.4375,-1.23437 -0.46875,-0.75 -0.46875,-1.67188 0,-1 0.57813,-1.875 0.57812,-0.89062 1.67187,-1.34375 1.10938,-0.45312 2.45313,-0.45312 1.48437,0 2.60937,0.48437 1.14063,0.46875 1.75,1.40625 0.60938,0.92188 0.65625,2.09375 l -1.6875,0.125 q -0.14062,-1.26562 -0.9375,-1.90625 -0.78125,-0.65625 -2.3125,-0.65625 -1.60937,0 -2.34375,0.59375 -0.73437,0.59375 -0.73437,1.42188 0,0.71875 0.53125,1.17187 0.5,0.46875 2.65625,0.96875 2.15625,0.48438 2.95312,0.84375 1.17188,0.53125 1.71875,1.35938 0.5625,0.82812 0.5625,1.90625 0,1.0625 -0.60937,2.01562 -0.60938,0.9375 -1.75,1.46875 -1.14063,0.51563 -2.57813,0.51563 -1.8125,0 -3.04687,-0.53125 -1.21875,-0.53125 -1.92188,-1.59375 -0.6875,-1.0625 -0.71875,-2.40625 z m 12.50605,-2.20313 q 0,-3.32812 1.78125,-5.20312 1.78125,-1.89063 4.60937,-1.89063 1.84375,0 3.32813,0.89063 1.48437,0.875 2.26562,2.46875 0.78125,1.57812 0.78125,3.57812 0,2.03125 -0.82812,3.64063 -0.8125,1.59375 -2.3125,2.42187 -1.5,0.82813 -3.25,0.82813 -1.875,0 -3.35938,-0.90625 -1.48437,-0.92188 -2.25,-2.5 -0.76562,-1.57813 -0.76562,-3.32813 z m 1.8125,0.0156 q 0,2.42187 1.29687,3.8125 1.29688,1.39062 3.26563,1.39062 2,0 3.28125,-1.40625 1.28125,-1.40625 1.28125,-3.98437 0,-1.625 -0.54688,-2.84375 -0.54687,-1.21875 -1.60937,-1.875 -1.0625,-0.67188 -2.375,-0.67188 -1.89063,0 -3.25,1.29688 -1.34375,1.28125 -1.34375,4.28125 z"
       fill="#000000" />
    <path
       id="path19"
       fill-rule="evenodd"
       d="m 365.0761,231.49081 243.08661,-1.5433"
       fill-opacity="0"
       fill="#000000" />
    <path
       id="path21"
       fill-rule="evenodd"
       d="m 365.0761,231.49081 237.08673,-1.5052"
       stroke-linecap="butt"
       stroke-linejoin="round"
       stroke-width="1"
       stroke="#000000" />
    <path
       id="path23"
       fill-rule="evenodd"
       d="m 602.17334,231.6373 4.52753,-1.68051 -4.54853,-1.6229 z"
       stroke-linecap="butt"
       stroke-width="1"
       stroke="#000000"
       fill="#000000" />
    <path
       id="path25"
       fill-rule="evenodd"
       d="m 399.8504,201.82152 h 150.33069 v 20.44095 H 399.8504 Z"
       fill-opacity="0"
       fill="#000000" />
    <path
       id="path27"
       fill-rule="nonzero"
       d="m 424.59387,226.18152 v -11.45313 h 1.51562 v 10.09375 h 5.64063 v 1.35938 z m 8.25781,-4.15625 q 0,-2.29688 1.28125,-3.40625 1.07813,-0.92188 2.60938,-0.92188 1.71875,0 2.79687,1.125 1.09375,1.10938 1.09375,3.09375 0,1.59375 -0.48437,2.51563 -0.48438,0.92187 -1.40625,1.4375 -0.90625,0.5 -2,0.5 -1.73438,0 -2.8125,-1.10938 -1.07813,-1.125 -1.07813,-3.23437 z m 1.45313,0 q 0,1.59375 0.6875,2.39062 0.70312,0.79688 1.75,0.79688 1.04687,0 1.73437,-0.79688 0.70313,-0.79687 0.70313,-2.4375 0,-1.53125 -0.70313,-2.32812 -0.6875,-0.79688 -1.73437,-0.79688 -1.04688,0 -1.75,0.79688 -0.6875,0.78125 -0.6875,2.375 z m 7.71093,4.84375 1.375,0.20312 q 0.0781,0.64063 0.46875,0.92188 0.53125,0.39062 1.4375,0.39062 0.96875,0 1.5,-0.39062 0.53125,-0.39063 0.71875,-1.09375 0.10938,-0.42188 0.10938,-1.8125 -0.92188,1.09375 -2.29688,1.09375 -1.71875,0 -2.65625,-1.23438 -0.9375,-1.23437 -0.9375,-2.96875 0,-1.1875 0.42188,-2.1875 0.4375,-1 1.25,-1.54687 0.82812,-0.54688 1.92187,-0.54688 1.46875,0 2.42188,1.1875 v -1 h 1.29687 v 7.17188 q 0,1.9375 -0.39062,2.75 -0.39063,0.8125 -1.25,1.28125 -0.85938,0.46875 -2.10938,0.46875 -1.48437,0 -2.40625,-0.67188 -0.90625,-0.67187 -0.875,-2.01562 z m 1.17188,-4.98438 q 0,1.625 0.64062,2.375 0.65625,0.75 1.625,0.75 0.96875,0 1.625,-0.73437 0.65625,-0.75 0.65625,-2.34375 0,-1.53125 -0.67187,-2.29688 -0.67188,-0.78125 -1.625,-0.78125 -0.9375,0 -1.59375,0.76563 -0.65625,0.76562 -0.65625,2.26562 z m 7.99219,-5.54687 v -1.60938 h 1.40625 v 1.60938 z m 0,9.84375 v -8.29688 h 1.40625 v 8.29688 z m 3.55468,0 v -8.29688 h 1.26563 v 1.17188 q 0.90625,-1.35938 2.64062,-1.35938 0.75,0 1.375,0.26563 0.625,0.26562 0.9375,0.70312 0.3125,0.4375 0.4375,1.04688 0.0781,0.39062 0.0781,1.35937 v 5.10938 h -1.40625 v -5.04688 q 0,-0.85937 -0.17188,-1.28125 -0.15625,-0.4375 -0.57812,-0.6875 -0.40625,-0.25 -0.96875,-0.25 -0.90625,0 -1.5625,0.57813 -0.64063,0.5625 -0.64063,2.15625 v 4.53125 z m 13.54688,0 v -11.45313 h 5.07812 q 1.53125,0 2.32813,0.3125 0.79687,0.29688 1.26562,1.07813 0.48438,0.78125 0.48438,1.73437 0,1.21875 -0.79688,2.0625 -0.78125,0.82813 -2.4375,1.04688 0.60938,0.29687 0.92188,0.57812 0.65625,0.60938 1.25,1.51563 l 2,3.125 h -1.90625 l -1.51563,-2.39063 q -0.67187,-1.03125 -1.10937,-1.57812 -0.42188,-0.54688 -0.76563,-0.76563 -0.32812,-0.21875 -0.6875,-0.29687 -0.25,-0.0625 -0.84375,-0.0625 h -1.75 v 5.09375 z m 1.51562,-6.40625 h 3.25 q 1.04688,0 1.625,-0.20313 0.59375,-0.21875 0.89063,-0.6875 0.3125,-0.48437 0.3125,-1.03125 0,-0.8125 -0.59375,-1.32812 -0.59375,-0.53125 -1.85938,-0.53125 h -3.625 z m 15.50782,3.73437 1.45312,0.17188 q -0.34375,1.28125 -1.28125,1.98437 -0.92187,0.70313 -2.35937,0.70313 -1.82813,0 -2.89063,-1.125 -1.0625,-1.125 -1.0625,-3.14063 0,-2.09375 1.07813,-3.25 1.07812,-1.15625 2.79687,-1.15625 1.65625,0 2.70313,1.14063 1.0625,1.125 1.0625,3.17187 0,0.125 0,0.375 h -6.1875 q 0.0781,1.375 0.76562,2.10938 0.70313,0.71875 1.73438,0.71875 0.78125,0 1.32812,-0.40625 0.54688,-0.40625 0.85938,-1.29688 z m -4.60938,-2.28125 h 4.625 q -0.0937,-1.04687 -0.53125,-1.5625 -0.67187,-0.8125 -1.73437,-0.8125 -0.96875,0 -1.64063,0.65625 -0.65625,0.64063 -0.71875,1.71875 z m 13.11719,8.14063 v -4.07813 q -0.32813,0.46875 -0.92188,0.78125 -0.57812,0.29688 -1.25,0.29688 -1.46875,0 -2.54687,-1.17188 -1.0625,-1.1875 -1.0625,-3.25 0,-1.25 0.4375,-2.23437 0.4375,-1 1.25,-1.5 0.82812,-0.51563 1.8125,-0.51563 1.54687,0 2.42187,1.29688 v -1.10938 h 1.26563 v 11.48438 z m -4.32813,-7.35938 q 0,1.59375 0.67188,2.40625 0.67187,0.79688 1.60937,0.79688 0.89063,0 1.53125,-0.76563 0.65625,-0.76562 0.65625,-2.3125 0,-1.65625 -0.6875,-2.48437 -0.67187,-0.84375 -1.59375,-0.84375 -0.92187,0 -1.5625,0.78125 -0.625,0.76562 -0.625,2.42187 z m 13.38282,4.17188 v -1.21875 q -0.96875,1.40625 -2.64063,1.40625 -0.73437,0 -1.375,-0.28125 -0.625,-0.28125 -0.9375,-0.70313 -0.3125,-0.4375 -0.4375,-1.04687 -0.0781,-0.42188 -0.0781,-1.3125 v -5.14063 h 1.40625 v 4.59375 q 0,1.10938 0.0781,1.48438 0.14063,0.5625 0.5625,0.875 0.4375,0.3125 1.0625,0.3125 0.64063,0 1.1875,-0.3125 0.5625,-0.32813 0.78125,-0.89063 0.23438,-0.5625 0.23438,-1.625 v -4.4375 h 1.40625 v 8.29688 z m 9.13281,-2.67188 1.45312,0.17188 q -0.34375,1.28125 -1.28125,1.98437 -0.92187,0.70313 -2.35937,0.70313 -1.82813,0 -2.89063,-1.125 -1.0625,-1.125 -1.0625,-3.14063 0,-2.09375 1.07813,-3.25 1.07812,-1.15625 2.79687,-1.15625 1.65625,0 2.70313,1.14063 1.0625,1.125 1.0625,3.17187 0,0.125 0,0.375 h -6.1875 q 0.0781,1.375 0.76562,2.10938 0.70313,0.71875 1.73438,0.71875 0.78125,0 1.32812,-0.40625 0.54688,-0.40625 0.85938,-1.29688 z m -4.60938,-2.28125 h 4.625 q -0.0938,-1.04687 -0.53125,-1.5625 -0.67187,-0.8125 -1.73437,-0.8125 -0.96875,0 -1.64063,0.65625 -0.65625,0.64063 -0.71875,1.71875 z m 7.27344,2.46875 1.39063,-0.21875 q 0.10937,0.84375 0.64062,1.29688 0.54688,0.4375 1.5,0.4375 0.96875,0 1.4375,-0.39063 0.46875,-0.40625 0.46875,-0.9375 0,-0.46875 -0.40625,-0.75 -0.29687,-0.1875 -1.4375,-0.46875 -1.54687,-0.39062 -2.15625,-0.67187 -0.59375,-0.29688 -0.90625,-0.79688 -0.29687,-0.5 -0.29687,-1.10937 0,-0.5625 0.25,-1.03125 0.25,-0.46875 0.6875,-0.78125 0.32812,-0.25 0.89062,-0.40625 0.57813,-0.17188 1.21875,-0.17188 0.98438,0 1.71875,0.28125 0.73438,0.28125 1.07813,0.76563 0.35937,0.46875 0.5,1.28125 l -1.375,0.1875 q -0.0937,-0.64063 -0.54688,-1 -0.45312,-0.35938 -1.26562,-0.35938 -0.96875,0 -1.39063,0.32813 -0.40625,0.3125 -0.40625,0.73437 0,0.28125 0.17188,0.5 0.17187,0.21875 0.53125,0.375 0.21875,0.0781 1.25,0.35938 1.48437,0.39062 2.07812,0.65625 0.59375,0.25 0.92188,0.73437 0.34375,0.48438 0.34375,1.20313 0,0.70312 -0.42188,1.32812 -0.40625,0.60938 -1.1875,0.95313 -0.76562,0.34375 -1.73437,0.34375 -1.625,0 -2.46875,-0.67188 -0.84375,-0.67187 -1.07813,-2 z m 11.625,1.21875 0.20313,1.25 q -0.59375,0.125 -1.0625,0.125 -0.76563,0 -1.1875,-0.23437 -0.42188,-0.25 -0.59375,-0.64063 -0.17188,-0.40625 -0.17188,-1.67187 v -4.76563 h -1.03125 v -1.09375 h 1.03125 v -2.0625 l 1.40625,-0.84375 v 2.90625 h 1.40625 v 1.09375 h -1.40625 v 4.84375 q 0,0.60938 0.0625,0.78125 0.0781,0.17188 0.25,0.28125 0.17188,0.0937 0.48438,0.0937 0.23437,0 0.60937,-0.0625 z"
       fill="#000000" />
    <path
       id="path29"
       fill-rule="evenodd"
       d="M 608.1627,261.9475 H 364.09971"
       fill-opacity="0"
       fill="#000000" />
    <path
       id="path31"
       fill-rule="evenodd"
       d="M 608.1627,261.9475 H 370.09971"
       stroke-linecap="butt"
       stroke-linejoin="round"
       stroke-width="1"
       stroke="#000000" />
    <path
       id="path33"
       fill-rule="evenodd"
       d="m 370.09973,260.29578 -4.53809,1.65173 4.53809,1.65174 z"
       stroke-linecap="butt"
       stroke-width="1"
       stroke="#000000"
       fill="#000000" />
    <path
       id="path35"
       fill-rule="evenodd"
       d="m 399.8504,261.9475 h 173.19684 v 20.44095 H 399.8504 Z"
       fill-opacity="0"
       fill="#000000" />
    <path
       id="path37"
       fill-rule="nonzero"
       d="m 425.48398,283.0575 1.35937,-0.1875 q 0.0625,1.3125 0.5,1.79687 0.4375,0.48438 1.20313,0.48438 0.57812,0 0.98437,-0.26563 0.42188,-0.26562 0.57813,-0.70312 0.15625,-0.45313 0.15625,-1.4375 v -7.89063 h 1.51562 v 7.79688 q 0,1.4375 -0.35937,2.23437 -0.34375,0.78125 -1.09375,1.20313 -0.75,0.42187 -1.76563,0.42187 -1.51562,0 -2.3125,-0.875 -0.79687,-0.875 -0.76562,-2.57812 z m 10.125,3.25 -2.54688,-8.29688 h 1.45313 l 1.32812,4.78125 0.48438,1.78125 q 0.0312,-0.125 0.4375,-1.70312 l 1.3125,-4.85938 h 1.45312 l 1.23438,4.8125 0.42187,1.57813 0.46875,-1.59375 1.42188,-4.79688 h 1.375 l -2.59375,8.29688 h -1.46875 l -1.3125,-4.96875 -0.32813,-1.42188 -1.67187,6.39063 z m 13.08594,-1.26563 0.20312,1.25 q -0.59375,0.125 -1.0625,0.125 -0.76562,0 -1.1875,-0.23437 -0.42187,-0.25 -0.59375,-0.64063 -0.17187,-0.40625 -0.17187,-1.67187 v -4.76563 h -1.03125 v -1.09375 h 1.03125 v -2.0625 l 1.40625,-0.84375 v 2.90625 h 1.40625 v 1.09375 h -1.40625 v 4.84375 q 0,0.60938 0.0625,0.78125 0.0781,0.17188 0.25,0.28125 0.17187,0.0937 0.48437,0.0937 0.23438,0 0.60938,-0.0625 z m 8.63281,1.26563 v -10.10938 h -3.78125 v -1.34375 h 9.07812 v 1.34375 h -3.78125 v 10.10938 z m 4.375,-4.15625 q 0,-2.29688 1.28125,-3.40625 1.07812,-0.92188 2.60937,-0.92188 1.71875,0 2.79688,1.125 1.09375,1.10938 1.09375,3.09375 0,1.59375 -0.48438,2.51563 -0.48437,0.92187 -1.40625,1.4375 -0.90625,0.5 -2,0.5 -1.73437,0 -2.8125,-1.10938 -1.07812,-1.125 -1.07812,-3.23437 z m 1.45312,0 q 0,1.59375 0.6875,2.39062 0.70313,0.79688 1.75,0.79688 1.04688,0 1.73438,-0.79688 0.70312,-0.79687 0.70312,-2.4375 0,-1.53125 -0.70312,-2.32812 -0.6875,-0.79688 -1.73438,-0.79688 -1.04687,0 -1.75,0.79688 -0.6875,0.78125 -0.6875,2.375 z m 7.97657,4.15625 v -11.45313 h 1.40625 v 6.53125 l 3.32812,-3.375 h 1.82813 l -3.17188,3.07813 3.48438,5.21875 h -1.73438 l -2.73437,-4.25 -1,0.95312 v 3.29688 z m 13.67187,-2.67188 1.45313,0.17188 q -0.34375,1.28125 -1.28125,1.98437 -0.92188,0.70313 -2.35938,0.70313 -1.82812,0 -2.89062,-1.125 -1.0625,-1.125 -1.0625,-3.14063 0,-2.09375 1.07812,-3.25 1.07813,-1.15625 2.79688,-1.15625 1.65625,0 2.70312,1.14063 1.0625,1.125 1.0625,3.17187 0,0.125 0,0.375 h -6.1875 q 0.0781,1.375 0.76563,2.10938 0.70312,0.71875 1.73437,0.71875 0.78125,0 1.32813,-0.40625 0.54687,-0.40625 0.85937,-1.29688 z m -4.60937,-2.28125 h 4.625 q -0.0937,-1.04687 -0.53125,-1.5625 -0.67188,-0.8125 -1.73438,-0.8125 -0.96875,0 -1.64062,0.65625 -0.65625,0.64063 -0.71875,1.71875 z m 7.83593,4.95313 v -8.29688 h 1.26563 v 1.17188 q 0.90625,-1.35938 2.64062,-1.35938 0.75,0 1.375,0.26563 0.625,0.26562 0.9375,0.70312 0.3125,0.4375 0.4375,1.04688 0.0781,0.39062 0.0781,1.35937 v 5.10938 h -1.40625 v -5.04688 q 0,-0.85937 -0.17188,-1.28125 -0.15625,-0.4375 -0.57812,-0.6875 -0.40625,-0.25 -0.96875,-0.25 -0.90625,0 -1.5625,0.57813 -0.64063,0.5625 -0.64063,2.15625 v 4.53125 z m 16.29688,-1.85938 v -3.14062 h -3.125 v -1.3125 h 3.125 v -3.10938 h 1.32812 v 3.10938 h 3.10938 v 1.3125 h -3.10938 v 3.14062 z m 18.52341,-9.59375 h 1.51562 v 6.60938 q 0,1.73437 -0.39062,2.75 -0.39063,1.01562 -1.40625,1.65625 -1.01563,0.64062 -2.67188,0.64062 -1.60937,0 -2.64062,-0.5625 -1.01563,-0.5625 -1.45313,-1.60937 -0.4375,-1.04688 -0.4375,-2.875 v -6.60938 h 1.51563 v 6.60938 q 0,1.48437 0.26562,2.20312 0.28125,0.70313 0.95313,1.09375 0.6875,0.375 1.65625,0.375 1.67187,0 2.375,-0.75 0.71875,-0.76562 0.71875,-2.92187 z m 3.30468,8.96875 1.39063,-0.21875 q 0.10937,0.84375 0.64062,1.29688 0.54688,0.4375 1.5,0.4375 0.96875,0 1.4375,-0.39063 0.46875,-0.40625 0.46875,-0.9375 0,-0.46875 -0.40625,-0.75 -0.29687,-0.1875 -1.4375,-0.46875 -1.54687,-0.39062 -2.15625,-0.67187 -0.59375,-0.29688 -0.90625,-0.79688 -0.29687,-0.5 -0.29687,-1.10937 0,-0.5625 0.25,-1.03125 0.25,-0.46875 0.6875,-0.78125 0.32812,-0.25 0.89062,-0.40625 0.57813,-0.17188 1.21875,-0.17188 0.98438,0 1.71875,0.28125 0.73438,0.28125 1.07813,0.76563 0.35937,0.46875 0.5,1.28125 l -1.375,0.1875 q -0.0937,-0.64063 -0.54688,-1 -0.45312,-0.35938 -1.26562,-0.35938 -0.96875,0 -1.39063,0.32813 -0.40625,0.3125 -0.40625,0.73437 0,0.28125 0.17188,0.5 0.17187,0.21875 0.53125,0.375 0.21875,0.0781 1.25,0.35938 1.48437,0.39062 2.07812,0.65625 0.59375,0.25 0.92188,0.73437 0.34375,0.48438 0.34375,1.20313 0,0.70312 -0.42188,1.32812 -0.40625,0.60938 -1.1875,0.95313 -0.76562,0.34375 -1.73437,0.34375 -1.625,0 -2.46875,-0.67188 -0.84375,-0.67187 -1.07813,-2 z m 14.23438,-0.1875 1.45312,0.17188 q -0.34375,1.28125 -1.28125,1.98437 -0.92187,0.70313 -2.35937,0.70313 -1.82813,0 -2.89063,-1.125 -1.0625,-1.125 -1.0625,-3.14063 0,-2.09375 1.07813,-3.25 1.07812,-1.15625 2.79687,-1.15625 1.65625,0 2.70313,1.14063 1.0625,1.125 1.0625,3.17187 0,0.125 0,0.375 h -6.1875 q 0.0781,1.375 0.76562,2.10938 0.70313,0.71875 1.73438,0.71875 0.78125,0 1.32812,-0.40625 0.54688,-0.40625 0.85938,-1.29688 z m -4.60938,-2.28125 h 4.625 q -0.0937,-1.04687 -0.53125,-1.5625 -0.67187,-0.8125 -1.73437,-0.8125 -0.96875,0 -1.64063,0.65625 -0.65625,0.64063 -0.71875,1.71875 z m 7.82032,4.95313 v -8.29688 h 1.26562 v 1.25 q 0.48438,-0.875 0.89063,-1.15625 0.40625,-0.28125 0.90625,-0.28125 0.70312,0 1.4375,0.45313 l -0.48438,1.29687 q -0.51562,-0.29687 -1.03125,-0.29687 -0.45312,0 -0.82812,0.28125 -0.35938,0.26562 -0.51563,0.76562 -0.23437,0.75 -0.23437,1.64063 v 4.34375 z"
       fill="#000000" />
    <path
       id="path39"
       fill-rule="nonzero"
       d="m 477.316,305.3075 v -1.04688 q -0.78125,1.23438 -2.3125,1.23438 -1,0 -1.82813,-0.54688 -0.82812,-0.54687 -1.29687,-1.53125 -0.45313,-0.98437 -0.45313,-2.25 0,-1.25 0.40625,-2.25 0.42188,-1.01562 1.25,-1.54687 0.82813,-0.54688 1.85938,-0.54688 0.75,0 1.32812,0.3125 0.59375,0.3125 0.95313,0.82813 v -4.10938 h 1.40625 v 11.45313 z m -4.4375,-4.14063 q 0,1.59375 0.67187,2.39063 0.67188,0.78125 1.57813,0.78125 0.92187,0 1.5625,-0.75 0.65625,-0.76563 0.65625,-2.3125 0,-1.70313 -0.65625,-2.5 -0.65625,-0.79688 -1.625,-0.79688 -0.9375,0 -1.5625,0.76563 -0.625,0.76562 -0.625,2.42187 z m 13.36719,3.10938 q -0.78125,0.67187 -1.5,0.95312 -0.71875,0.26563 -1.54688,0.26563 -1.375,0 -2.10937,-0.67188 -0.73438,-0.67187 -0.73438,-1.70312 0,-0.60938 0.28125,-1.10938 0.28125,-0.51562 0.71875,-0.8125 0.45313,-0.3125 1.01563,-0.46875 0.42187,-0.10937 1.25,-0.20312 1.70312,-0.20313 2.51562,-0.48438 0,-0.29687 0,-0.375 0,-0.85937 -0.39062,-1.20312 -0.54688,-0.48438 -1.60938,-0.48438 -0.98437,0 -1.46875,0.35938 -0.46875,0.34375 -0.6875,1.21875 l -1.375,-0.1875 q 0.1875,-0.875 0.60938,-1.42188 0.4375,-0.54687 1.25,-0.82812 0.8125,-0.29688 1.875,-0.29688 1.0625,0 1.71875,0.25 0.67187,0.25 0.98437,0.625 0.3125,0.375 0.4375,0.95313 0.0781,0.35937 0.0781,1.29687 v 1.875 q 0,1.96875 0.0781,2.48438 0.0937,0.51562 0.35938,1 h -1.46875 q -0.21875,-0.4375 -0.28125,-1.03125 z m -0.10938,-3.14063 q -0.76562,0.3125 -2.29687,0.53125 -0.875,0.125 -1.23438,0.28125 -0.35937,0.15625 -0.5625,0.46875 -0.1875,0.29688 -0.1875,0.65625 0,0.5625 0.42188,0.9375 0.4375,0.375 1.25,0.375 0.8125,0 1.4375,-0.34375 0.64062,-0.35937 0.9375,-0.98437 0.23437,-0.46875 0.23437,-1.40625 z m 6.66406,2.90625 0.20313,1.25 q -0.59375,0.125 -1.0625,0.125 -0.76563,0 -1.1875,-0.23437 -0.42188,-0.25 -0.59375,-0.64063 -0.17188,-0.40625 -0.17188,-1.67187 v -4.76563 h -1.03125 v -1.09375 h 1.03125 v -2.0625 l 1.40625,-0.84375 v 2.90625 h 1.40625 v 1.09375 h -1.40625 v 4.84375 q 0,0.60938 0.0625,0.78125 0.0781,0.17188 0.25,0.28125 0.17188,0.0937 0.48438,0.0937 0.23437,0 0.60937,-0.0625 z m 6.78907,0.23438 q -0.78125,0.67187 -1.5,0.95312 -0.71875,0.26563 -1.54688,0.26563 -1.375,0 -2.10937,-0.67188 -0.73438,-0.67187 -0.73438,-1.70312 0,-0.60938 0.28125,-1.10938 0.28125,-0.51562 0.71875,-0.8125 0.45313,-0.3125 1.01563,-0.46875 0.42187,-0.10937 1.25,-0.20312 1.70312,-0.20313 2.51562,-0.48438 0,-0.29687 0,-0.375 0,-0.85937 -0.39062,-1.20312 -0.54688,-0.48438 -1.60938,-0.48438 -0.98437,0 -1.46875,0.35938 -0.46875,0.34375 -0.6875,1.21875 l -1.375,-0.1875 q 0.1875,-0.875 0.60938,-1.42188 0.4375,-0.54687 1.25,-0.82812 0.8125,-0.29688 1.875,-0.29688 1.0625,0 1.71875,0.25 0.67187,0.25 0.98437,0.625 0.3125,0.375 0.4375,0.95313 0.0781,0.35937 0.0781,1.29687 v 1.875 q 0,1.96875 0.0781,2.48438 0.0937,0.51562 0.35938,1 h -1.46875 q -0.21875,-0.4375 -0.28125,-1.03125 z m -0.10938,-3.14063 q -0.76562,0.3125 -2.29687,0.53125 -0.875,0.125 -1.23438,0.28125 -0.35937,0.15625 -0.5625,0.46875 -0.1875,0.29688 -0.1875,0.65625 0,0.5625 0.42188,0.9375 0.4375,0.375 1.25,0.375 0.8125,0 1.4375,-0.34375 0.64062,-0.35937 0.9375,-0.98437 0.23437,-0.46875 0.23437,-1.40625 z"
       fill="#000000" />
  </g>
</svg>
