<svg
    xmlns="http://www.w3.org/2000/svg" width="76" height="75.996" viewBox="0 0 76 75.996">
    <defs>
        <style>.a{fill:#CC0202;}</style>
    </defs>
    <path class="a" d="M22.167,68.084a1.583,1.583,0,0,1-1.583,1.583h-9.5a4.755,4.755,0,0,1-4.754-4.749v-6.33a1.583,1.583,0,1,1,3.167,0v6.329A1.585,1.585,0,0,0,11.079,66.5h9.5a1.583,1.583,0,0,1,1.589,1.583Zm9.5-43.067A1.583,1.583,0,0,0,30.084,26.6v.322a1.583,1.583,0,0,0,3.167,0V26.6a1.583,1.583,0,0,0-1.583-1.585ZM23.75,9.5H28.5a1.585,1.585,0,0,1,1.583,1.583V19a1.583,1.583,0,0,0,3.167,0V11.083A4.755,4.755,0,0,0,28.5,6.329H23.75a1.583,1.583,0,0,0,0,3.167ZM68.084,55.417A1.583,1.583,0,0,0,66.5,57v7.916A1.585,1.585,0,0,1,64.917,66.5h-4.75a1.583,1.583,0,1,0,0,3.167h4.75a4.755,4.755,0,0,0,4.75-4.75V57a1.583,1.583,0,0,0-1.583-1.583ZM28.5,66.5H28.18a1.583,1.583,0,0,0,0,3.167H28.5a1.583,1.583,0,1,0,0-3.167ZM76,42.75V69.667A6.341,6.341,0,0,1,69.671,76H6.329A6.341,6.341,0,0,1,0,69.667V25.432a1.583,1.583,0,0,1,1.682-1.58l4.763.3a4.367,4.367,0,1,0,0-8.717l-4.763.3A1.583,1.583,0,0,1,0,14.151V6.329A6.341,6.341,0,0,1,6.329,0H33.253a6.341,6.341,0,0,1,6.329,6.329V36.417h9.3l-.192-3.081a7.533,7.533,0,1,1,15.037,0l-.192,3.081h6.133A6.341,6.341,0,0,1,76,42.75ZM3.164,36.421H14.149a1.583,1.583,0,0,1,1.58,1.682l-.3,4.763a4.367,4.367,0,1,0,8.717,0l-.3-4.763a1.583,1.583,0,0,1,1.58-1.682H36.416V6.329a3.17,3.17,0,0,0-3.162-3.162H6.329A3.17,3.17,0,0,0,3.167,6.329v6.133l3.081-.192a7.533,7.533,0,1,1,0,15.037l-3.081-.189ZM38.1,60.269l4.763.3a4.367,4.367,0,1,0,0-8.717l-4.763.3a1.583,1.583,0,0,1-1.682-1.58V39.582h-9.3l.192,3.081a7.533,7.533,0,1,1-15.037,0l.192-3.081h-9.3V69.667a3.17,3.17,0,0,0,3.162,3.169H36.417V61.849a1.583,1.583,0,0,1,1.682-1.58ZM72.836,42.75a3.17,3.17,0,0,0-3.169-3.168H61.849a1.583,1.583,0,0,1-1.58-1.682l.3-4.763a4.367,4.367,0,1,0-8.717,0l.3,4.763a1.583,1.583,0,0,1-1.581,1.682H39.582v9.3l3.081-.192a7.533,7.533,0,1,1,0,15.037l-3.081-.193v9.3H69.667a3.17,3.17,0,0,0,3.169-3.169ZM68.084,47.5A1.583,1.583,0,0,0,66.5,49.083V49.4a1.583,1.583,0,0,0,3.167,0v-.322A1.583,1.583,0,0,0,68.084,47.5Z"/>
</svg>