<?xml version="1.0"?>
<svg xmlns="http://www.w3.org/2000/svg" width="75.745" height="76.634" viewBox="0 0 75.745 76.634">
  <defs>
    <style>.a{fill:#CC0202;}</style>
  </defs>
  <g transform="translate(-2.766)">
    <path class="a" d="M70.6,308.105a4.192,4.192,0,0,0-3.419-.923L41.716,311.61l-7.232-7.232a1.278,1.278,0,0,0-.908-.376H2.766v2.568h10.27v17.973H2.766v2.568H19.455a1.283,1.283,0,0,0,1.284-1.284v-1.284h3.548l13.725,6.863a4.181,4.181,0,0,0,3.99-.127l28.006-16.341a4.194,4.194,0,0,0,.585-6.834ZM18.172,324.542H15.6V306.569h2.568Zm50.545-11.821L40.711,329.06a1.621,1.621,0,0,1-1.548.049l-14-7a1.28,1.28,0,0,0-.575-.136H20.74V306.569H33.047l10.115,10.115a2.348,2.348,0,0,1-3.32,3.32l-6.64-6.64-1.815,1.815,6.64,6.64a4.915,4.915,0,0,0,6.95-6.95l-1.04-1.04,23.678-4.118a1.63,1.63,0,0,1,1.909,1.6,1.636,1.636,0,0,1-.807,1.409Z" transform="translate(0 -255.217)"/>
    <path class="a" d="M28.743,0A17.973,17.973,0,1,0,46.716,17.973,17.993,17.993,0,0,0,28.743,0Zm0,33.379A15.406,15.406,0,1,1,44.149,17.973,15.423,15.423,0,0,1,28.743,33.379Z" transform="translate(-6.72)"/>
    <path class="a" d="M268.743,48a17.973,17.973,0,1,0,17.973,17.973A17.993,17.993,0,0,0,268.743,48Zm0,33.379a15.406,15.406,0,1,1,15.406-15.406A15.423,15.423,0,0,1,268.743,81.379Z" transform="translate(-208.206 -40.297)"/>
    <path class="a" d="M62.623,72a3.851,3.851,0,1,0,3.851,3.851A3.856,3.856,0,0,0,62.623,72Zm0,5.135a1.284,1.284,0,1,1,1.284-1.284A1.284,1.284,0,0,1,62.623,77.135Z" transform="translate(-47.018 -60.446)"/>
    <path class="a" d="M142.621,72a3.851,3.851,0,1,0,3.851,3.851A3.856,3.856,0,0,0,142.621,72Zm0,5.135a1.284,1.284,0,1,1,1.284-1.284A1.284,1.284,0,0,1,142.621,77.135Z" transform="translate(-114.179 -60.446)"/>
    <path class="a" d="M302.621,120a3.851,3.851,0,1,0,3.851,3.851A3.856,3.856,0,0,0,302.621,120Zm0,5.135a1.284,1.284,0,1,1,1.284-1.284A1.284,1.284,0,0,1,302.621,125.135Z" transform="translate(-248.503 -100.743)"/>
    <path class="a" d="M382.621,120a3.851,3.851,0,1,0,3.851,3.851A3.856,3.856,0,0,0,382.621,120Zm0,5.135a1.284,1.284,0,1,1,1.284-1.284A1.284,1.284,0,0,1,382.621,125.135Z" transform="translate(-315.665 -100.743)"/>
    <path class="a" d="M89.189,136a6.426,6.426,0,0,0-6.419,6.419h2.568a3.851,3.851,0,1,1,7.7,0h2.568A6.425,6.425,0,0,0,89.189,136Z" transform="translate(-67.165 -114.175)"/>
    <path class="a" d="M333.04,192a3.851,3.851,0,1,1-7.7,0H322.77a6.419,6.419,0,0,0,12.838,0Z" transform="translate(-268.652 -161.189)"/>
    <rect class="a" width="2.568" height="2.568" transform="translate(54.118)"/>
    <rect class="a" width="2.568" height="2.568" transform="translate(59.254)"/>
    <rect class="a" width="2.568" height="2.568" transform="translate(64.389)"/>
  </g>
</svg>