<svg
    xmlns="http://www.w3.org/2000/svg" width="76" height="74.664" viewBox="0 0 76 74.664">
    <defs>
        <style>.a{fill:#CC0202;}</style>
    </defs>
    <g transform="translate(0.013 -4.486)">
        <path class="a" d="M61.171,254.076a4.773,4.773,0,0,0-6.737-.426L41.623,264.941l-13.588.491,6.066-4.1.015-.01a5.223,5.223,0,0,0-5.95-8.585l-.04.029-13.719,10.2a1.463,1.463,0,0,0-.26.249L.317,280.145a1.464,1.464,0,0,0,.249,2.092l9.522,7.228a1.464,1.464,0,0,0,1.853-.068l6.649-5.86,24.479-7.325a1.462,1.462,0,0,0,.548-.3l17.127-15.1a4.771,4.771,0,0,0,.426-6.736Zm-1.74,3.271a1.832,1.832,0,0,1-.622,1.268L41.923,273.5l-24.479,7.325a1.463,1.463,0,0,0-.548.3L10.9,286.409l-3.148-2.39,3.878-4.76a1.464,1.464,0,0,0-2.27-1.849l-3.942,4.838-1.878-1.425L16.3,265.2,29.85,255.13a2.295,2.295,0,0,1,2.6,3.779l-10.287,6.957a1.464,1.464,0,0,0,.873,2.676l19.211-.694a1.465,1.465,0,0,0,.915-.365l13.2-11.637a1.845,1.845,0,0,1,3.06,1.5Z" transform="translate(0 -210.612)"/>
        <path class="a" d="M154.132,13.005a1.462,1.462,0,0,0-.568-.993l-9.522-7.228a1.464,1.464,0,0,0-1.853.068l-6.648,5.86-24.479,7.325a1.463,1.463,0,0,0-.548.3l-17.127,15.1A4.773,4.773,0,0,0,99.7,40.6l12.811-11.291,13.588-.491-6.066,4.1-.015.01a5.223,5.223,0,0,0,5.95,8.585l.04-.029,13.719-10.2a1.467,1.467,0,0,0,.26-.249L153.813,14.1a1.452,1.452,0,0,0,.322-1.1Zm-16.3,16.039L124.281,39.119a2.295,2.295,0,0,1-2.6-3.779l10.287-6.957a1.464,1.464,0,0,0-.873-2.676L111.88,26.4a1.464,1.464,0,0,0-.915.365L97.761,38.4a1.845,1.845,0,1,1-2.44-2.769L112.209,20.75l24.479-7.325a1.463,1.463,0,0,0,.548-.3l5.991-5.281,7.359,5.586L137.834,29.043Z" transform="translate(-78.158)"/>
        <path class="a" d="M82.4,396.477a1.465,1.465,0,0,0,0,2.928,1.465,1.465,0,0,0,0-2.928Z" transform="translate(-68.975 -333.807)"/>
    </g>
</svg>
