<svg
    xmlns="http://www.w3.org/2000/svg" width="74.668" height="84.221" viewBox="0 0 74.668 84.221">
    <defs>
        <style>.a{fill:#CC0202;}</style>
    </defs>
    <path class="a" d="M96.916,32.317a1.766,1.766,0,0,0,1.751-1.751V14.17a1.907,1.907,0,0,0-1.907-1.751H90.234V6.846a6.846,6.846,0,1,0-13.692,0v5.572H45.814V6.846a6.846,6.846,0,0,0-13.692,0v5.572H25.754A1.766,1.766,0,0,0,24,14.17v16.4a1.766,1.766,0,0,0,1.751,1.749h7.164v5.89H25.751A1.766,1.766,0,0,0,24,39.961v16.4a1.766,1.766,0,0,0,1.751,1.751h7.164V80.718H30.527a1.751,1.751,0,1,0,0,3.5h8.437a1.751,1.751,0,1,0,0-3.5H36.577V58.111H85.138V80.718h-2.39a1.751,1.751,0,0,0,0,3.5h8.437a1.751,1.751,0,0,0,0-3.5H88.8V58.111h8.12a1.766,1.766,0,0,0,1.751-1.751v-16.4a1.766,1.766,0,0,0-1.751-1.751H88.8V32.317ZM91.185,16.08,80.518,28.821h-6.05l10.67-12.74ZM85.138,32.317v5.89H36.577v-5.89ZM80.359,6.846a3.184,3.184,0,1,1,6.368,0v5.572H80.359Zm0,9.074L69.693,28.658h-6.05L74.309,15.92Zm-10.826,0L58.867,28.658H52.821L63.488,15.921Zm-10.826,0L48.04,28.658H42.15L52.658,15.921ZM35.782,6.846a3.184,3.184,0,0,1,6.368,0v5.572H35.782ZM27.5,15.92h9.711L27.5,27.543Zm3.821,12.736L41.991,15.92h6.05L37.373,28.658ZM27.5,41.712h9.711L27.5,53.334Zm3.821,12.9L41.991,41.872h6.05L37.373,54.608Zm10.826,0L52.821,41.872h6.05L48.2,54.608Zm10.826,0L63.642,41.872h6.05L59.026,54.608Zm10.826,0L74.468,41.872h5.891L69.851,54.608Zm31.2,0H85.295l9.711-11.623Zm-3.821-12.9L80.518,54.449h-6.05l10.67-12.737Zm-5.89-12.891L95.006,17.2V28.821Z" transform="translate(-24)"/>
</svg>