<svg id="logo" xmlns="http://www.w3.org/2000/svg" width="280.968" height="36" viewBox="0 0 280.968 36">
  <path id="Path_1791" data-name="Path 1791" d="M64.792,48.76a11.056,11.056,0,0,1,.385,2.251c0,3.111-3.5,4.838-8.1,4.838-10.394.007-19.5-6.082-19.5-10.107a4.1,4.1,0,0,1,.336-1.629l.814-2.013a1.428,1.428,0,0,0-.049.422c0,2.049,8.069,8.767,18.88,8.767,2.781,0,6.8-.573,6.8-3.88a3.11,3.11,0,0,0-.069-.76Z" transform="translate(-29.338 -28.855)"/>
  <path id="Path_1792" data-name="Path 1792" d="M28.723,18.942c2.781,0,6.8-.573,6.8-3.88a3.11,3.11,0,0,0-.069-.76L33.8,7.111c-.382-1.582-.718-2.3-3.5-3.689C28.149,2.32,23.453.5,22.063.5c-1.294,0-1.669,1.667-3.212,1.667-1.485,0-2.587-1.244-3.977-1.244-1.334,0-2.2.909-2.874,2.778,0,0-1.869,5.271-2.109,6.036a1.429,1.429,0,0,0-.049.431c0,2.049,8.069,8.767,18.88,8.767M35.954,16.4a11.055,11.055,0,0,1,.385,2.251c0,3.111-3.5,4.838-8.1,4.838-10.394.007-19.5-6.082-19.5-10.107a4.1,4.1,0,0,1,.336-1.629C5.339,11.944.5,12.611.5,16.882c0,7,16.58,15.618,29.708,15.618,10.065,0,12.6-4.551,12.6-8.144,0-2.827-2.445-6.036-6.853-7.951" transform="translate(-0.5 3.5)" fill="#e00"/>
  <path id="Path_1793" data-name="Path 1793" d="M1.54,0H3.08V-6.02H7.56l3,6.02h1.7L9.12-6.22A3.836,3.836,0,0,0,12.1-9.98C12.1-12.4,10.28-14,7.54-14h-6Zm5.9-12.62c1.88,0,3.12,1.04,3.12,2.64,0,1.62-1.24,2.66-3.12,2.66H3.08v-5.3ZM22-1.06l-.92-.98a4.366,4.366,0,0,1-2.76.92,3.765,3.765,0,0,1-3.76-3.44h8.22v-.46a4.917,4.917,0,0,0-1.29-3.572,4.917,4.917,0,0,0-3.45-1.588,5.014,5.014,0,0,0-3.55,1.546A5.014,5.014,0,0,0,13.1-5.02a5.106,5.106,0,0,0,1.481,3.691A5.106,5.106,0,0,0,18.26.18,5.931,5.931,0,0,0,22-1.06ZM18-8.88a3.488,3.488,0,0,1,3.3,3.14H14.6A3.486,3.486,0,0,1,18-8.88ZM32.68,0h1.46V-14.34L32.66-14v4.96a5.051,5.051,0,0,0-3.2-1.14,5.038,5.038,0,0,0-3.621,1.511A5.038,5.038,0,0,0,24.4-5.02a5.051,5.051,0,0,0,1.429,3.651A5.051,5.051,0,0,0,29.44.16a4.656,4.656,0,0,0,3.24-1.22ZM25.86-5.04A3.7,3.7,0,0,1,26.9-7.755,3.7,3.7,0,0,1,29.58-8.88,3.961,3.961,0,0,1,32.66-7.5v4.96a3.884,3.884,0,0,1-3.08,1.4A3.756,3.756,0,0,1,26.9-2.3,3.756,3.756,0,0,1,25.86-5.04ZM41.24,0h1.54V-6.36h8.14V0h1.54V-14H50.92v6.26H42.78V-14H41.24ZM58.22.18A4.773,4.773,0,0,0,61.46-.98V0H62.9V-6.74c0-2.24-1.42-3.48-3.96-3.48a8.511,8.511,0,0,0-3.84,1l.56,1.14a6.645,6.645,0,0,1,3.14-.88c1.74,0,2.66.82,2.66,2.42v1.32a6.492,6.492,0,0,0-2.94-.68c-2.46,0-4,1.18-4,3.06C54.52-1.04,56.02.18,58.22.18ZM55.94-2.88c0-1.18,1.02-1.94,2.62-1.94a4.9,4.9,0,0,1,2.9.8v1.88A3.993,3.993,0,0,1,58.48-.98C56.98-.98,55.94-1.76,55.94-2.88Zm10.28.64c0,1.58.96,2.42,2.7,2.42a5.681,5.681,0,0,0,1.76-.26v-1.3a3.573,3.573,0,0,1-1.46.26c-1.1,0-1.54-.42-1.54-1.5V-8.76H70.7v-1.26H67.68v-2.92l-1.46.38v2.54H64.06v1.26h2.16ZM90.86-7a7.25,7.25,0,0,0-2.194-5.168A7.25,7.25,0,0,0,83.44-14.22a7.245,7.245,0,0,0-5.215,2.058A7.245,7.245,0,0,0,76.04-7a7.245,7.245,0,0,0,2.185,5.162A7.245,7.245,0,0,0,83.44.22a7.25,7.25,0,0,0,5.226-2.052A7.25,7.25,0,0,0,90.86-7ZM87.88-7a4.421,4.421,0,0,1-1.251,3.223A4.421,4.421,0,0,1,83.44-2.44a4.417,4.417,0,0,1-3.177-1.343A4.417,4.417,0,0,1,79.02-7a4.4,4.4,0,0,1,1.238-3.222A4.4,4.4,0,0,1,83.44-11.56a4.409,4.409,0,0,1,3.193,1.333A4.409,4.409,0,0,1,87.88-7Zm4.78,7H95.4V-7.22a2.5,2.5,0,0,1,2.14-1.04,2.032,2.032,0,0,1,1.577.6A2.032,2.032,0,0,1,99.7-6.08V0h2.74V-6.48a3.953,3.953,0,0,0-1.146-2.979A3.953,3.953,0,0,0,98.32-10.62,4.473,4.473,0,0,0,95.4-9.6v-.82H92.66Zm21.2-1.3-1.8-1.64a3.28,3.28,0,0,1-2.3.84,3,3,0,0,1-2.96-2.18h7.76V-5c0-3.2-2.2-5.6-5.16-5.6a5.319,5.319,0,0,0-3.817,1.572A5.319,5.319,0,0,0,104.04-5.2,5.425,5.425,0,0,0,105.7-1.317,5.425,5.425,0,0,0,109.64.2a6.246,6.246,0,0,0,4.22-1.5Zm-4.52-7.04a2.688,2.688,0,0,1,2.54,2.1h-5.1a2.617,2.617,0,0,1,2.56-2.1Zm26.3-6.26-2.74.6V0h2.74ZM141.08.18a4.952,4.952,0,0,0,3.02-.9V0h2.7V-6.76c0-2.46-1.62-3.86-4.44-3.86a10.865,10.865,0,0,0-4.64,1.12l1,2.02a8.075,8.075,0,0,1,3.18-.86c1.46,0,2.2.62,2.2,1.82v.74a8.427,8.427,0,0,0-2.54-.4c-2.68,0-4.28,1.18-4.28,3.16C137.28-1.12,138.84.18,141.08.18ZM139.9-3.08c0-.8.74-1.3,2-1.3a6.054,6.054,0,0,1,2.2.38v1.56a3.945,3.945,0,0,1-2.3.66C140.64-1.78,139.9-2.28,139.9-3.08Zm10,.14c0,2.04,1.2,3.1,3.52,3.1a8.5,8.5,0,0,0,2.12-.32V-2.4a4.215,4.215,0,0,1-1.46.24c-1.06,0-1.44-.36-1.44-1.34V-8.12h2.96v-2.3h-2.96V-13.7l-2.74.62v2.66h-2.14v2.3h2.14Zm6.54-7.48v2.3h2.32V0h2.74V-8.12h2.84v-2.3H161.5v-.94c0-.92.52-1.36,1.56-1.36a6.05,6.05,0,0,1,1.28.16v-2.3a6.692,6.692,0,0,0-1.62-.18c-2.56,0-3.96,1.28-3.96,3.62v1ZM165-5.2a5.415,5.415,0,0,0,1.642,3.871A5.415,5.415,0,0,0,170.56.2a5.415,5.415,0,0,0,3.918-1.529A5.415,5.415,0,0,0,176.12-5.2a5.431,5.431,0,0,0-1.64-3.879,5.431,5.431,0,0,0-3.92-1.541,5.431,5.431,0,0,0-3.92,1.541A5.431,5.431,0,0,0,165-5.2Zm5.56,3.02a2.926,2.926,0,0,1-2.073-.906A2.926,2.926,0,0,1,167.68-5.2a2.932,2.932,0,0,1,.8-2.125,2.932,2.932,0,0,1,2.079-.915,2.919,2.919,0,0,1,2.083.911,2.919,2.919,0,0,1,.8,2.129,2.926,2.926,0,0,1-.807,2.114,2.926,2.926,0,0,1-2.073.906ZM177.8,0h2.74V-6.74a2.758,2.758,0,0,1,2.52-1.56,3.5,3.5,0,0,1,1.4.28v-2.4a2.361,2.361,0,0,0-1.14-.24,3.315,3.315,0,0,0-2.78,1.38v-1.14H177.8Zm8.14,0h2.74V-7.32a2.326,2.326,0,0,1,1.94-.94,1.945,1.945,0,0,1,1.476.644,1.945,1.945,0,0,1,.484,1.536V0h2.74V-6.48a4.43,4.43,0,0,0-.06-.74,2.346,2.346,0,0,1,2-1.04,1.945,1.945,0,0,1,1.476.644,1.945,1.945,0,0,1,.484,1.536V0h2.74V-6.48a3.887,3.887,0,0,0-1.077-2.948,3.887,3.887,0,0,0-2.9-1.192,4.287,4.287,0,0,0-3.44,1.56,3.741,3.741,0,0,0-3.14-1.56,4.053,4.053,0,0,0-2.72.98v-.78h-2.74Z" transform="translate(79 28.5)"/>
  <line id="Line_286" data-name="Line 286" y2="36" transform="translate(59.5)" fill="none" stroke="#d2d2d2" stroke-width="1"/>
  <text id="P" transform="translate(197 28.5)" font-size="20" font-family="RedHatDisplay-Bold, Red Hat Display" font-weight="700"><tspan x="0" y="0">P</tspan></text>
</svg>
