<svg width="331" height="181" viewBox="0 0 331 181" fill="none" xmlns="http://www.w3.org/2000/svg">
<rect y="20" width="147" height="156" rx="8" fill="black" fill-opacity="0.25"/>
<rect y="36" width="147" height="140" rx="8" fill="black" fill-opacity="0.25"/>
<rect x="240" width="71" height="50" fill="white"/>
<rect x="180" y="69" width="71" height="50" fill="white"/>
<rect x="260" y="131" width="71" height="50" fill="white"/>
<g clip-path="url(#clip0_223_212)">
<path d="M62.823 117.554L65.8438 113.779L56.1192 106L65.8438 98.2208L62.823 94.4459L50.7397 104.113C50.4565 104.339 50.228 104.626 50.0709 104.953C49.9138 105.28 49.8323 105.637 49.8323 106C49.8323 106.363 49.9138 106.72 50.0709 107.047C50.228 107.374 50.4565 107.661 50.7397 107.887L62.823 117.554ZM85.1772 94.4459L82.1563 98.2208L91.881 106L82.1563 113.779L85.1772 117.554L97.2605 107.887C97.5436 107.661 97.7722 107.374 97.9292 107.047C98.0863 106.72 98.1679 106.363 98.1679 106C98.1679 105.637 98.0863 105.28 97.9292 104.953C97.7722 104.626 97.5436 104.339 97.2605 104.113L85.1772 94.4459ZM81.1921 84.772L71.5254 128.272L66.8057 127.223L76.4723 83.7232L81.1921 84.772Z" fill="white"/>
</g>
<defs>
<clipPath id="clip0_223_212">
<rect width="58" height="58" fill="white" transform="translate(45 77)"/>
</clipPath>
</defs>
</svg>
